<svg width="42" height="55" viewBox="0 0 42 55" fill="none" xmlns="http://www.w3.org/2000/svg">
<path d="M8.78906 45.8359C8.21094 46.2578 7.54688 46.4688 6.79688 46.4688C6.0625 46.4688 5.47656 46.2812 5.03906 45.9062C4.58594 45.5156 4.35938 45.0703 4.35938 44.5703C4.35938 44.0703 4.4375 43.7031 4.59375 43.4688C5.04688 43.7344 5.60156 43.8672 6.25781 43.8672C6.92969 43.8672 7.42969 43.7812 7.75781 43.6094C8.10156 43.4219 8.42969 43.1719 8.74219 42.8594L12.0703 32.9922L12.5391 31.375C12.6797 30.8906 12.75 30.4453 12.75 30.0391C12.75 28.6172 12.0781 27.7109 10.7344 27.3203C11.9688 26.8516 12.8359 26.3438 13.3359 25.7969C14.1172 24.9375 14.7344 23.8047 15.1875 22.3984L17.7656 13.75C17.2656 13.0781 16.6719 12.7422 15.9844 12.7422C15.2969 12.7422 14.6562 12.8906 14.0625 13.1875C13.9062 12.9062 13.8281 12.5938 13.8281 12.25C13.8281 11.8906 13.8984 11.5547 14.0391 11.2422C14.1953 10.9297 14.4062 10.6562 14.6719 10.4219C15.2656 9.92188 16.1094 9.67188 17.2031 9.67188C18.2969 9.67188 19.2266 10 19.9922 10.6562C20.7734 10 21.7422 9.67188 22.8984 9.67188C24.0703 9.67188 25 9.98437 25.6875 10.6094C26.6875 9.98437 27.7031 9.67188 28.7344 9.67188C29.7656 9.67188 30.5625 9.86719 31.125 10.2578C31.7031 10.6484 31.9922 11.1797 31.9922 11.8516C31.9922 12.1641 31.8984 12.4375 31.7109 12.6719C31.3516 12.4063 30.9297 12.2734 30.4453 12.2734C29.3984 12.2734 28.7188 12.9844 28.4062 14.4062L31.4062 23.9922C31.7812 25.1953 32.7188 26.1328 34.2188 26.8047C34.6406 26.9922 35.0703 27.1641 35.5078 27.3203C33.9453 27.8359 33.1641 28.6094 33.1641 29.6406C33.1641 30.0312 33.2266 30.375 33.3516 30.6719L37.8281 42.6719C38.5156 43.3906 39.2109 43.75 39.9141 43.75C40.6172 43.75 41.1641 43.6172 41.5547 43.3516C41.7266 43.4766 41.8125 43.7109 41.8125 44.0547C41.8125 44.3984 41.7578 44.7188 41.6484 45.0156C41.5391 45.2969 41.3672 45.5469 41.1328 45.7656C40.6328 46.2344 39.8984 46.4688 38.9297 46.4688C37.9609 46.4688 37.1172 46.2031 36.3984 45.6719C35.5859 46.2031 34.6641 46.4688 33.6328 46.4688C32.6172 46.4688 31.7422 46.2109 31.0078 45.6953C30.3047 46.2109 29.4766 46.4688 28.5234 46.4688C27.5703 46.4688 26.7812 46.2734 26.1562 45.8828C25.5312 45.4766 25.2031 44.9062 25.1719 44.1719C25.1719 43.7344 25.2578 43.4609 25.4297 43.3516C25.8516 43.6172 26.2812 43.75 26.7188 43.75C27.6406 43.75 28.2891 43.5625 28.6641 43.1875L26.8828 37.2109H14.2031L12.6562 42.3906C13.2969 43.375 14.0703 43.8672 14.9766 43.8672C15.8984 43.8672 16.5859 43.7344 17.0391 43.4688C17.2109 43.75 17.2969 44.1406 17.2969 44.6406C17.2969 45.125 17.0547 45.5547 16.5703 45.9297C16.0859 46.2891 15.4609 46.4688 14.6953 46.4688C13.9297 46.4688 13.2266 46.2734 12.5859 45.8828C12.0234 46.2734 11.375 46.4688 10.6406 46.4688C9.92188 46.4688 9.30469 46.2578 8.78906 45.8359ZM25.9219 34.0469L20.4844 15.9766L15.1406 34.0469H25.9219ZM30.3984 39.7891C30.6797 39.7891 30.8203 39.4766 30.8203 38.8516C30.8203 37.7578 30.6562 36.6953 30.3281 35.6641L29.4375 32.9219C28.8125 30.8594 28.5 29.5625 28.5 29.0312C28.4844 28.1562 28.8672 27.5781 29.6484 27.2969C28.5703 27.0781 27.9141 26.7422 27.6797 26.2891C27.5703 26.1016 27.4766 25.9531 27.3984 25.8438C27.3359 25.7344 27.2656 25.6094 27.1875 25.4688C27.125 25.3125 27.0469 25.1172 26.9531 24.8828C26.8594 24.6484 26.7344 24.3125 26.5781 23.875L25.125 19.4922C24.7812 18.3984 24.2734 17.5703 23.6016 17.0078C23.3984 16.8359 23.2109 16.7344 23.0391 16.7031C24.0859 20.4844 24.7734 22.9062 25.1016 23.9688C27.3672 30.9375 28.7266 35.0703 29.1797 36.3672L30.3984 39.7891ZM37.3125 41.8984L37.3594 42.0391L37.3125 41.8984Z" fill="black"/>
<rect x="1.5" y="1.5" width="39" height="52" stroke="black" stroke-width="3"/>
</svg>
