<svg width="46" height="58" viewBox="0 0 46 58" fill="none" xmlns="http://www.w3.org/2000/svg">
<g clip-path="url(#clip0)">
<path d="M45.5911 37.0647C45.3356 36.8586 45.0289 36.807 44.7222 36.9101C43.4956 37.2708 42.1667 37.2708 40.94 37.0132C40.7356 36.9616 40.5311 36.9101 40.3267 36.9101C39.0489 36.6524 38.2311 36.1371 36.4933 34.9518L36.0844 34.6941C32.3022 31.602 27.2422 31.1897 23.1533 33.7664H23L22.8978 33.6634C21.4667 32.7357 19.8822 32.2204 18.2467 32.0658L16.6111 28.0976C18.6556 24.9539 18.7067 19.6974 16.6111 14.6469C14.4133 9.33882 10.3756 5.47369 6.54222 5.00987C6.18444 4.95834 5.82667 5.11294 5.62222 5.37062C4.19111 7.17435 3.52667 9.95724 3.73111 13.1009C3.78222 13.6162 4.14 13.977 4.65111 14.0285L5.57111 14.1316L4.49778 15.4715C4.29333 15.7292 4.24222 16.0384 4.29333 16.3476C4.54889 17.3268 4.85556 18.3059 5.26444 19.2336C7.30889 24.2325 11.04 27.9945 14.72 28.7675L15.9978 31.9627C13.8511 32.1689 11.7556 33.045 9.91556 34.5395L9.50667 34.7971C7.76889 35.9825 6.95111 36.4978 5.67333 36.7555C5.41778 36.807 5.21333 36.8586 5.06 36.8586C3.83333 37.1162 2.50444 37.1162 1.27778 36.7555C0.971111 36.6524 0.664445 36.7555 0.408889 36.9101C0.153333 37.2193 0 37.5285 0 37.8377V48.9693C0 49.5362 0.46 50 1.02222 50H44.9778C45.54 50 46 49.5362 46 48.9693V37.8377C46 37.5285 45.8467 37.2193 45.5911 37.0647ZM14.9756 26.8607C12.0622 26.1908 8.94444 22.8925 7.15556 18.6151C6.84889 17.9452 6.64444 17.2237 6.44 16.5022L8.33111 14.08C8.58667 13.7708 8.63778 13.4101 8.48445 13.0493C8.33111 12.6886 8.02444 12.4825 7.66667 12.4309L5.82667 12.2248C5.82667 10.2149 6.18444 8.46272 6.95111 7.22588C9.86444 7.89584 12.9822 11.1941 14.7711 15.4715C16.56 19.7489 16.56 24.284 14.9756 26.8607ZM21.9778 47.9901H10.6311C10.6822 47.9901 10.7333 47.9386 10.7333 47.8871L11.0911 47.6294C11.1422 47.6294 11.1422 47.5779 11.1933 47.5779C14.3111 45.0011 18.4 44.6404 21.8244 46.7533L21.9778 46.8564V47.9901ZM21.9778 44.5373C18.0422 42.5789 13.4422 43.0943 9.96667 45.9803L9.66 46.1864C8.28 47.114 7.46222 47.6809 6.54222 47.9901H2.04444V39.1261C3.22 39.2807 4.39556 39.2292 5.52 39.023C5.67333 38.9715 5.87778 38.9715 6.08222 38.92C7.76889 38.6107 8.89333 37.8893 10.7333 36.6524L11.1422 36.3432C11.1933 36.3432 11.1933 36.2917 11.2444 36.2917C14.3622 33.6634 18.4511 33.3542 21.8756 35.4671L22.0289 35.5702V44.5373H21.9778ZM24.0222 47.9901V46.9079L24.1756 46.8048C27.6 44.6919 31.6378 45.0011 34.8067 47.6294C34.8067 47.6294 34.8578 47.6809 34.9089 47.6809L35.2667 47.9386C35.3178 47.9386 35.3689 47.9901 35.3689 48.0417H24.0222V47.9901ZM43.9556 47.9901H39.5089C38.5889 47.6809 37.7711 47.114 36.3911 46.1864L36.0333 45.9803C32.5578 43.0943 27.9578 42.5789 24.0222 44.5373V35.5702L24.1756 35.4671C27.6 33.3542 31.6378 33.6634 34.8067 36.2917C34.8067 36.2917 34.8578 36.3432 34.9089 36.3432L35.3689 36.6524C37.1578 37.8893 38.2822 38.6107 39.9689 38.92C40.1733 38.9715 40.3267 38.9715 40.5311 39.023C41.6556 39.2807 42.8311 39.3322 44.0067 39.1261V47.9901H43.9556Z" fill="#00EDD3" stroke="#00EDD3"/>
</g>
<defs>
<clipPath id="clip0">
<rect width="46" height="58" fill="white"/>
</clipPath>
</defs>
</svg>
