<svg width="42" height="57" viewBox="0 0 42 57" fill="none" xmlns="http://www.w3.org/2000/svg">
<path d="M29.2656 41.9453C29.8906 41.4141 30.3828 40.7266 30.7422 39.8828C31.1172 39.0391 31.3047 38.1562 31.3047 37.2344C31.3047 36.2969 31.125 35.5703 30.7656 35.0547C31.0156 34.6172 31.5391 34.3984 32.3359 34.3984C33.1328 34.3984 33.7422 34.6562 34.1641 35.1719C34.6016 35.6875 34.8203 36.4844 34.8203 37.5625C34.8203 38.625 34.5312 39.7344 33.9531 40.8906C33.3906 42.0312 32.5938 43.0312 31.5625 43.8906C29.2812 45.7656 26.4297 46.7031 23.0078 46.7031C18.9297 46.7031 15.5781 45.4219 12.9531 42.8594C10.2812 40.2344 8.67188 36.4922 8.125 31.6328C7.85938 29.4141 7.0625 27.9766 5.73438 27.3203C6.46875 26.9766 6.97656 26.6172 7.25781 26.2422C7.71094 25.6016 8 24.7344 8.125 23.6406C8.26562 22.5312 8.52344 21.3828 8.89844 20.1953C9.27344 19.0078 9.76562 17.8828 10.375 16.8203C11 15.7422 11.7422 14.7578 12.6016 13.8672C13.4609 12.9609 14.4453 12.1797 15.5547 11.5234C17.8984 10.1328 20.6328 9.4375 23.7578 9.4375C26.8047 9.4375 29.3281 10.2031 31.3281 11.7344C33.125 13.125 34.2891 15.0156 34.8203 17.4062C35.0703 18.5938 35.3906 19.3281 35.7812 19.6094C35.9375 19.7344 36.1328 19.8516 36.3672 19.9609C35.8984 20.7422 35.1875 21.1719 34.2344 21.25C33.8125 21.3125 33.3594 21.2266 32.875 20.9922C32.0156 22.4609 30.8047 23.2422 29.2422 23.3359C28.9141 23.3672 28.6641 23.3047 28.4922 23.1484C28.9141 22.5859 29.1094 21.9297 29.0781 21.1797C29.0781 21.0391 29.0547 20.8984 29.0078 20.7578C28.2891 20.8984 27.6797 20.8359 27.1797 20.5703C26.3672 20.1016 25.9453 19.5938 25.9141 19.0469C25.9141 18.9219 25.9375 18.7969 25.9844 18.6719C26.9531 18.9531 27.875 18.7344 28.75 18.0156C29.3438 17.5312 29.625 16.9844 29.5938 16.375C29.5625 15.7656 29.4219 15.2344 29.1719 14.7812C28.9219 14.3281 28.5625 13.9219 28.0938 13.5625C27.0312 12.7188 25.7031 12.2969 24.1094 12.2969C21.3906 12.2969 19.625 13.5156 18.8125 15.9531C18.5469 16.7656 18.4141 17.7188 18.4141 18.8125V23.5469C18.4141 25.3125 19.2734 26.5703 20.9922 27.3203C19.2734 28.1484 18.4141 29.5 18.4141 31.375V37.1641C18.4141 40.1328 19.5938 42.0938 21.9531 43.0469C22.7188 43.3438 23.5625 43.4922 24.4844 43.4922C25.4062 43.4922 26.2734 43.3672 27.0859 43.1172C27.9141 42.8672 28.6406 42.4766 29.2656 41.9453ZM13.4453 39.7891C13.6797 39.6953 13.7969 39.5312 13.7969 39.2969C13.7969 38.9531 13.6328 38.4141 13.3047 37.6797C12.4766 35.7891 12.0625 32.3359 12.0625 27.3203C12.0625 23.6641 12.5 20.5547 13.375 17.9922C13.4844 17.6016 13.5391 17.3047 13.5391 17.1016C13.5391 16.8984 13.4375 16.7656 13.2344 16.7031C12.5 17.625 11.9766 18.5391 11.6641 19.4453C11.0859 21.1016 10.625 23.3438 10.2812 26.1719C10.2344 26.5781 9.77344 26.9609 8.89844 27.3203C9.77344 27.7109 10.2344 28.1094 10.2812 28.5156C10.8438 33.3594 11.5625 36.5938 12.4375 38.2188C12.7344 38.7969 13.0703 39.3203 13.4453 39.7891Z" fill="black"/>
<rect x="1.5" y="1.5" width="39" height="54" stroke="black" stroke-width="3"/>
</svg>
