<svg width="46" height="58" viewBox="0 0 46 58" fill="none" xmlns="http://www.w3.org/2000/svg">
<g clip-path="url(#clip0)">
<path d="M41.2281 22.2256H28.5246V12.7579C28.5185 11.514 28.0138 10.323 27.1207 9.44475C26.2276 8.56648 25.0186 8.07223 23.7574 8.06982H4.77192C3.50992 8.07102 2.29968 8.56474 1.40556 9.44313C0.511452 10.3215 0.00613757 11.5132 0 12.7579V28.0822C0.00123016 29.33 0.50438 30.5264 1.39902 31.4088C2.29366 32.2911 3.50671 32.7874 4.77192 32.7886H6.81636V37.6782C6.81595 37.9051 6.88386 38.127 7.01147 38.3158C7.13908 38.5046 7.32065 38.6518 7.53317 38.7386C7.74568 38.8255 7.97956 38.8482 8.20517 38.8038C8.43078 38.7595 8.63794 38.65 8.8004 38.4894L14.5899 32.7886H17.4754V42.2563C17.4766 43.5041 17.9797 44.7005 18.8744 45.5829C19.769 46.4652 20.9821 46.9615 22.2473 46.9627H31.4101L37.1996 52.6635C37.3621 52.8241 37.5692 52.9336 37.7948 52.9779C38.0204 53.0223 38.2543 52.9996 38.4668 52.9127C38.6793 52.8259 38.8609 52.6787 38.9885 52.4899C39.1161 52.3011 39.184 52.0792 39.1836 51.8523V46.9627H41.2281C42.4933 46.9615 43.7063 46.4652 44.601 45.5829C45.4956 44.7005 45.9988 43.5041 46 42.2563V26.932C45.9988 25.6841 45.4956 24.4877 44.601 23.6054C43.7063 22.723 42.4933 22.2268 41.2281 22.2256ZM14.1067 30.4743C13.954 30.4741 13.8028 30.5035 13.6617 30.5609C13.5206 30.6183 13.3923 30.7026 13.2842 30.8089L9.1396 34.892V31.6429C9.1396 31.3391 9.01721 31.0477 8.79937 30.8328C8.58152 30.618 8.28606 30.4973 7.97798 30.4973H4.77192C4.45035 30.4973 4.13194 30.4348 3.83485 30.3134C3.53776 30.1921 3.26782 30.0142 3.04044 29.7899C2.81305 29.5656 2.63269 29.2994 2.50963 29.0064C2.38657 28.7134 2.32323 28.3994 2.32323 28.0822V12.7579C2.32814 12.1205 2.58829 11.511 3.04697 11.062C3.50566 10.613 4.12569 10.3611 4.77192 10.3611H23.7574C24.4068 10.3611 25.0296 10.6156 25.4889 11.0685C25.9481 11.5214 26.2061 12.1357 26.2061 12.7762V22.2256H22.2426C20.9782 22.228 19.7664 22.7248 18.8727 23.607C17.9791 24.4892 17.4766 25.6849 17.4754 26.932V30.4973L14.1067 30.4743ZM43.6768 42.2563C43.6755 42.8964 43.4172 43.51 42.9582 43.9627C42.4993 44.4153 41.8771 44.6701 41.2281 44.6714H38.022C37.7139 44.6714 37.4185 44.7921 37.2006 45.0069C36.9828 45.2218 36.8604 45.5132 36.8604 45.817V49.089L32.7158 45.0059C32.6077 44.8996 32.4794 44.8153 32.3383 44.7579C32.1972 44.7005 32.046 44.6711 31.8933 44.6714H22.2473C21.5982 44.6701 20.9761 44.4153 20.5171 43.9627C20.0582 43.51 19.7998 42.8964 19.7986 42.2563V26.932C19.7986 26.2915 20.0566 25.6772 20.5158 25.2243C20.975 24.7714 21.5978 24.5169 22.2473 24.5169H41.2281C41.8775 24.5169 42.5003 24.7714 42.9596 25.2243C43.4188 25.6772 43.6768 26.2915 43.6768 26.932V42.2563Z" fill="#00EDD3"/>
<path d="M18.9319 16.9615C18.8295 16.8558 18.7079 16.7719 18.574 16.7146C18.44 16.6574 18.2965 16.6279 18.1515 16.6279C18.0065 16.6279 17.8629 16.6574 17.729 16.7146C17.595 16.7719 17.4734 16.8558 17.371 16.9615L13.0894 21.3712L11.5197 19.759C11.3127 19.5446 11.0315 19.4237 10.7379 19.4228C10.4443 19.422 10.1625 19.5413 9.9543 19.7545C9.74614 19.9677 9.62873 20.2573 9.6279 20.5596C9.62708 20.862 9.7429 21.1523 9.94989 21.3667L12.2957 23.7827C12.3981 23.8885 12.5198 23.9724 12.6537 24.0296C12.7876 24.0868 12.9312 24.1163 13.0762 24.1163C13.2212 24.1163 13.3648 24.0868 13.4987 24.0296C13.6326 23.9724 13.7543 23.8885 13.8567 23.7827L18.9319 18.5692C19.0346 18.4637 19.1161 18.3384 19.1716 18.2005C19.2272 18.0625 19.2558 17.9147 19.2558 17.7653C19.2558 17.616 19.2272 17.4681 19.1716 17.3302C19.1161 17.1922 19.0346 17.067 18.9319 16.9615Z" fill="#00EDD3"/>
<path d="M27.2816 31.082C27.6084 31.0834 27.9215 31.223 28.1526 31.4703C28.3837 31.7176 28.5141 32.0527 28.5154 32.4024C28.5154 32.7583 28.6475 33.0997 28.8827 33.3513C29.1178 33.603 29.4368 33.7443 29.7693 33.7443C30.1019 33.7443 30.4208 33.603 30.656 33.3513C30.8911 33.0997 31.0233 32.7583 31.0233 32.4024C31.0233 31.3397 30.6288 30.3206 29.9266 29.5691C29.2244 28.8177 28.2721 28.3955 27.2791 28.3955C26.286 28.3955 25.3337 28.8177 24.6315 29.5691C23.9294 30.3206 23.5349 31.3397 23.5349 32.4024C23.5349 32.7583 23.667 33.0997 23.9021 33.3513C24.1373 33.603 24.4562 33.7443 24.7888 33.7443C25.1214 33.7443 25.4403 33.603 25.6754 33.3513C25.9106 33.0997 26.0427 32.7583 26.0427 32.4024C26.044 32.0517 26.1751 31.7159 26.4073 31.4684C26.6395 31.2209 26.9539 31.082 27.2816 31.082Z" fill="#00EDD3"/>
<path d="M36.3742 28.3955C35.5232 28.3955 34.7071 28.8174 34.1049 29.5686C33.5028 30.3198 33.1639 31.3387 33.1628 32.4018C33.1628 32.7578 33.276 33.0993 33.4776 33.3511C33.6791 33.6029 33.9525 33.7443 34.2376 33.7443C34.5226 33.7443 34.796 33.6029 34.9976 33.3511C35.1991 33.0993 35.3123 32.7578 35.3123 32.4018C35.3123 32.0507 35.424 31.714 35.6227 31.4657C35.8215 31.2175 36.091 31.078 36.3721 31.078C36.6531 31.078 36.9227 31.2175 37.1214 31.4657C37.3202 31.714 37.4318 32.0507 37.4318 32.4018C37.4318 32.7578 37.5451 33.0993 37.7466 33.3511C37.9482 33.6029 38.2216 33.7443 38.5066 33.7443C38.7917 33.7443 39.065 33.6029 39.2666 33.3511C39.4682 33.0993 39.5814 32.7578 39.5814 32.4018C39.5802 31.3397 39.242 30.3215 38.6408 29.5705C38.0396 28.8195 37.2245 28.3969 36.3742 28.3955Z" fill="#00EDD3"/>
<path d="M36.7872 35.9999C36.5128 35.868 36.1977 35.8515 35.9113 35.954C35.6248 36.0566 35.3903 36.2697 35.2593 36.5467C34.928 37.2549 34.4043 37.8535 33.7492 38.2727C33.0941 38.6919 32.3345 38.9144 31.559 38.9144C30.7835 38.9144 30.0239 38.6919 29.3688 38.2727C28.7137 37.8535 28.1899 37.2549 27.8586 36.5467C27.7941 36.4092 27.7035 36.2858 27.5918 36.1837C27.4801 36.0815 27.3496 36.0026 27.2078 35.9514C27.0659 35.9002 26.9154 35.8777 26.7649 35.8852C26.6145 35.8927 26.4669 35.9301 26.3307 35.9952C26.1946 36.0604 26.0724 36.1519 25.9713 36.2647C25.8702 36.3775 25.792 36.5093 25.7413 36.6526C25.6906 36.7959 25.6684 36.9479 25.6758 37.0999C25.6833 37.2519 25.7203 37.4009 25.7848 37.5384C26.3019 38.6435 27.1191 39.5774 28.1414 40.2314C29.1637 40.8854 30.3489 41.2326 31.559 41.2326C32.7691 41.2326 33.9543 40.8854 34.9765 40.2314C35.9988 39.5774 36.8161 38.6435 37.3332 37.5384C37.462 37.2612 37.4769 36.9437 37.3746 36.6553C37.2723 36.367 37.0611 36.1314 36.7872 35.9999Z" fill="#00EDD3"/>
</g>
<defs>
<clipPath id="clip0">
<rect width="46" height="58" fill="white"/>
</clipPath>
</defs>
</svg>
