<svg width="46" height="58" viewBox="0 0 46 58" fill="none" xmlns="http://www.w3.org/2000/svg">
<path d="M42.9333 9H13.2889C11.6022 9 10.2222 10.3837 10.2222 12.075V24.375H3.06667C1.38 24.375 0 25.7587 0 27.45V42.825C0 44.5163 1.38 45.9 3.06667 45.9H5.11111L7.87111 49.59C8.07556 49.8462 8.38222 50 8.68889 50C8.99556 50 9.30222 49.8462 9.50667 49.59L12.2667 45.9H25.5556C27.2422 45.9 28.6222 44.5163 28.6222 42.825V35.65H33.7333L36.4933 39.34C36.6978 39.5962 37.0044 39.75 37.3111 39.75C37.6178 39.75 37.9244 39.5962 38.1289 39.34L40.8889 35.65H42.9333C44.62 35.65 46 34.2662 46 32.575V12.075C46 10.3837 44.62 9 42.9333 9ZM26.5778 42.825C26.5778 43.3887 26.1178 43.85 25.5556 43.85H11.7556C11.4489 43.85 11.1422 44.0037 10.9378 44.26L8.68889 47.2837L6.44 44.26C6.23556 44.0037 5.92889 43.85 5.62222 43.85H3.06667C2.50444 43.85 2.04444 43.3887 2.04444 42.825V27.45C2.04444 26.8862 2.50444 26.425 3.06667 26.425H10.2222V32.575C10.2222 34.2662 11.6022 35.65 13.2889 35.65H26.5778V42.825ZM43.9556 32.575C43.9556 33.1388 43.4956 33.6 42.9333 33.6H40.3778C40.0711 33.6 39.7644 33.7537 39.56 34.01L37.3111 37.0337L35.0622 34.01C34.8578 33.7537 34.5511 33.6 34.2444 33.6H13.2889C12.7267 33.6 12.2667 33.1388 12.2667 32.575V12.075C12.2667 11.5113 12.7267 11.05 13.2889 11.05H42.9333C43.4956 11.05 43.9556 11.5113 43.9556 12.075V32.575ZM35.7778 19.66L31.1267 18.9937L29.0311 14.74C28.8778 14.3813 28.52 14.1762 28.1111 14.1762C27.7022 14.1762 27.3444 14.3813 27.1911 14.74L25.0956 18.9937L20.4444 19.66C20.0356 19.7112 19.7289 19.9675 19.6267 20.3775C19.5244 20.7362 19.6267 21.1462 19.8822 21.4025L23.2556 24.6825L22.4378 29.3463C22.3867 29.7563 22.54 30.115 22.8467 30.3713C23.1533 30.5763 23.5622 30.6275 23.92 30.4738L28.1111 28.27L32.3022 30.4738C32.4556 30.525 32.6089 30.5762 32.7622 30.5762C32.9667 30.5762 33.1711 30.525 33.3756 30.3713C33.6822 30.115 33.8356 29.7563 33.7844 29.3463L32.9667 24.6825L36.34 21.4025C36.5956 21.1462 36.6978 20.7362 36.5956 20.3775C36.4933 19.9675 36.1867 19.7112 35.7778 19.66ZM31.1778 23.6062C30.9222 23.8625 30.82 24.17 30.8711 24.5287L31.3822 27.655L28.5711 26.1687C28.4178 26.0662 28.2644 26.0662 28.1111 26.0662C27.9578 26.0662 27.8044 26.1175 27.6511 26.1687L24.84 27.655L25.3511 24.5287C25.4022 24.2212 25.3 23.8625 25.0444 23.6062L22.7444 21.4025L25.9133 20.9412C26.2711 20.89 26.5267 20.685 26.68 20.3775L28.1111 17.5075L29.5422 20.3775C29.6956 20.685 30.0022 20.89 30.3089 20.9412L33.4778 21.4025L31.1778 23.6062ZM13.2889 39.75C13.2889 39.4937 13.3911 39.2375 13.5956 39.0325C13.9533 38.6225 14.6689 38.6225 15.0267 39.0325C15.2311 39.2375 15.3333 39.4937 15.3333 39.75C15.3333 40.0062 15.2311 40.2625 15.0267 40.4675C14.9244 40.57 14.8222 40.6213 14.72 40.6725C14.5667 40.775 14.4644 40.775 14.3111 40.775C14.0556 40.775 13.8 40.6725 13.5956 40.4675C13.3911 40.2625 13.2889 40.0062 13.2889 39.75ZM18.7067 40.4675C18.5022 40.2625 18.4 40.0062 18.4 39.75C18.4 39.4937 18.5022 39.2375 18.7067 39.0325C18.7578 38.9812 18.8089 38.93 18.86 38.93C18.9111 38.93 18.9622 38.8787 19.0133 38.8275C19.0644 38.8275 19.1156 38.7762 19.2178 38.7762C19.5756 38.725 19.8822 38.8275 20.1378 39.0325C20.3422 39.2375 20.4444 39.4937 20.4444 39.75C20.4444 40.0062 20.3422 40.2625 20.1378 40.4675C20.0867 40.5187 20.0356 40.57 19.9844 40.57C19.9333 40.6212 19.8822 40.6213 19.8311 40.6725C19.78 40.7238 19.7289 40.7237 19.6267 40.7237C19.5756 40.7237 19.4733 40.7237 19.4222 40.7237C19.2689 40.7237 19.1667 40.7237 19.0133 40.6212C18.9111 40.6725 18.8089 40.57 18.7067 40.4675ZM9.91556 39.0325C10.12 39.2375 10.2222 39.4937 10.2222 39.75C10.2222 40.0062 10.12 40.2625 9.91556 40.4675C9.71111 40.6725 9.45556 40.775 9.2 40.775C9.04667 40.775 8.94445 40.775 8.79111 40.6725C8.68889 40.6213 8.53556 40.57 8.48445 40.4675C8.28 40.2625 8.17778 40.0062 8.17778 39.75C8.17778 39.4937 8.28 39.2375 8.48445 39.0325C8.84222 38.6225 9.55778 38.6225 9.91556 39.0325Z" fill="#00EDD3"/>
</svg>
