<svg width="172" height="34" viewBox="0 0 172 34" fill="none" xmlns="http://www.w3.org/2000/svg">
<path fill-rule="evenodd" clip-rule="evenodd" d="M82.208 19.5755C79.6513 22.1048 72.6969 26.6088 65.3333 24.3908C56.1288 21.6184 54.9016 13.7388 55.055 12.2796C56.1288 13.0092 58.7673 14.2057 60.7309 13.1551C58.9412 12.5228 55.7605 10.5578 57.356 7.75614C59.3503 4.2541 63.3389 5.71329 63.9525 6.73471C62.5718 6.92927 59.9946 7.96043 60.7309 10.5286C61.6514 13.7388 66.7139 13.5929 69.015 10.5286C71.3161 7.4643 68.7082 2.21125 63.9525 1.18982C59.1969 0.16839 51.2196 3.23267 51.0662 11.4041C50.9128 19.5755 62.2647 26.8714 69.4752 26.1418C67.7365 26.531 63.0931 27.1633 58.4295 26.5796C52.6 25.85 41.8614 20.451 36.1853 15.9276C30.5092 11.4041 19.6172 8.92349 13.9411 10.3827C12.6627 9.21532 9.46163 6.82226 6.88437 6.58879C3.6628 6.29696 1.51509 8.19389 2.28213 10.6745C2.58897 9.40988 3.93899 7.1141 6.88437 8.04798C9.82975 8.98185 11.8956 10.1881 12.5604 10.6745C9.33884 11.6473 2.5582 15.0521 1.20821 20.8888C-0.479278 28.1847 8.5718 31.6867 11.0263 26.1418C11.3332 25.0718 11.2718 22.8733 8.57183 22.6398C5.87184 22.4063 6.1173 24.3908 6.57752 25.4122C6.98661 24.8772 7.95819 24.0406 8.57183 24.9745C9.33887 26.1418 8.57183 27.3092 7.19115 27.1633C5.81048 27.0173 2.74232 25.2663 3.50936 21.6184C4.2764 17.9704 10.2593 12.7174 14.7081 12.4255L16.8559 14.4684C16.8559 15.4412 17.3161 17.7078 19.157 18.9918C20.9979 20.2759 23.6058 21.2779 24.6797 21.6184C24.8842 23.2235 27.6558 26.7255 37.1057 27.8929C37.3613 29.2061 39.1918 31.8327 44.4693 31.8327C51.0662 31.8327 60.8837 31.3949 65.793 29.6439C69.7205 28.2431 73.0544 26.7255 74.2305 26.1418C73.5146 27.6497 72.9725 31.1322 76.5316 33C77.81 33 80.1213 32.5331 79.1395 30.6653C78.5128 29.4731 78.0171 29.917 77.4516 30.4232C76.9098 30.9084 76.304 31.4508 75.4577 30.6653C73.7284 29.0602 74.5373 24.6827 79.1395 23.0776C78.3214 25.2177 77.9736 29.6147 83.1281 30.0816C84.3554 29.6925 86.4111 28.4473 84.8156 26.5796C83.9464 26.0932 82.208 25.6749 82.208 27.8929C80.5206 27.2605 78.1582 24.7118 82.208 19.5755ZM82.208 18.5541C79.6512 20.0133 73.6171 22.4939 69.9353 20.7429C65.3331 18.5541 69.4751 16.3653 70.7024 18.1163C71.1115 17.484 71.4389 16.0735 69.4752 15.4898C67.0207 14.7602 64.5662 18.4082 66.8673 20.7429C69.1684 23.0776 78.6794 22.9316 82.208 18.5541ZM16.5488 12.4251C19.2079 11.5496 27.1647 11.7247 37.7191 19.4292C50.9122 29.0598 63.0315 28.768 71.7757 26.7251C65.5883 29.3517 49.9611 32.8245 36.9521 25.7037C23.9431 18.5829 17.9295 13.8843 16.5488 12.4251Z" fill="black"/>
<path d="M65.3333 24.3908L65.1891 24.8696L65.1891 24.8696L65.3333 24.3908ZM82.208 19.5755L82.6006 19.8851L81.8563 19.2201L82.208 19.5755ZM55.055 12.2796L55.336 11.866L54.6451 11.3966L54.5577 12.2273L55.055 12.2796ZM60.7309 13.1551L60.9668 13.596L61.9662 13.0613L60.8975 12.6837L60.7309 13.1551ZM57.356 7.75614L56.9215 7.50871L56.9215 7.50871L57.356 7.75614ZM63.9525 6.73471L64.0223 7.22982L64.7699 7.12447L64.3811 6.47723L63.9525 6.73471ZM60.7309 10.5286L60.2503 10.6664L60.2503 10.6664L60.7309 10.5286ZM69.015 10.5286L68.6152 10.2283L68.6152 10.2283L69.015 10.5286ZM63.9525 1.18982L64.0575 0.700967L64.0575 0.700967L63.9525 1.18982ZM69.4752 26.1418L69.5844 26.6298L69.4249 25.6444L69.4752 26.1418ZM58.4295 26.5796L58.4916 26.0835L58.4916 26.0835L58.4295 26.5796ZM13.9411 10.3827L13.604 10.7519L13.8037 10.9343L14.0656 10.8669L13.9411 10.3827ZM6.88437 6.58879L6.92948 6.09083L6.92948 6.09083L6.88437 6.58879ZM2.28213 10.6745L1.80445 10.8222L2.34032 12.5552L2.76803 10.7924L2.28213 10.6745ZM6.88437 8.04798L7.03549 7.57136L7.03549 7.57136L6.88437 8.04798ZM12.5604 10.6745L12.7049 11.1532L13.6651 10.8632L12.8557 10.271L12.5604 10.6745ZM1.20821 20.8888L0.721071 20.7761L0.721071 20.7761L1.20821 20.8888ZM11.0263 26.1418L11.4835 26.3442L11.4975 26.3127L11.507 26.2797L11.0263 26.1418ZM8.57183 22.6398L8.52875 23.1379L8.52875 23.1379L8.57183 22.6398ZM6.57752 25.4122L6.12166 25.6176L6.46583 26.3815L6.97472 25.7159L6.57752 25.4122ZM8.57183 24.9745L8.15396 25.2491L8.15396 25.2491L8.57183 24.9745ZM7.19115 27.1633L7.1386 27.6605L7.1386 27.6605L7.19115 27.1633ZM3.50936 21.6184L3.99866 21.7213L3.99866 21.7213L3.50936 21.6184ZM14.7081 12.4255L15.0527 12.0632L14.894 11.9123L14.6754 11.9266L14.7081 12.4255ZM16.8559 14.4684H17.3559L17.3559 14.2539L17.2005 14.1061L16.8559 14.4684ZM24.6797 21.6184L25.1757 21.5552L25.1353 21.2383L24.8308 21.1418L24.6797 21.6184ZM37.1057 27.8929L37.5965 27.7974L37.5272 27.4411L37.167 27.3966L37.1057 27.8929ZM65.793 29.6439L65.961 30.1148L65.961 30.1148L65.793 29.6439ZM74.2305 26.1418L74.6821 26.3563L75.3013 25.0522L74.0082 25.694L74.2305 26.1418ZM76.5316 33L76.2993 33.4427L76.4084 33.5H76.5316L76.5316 33ZM79.1395 30.6653L79.5821 30.4327L79.5821 30.4327L79.1395 30.6653ZM77.4516 30.4232L77.1181 30.0507L77.1181 30.0507L77.4516 30.4232ZM75.4577 30.6653L75.1176 31.0318L75.1176 31.0318L75.4577 30.6653ZM79.1395 23.0776L79.6066 23.2561L79.9908 22.2511L78.9749 22.6054L79.1395 23.0776ZM83.1281 30.0816L83.083 30.5796L83.1833 30.5887L83.2793 30.5583L83.1281 30.0816ZM84.8156 26.5796L85.1958 26.2548L85.1378 26.1869L85.0598 26.1433L84.8156 26.5796ZM82.208 27.8929L82.0325 28.3611L82.708 28.6142L82.708 27.8929H82.208ZM69.9353 20.7429L70.1501 20.2913L70.1501 20.2913L69.9353 20.7429ZM82.208 18.5541L82.5973 18.8679L81.9601 18.1198L82.208 18.5541ZM70.7024 18.1163L70.2929 18.4033L70.7189 19.0111L71.1222 18.388L70.7024 18.1163ZM69.4752 15.4898L69.6177 15.0105L69.6177 15.0105L69.4752 15.4898ZM66.8673 20.7429L66.5112 21.0939L66.5112 21.0939L66.8673 20.7429ZM37.7191 19.4292L38.0139 19.0254L38.0139 19.0254L37.7191 19.4292ZM16.5488 12.4251L16.3925 11.9502L15.6442 12.1966L16.1856 12.7688L16.5488 12.4251ZM71.7757 26.7251L71.9711 27.1854L71.662 26.2382L71.7757 26.7251ZM36.9521 25.7037L37.1922 25.2651L37.1922 25.2651L36.9521 25.7037ZM65.1891 24.8696C69.0073 26.0196 72.705 25.422 75.7553 24.229C78.8016 23.0377 81.2362 21.2402 82.5596 19.931L81.8563 19.2201C80.623 20.4401 78.3021 22.1593 75.3911 23.2977C72.4842 24.4346 69.0229 24.98 65.4775 23.9121L65.1891 24.8696ZM54.5577 12.2273C54.5111 12.6706 54.5715 13.4984 54.8157 14.5146C55.0629 15.5428 55.506 16.7967 56.2516 18.0922C57.7478 20.6919 60.4545 23.4435 65.1891 24.8696L65.4775 23.9121C61.0077 22.5657 58.4984 19.9913 57.1183 17.5933C56.4257 16.39 56.0155 15.2271 55.788 14.2808C55.5577 13.3226 55.5221 12.6182 55.5522 12.3319L54.5577 12.2273ZM60.4951 12.7143C59.6671 13.1572 58.6594 13.1438 57.6802 12.8998C56.706 12.657 55.8314 12.2027 55.336 11.866L54.774 12.6932C55.3524 13.0861 56.334 13.5949 57.4384 13.8701C58.5378 14.1441 59.8312 14.2036 60.9668 13.596L60.4951 12.7143ZM56.9215 7.50871C56.4714 8.29913 56.3423 9.06399 56.4659 9.77803C56.5879 10.4831 56.9482 11.0935 57.4005 11.6016C58.2962 12.6077 59.6242 13.2944 60.5644 13.6266L60.8975 12.6837C60.0479 12.3835 58.8907 11.7716 58.1475 10.9367C57.7803 10.5242 57.5328 10.0786 57.4512 9.60747C57.3712 9.14535 57.4428 8.61397 57.7904 8.00357L56.9215 7.50871ZM64.3811 6.47723C64.1511 6.0944 63.6784 5.75832 63.1521 5.51657C62.6055 5.26549 61.9234 5.07978 61.1926 5.04956C59.709 4.9882 58.0236 5.57334 56.9215 7.50871L57.7904 8.00357C58.6826 6.4369 59.9887 6.00062 61.1513 6.0487C61.7437 6.0732 62.2985 6.22492 62.7347 6.42528C63.1911 6.63496 63.4471 6.86431 63.5239 6.9922L64.3811 6.47723ZM61.2116 10.3908C61.0524 9.83574 61.0799 9.39587 61.202 9.04337C61.3254 8.68688 61.5587 8.38293 61.8676 8.1259C62.4977 7.60161 63.3884 7.31915 64.0223 7.22982L63.8827 6.23961C63.1359 6.34484 62.0476 6.67523 61.228 7.3572C60.8121 7.70329 60.4528 8.15082 60.257 8.71605C60.0599 9.28527 60.0413 9.93736 60.2503 10.6664L61.2116 10.3908ZM68.6152 10.2283C67.5653 11.6264 65.8755 12.3649 64.3497 12.3815C62.8238 12.3982 61.5896 11.7091 61.2116 10.3908L60.2503 10.6664C60.7927 12.5583 62.55 13.4013 64.3607 13.3815C66.1715 13.3617 68.1635 12.4951 69.4148 10.8288L68.6152 10.2283ZM63.8475 1.67867C66.0712 2.15627 67.7931 3.62443 68.6874 5.32578C69.5855 7.03418 69.6163 8.8951 68.6152 10.2283L69.4148 10.8288C70.7147 9.09779 70.5922 6.80004 69.5726 4.86048C68.5493 2.91388 66.5895 1.2448 64.0575 0.700967L63.8475 1.67867ZM51.5661 11.4135C51.6394 7.51354 53.5694 4.85151 56.052 3.27145C58.5561 1.67774 61.606 1.19723 63.8475 1.67867L64.0575 0.700967C61.5434 0.160975 58.2269 0.701892 55.5151 2.42782C52.7818 4.16741 50.6465 7.12323 50.5663 11.3947L51.5661 11.4135ZM69.4249 25.6444C65.9833 25.9926 61.4646 24.4171 57.8068 21.709C54.145 18.998 51.4938 15.2652 51.5661 11.4135L50.5663 11.3947C50.4852 15.7144 53.4333 19.7153 57.2117 22.5127C60.9941 25.313 65.7566 27.0207 69.5256 26.6393L69.4249 25.6444ZM58.3674 27.0757C63.101 27.6682 67.8036 27.0283 69.5844 26.6298L69.366 25.6539C67.6693 26.0336 63.0852 26.6584 58.4916 26.0835L58.3674 27.0757ZM35.8737 16.3186C38.7483 18.6095 42.8858 21.1086 47.0311 23.1259C51.1665 25.1384 55.3687 26.7004 58.3674 27.0757L58.4916 26.0835C55.6607 25.7292 51.5789 24.2269 47.4687 22.2267C43.3683 20.2312 39.2984 17.7691 36.4969 15.5365L35.8737 16.3186ZM14.0656 10.8669C16.79 10.1665 20.8397 10.4031 24.9455 11.3976C29.0441 12.3902 33.1111 14.117 35.8737 16.3186L36.4969 15.5365C33.5834 13.2147 29.3664 11.4394 25.1809 10.4257C21.0027 9.41373 16.7683 9.13961 13.8167 9.89841L14.0656 10.8669ZM6.83926 7.08675C8.0135 7.19313 9.37925 7.80231 10.6416 8.56368C11.893 9.31848 12.9867 10.1883 13.604 10.7519L14.2783 10.0134C13.6171 9.40972 12.4711 8.4993 11.1581 7.70737C9.85594 6.92201 8.3325 6.21793 6.92948 6.09083L6.83926 7.08675ZM2.75982 10.5268C2.43333 9.47095 2.72474 8.58165 3.41917 7.96616C4.13385 7.33272 5.32698 6.94976 6.83926 7.08675L6.92948 6.09083C5.22019 5.93599 3.72868 6.35558 2.75588 7.2178C1.76282 8.09797 1.36389 9.39744 1.80445 10.8222L2.75982 10.5268ZM7.03549 7.57136C5.40391 7.05404 4.15254 7.42592 3.27515 8.15149C2.42722 8.8527 1.96791 9.84904 1.79623 10.5566L2.76803 10.7924C2.90319 10.2353 3.2723 9.45149 3.91244 8.92212C4.52312 8.41711 5.41945 8.10803 6.73325 8.52459L7.03549 7.57136ZM12.8557 10.271C12.142 9.74883 10.0262 8.51959 7.03549 7.57136L6.73325 8.52459C9.63335 9.44411 11.6493 10.6274 12.2652 11.078L12.8557 10.271ZM1.69535 21.0015C2.33347 18.2425 4.26559 16.0227 6.48274 14.3575C8.69687 12.6945 11.1432 11.6247 12.7049 11.1532L12.4159 10.1959C10.7561 10.697 8.20127 11.8161 5.88219 13.5579C3.56613 15.2974 1.43294 17.6983 0.721071 20.7761L1.69535 21.0015ZM10.5691 25.9395C10.0145 27.1924 9.10397 27.9101 8.08059 28.206C7.0451 28.5053 5.86051 28.381 4.77446 27.8771C2.61538 26.8753 0.908536 24.4033 1.69535 21.0015L0.721071 20.7761C-0.179604 24.6702 1.79535 27.5972 4.35357 28.7842C5.62616 29.3746 7.05909 29.5422 8.35828 29.1666C9.66958 28.7876 10.8109 27.8637 11.4835 26.3442L10.5691 25.9395ZM8.52875 23.1379C9.72004 23.241 10.2373 23.7536 10.4692 24.279C10.7219 24.8516 10.6784 25.5412 10.5457 26.004L11.507 26.2797C11.6811 25.6724 11.7603 24.7277 11.3841 23.8752C10.987 22.9754 10.1236 22.2721 8.6149 22.1417L8.52875 23.1379ZM7.03338 25.2069C6.8227 24.7392 6.70783 24.1388 6.85889 23.728C6.92567 23.5463 7.04697 23.3909 7.27429 23.2809C7.51553 23.1641 7.90765 23.0842 8.52875 23.1379L8.6149 22.1417C7.88601 22.0786 7.29632 22.1592 6.83859 22.3808C6.36695 22.6091 6.07213 22.9699 5.92031 23.3829C5.63415 24.1613 5.87212 25.0638 6.12166 25.6176L7.03338 25.2069ZM8.98969 24.6999C8.78166 24.3833 8.50782 24.168 8.17663 24.0877C7.85529 24.0099 7.54959 24.0761 7.30058 24.1831C6.81774 24.3906 6.40942 24.8089 6.18032 25.1085L6.97472 25.7159C7.15471 25.4805 7.43673 25.213 7.69536 25.1019C7.81708 25.0496 7.8949 25.0484 7.9411 25.0596C7.97746 25.0684 8.05517 25.0987 8.15396 25.2491L8.98969 24.6999ZM7.1386 27.6605C7.97753 27.7492 8.71765 27.4409 9.10803 26.8309C9.50217 26.215 9.46031 25.4162 8.98969 24.6999L8.15396 25.2491C8.45038 25.7002 8.40852 26.0687 8.26573 26.2918C8.11919 26.5208 7.78545 26.7233 7.2437 26.666L7.1386 27.6605ZM3.02006 21.5155C2.6004 23.5114 3.23362 25.023 4.17785 26.0436C5.09878 27.0391 6.32058 27.574 7.1386 27.6605L7.2437 26.666C6.68105 26.6066 5.67843 26.1931 4.91188 25.3645C4.16862 24.5611 3.65128 23.3733 3.99866 21.7213L3.02006 21.5155ZM14.6754 11.9266C12.298 12.0825 9.59037 13.5444 7.40631 15.3807C5.22907 17.2113 3.4381 19.5273 3.02006 21.5155L3.99866 21.7213C4.34766 20.0615 5.93166 17.927 8.04985 16.1461C10.1612 14.3709 12.6694 13.0603 14.7409 12.9245L14.6754 11.9266ZM17.2005 14.1061L15.0527 12.0632L14.3635 12.7878L16.5113 14.8307L17.2005 14.1061ZM19.443 18.5818C17.7892 17.4281 17.3559 15.3552 17.3559 14.4684H16.3559C16.3559 15.5271 16.843 17.9874 18.8709 19.4019L19.443 18.5818ZM24.8308 21.1418C23.7773 20.8077 21.2241 19.8241 19.443 18.5818L18.8709 19.4019C20.7717 20.7278 23.4343 21.7481 24.5286 22.095L24.8308 21.1418ZM37.167 27.3966C32.4926 26.8192 29.5151 25.6694 27.6962 24.4993C25.861 23.3187 25.2518 22.1529 25.1757 21.5552L24.1837 21.6816C24.3121 22.689 25.191 24.0767 27.1552 25.3403C29.1356 26.6143 32.2689 27.7992 37.0444 28.3891L37.167 27.3966ZM44.4693 31.3327C39.3689 31.3327 37.7954 28.8196 37.5965 27.7974L36.6149 27.9884C36.9271 29.5926 39.0146 32.3327 44.4693 32.3327L44.4693 31.3327ZM65.6251 29.1729C63.2355 30.0252 59.6091 30.5688 55.722 30.8967C51.8473 31.2235 47.7585 31.3327 44.4693 31.3327L44.4693 32.3327C47.7771 32.3327 51.8954 32.223 55.806 31.8931C59.7042 31.5643 63.4412 31.0136 65.961 30.1148L65.6251 29.1729ZM74.0082 25.694C72.8489 26.2693 69.5331 27.7791 65.6251 29.1729L65.961 30.1148C69.9079 28.7071 73.26 27.1817 74.4528 26.5897L74.0082 25.694ZM76.7639 32.5573C75.1269 31.6982 74.4654 30.496 74.2708 29.3521C74.0715 28.1805 74.3589 27.0372 74.6821 26.3563L73.7788 25.9274C73.3862 26.7543 73.0445 28.1063 73.285 29.5198C73.5302 30.9611 74.3772 32.4341 76.2993 33.4427L76.7639 32.5573ZM78.6969 30.898C78.9016 31.2873 78.8951 31.5248 78.85 31.6649C78.8029 31.8114 78.6787 31.9602 78.4357 32.0986C77.9324 32.3852 77.1384 32.5 76.5316 32.5L76.5316 33.5C77.2032 33.5 78.204 33.3813 78.9306 32.9675C79.3025 32.7557 79.6519 32.4376 79.802 31.9712C79.9541 31.4985 79.8684 30.9772 79.5821 30.4327L78.6969 30.898ZM77.7852 30.7958C77.9324 30.6639 78.0454 30.5638 78.1507 30.4907C78.2572 30.4169 78.3071 30.4063 78.3186 30.4053C78.3202 30.4051 78.319 30.405 78.3204 30.4055C78.3233 30.4064 78.3409 30.4128 78.3731 30.4393C78.4436 30.4974 78.5549 30.6277 78.6969 30.898L79.5821 30.4327C79.2559 29.812 78.8313 29.3536 78.2266 29.4095C77.9651 29.4337 77.746 29.5545 77.5808 29.669C77.4146 29.7843 77.2536 29.9295 77.1181 30.0507L77.7852 30.7958ZM75.1176 31.0318C75.3709 31.2669 75.6349 31.4294 75.9142 31.5083C76.1992 31.5887 76.4688 31.5732 76.7133 31.4994C77.1651 31.3631 77.5365 31.0184 77.7852 30.7958L77.1181 30.0507C76.8249 30.3132 76.6225 30.4823 76.4244 30.5421C76.3439 30.5664 76.2695 30.5695 76.186 30.5459C76.0967 30.5207 75.9677 30.4564 75.7979 30.2988L75.1176 31.0318ZM78.9749 22.6054C76.5434 23.4534 75.0732 25.0517 74.4562 26.6957C73.8501 28.3106 74.0557 30.0462 75.1176 31.0318L75.7979 30.2988C75.1305 29.6794 74.8758 28.4236 75.3924 27.0471C75.8981 25.6998 77.1334 24.3068 79.3042 23.5497L78.9749 22.6054ZM83.1732 29.5837C81.9552 29.4733 81.1051 29.1351 80.5159 28.6917C79.9295 28.2503 79.5705 27.6817 79.3704 27.0549C78.9624 25.7775 79.2201 24.2669 79.6066 23.2561L78.6725 22.899C78.2408 24.0283 77.9155 25.7864 78.4178 27.3591C78.6727 28.1575 79.1422 28.9094 79.9147 29.4907C80.6844 30.07 81.7239 30.4565 83.083 30.5796L83.1732 29.5837ZM84.4354 26.9043C84.7827 27.3109 84.8901 27.6341 84.8979 27.8762C84.9056 28.1164 84.8178 28.3472 84.6378 28.5755C84.2594 29.0554 83.549 29.4237 82.977 29.605L83.2793 30.5583C83.9345 30.3505 84.8656 29.9016 85.423 29.1947C85.7109 28.8296 85.9145 28.3746 85.8974 27.8439C85.8803 27.315 85.6463 26.7822 85.1958 26.2548L84.4354 26.9043ZM82.708 27.8929C82.708 27.3975 82.8059 27.116 82.9093 26.9607C83.0043 26.8182 83.1279 26.7445 83.2867 26.7118C83.6536 26.6363 84.1738 26.7934 84.5715 27.0159L85.0598 26.1433C84.5882 25.8794 83.8046 25.5842 83.085 25.7324C82.7005 25.8116 82.3352 26.0187 82.077 26.4064C81.8274 26.7812 81.708 27.2793 81.708 27.8929H82.708ZM81.8153 19.2659C79.7446 21.8923 79.2278 23.9649 79.568 25.5294C79.908 27.0934 81.072 28.0011 82.0325 28.3611L82.3834 27.4247C81.6566 27.1523 80.7957 26.4695 80.5451 25.317C80.2947 24.165 80.6216 22.3951 82.6006 19.8851L81.8153 19.2659ZM69.7206 21.1944C71.7244 22.1474 74.2982 21.9283 76.6171 21.3368C78.956 20.7402 81.1454 19.7362 82.4558 18.9884L81.9601 18.1198C80.7138 18.8311 78.6077 19.7971 76.3699 20.3678C74.1121 20.9437 71.8281 21.0894 70.1501 20.2913L69.7206 21.1944ZM71.1118 17.8294C70.6923 17.2309 70.0347 16.9888 69.4246 16.9803C68.8245 16.9719 68.1995 17.1864 67.7827 17.5952C67.5697 17.8041 67.403 18.073 67.3411 18.3932C67.2784 18.7169 67.3302 19.055 67.4927 19.3841C67.807 20.0211 68.5349 20.6305 69.7206 21.1944L70.1501 20.2913C69.0347 19.7609 68.5544 19.2759 68.3894 18.9415C68.3121 18.7851 68.3064 18.6683 68.3229 18.5833C68.34 18.4948 68.3891 18.4012 68.4829 18.3091C68.6797 18.1161 69.0327 17.9749 69.4106 17.9802C69.7784 17.9853 70.0988 18.1263 70.2929 18.4033L71.1118 17.8294ZM69.3328 15.9691C70.1931 16.2248 70.4281 16.6136 70.4906 16.8936C70.5641 17.2238 70.4429 17.597 70.2826 17.8447L71.1222 18.388C71.371 18.0034 71.618 17.3552 71.4666 16.6761C71.3041 15.9468 70.721 15.3385 69.6177 15.0105L69.3328 15.9691ZM67.2234 20.3919C66.2566 19.411 66.2803 18.1678 66.8225 17.2144C67.3805 16.2333 68.3979 15.6912 69.3328 15.9691L69.6177 15.0105C68.098 14.5588 66.6609 15.4759 65.9533 16.72C65.2299 17.9919 65.1768 19.74 66.5112 21.0939L67.2234 20.3919ZM81.8187 18.2403C80.1785 20.2751 77.0818 21.3811 74.0306 21.6678C72.5178 21.8099 71.0513 21.7465 69.834 21.5105C68.5979 21.271 67.6924 20.8678 67.2234 20.3919L66.5112 21.0939C67.1927 21.7853 68.3391 22.2394 69.6437 22.4923C70.9672 22.7488 72.5304 22.8131 74.1241 22.6634C77.2857 22.3664 80.7088 21.2106 82.5973 18.8679L81.8187 18.2403ZM38.0139 19.0254C27.3852 11.2667 19.2603 11.006 16.3925 11.9502L16.7052 12.9001C19.1555 12.0933 26.9441 12.1828 37.4243 19.8331L38.0139 19.0254ZM71.662 26.2382C63.0219 28.2568 51.0614 28.5497 38.0139 19.0254L37.4243 19.8331C50.763 29.5699 63.0411 29.2792 71.8895 27.212L71.662 26.2382ZM36.712 26.1423C43.3205 29.7596 50.5784 30.6785 56.9463 30.3691C63.3122 30.0598 68.8237 28.5214 71.9711 27.1854L71.5804 26.2649C68.5403 27.5554 63.1445 29.0667 56.8977 29.3703C50.6529 29.6737 43.5927 28.7686 37.1922 25.2651L36.712 26.1423ZM16.1856 12.7688C16.9152 13.5398 18.8016 15.1043 22.1085 17.3547C25.4261 19.6123 30.1958 22.5755 36.712 26.1423L37.1922 25.2651C30.6994 21.7111 25.9578 18.7646 22.6711 16.5279C19.3738 14.2841 17.5631 12.7696 16.912 12.0815L16.1856 12.7688Z" fill="black"/>
<path fill-rule="evenodd" clip-rule="evenodd" d="M89.792 19.5753C92.3487 22.1045 99.3031 26.6085 106.667 24.3906C115.871 21.6181 117.098 13.7385 116.945 12.2794C115.871 13.009 113.233 14.2055 111.269 13.1549C113.059 12.5226 116.239 10.5575 114.644 7.75589C112.65 4.25385 108.661 5.71304 108.047 6.73446C109.428 6.92902 112.005 7.96018 111.269 10.5283C110.349 13.7385 105.286 13.5926 102.985 10.5283C100.684 7.46405 103.292 2.211 108.047 1.18957C112.803 0.16814 120.78 3.23242 120.934 11.4038C121.087 19.5753 109.735 26.8712 102.525 26.1416C104.264 26.5307 108.907 27.163 113.571 26.5793C119.4 25.8498 130.139 20.4508 135.815 15.9273C141.491 11.4038 152.383 8.92324 158.059 10.3824C159.337 9.21507 162.538 6.82201 165.116 6.58854C168.337 6.29671 170.485 8.19364 169.718 10.6743C169.411 9.40963 168.061 7.11385 165.116 8.04773C162.17 8.9816 160.104 10.1879 159.44 10.6743C162.661 11.647 169.442 15.0518 170.792 20.8885C172.479 28.1844 163.428 31.6865 160.974 26.1416C160.667 25.0715 160.728 22.873 163.428 22.6396C166.128 22.4061 165.883 24.3906 165.422 25.412C165.013 24.877 164.042 24.0404 163.428 24.9742C162.661 26.1416 163.428 27.3089 164.809 27.163C166.19 27.0171 169.258 25.2661 168.491 21.6181C167.724 17.9702 161.741 12.7171 157.292 12.4253L155.144 14.4681C155.144 15.4409 154.684 17.7075 152.843 18.9916C151.002 20.2757 148.394 21.2776 147.32 21.6181C147.116 23.2232 144.344 26.7253 134.894 27.8926C134.639 29.2059 132.808 31.8324 127.531 31.8324C120.934 31.8324 111.116 31.3946 106.207 29.6436C102.279 28.2428 98.9456 26.7253 97.7695 26.1416C98.4854 27.6494 99.0275 31.132 95.4684 32.9997C94.19 32.9997 91.8787 32.5328 92.8605 30.6651C93.4872 29.4729 93.9829 29.9168 94.5484 30.423C95.0902 30.9081 95.696 31.4505 96.5423 30.6651C98.2716 29.06 97.4627 24.6824 92.8605 23.0773C93.6786 25.2174 94.0264 29.6144 88.8719 30.0814C87.6446 29.6923 85.5889 28.4471 87.1844 26.5793C88.0536 26.093 89.792 25.6747 89.792 27.8926C91.4794 27.2603 93.8418 24.7116 89.792 19.5753ZM89.792 18.5538C92.3488 20.013 98.3829 22.4936 102.065 20.7426C106.667 18.5538 102.525 16.3651 101.298 18.1161C100.888 17.4838 100.561 16.0732 102.525 15.4896C104.979 14.76 107.434 18.4079 105.133 20.7426C102.832 23.0773 93.3206 22.9314 89.792 18.5538ZM155.451 12.4252C152.792 11.5497 144.835 11.7248 134.28 19.4293C121.087 29.0599 108.968 28.768 100.224 26.7252C106.411 29.3517 122.038 32.8246 135.047 25.7038C148.056 18.5829 154.07 13.8844 155.451 12.4252Z" fill="black"/>
<path d="M106.667 24.3906L106.811 24.8693L106.811 24.8693L106.667 24.3906ZM89.792 19.5753L89.3994 19.8848L90.1437 19.2198L89.792 19.5753ZM116.945 12.2794L116.664 11.8658L117.355 11.3963L117.442 12.2271L116.945 12.2794ZM111.269 13.1549L111.033 13.5957L110.034 13.061L111.103 12.6834L111.269 13.1549ZM114.644 7.75589L115.079 7.50846L115.079 7.50846L114.644 7.75589ZM108.047 6.73446L107.978 7.22957L107.23 7.12422L107.619 6.47698L108.047 6.73446ZM111.269 10.5283L111.75 10.6661L111.75 10.6661L111.269 10.5283ZM102.985 10.5283L103.385 10.2281L103.385 10.2281L102.985 10.5283ZM108.047 1.18957L107.942 0.700717L107.942 0.700717L108.047 1.18957ZM102.525 26.1416L102.416 26.6295L102.575 25.6441L102.525 26.1416ZM113.571 26.5793L113.508 26.0832L113.508 26.0832L113.571 26.5793ZM158.059 10.3824L158.396 10.7516L158.196 10.934L157.934 10.8667L158.059 10.3824ZM165.116 6.58854L165.071 6.09058L165.071 6.09058L165.116 6.58854ZM169.718 10.6743L170.196 10.822L169.66 12.555L169.232 10.7921L169.718 10.6743ZM165.116 8.04773L164.965 7.57111L164.965 7.57111L165.116 8.04773ZM159.44 10.6743L159.295 11.1529L158.335 10.863L159.144 10.2707L159.44 10.6743ZM170.792 20.8885L171.279 20.7759L171.279 20.7759L170.792 20.8885ZM160.974 26.1416L160.516 26.344L160.503 26.3125L160.493 26.2794L160.974 26.1416ZM163.428 22.6396L163.471 23.1377L163.471 23.1377L163.428 22.6396ZM165.422 25.412L165.878 25.6174L165.534 26.3813L165.025 25.7157L165.422 25.412ZM163.428 24.9742L163.846 25.2488L163.846 25.2488L163.428 24.9742ZM164.809 27.163L164.861 27.6602L164.861 27.6603L164.809 27.163ZM168.491 21.6181L168.001 21.721L168.001 21.721L168.491 21.6181ZM157.292 12.4253L156.947 12.063L157.106 11.912L157.325 11.9263L157.292 12.4253ZM155.144 14.4681H154.644L154.644 14.2537L154.8 14.1058L155.144 14.4681ZM147.32 21.6181L146.824 21.5549L146.865 21.238L147.169 21.1415L147.32 21.6181ZM134.894 27.8926L134.403 27.7971L134.473 27.4409L134.833 27.3964L134.894 27.8926ZM106.207 29.6436L106.039 30.1146L106.039 30.1146L106.207 29.6436ZM97.7695 26.1416L97.3179 26.356L96.6987 25.0519L97.9918 25.6937L97.7695 26.1416ZM95.4684 32.9997L95.7007 33.4425L95.5916 33.4997H95.4684L95.4684 32.9997ZM92.8605 30.6651L92.4179 30.4324L92.4179 30.4324L92.8605 30.6651ZM94.5484 30.423L94.8819 30.0505L94.8819 30.0505L94.5484 30.423ZM96.5423 30.6651L96.8824 31.0315L96.8824 31.0315L96.5423 30.6651ZM92.8605 23.0773L92.3934 23.2559L92.0092 22.2509L93.0251 22.6052L92.8605 23.0773ZM88.8719 30.0814L88.917 30.5793L88.8167 30.5884L88.7207 30.558L88.8719 30.0814ZM87.1844 26.5793L86.8042 26.2546L86.8622 26.1867L86.9402 26.143L87.1844 26.5793ZM89.792 27.8926L89.9675 28.3608L89.292 28.6139L89.292 27.8926H89.792ZM102.065 20.7426L101.85 20.2911L101.85 20.2911L102.065 20.7426ZM89.792 18.5538L89.4027 18.8676L90.0399 18.1196L89.792 18.5538ZM101.298 18.1161L101.707 18.4031L101.281 19.0109L100.878 18.3877L101.298 18.1161ZM102.525 15.4896L102.382 15.0103L102.382 15.0103L102.525 15.4896ZM105.133 20.7426L105.489 21.0936L105.489 21.0936L105.133 20.7426ZM134.28 19.4293L133.986 19.0254L133.986 19.0254L134.28 19.4293ZM155.451 12.4252L155.607 11.9503L156.355 12.1966L155.814 12.7688L155.451 12.4252ZM100.224 26.7252L100.028 27.1854L100.338 26.2383L100.224 26.7252ZM135.047 25.7038L135.287 26.1423L135.287 26.1423L135.047 25.7038ZM106.811 24.8693C102.993 26.0194 99.295 25.4217 96.2447 24.2288C93.1984 23.0374 90.7638 21.2399 89.4404 19.9307L90.1437 19.2198C91.377 20.4399 93.6979 22.159 96.6089 23.2975C99.5158 24.4343 102.977 24.9797 106.522 23.9118L106.811 24.8693ZM117.442 12.2271C117.489 12.6703 117.429 13.4981 117.184 14.5143C116.937 15.5425 116.494 16.7964 115.748 18.0919C114.252 20.6916 111.545 23.4432 106.811 24.8693L106.522 23.9118C110.992 22.5655 113.502 19.9911 114.882 17.5931C115.574 16.3897 115.985 15.2268 116.212 14.2806C116.442 13.3223 116.478 12.618 116.448 12.3316L117.442 12.2271ZM111.505 12.714C112.333 13.157 113.341 13.1435 114.32 12.8995C115.294 12.6568 116.169 12.2024 116.664 11.8658L117.226 12.6929C116.648 13.0859 115.666 13.5946 114.562 13.8699C113.462 14.1438 112.169 14.2034 111.033 13.5957L111.505 12.714ZM115.079 7.50846C115.529 8.29888 115.658 9.06374 115.534 9.77778C115.412 10.4829 115.052 11.0933 114.599 11.6013C113.704 12.6074 112.376 13.2942 111.436 13.6263L111.103 12.6834C111.952 12.3833 113.109 11.7713 113.853 10.9364C114.22 10.524 114.467 10.0783 114.549 9.60722C114.629 9.1451 114.557 8.61372 114.21 8.00332L115.079 7.50846ZM107.619 6.47698C107.849 6.09415 108.322 5.75807 108.848 5.51632C109.395 5.26524 110.077 5.07953 110.807 5.04931C112.291 4.98795 113.976 5.57309 115.079 7.50846L114.21 8.00332C113.317 6.43665 112.011 6.00037 110.849 6.04845C110.256 6.07295 109.702 6.22467 109.265 6.42503C108.809 6.63471 108.553 6.86406 108.476 6.99195L107.619 6.47698ZM110.788 10.3905C110.948 9.83549 110.92 9.39562 110.798 9.04312C110.675 8.68663 110.441 8.38268 110.132 8.12565C109.502 7.60136 108.612 7.3189 107.978 7.22957L108.117 6.23936C108.864 6.34459 109.952 6.67498 110.772 7.35695C111.188 7.70304 111.547 8.15057 111.743 8.7158C111.94 9.28502 111.959 9.93711 111.75 10.6661L110.788 10.3905ZM103.385 10.2281C104.435 11.6261 106.125 12.3646 107.65 12.3813C109.176 12.398 110.41 11.7089 110.788 10.3905L111.75 10.6661C111.207 12.558 109.45 13.401 107.639 13.3812C105.828 13.3614 103.836 12.4948 102.585 10.8286L103.385 10.2281ZM108.152 1.67842C105.929 2.15602 104.207 3.62418 103.313 5.32553C102.415 7.03393 102.384 8.89485 103.385 10.2281L102.585 10.8286C101.285 9.09754 101.408 6.79979 102.427 4.86023C103.451 2.91363 105.41 1.24455 107.942 0.700717L108.152 1.67842ZM120.434 11.4132C120.361 7.51329 118.431 4.85126 115.948 3.2712C113.444 1.67749 110.394 1.19698 108.152 1.67842L107.942 0.700717C110.457 0.160725 113.773 0.701642 116.485 2.42757C119.218 4.16716 121.353 7.12298 121.434 11.3945L120.434 11.4132ZM102.575 25.6441C106.017 25.9924 110.535 24.4168 114.193 21.7087C117.855 18.9977 120.506 15.2649 120.434 11.4132L121.434 11.3945C121.515 15.7142 118.567 19.715 114.788 22.5125C111.006 25.3128 106.243 27.0204 102.474 26.6391L102.575 25.6441ZM113.633 27.0755C108.899 27.6679 104.196 27.028 102.416 26.6295L102.634 25.6537C104.331 26.0334 108.915 26.6581 113.508 26.0832L113.633 27.0755ZM136.126 16.3183C133.252 18.6092 129.114 21.1083 124.969 23.1256C120.833 25.1381 116.631 26.7002 113.633 27.0755L113.508 26.0832C116.339 25.7289 120.421 24.2267 124.531 22.2264C128.632 20.231 132.702 17.7689 135.503 15.5363L136.126 16.3183ZM157.934 10.8667C155.21 10.1663 151.16 10.4029 147.054 11.3973C142.956 12.39 138.889 14.1167 136.126 16.3183L135.503 15.5363C138.417 13.2144 142.634 11.4391 146.819 10.4254C150.997 9.41348 155.232 9.13936 158.183 9.89816L157.934 10.8667ZM165.161 7.0865C163.987 7.19288 162.621 7.80206 161.358 8.56343C160.107 9.31823 159.013 10.188 158.396 10.7516L157.722 10.0132C158.383 9.40947 159.529 8.49905 160.842 7.70712C162.144 6.92176 163.667 6.21768 165.071 6.09058L165.161 7.0865ZM169.24 10.5265C169.567 9.4707 169.275 8.5814 168.581 7.96591C167.866 7.33247 166.673 6.94951 165.161 7.0865L165.071 6.09058C166.78 5.93574 168.271 6.35533 169.244 7.21755C170.237 8.09772 170.636 9.39719 170.196 10.822L169.24 10.5265ZM164.965 7.57111C166.596 7.05379 167.847 7.42567 168.725 8.15124C169.573 8.85245 170.032 9.84879 170.204 10.5564L169.232 10.7921C169.097 10.2351 168.728 9.45124 168.088 8.92187C167.477 8.41686 166.581 8.10778 165.267 8.52434L164.965 7.57111ZM159.144 10.2707C159.858 9.74858 161.974 8.51934 164.965 7.57111L165.267 8.52434C162.367 9.44386 160.351 10.6271 159.735 11.0778L159.144 10.2707ZM170.305 21.0012C169.667 18.2423 167.734 16.0224 165.517 14.3572C163.303 12.6942 160.857 11.6245 159.295 11.1529L159.584 10.1956C161.244 10.6968 163.799 11.8158 166.118 13.5576C168.434 15.2971 170.567 17.6981 171.279 20.7759L170.305 21.0012ZM161.431 25.9392C161.986 27.1922 162.896 27.9099 163.919 28.2057C164.955 28.505 166.139 28.3807 167.226 27.8768C169.385 26.875 171.091 24.403 170.305 21.0012L171.279 20.7759C172.18 24.67 170.205 27.5969 167.646 28.7839C166.374 29.3744 164.941 29.5419 163.642 29.1664C162.33 28.7873 161.189 27.8635 160.516 26.344L161.431 25.9392ZM163.471 23.1377C162.28 23.2407 161.763 23.7534 161.531 24.2787C161.278 24.8514 161.322 25.541 161.454 26.0038L160.493 26.2794C160.319 25.6721 160.24 24.7275 160.616 23.875C161.013 22.9752 161.876 22.2719 163.385 22.1414L163.471 23.1377ZM164.967 25.2066C165.177 24.739 165.292 24.1386 165.141 23.7277C165.074 23.5461 164.953 23.3907 164.726 23.2807C164.484 23.1639 164.092 23.084 163.471 23.1377L163.385 22.1414C164.114 22.0784 164.704 22.159 165.161 22.3806C165.633 22.6089 165.928 22.9697 166.08 23.3827C166.366 24.161 166.128 25.0636 165.878 25.6174L164.967 25.2066ZM163.01 24.6997C163.218 24.3831 163.492 24.1678 163.823 24.0875C164.145 24.0096 164.45 24.0759 164.699 24.1829C165.182 24.3904 165.591 24.8087 165.82 25.1083L165.025 25.7157C164.845 25.4803 164.563 25.2128 164.305 25.1017C164.183 25.0494 164.105 25.0482 164.059 25.0594C164.023 25.0682 163.945 25.0985 163.846 25.2488L163.01 24.6997ZM164.861 27.6603C164.022 27.7489 163.282 27.4406 162.892 26.8306C162.498 26.2147 162.54 25.4159 163.01 24.6997L163.846 25.2488C163.55 25.6999 163.591 26.0685 163.734 26.2916C163.881 26.5206 164.215 26.723 164.756 26.6658L164.861 27.6603ZM168.98 21.5152C169.4 23.5111 168.766 25.0228 167.822 26.0434C166.901 27.0388 165.679 27.5738 164.861 27.6602L164.756 26.6658C165.319 26.6063 166.322 26.1928 167.088 25.3643C167.831 24.5609 168.349 23.3731 168.001 21.721L168.98 21.5152ZM157.325 11.9263C159.702 12.0823 162.41 13.5441 164.594 15.3804C166.771 17.211 168.562 19.5271 168.98 21.5152L168.001 21.721C167.652 20.0612 166.068 17.9268 163.95 16.1459C161.839 14.3707 159.331 13.0601 157.259 12.9242L157.325 11.9263ZM154.8 14.1058L156.947 12.063L157.636 12.7876L155.489 14.8304L154.8 14.1058ZM152.557 18.5815C154.211 17.4279 154.644 15.355 154.644 14.4681H155.644C155.644 15.5269 155.157 17.9871 153.129 19.4017L152.557 18.5815ZM147.169 21.1415C148.223 20.8075 150.776 19.8238 152.557 18.5815L153.129 19.4017C151.228 20.7275 148.566 21.7478 147.471 22.0947L147.169 21.1415ZM134.833 27.3964C139.507 26.819 142.485 25.6691 144.304 24.499C146.139 23.3184 146.748 22.1526 146.824 21.5549L147.816 21.6813C147.688 22.6887 146.809 24.0765 144.845 25.34C142.864 26.614 139.731 27.7989 134.956 28.3888L134.833 27.3964ZM127.531 31.3324C132.631 31.3324 134.205 28.8193 134.403 27.7971L135.385 27.9881C135.073 29.5924 132.985 32.3324 127.531 32.3324L127.531 31.3324ZM106.375 29.1727C108.764 30.025 112.391 30.5686 116.278 30.8964C120.153 31.2232 124.242 31.3324 127.531 31.3324L127.531 32.3324C124.223 32.3324 120.105 32.2227 116.194 31.8929C112.296 31.5641 108.559 31.0133 106.039 30.1146L106.375 29.1727ZM97.9918 25.6937C99.1511 26.2691 102.467 27.7788 106.375 29.1727L106.039 30.1146C102.092 28.7068 98.74 27.1815 97.5472 26.5895L97.9918 25.6937ZM95.2361 32.557C96.8731 31.6979 97.5346 30.4958 97.7292 29.3518C97.9285 28.1802 97.6411 27.0369 97.3179 26.356L98.2212 25.9271C98.6138 26.7541 98.9555 28.106 98.715 29.5195C98.4698 30.9608 97.6228 32.4338 95.7007 33.4425L95.2361 32.557ZM93.3031 30.8977C93.0984 31.287 93.1049 31.5245 93.15 31.6647C93.1971 31.8112 93.3213 31.96 93.5643 32.0983C94.0676 32.385 94.8616 32.4997 95.4684 32.4997L95.4684 33.4997C94.7968 33.4997 93.796 33.3811 93.0694 32.9673C92.6975 32.7555 92.3481 32.4373 92.198 31.971C92.0459 31.4982 92.1316 30.977 92.4179 30.4324L93.3031 30.8977ZM94.2148 30.7955C94.0676 30.6637 93.9546 30.5635 93.8493 30.4905C93.7428 30.4166 93.6929 30.4061 93.6814 30.405C93.6798 30.4049 93.681 30.4047 93.6796 30.4052C93.6767 30.4062 93.6591 30.4125 93.6269 30.4391C93.5564 30.4972 93.4451 30.6274 93.3031 30.8977L92.4179 30.4324C92.7441 29.8118 93.1687 29.3534 93.7734 29.4092C94.0349 29.4334 94.254 29.5542 94.4192 29.6688C94.5854 29.784 94.7464 29.9292 94.8819 30.0505L94.2148 30.7955ZM96.8824 31.0315C96.6291 31.2667 96.3651 31.4292 96.0858 31.508C95.8008 31.5885 95.5312 31.5729 95.2867 31.4992C94.8349 31.3628 94.4635 31.0181 94.2148 30.7955L94.8819 30.0505C95.1751 30.313 95.3775 30.4821 95.5756 30.5418C95.6561 30.5661 95.7305 30.5692 95.814 30.5456C95.9033 30.5204 96.0323 30.4562 96.2021 30.2986L96.8824 31.0315ZM93.0251 22.6052C95.4566 23.4532 96.9268 25.0514 97.5438 26.6955C98.1499 28.3103 97.9443 30.0459 96.8824 31.0315L96.2021 30.2986C96.8695 29.6791 97.1242 28.4233 96.6076 27.0469C96.1019 25.6996 94.8666 24.3065 92.6958 23.5494L93.0251 22.6052ZM88.8268 29.5834C90.0448 29.4731 90.8949 29.1348 91.4841 28.6914C92.0705 28.2501 92.4295 27.6815 92.6296 27.0547C93.0376 25.7772 92.7799 24.2667 92.3934 23.2559L93.3275 22.8988C93.7592 24.0281 94.0845 25.7861 93.5822 27.3589C93.3273 28.1572 92.8578 28.9092 92.0853 29.4905C91.3156 30.0698 90.2761 30.4562 88.917 30.5793L88.8268 29.5834ZM87.5646 26.9041C87.2173 27.3106 87.1099 27.6339 87.1021 27.8759C87.0944 28.1161 87.1822 28.347 87.3622 28.5753C87.7406 29.0551 88.451 29.4234 89.023 29.6048L88.7207 30.558C88.0655 30.3502 87.1344 29.9014 86.577 29.1944C86.2891 28.8293 86.0855 28.3744 86.1026 27.8436C86.1197 27.3148 86.3537 26.7819 86.8042 26.2546L87.5646 26.9041ZM89.292 27.8926C89.292 27.3972 89.1941 27.1158 89.0907 26.9605C88.9957 26.818 88.8721 26.7443 88.7133 26.7116C88.3464 26.636 87.8262 26.7932 87.4285 27.0157L86.9402 26.143C87.4118 25.8791 88.1954 25.5839 88.915 25.7321C89.2995 25.8113 89.6648 26.0185 89.923 26.4061C90.1726 26.781 90.292 27.279 90.292 27.8926H89.292ZM90.1847 19.2657C92.2554 21.8921 92.7722 23.9646 92.432 25.5292C92.092 27.0932 90.928 28.0009 89.9675 28.3608L89.6166 27.4244C90.3434 27.152 91.2043 26.4692 91.4549 25.3167C91.7053 24.1648 91.3784 22.3948 89.3994 19.8848L90.1847 19.2657ZM102.279 21.1942C100.276 22.1471 97.7018 21.928 95.3829 21.3365C93.044 20.74 90.8546 19.736 89.5442 18.9881L90.0399 18.1196C91.2862 18.8309 93.3923 19.7968 95.6301 20.3676C97.8879 20.9435 100.172 21.0891 101.85 20.2911L102.279 21.1942ZM100.888 17.8291C101.308 17.2306 101.965 16.9886 102.575 16.98C103.176 16.9716 103.801 17.1861 104.217 17.595C104.43 17.8039 104.597 18.0728 104.659 18.393C104.722 18.7167 104.67 19.0548 104.507 19.3839C104.193 20.0208 103.465 20.6302 102.279 21.1942L101.85 20.2911C102.965 19.7606 103.446 19.2756 103.611 18.9413C103.688 18.7848 103.694 18.668 103.677 18.583C103.66 18.4945 103.611 18.4009 103.517 18.3089C103.32 18.1158 102.967 17.9746 102.589 17.9799C102.222 17.9851 101.901 18.126 101.707 18.4031L100.888 17.8291ZM102.667 15.9688C101.807 16.2246 101.572 16.6133 101.509 16.8934C101.436 17.2235 101.557 17.5967 101.717 17.8445L100.878 18.3877C100.629 18.0032 100.382 17.3549 100.533 16.6758C100.696 15.9466 101.279 15.3382 102.382 15.0103L102.667 15.9688ZM104.777 20.3916C105.743 19.4108 105.72 18.1675 105.177 17.2142C104.619 16.233 103.602 15.691 102.667 15.9688L102.382 15.0103C103.902 14.5586 105.339 15.4757 106.047 16.7198C106.77 17.9917 106.823 19.7398 105.489 21.0936L104.777 20.3916ZM90.1813 18.2401C91.8215 20.2749 94.9182 21.3809 97.9694 21.6675C99.4822 21.8096 100.949 21.7462 102.166 21.5103C103.402 21.2707 104.308 20.8675 104.777 20.3916L105.489 21.0936C104.807 21.7851 103.661 22.2391 102.356 22.492C101.033 22.7486 99.4696 22.8129 97.8759 22.6631C94.7143 22.3661 91.2912 21.2104 89.4027 18.8676L90.1813 18.2401ZM133.986 19.0254C144.614 11.2668 152.739 11.006 155.607 11.9503L155.294 12.9001C152.844 12.0933 145.055 12.1828 134.575 19.8331L133.986 19.0254ZM100.338 26.2383C108.978 28.2568 120.938 28.5497 133.986 19.0254L134.575 19.8331C121.236 29.57 108.958 29.2793 100.11 27.2121L100.338 26.2383ZM135.287 26.1423C128.679 29.7597 121.421 30.6785 115.053 30.3691C108.687 30.0598 103.176 28.5215 100.028 27.1854L100.419 26.2649C103.459 27.5554 108.855 29.0668 115.102 29.3703C121.347 29.6737 128.407 28.7687 134.807 25.2652L135.287 26.1423ZM155.814 12.7688C155.084 13.5399 153.198 15.1043 149.891 17.3547C146.573 19.6124 141.804 22.5755 135.287 26.1423L134.807 25.2652C141.3 21.7112 146.042 18.7646 149.328 16.528C152.626 14.2841 154.436 12.7697 155.087 12.0815L155.814 12.7688Z" fill="black"/>
</svg>
