<svg width="172" height="34" viewBox="0 0 172 34" fill="none" xmlns="http://www.w3.org/2000/svg">
<path fill-rule="evenodd" clip-rule="evenodd" d="M89.792 14.4245C92.3487 11.8952 99.3031 7.39122 106.667 9.60918C115.871 12.3816 117.098 20.2612 116.945 21.7204C115.871 20.9908 113.233 19.7943 111.269 20.8449C113.059 21.4772 116.239 23.4422 114.644 26.2439C112.65 29.7459 108.661 28.2867 108.047 27.2653C109.428 27.0707 112.005 26.0396 111.269 23.4714C110.349 20.2612 105.286 20.4071 102.985 23.4714C100.684 26.5357 103.292 31.7888 108.047 32.8102C112.803 33.8316 120.78 30.7673 120.934 22.5959C121.087 14.4245 109.735 7.12857 102.525 7.85816C104.264 7.46904 108.907 6.83673 113.571 7.42041C119.4 8.15 130.139 13.549 135.815 18.0724C141.491 22.5959 152.383 25.0765 158.059 23.6173C159.337 24.7847 162.538 27.1777 165.116 27.4112C168.337 27.703 170.485 25.8061 169.718 23.3255C169.411 24.5901 168.061 26.8859 165.116 25.952C162.17 25.0182 160.104 23.8119 159.44 23.3255C162.661 22.3527 169.442 18.948 170.792 13.1112C172.479 5.81531 163.428 2.31327 160.974 7.85816C160.667 8.92823 160.728 11.1267 163.428 11.3602C166.128 11.5937 165.883 9.60918 165.422 8.58776C165.013 9.12279 164.042 9.95939 163.428 9.02551C162.661 7.85816 163.428 6.69082 164.809 6.83674C166.19 6.98266 169.258 8.73367 168.491 12.3816C167.724 16.0296 161.741 21.2826 157.292 21.5745L155.144 19.5316C155.144 18.5588 154.684 16.2922 152.843 15.0082C151.002 13.7241 148.394 12.7221 147.32 12.3816C147.116 10.7765 144.344 7.27449 134.894 6.10714C134.639 4.79388 132.808 2.16735 127.531 2.16735C120.934 2.16735 111.116 2.6051 106.207 4.35612C102.279 5.75694 98.9456 7.27449 97.7695 7.85816C98.4854 6.35034 99.0275 2.86775 95.4684 1C94.19 1 91.8787 1.46694 92.8605 3.33469C93.4872 4.52687 93.9829 4.08298 94.5484 3.57675C95.0902 3.09161 95.696 2.54921 96.5423 3.33469C98.2716 4.93979 97.4627 9.31734 92.8605 10.9224C93.6787 8.78231 94.0264 4.3853 88.8719 3.91836C87.6446 4.30748 85.5889 5.55265 87.1844 7.4204C88.0536 7.9068 89.792 8.3251 89.792 6.10714C91.4794 6.73945 93.8418 9.28815 89.792 14.4245ZM89.792 15.4459C92.3488 13.9867 98.3829 11.5061 102.065 13.2571C106.667 15.4459 102.525 17.6347 101.298 15.8837C100.888 16.516 100.561 17.9265 102.525 18.5102C104.979 19.2398 107.434 15.5918 105.133 13.2571C102.832 10.9224 93.3206 11.0684 89.792 15.4459ZM155.451 21.5749C152.792 22.4504 144.835 22.2753 134.281 14.5708C121.088 4.94018 108.969 5.23202 100.224 7.27487C106.412 4.64834 122.039 1.17549 135.048 8.29631C148.057 15.4171 154.071 20.1157 155.451 21.5749Z" fill="black"/>
<path d="M106.667 9.60918L106.811 9.13042L106.811 9.13042L106.667 9.60918ZM89.792 14.4245L89.3994 14.1149L90.1437 14.7799L89.792 14.4245ZM116.945 21.7204L116.664 22.134L117.355 22.6034L117.442 21.7727L116.945 21.7204ZM111.269 20.8449L111.033 20.404L110.034 20.9387L111.103 21.3163L111.269 20.8449ZM114.644 26.2439L115.079 26.4913L115.079 26.4913L114.644 26.2439ZM108.047 27.2653L107.978 26.7702L107.23 26.8755L107.619 27.5228L108.047 27.2653ZM111.269 23.4714L111.75 23.3336L111.75 23.3336L111.269 23.4714ZM102.985 23.4714L103.385 23.7717L103.385 23.7717L102.985 23.4714ZM108.047 32.8102L107.942 33.299L107.942 33.299L108.047 32.8102ZM102.525 7.85816L102.416 7.37023L102.575 8.35562L102.525 7.85816ZM113.571 7.42041L113.508 7.91653L113.508 7.91653L113.571 7.42041ZM135.815 18.0724L136.126 17.6814L135.815 18.0724ZM158.059 23.6173L158.396 23.2481L158.196 23.0657L157.934 23.1331L158.059 23.6173ZM165.116 27.4112L165.071 27.9092L165.071 27.9092L165.116 27.4112ZM169.718 23.3255L170.196 23.1778L169.66 21.4448L169.232 23.2076L169.718 23.3255ZM165.116 25.952L164.965 26.4286L164.965 26.4286L165.116 25.952ZM159.44 23.3255L159.295 22.8468L158.335 23.1368L159.144 23.729L159.44 23.3255ZM170.792 13.1112L171.279 13.2239L171.279 13.2239L170.792 13.1112ZM160.974 7.85816L160.516 7.65578L160.503 7.68726L160.493 7.72035L160.974 7.85816ZM163.428 11.3602L163.471 10.8621L163.471 10.8621L163.428 11.3602ZM165.422 8.58776L165.878 8.38236L165.534 7.6185L165.025 8.28406L165.422 8.58776ZM163.428 9.02551L163.846 8.75094L163.846 8.75094L163.428 9.02551ZM164.809 6.83674L164.861 6.33951L164.861 6.33951L164.809 6.83674ZM168.491 12.3816L168.001 12.2787L168.001 12.2787L168.491 12.3816ZM157.292 21.5745L156.947 21.9368L157.106 22.0877L157.325 22.0734L157.292 21.5745ZM155.144 19.5316L154.644 19.5316L154.644 19.7461L154.8 19.8939L155.144 19.5316ZM147.32 12.3816L146.824 12.4448L146.865 12.7617L147.169 12.8582L147.32 12.3816ZM134.894 6.10714L134.403 6.20265L134.473 6.55888L134.833 6.60337L134.894 6.10714ZM106.207 4.35612L106.039 3.88518L106.039 3.88518L106.207 4.35612ZM97.7695 7.85816L97.3179 7.64371L96.6987 8.94784L97.9918 8.30603L97.7695 7.85816ZM95.4684 1L95.7008 0.557263L95.5916 0.500001L95.4684 0.500001L95.4684 1ZM92.8605 3.33469L92.4179 3.56734L92.4179 3.56734L92.8605 3.33469ZM94.5484 3.57675L94.8819 3.94926L94.8819 3.94926L94.5484 3.57675ZM96.5423 3.33469L96.8824 2.96823L96.8824 2.96823L96.5423 3.33469ZM92.8605 10.9224L92.3934 10.7439L92.0092 11.7489L93.0251 11.3946L92.8605 10.9224ZM88.8719 3.91836L88.917 3.4204L88.8167 3.41132L88.7208 3.44175L88.8719 3.91836ZM87.1844 7.4204L86.8042 7.74515L86.8622 7.8131L86.9402 7.85673L87.1844 7.4204ZM89.792 6.10714L89.9675 5.63893L89.292 5.38582L89.292 6.10714L89.792 6.10714ZM102.065 13.2571L101.85 13.7087L101.85 13.7087L102.065 13.2571ZM89.792 15.4459L89.4027 15.1321L90.0399 15.8802L89.792 15.4459ZM101.298 15.8837L101.707 15.5967L101.281 14.9889L100.878 15.612L101.298 15.8837ZM102.525 18.5102L102.382 18.9895L102.382 18.9895L102.525 18.5102ZM105.133 13.2571L105.489 12.9061L105.489 12.9061L105.133 13.2571ZM134.281 14.5708L133.986 14.9746L133.986 14.9746L134.281 14.5708ZM155.451 21.5749L155.608 22.0498L156.356 21.8034L155.814 21.2312L155.451 21.5749ZM100.224 7.27487L100.029 6.81462L100.338 7.76176L100.224 7.27487ZM135.048 8.29631L134.808 8.7349L134.808 8.7349L135.048 8.29631ZM106.811 9.13042C102.993 7.98036 99.295 8.57801 96.2447 9.77097C93.1984 10.9623 90.7638 12.7598 89.4404 14.069L90.1437 14.7799C91.377 13.5599 93.6979 11.8407 96.6089 10.7023C99.5158 9.56541 102.977 9.02004 106.522 10.0879L106.811 9.13042ZM117.442 21.7727C117.489 21.3294 117.429 20.5016 117.184 19.4854C116.937 18.4572 116.494 17.2033 115.748 15.9078C114.252 13.3081 111.545 10.5565 106.811 9.13042L106.522 10.0879C110.992 11.4343 113.502 14.0087 114.882 16.4067C115.574 17.61 115.985 18.7729 116.212 19.7192C116.442 20.6774 116.478 21.3818 116.448 21.6681L117.442 21.7727ZM111.505 21.2857C112.333 20.8428 113.341 20.8562 114.32 21.1002C115.294 21.343 116.169 21.7973 116.664 22.134L117.226 21.3068C116.648 20.9139 115.666 20.4051 114.562 20.1299C113.462 19.8559 112.169 19.7964 111.033 20.404L111.505 21.2857ZM115.079 26.4913C115.529 25.7009 115.658 24.936 115.534 24.222C115.412 23.5169 115.052 22.9065 114.599 22.3984C113.704 21.3923 112.376 20.7056 111.436 20.3734L111.103 21.3163C111.952 21.6165 113.109 22.2284 113.853 23.0633C114.22 23.4758 114.467 23.9214 114.549 24.3925C114.629 24.8547 114.557 25.386 114.21 25.9964L115.079 26.4913ZM107.619 27.5228C107.849 27.9056 108.322 28.2417 108.848 28.4834C109.395 28.7345 110.077 28.9202 110.807 28.9504C112.291 29.0118 113.976 28.4267 115.079 26.4913L114.21 25.9964C113.317 27.5631 112.011 27.9994 110.849 27.9513C110.256 27.9268 109.702 27.7751 109.265 27.5747C108.809 27.365 108.553 27.1357 108.476 27.0078L107.619 27.5228ZM110.788 23.6092C110.948 24.1643 110.92 24.6041 110.798 24.9566C110.675 25.3131 110.441 25.6171 110.132 25.8741C109.502 26.3984 108.612 26.6809 107.978 26.7702L108.117 27.7604C108.864 27.6552 109.952 27.3248 110.772 26.6428C111.188 26.2967 111.547 25.8492 111.743 25.2839C111.94 24.7147 111.959 24.0626 111.75 23.3336L110.788 23.6092ZM103.385 23.7717C104.435 22.3736 106.125 21.6351 107.65 21.6185C109.176 21.6018 110.41 22.2909 110.788 23.6092L111.75 23.3336C111.207 21.4417 109.45 20.5987 107.639 20.6185C105.828 20.6383 103.836 21.5049 102.585 23.1712L103.385 23.7717ZM108.152 32.3213C105.929 31.8437 104.207 30.3756 103.313 28.6742C102.415 26.9658 102.384 25.1049 103.385 23.7717L102.585 23.1712C101.285 24.9022 101.408 27.2 102.427 29.1395C103.451 31.0861 105.41 32.7552 107.942 33.299L108.152 32.3213ZM120.434 22.5865C120.361 26.4865 118.431 29.1485 115.948 30.7285C113.444 32.3223 110.394 32.8028 108.152 32.3213L107.942 33.299C110.457 33.839 113.773 33.2981 116.485 31.5722C119.218 29.8326 121.353 26.8768 121.434 22.6053L120.434 22.5865ZM102.575 8.35562C106.017 8.00739 110.535 9.5829 114.193 12.291C117.855 15.002 120.506 18.7348 120.434 22.5865L121.434 22.6053C121.515 18.2856 118.567 14.2847 114.788 11.4873C111.006 8.68699 106.243 6.97934 102.474 7.3607L102.575 8.35562ZM113.633 6.92428C108.899 6.33185 104.196 6.97171 102.416 7.37023L102.634 8.34609C104.331 7.96638 108.915 7.34162 113.508 7.91653L113.633 6.92428ZM136.126 17.6814C133.252 15.3905 129.114 12.8914 124.969 10.8741C120.833 8.86161 116.631 7.29957 113.633 6.92428L113.508 7.91653C116.339 8.27083 120.421 9.77308 124.531 11.7733C128.632 13.7688 132.702 16.2309 135.503 18.4635L136.126 17.6814ZM157.934 23.1331C155.21 23.8335 151.16 23.5969 147.054 22.6024C142.956 21.6098 138.889 19.883 136.126 17.6814L135.503 18.4635C138.417 20.7853 142.634 22.5606 146.819 23.5743C150.997 24.5863 155.232 24.8604 158.183 24.1016L157.934 23.1331ZM165.161 26.9133C163.987 26.8069 162.621 26.1977 161.358 25.4363C160.107 24.6815 159.013 23.8117 158.396 23.2481L157.722 23.9866C158.383 24.5903 159.529 25.5007 160.842 26.2926C162.144 27.078 163.667 27.7821 165.071 27.9092L165.161 26.9133ZM169.24 23.4732C169.567 24.5291 169.275 25.4184 168.581 26.0338C167.866 26.6673 166.673 27.0502 165.161 26.9133L165.071 27.9092C166.78 28.064 168.271 27.6444 169.244 26.7822C170.237 25.902 170.636 24.6026 170.196 23.1778L169.24 23.4732ZM164.965 26.4286C166.596 26.946 167.847 26.5741 168.725 25.8485C169.573 25.1473 170.032 24.151 170.204 23.4434L169.232 23.2076C169.097 23.7647 168.728 24.5485 168.088 25.0779C167.477 25.5829 166.581 25.892 165.267 25.4754L164.965 26.4286ZM159.144 23.729C159.858 24.2512 161.974 25.4804 164.965 26.4286L165.267 25.4754C162.367 24.5559 160.351 23.3726 159.735 22.922L159.144 23.729ZM170.305 12.9986C169.667 15.7575 167.734 17.9773 165.517 19.6425C163.303 21.3055 160.857 22.3753 159.295 22.8468L159.584 23.8042C161.244 23.303 163.799 22.1839 166.118 20.4421C168.434 18.7026 170.567 16.3017 171.279 13.2239L170.305 12.9986ZM161.431 8.06055C161.986 6.80759 162.896 6.08987 163.919 5.79405C164.955 5.49473 166.139 5.61903 167.226 6.12295C169.385 7.12474 171.091 9.59673 170.305 12.9986L171.279 13.2239C172.18 9.3298 170.205 6.40282 167.646 5.21583C166.374 4.62536 164.941 4.45783 163.642 4.83338C162.33 5.21243 161.189 6.1363 160.516 7.65578L161.431 8.06055ZM163.471 10.8621C162.28 10.759 161.763 10.2464 161.531 9.72103C161.278 9.14838 161.322 8.45878 161.454 7.99598L160.493 7.72035C160.319 8.32761 160.24 9.2723 160.616 10.1248C161.013 11.0246 161.876 11.7279 163.385 11.8583L163.471 10.8621ZM164.967 8.79315C165.177 9.26076 165.292 9.86116 165.141 10.272C165.074 10.4537 164.953 10.6091 164.726 10.7191C164.484 10.8359 164.092 10.9158 163.471 10.8621L163.385 11.8583C164.114 11.9214 164.704 11.8408 165.161 11.6192C165.633 11.3909 165.928 11.0301 166.08 10.6171C166.366 9.83874 166.128 8.93618 165.878 8.38236L164.967 8.79315ZM163.01 9.30008C163.218 9.61668 163.492 9.832 163.823 9.91226C164.145 9.99014 164.45 9.92386 164.699 9.81686C165.182 9.6094 165.591 9.19108 165.82 8.89146L165.025 8.28406C164.845 8.51947 164.563 8.78696 164.305 8.89809C164.183 8.95039 164.105 8.95159 164.059 8.9404C164.023 8.93159 163.945 8.90128 163.846 8.75094L163.01 9.30008ZM164.861 6.33951C164.022 6.25084 163.282 6.55911 162.892 7.16914C162.498 7.78505 162.54 8.58385 163.01 9.30008L163.846 8.75094C163.55 8.29983 163.591 7.93128 163.734 7.70816C163.881 7.47916 164.215 7.27671 164.756 7.33397L164.861 6.33951ZM168.98 12.4845C169.4 10.4886 168.766 8.97696 167.822 7.95637C166.901 6.96094 165.679 6.42596 164.861 6.33951L164.756 7.33397C165.319 7.39343 166.322 7.80692 167.088 8.63547C167.831 9.43886 168.349 10.6267 168.001 12.2787L168.98 12.4845ZM157.325 22.0734C159.702 21.9175 162.41 20.4556 164.594 18.6193C166.771 16.7887 168.562 14.4727 168.98 12.4845L168.001 12.2787C167.652 13.9385 166.068 16.073 163.95 17.8539C161.839 19.6291 159.331 20.9397 157.259 21.0756L157.325 22.0734ZM154.8 19.8939L156.947 21.9368L157.636 21.2122L155.489 19.1693L154.8 19.8939ZM152.557 15.4182C154.211 16.5719 154.644 18.6448 154.644 19.5316L155.644 19.5316C155.644 18.4729 155.157 16.0126 153.129 14.5981L152.557 15.4182ZM147.169 12.8582C148.223 13.1923 150.776 14.1759 152.557 15.4182L153.129 14.5981C151.228 13.2722 148.566 12.2519 147.471 11.905L147.169 12.8582ZM134.833 6.60337C139.507 7.1808 142.485 8.33061 144.304 9.50073C146.139 10.6813 146.748 11.8471 146.824 12.4448L147.816 12.3184C147.688 11.311 146.809 9.92326 144.845 8.65972C142.864 7.38572 139.731 6.20083 134.956 5.61091L134.833 6.60337ZM127.531 2.66735C132.631 2.66735 134.205 5.1804 134.403 6.20265L135.385 6.01164C135.073 4.40735 132.985 1.66735 127.531 1.66735L127.531 2.66735ZM106.375 4.82706C108.764 3.97478 112.391 3.43118 116.278 3.10333C120.153 2.77654 124.242 2.66735 127.531 2.66735L127.531 1.66735C124.223 1.66735 120.105 1.77704 116.194 2.10687C112.296 2.43566 108.559 2.98644 106.039 3.88518L106.375 4.82706ZM97.9918 8.30603C99.1511 7.73068 102.467 6.22095 106.375 4.82706L106.039 3.88518C102.092 5.29293 98.74 6.81829 97.5472 7.41029L97.9918 8.30603ZM95.2361 1.44274C96.8731 2.30181 97.5346 3.50397 97.7292 4.64791C97.9285 5.81955 97.6411 6.96284 97.3179 7.64371L98.2212 8.07261C98.6138 7.24565 98.9555 5.89375 98.715 4.4802C98.4698 3.03895 97.6228 1.56594 95.7008 0.557263L95.2361 1.44274ZM93.3031 3.10205C93.0984 2.71274 93.1049 2.47521 93.15 2.33509C93.1971 2.18859 93.3213 2.03979 93.5643 1.90142C94.0676 1.6148 94.8616 1.5 95.4684 1.5L95.4684 0.500001C94.7968 0.500001 93.796 0.618674 93.0694 1.03246C92.6975 1.24429 92.3481 1.56243 92.198 2.02879C92.0459 2.50152 92.1316 3.02277 92.4179 3.56734L93.3031 3.10205ZM94.2148 3.20424C94.0676 3.33607 93.9546 3.43621 93.8493 3.50929C93.7428 3.5831 93.6929 3.59368 93.6814 3.59475C93.6798 3.59489 93.681 3.59501 93.6796 3.59455C93.6768 3.59358 93.6591 3.58722 93.6269 3.56068C93.5564 3.50259 93.4451 3.37231 93.3031 3.10205L92.4179 3.56734C92.7441 4.18798 93.1687 4.6464 93.7734 4.5905C94.0349 4.56634 94.254 4.44554 94.4192 4.331C94.5854 4.21573 94.7464 4.07055 94.8819 3.94926L94.2148 3.20424ZM96.8824 2.96823C96.6291 2.73307 96.3651 2.57059 96.0858 2.49173C95.8008 2.41127 95.5312 2.4268 95.2867 2.50056C94.8349 2.63691 94.4635 2.98161 94.2148 3.20424L94.8819 3.94926C95.1751 3.68676 95.3775 3.51769 95.5756 3.45792C95.6561 3.43362 95.7305 3.43051 95.814 3.4541C95.9033 3.4793 96.0323 3.54358 96.2021 3.70116L96.8824 2.96823ZM93.0251 11.3946C95.4566 10.5466 96.9268 8.94831 97.5438 7.30425C98.1499 5.68941 97.9443 3.95385 96.8824 2.96823L96.2021 3.70116C96.8695 4.32064 97.1242 5.57641 96.6076 6.95288C96.1019 8.30015 94.8666 9.69323 92.6958 10.4503L93.0251 11.3946ZM88.8268 4.41632C90.0448 4.52667 90.8949 4.86494 91.4841 5.3083C92.0705 5.74965 92.4295 6.31825 92.6296 6.94506C93.0376 8.22254 92.7799 9.73307 92.3934 10.7439L93.3275 11.101C93.7592 9.97168 94.0845 8.21364 93.5822 6.64085C93.3273 5.84252 92.8578 5.09056 92.0853 4.50927C91.3156 3.92998 90.2761 3.54353 88.917 3.4204L88.8268 4.41632ZM87.5646 7.09565C87.2173 6.6891 87.1099 6.36589 87.1021 6.12381C87.0944 5.88364 87.1822 5.65279 87.3622 5.42448C87.7406 4.94463 88.451 4.57634 89.023 4.39498L88.7208 3.44175C88.0655 3.6495 87.1344 4.09835 86.577 4.80531C86.2891 5.1704 86.0855 5.62537 86.1026 6.15613C86.1197 6.68498 86.3537 7.21783 86.8042 7.74515L87.5646 7.09565ZM89.292 6.10714C89.292 6.60253 89.1941 6.88395 89.0907 7.03926C88.9957 7.18178 88.8721 7.25549 88.7133 7.28818C88.3464 7.36374 87.8262 7.20658 87.4285 6.98407L86.9402 7.85673C87.4118 8.12062 88.1954 8.41581 88.915 8.26763C89.2995 8.18845 89.6648 7.98127 89.923 7.59361C90.1726 7.21875 90.292 6.72073 90.292 6.10714L89.292 6.10714ZM90.1847 14.7341C92.2554 12.1077 92.7722 10.0351 92.432 8.47058C92.092 6.90657 90.928 5.99888 89.9675 5.63893L89.6166 6.57534C90.3434 6.84771 91.2043 7.53053 91.4549 8.68303C91.7053 9.83498 91.3784 11.6049 89.3994 14.1149L90.1847 14.7341ZM102.279 12.8056C100.276 11.8526 97.7018 12.0717 95.3829 12.6632C93.044 13.2598 90.8546 14.2638 89.5442 15.0116L90.0399 15.8802C91.2862 15.1689 93.3923 14.2029 95.6301 13.6322C97.8879 13.0563 100.172 12.9106 101.85 13.7087L102.279 12.8056ZM100.888 16.1706C101.308 16.7691 101.965 17.0112 102.575 17.0197C103.176 17.0281 103.801 16.8136 104.217 16.4048C104.43 16.1959 104.597 15.927 104.659 15.6068C104.722 15.2831 104.67 14.945 104.507 14.6159C104.193 13.9789 103.465 13.3695 102.279 12.8056L101.85 13.7087C102.965 14.2391 103.446 14.7241 103.611 15.0585C103.688 15.2149 103.694 15.3317 103.677 15.4167C103.66 15.5052 103.611 15.5988 103.517 15.6909C103.32 15.8839 102.967 16.0251 102.589 16.0198C102.222 16.0147 101.901 15.8737 101.707 15.5967L100.888 16.1706ZM102.667 18.0309C101.807 17.7752 101.572 17.3864 101.509 17.1064C101.436 16.7762 101.557 16.403 101.717 16.1553L100.878 15.612C100.629 15.9966 100.382 16.6448 100.533 17.3239C100.696 18.0532 101.279 18.6615 102.382 18.9895L102.667 18.0309ZM104.777 13.6081C105.743 14.589 105.72 15.8322 105.177 16.7856C104.619 17.7667 103.602 18.3088 102.667 18.0309L102.382 18.9895C103.902 19.4412 105.339 18.5241 106.047 17.28C106.77 16.0081 106.823 14.26 105.489 12.9061L104.777 13.6081ZM90.1813 15.7597C91.8215 13.7249 94.9182 12.6189 97.9694 12.3322C99.4822 12.1901 100.949 12.2535 102.166 12.4895C103.402 12.729 104.308 13.1322 104.777 13.6081L105.489 12.9061C104.807 12.2147 103.661 11.7606 102.356 11.5077C101.033 11.2512 99.4696 11.1869 97.8759 11.3366C94.7143 11.6336 91.2912 12.7894 89.4027 15.1321L90.1813 15.7597ZM133.986 14.9746C144.615 22.7333 152.74 22.994 155.608 22.0498L155.295 21.0999C152.844 21.9067 145.056 21.8173 134.576 14.1669L133.986 14.9746ZM100.338 7.76176C108.978 5.74324 120.939 5.45031 133.986 14.9746L134.576 14.1669C121.237 4.43006 108.959 4.7208 100.111 6.78798L100.338 7.76176ZM135.288 7.85771C128.68 4.24039 121.422 3.32151 115.054 3.63092C108.688 3.94025 103.176 5.47859 100.029 6.81462L100.42 7.73512C103.46 6.44463 108.856 4.93328 115.102 4.62975C121.347 4.32631 128.407 5.2314 134.808 8.7349L135.288 7.85771ZM155.814 21.2312C155.085 20.4602 153.198 18.8957 149.891 16.6453C146.574 14.3877 141.804 11.4245 135.288 7.85771L134.808 8.7349C141.301 12.2889 146.042 15.2354 149.329 17.4721C152.626 19.7159 154.437 21.2304 155.088 21.9185L155.814 21.2312Z" fill="black"/>
<path fill-rule="evenodd" clip-rule="evenodd" d="M82.208 14.4247C79.6513 11.8955 72.6969 7.39147 65.3333 9.60943C56.1288 12.3819 54.9016 20.2615 55.055 21.7206C56.1288 20.9911 58.7673 19.7945 60.7309 20.8451C58.9412 21.4774 55.7605 23.4425 57.356 26.2441C59.3503 29.7462 63.3389 28.287 63.9525 27.2655C62.5718 27.071 59.9946 26.0398 60.7309 23.4717C61.6514 20.2615 66.7139 20.4074 69.015 23.4717C71.3161 26.536 68.7082 31.789 63.9525 32.8104C59.1969 33.8319 51.2196 30.7676 51.0662 22.5962C50.9128 14.4247 62.2647 7.12882 69.4752 7.85842C67.7365 7.4693 63.0931 6.83699 58.4295 7.42066C52.6 8.15025 41.8614 13.5492 36.1853 18.0727C30.5092 22.5962 19.6172 25.0768 13.9411 23.6176C12.6627 24.7849 9.46163 27.178 6.88437 27.4115C3.6628 27.7033 1.51509 25.8064 2.28213 23.3257C2.58897 24.5904 3.93899 26.8862 6.88437 25.9523C9.82976 25.0184 11.8956 23.8121 12.5604 23.3257C9.33884 22.353 2.5582 18.9482 1.20821 13.1115C-0.479276 5.81555 8.5718 2.31352 11.0263 7.85841C11.3332 8.92848 11.2718 11.127 8.57183 11.3604C5.87185 11.5939 6.1173 9.60943 6.57752 8.588C6.98661 9.12303 7.9582 9.95963 8.57183 9.02576C9.33887 7.85841 8.57183 6.69106 7.19116 6.83698C5.81048 6.9829 2.74232 8.73392 3.50936 12.3819C4.2764 16.0298 10.2593 21.2829 14.7081 21.5747L16.8559 19.5319C16.8559 18.5591 17.3161 16.2925 19.157 15.0084C20.9979 13.7243 23.6058 12.7224 24.6797 12.3819C24.8842 10.7768 27.6558 7.27474 37.1057 6.10739C37.3613 4.79413 39.1918 2.1676 44.4693 2.1676C51.0662 2.1676 60.8837 2.60536 65.793 4.35638C69.7205 5.75719 73.0544 7.27474 74.2305 7.85842C73.5146 6.35059 72.9725 2.86801 76.5316 1.00026C77.81 1.00026 80.1213 1.4672 79.1395 3.33495C78.5128 4.52713 78.0171 4.08324 77.4516 3.57701C76.9098 3.09187 76.304 2.54947 75.4577 3.33495C73.7284 4.94005 74.5373 9.3176 79.1395 10.9227C78.3214 8.78257 77.9736 4.38556 83.1281 3.91862C84.3554 4.30774 86.4111 5.55291 84.8156 7.42066C83.9464 7.90706 82.208 8.32535 82.208 6.1074C80.5206 6.73971 78.1582 9.28841 82.208 14.4247ZM82.208 15.4462C79.6512 13.987 73.6171 11.5064 69.9353 13.2574C65.3331 15.4462 69.4751 17.6349 70.7024 15.8839C71.1115 16.5162 71.4389 17.9268 69.4752 18.5104C67.0207 19.24 64.5662 15.5921 66.8673 13.2574C69.1684 10.9227 78.6794 11.0686 82.208 15.4462ZM16.5493 21.5748C19.2084 22.4503 27.1652 22.2752 37.7196 14.5707C50.9127 4.94013 63.032 5.23197 71.7762 7.27483C65.5888 4.6483 49.9616 1.17544 36.9526 8.29625C23.9436 15.4171 17.93 20.1156 16.5493 21.5748Z" fill="black"/>
<path d="M65.3333 9.60943L65.1891 9.13068L65.1891 9.13068L65.3333 9.60943ZM82.208 14.4247L82.6006 14.1152L81.8563 14.7802L82.208 14.4247ZM55.055 21.7206L55.336 22.1342L54.6451 22.6037L54.5577 21.7729L55.055 21.7206ZM60.7309 20.8451L60.9668 20.4043L61.9662 20.939L60.8975 21.3166L60.7309 20.8451ZM57.356 26.2441L56.9215 26.4915L56.9215 26.4915L57.356 26.2441ZM63.9525 27.2655L64.0223 26.7704L64.7699 26.8758L64.3811 27.523L63.9525 27.2655ZM60.7309 23.4717L60.2503 23.3339L60.2503 23.3339L60.7309 23.4717ZM69.015 23.4717L68.6152 23.7719L68.6152 23.7719L69.015 23.4717ZM63.9525 32.8104L64.0575 33.2993L64.0575 33.2993L63.9525 32.8104ZM69.4752 7.85842L69.5844 7.37048L69.4249 8.35588L69.4752 7.85842ZM58.4295 7.42066L58.4916 7.91679L58.4916 7.91679L58.4295 7.42066ZM13.9411 23.6176L13.604 23.2484L13.8037 23.066L14.0656 23.1333L13.9411 23.6176ZM6.88437 27.4115L6.92948 27.9094L6.92948 27.9094L6.88437 27.4115ZM2.28213 23.3257L1.80445 23.178L2.34032 21.445L2.76803 23.2079L2.28213 23.3257ZM6.88437 25.9523L7.03549 26.4289L7.03549 26.4289L6.88437 25.9523ZM12.5604 23.3257L12.7049 22.8471L13.6651 23.137L12.8557 23.7293L12.5604 23.3257ZM1.20821 13.1115L0.721072 13.2241L0.721072 13.2241L1.20821 13.1115ZM11.0263 7.85841L11.4835 7.65602L11.4975 7.6875L11.507 7.7206L11.0263 7.85841ZM8.57183 11.3604L8.52875 10.8623L8.52875 10.8623L8.57183 11.3604ZM6.57752 8.588L6.12166 8.3826L6.46583 7.61874L6.97472 8.2843L6.57752 8.588ZM8.57183 9.02576L8.15396 8.75119L8.15396 8.75118L8.57183 9.02576ZM7.19116 6.83698L7.1386 6.33975L7.13861 6.33975L7.19116 6.83698ZM3.50936 12.3819L3.99866 12.279L3.99866 12.279L3.50936 12.3819ZM14.7081 21.5747L15.0527 21.937L14.894 22.088L14.6754 22.0737L14.7081 21.5747ZM16.8559 19.5319L17.3559 19.5319L17.3559 19.7463L17.2005 19.8942L16.8559 19.5319ZM24.6797 12.3819L25.1757 12.4451L25.1353 12.762L24.8308 12.8585L24.6797 12.3819ZM37.1057 6.10739L37.5965 6.2029L37.5272 6.55913L37.167 6.60362L37.1057 6.10739ZM65.793 4.35638L65.961 3.88544L65.961 3.88544L65.793 4.35638ZM74.2305 7.85842L74.6821 7.64396L75.3013 8.94809L74.0082 8.30629L74.2305 7.85842ZM76.5316 1.00026L76.2993 0.557521L76.4084 0.500258L76.5316 0.500258L76.5316 1.00026ZM79.1395 3.33495L79.5821 3.5676L79.5821 3.5676L79.1395 3.33495ZM77.4516 3.57701L77.1181 3.94952L77.1181 3.94952L77.4516 3.57701ZM75.4577 3.33495L75.1176 2.96848L75.1176 2.96848L75.4577 3.33495ZM79.1395 10.9227L79.6066 10.7442L79.9908 11.7491L78.9749 11.3948L79.1395 10.9227ZM83.1281 3.91862L83.083 3.42066L83.1833 3.41158L83.2793 3.44201L83.1281 3.91862ZM84.8156 7.42066L85.1958 7.74541L85.1378 7.81336L85.0598 7.85699L84.8156 7.42066ZM82.208 6.1074L82.0325 5.63919L82.708 5.38608L82.708 6.1074L82.208 6.1074ZM69.9353 13.2574L70.1501 13.7089L70.1501 13.7089L69.9353 13.2574ZM82.208 15.4462L82.5973 15.1324L81.9601 15.8804L82.208 15.4462ZM70.7024 15.8839L70.2929 15.5969L70.7189 14.9891L71.1222 15.6123L70.7024 15.8839ZM69.4752 18.5104L69.6177 18.9897L69.6177 18.9897L69.4752 18.5104ZM66.8673 13.2574L66.5112 12.9064L66.5112 12.9064L66.8673 13.2574ZM37.7196 14.5707L38.0144 14.9746L38.0144 14.9746L37.7196 14.5707ZM16.5493 21.5748L16.3929 22.0497L15.6447 21.8034L16.1861 21.2312L16.5493 21.5748ZM71.7762 7.27483L71.9716 6.81458L71.6625 7.76172L71.7762 7.27483ZM36.9526 8.29625L36.7125 7.85766L36.7125 7.85766L36.9526 8.29625ZM65.1891 9.13068C69.0073 7.98061 72.705 8.57827 75.7553 9.77123C78.8016 10.9626 81.2362 12.7601 82.5596 14.0693L81.8563 14.7802C80.623 13.5601 78.3021 11.841 75.3911 10.7025C72.4842 9.56567 69.0229 9.02029 65.4775 10.0882L65.1891 9.13068ZM54.5577 21.7729C54.5111 21.3297 54.5715 20.5019 54.8157 19.4857C55.0629 18.4575 55.506 17.2036 56.2516 15.9081C57.7478 13.3084 60.4545 10.5568 65.1891 9.13068L65.4775 10.0882C61.0077 11.4345 58.4984 14.0089 57.1183 16.4069C56.4257 17.6103 56.0155 18.7732 55.788 19.7194C55.5577 20.6777 55.5221 21.382 55.5522 21.6684L54.5577 21.7729ZM60.4951 21.286C59.6671 20.843 58.6594 20.8565 57.6802 21.1005C56.706 21.3433 55.8314 21.7976 55.336 22.1342L54.774 21.3071C55.3524 20.9141 56.334 20.4054 57.4384 20.1302C58.5378 19.8562 59.8312 19.7967 60.9668 20.4043L60.4951 21.286ZM56.9215 26.4915C56.4714 25.7011 56.3423 24.9363 56.4659 24.2222C56.5879 23.5172 56.9482 22.9067 57.4005 22.3987C58.2962 21.3926 59.6242 20.7058 60.5644 20.3737L60.8975 21.3166C60.0479 21.6167 58.8907 22.2287 58.1475 23.0636C57.7803 23.476 57.5328 23.9217 57.4512 24.3928C57.3712 24.8549 57.4428 25.3863 57.7904 25.9967L56.9215 26.4915ZM64.3811 27.523C64.1511 27.9059 63.6784 28.2419 63.1521 28.4837C62.6055 28.7348 61.9234 28.9205 61.1926 28.9507C59.709 29.0121 58.0236 28.4269 56.9215 26.4915L57.7904 25.9967C58.6826 27.5634 59.9887 27.9996 61.1513 27.9516C61.7437 27.9271 62.2985 27.7753 62.7347 27.575C63.1911 27.3653 63.4471 27.1359 63.5239 27.0081L64.3811 27.523ZM61.2116 23.6095C61.0524 24.1645 61.0799 24.6044 61.202 24.9569C61.3254 25.3134 61.5587 25.6173 61.8676 25.8744C62.4977 26.3986 63.3884 26.6811 64.0223 26.7704L63.8827 27.7606C63.1359 27.6554 62.0476 27.325 61.228 26.6431C60.8121 26.297 60.4528 25.8494 60.257 25.2842C60.0599 24.715 60.0413 24.0629 60.2503 23.3339L61.2116 23.6095ZM68.6152 23.7719C67.5653 22.3739 65.8755 21.6354 64.3497 21.6187C62.8238 21.602 61.5896 22.2911 61.2116 23.6095L60.2503 23.3339C60.7928 21.442 62.55 20.599 64.3607 20.6188C66.1715 20.6386 68.1635 21.5052 69.4148 23.1714L68.6152 23.7719ZM63.8475 32.3216C66.0712 31.844 67.7931 30.3758 68.6874 28.6745C69.5855 26.9661 69.6163 25.1052 68.6152 23.7719L69.4148 23.1714C70.7147 24.9025 70.5922 27.2002 69.5726 29.1398C68.5493 31.0864 66.5895 32.7555 64.0575 33.2993L63.8475 32.3216ZM51.5661 22.5868C51.6394 26.4867 53.5694 29.1487 56.052 30.7288C58.5561 32.3225 61.606 32.803 63.8475 32.3216L64.0575 33.2993C61.5434 33.8393 58.2269 33.2984 55.5151 31.5724C52.7818 29.8328 50.6465 26.877 50.5663 22.6055L51.5661 22.5868ZM69.4249 8.35588C65.9833 8.00764 61.4646 9.58316 57.8068 12.2913C54.145 15.0023 51.4938 18.7351 51.5661 22.5868L50.5663 22.6055C50.4852 18.2858 53.4333 14.285 57.2117 11.4876C60.9941 8.68724 65.7566 6.9796 69.5256 7.36096L69.4249 8.35588ZM58.3674 6.92453C63.101 6.3321 67.8036 6.97196 69.5844 7.37048L69.366 8.34635C67.6693 7.96664 63.0852 7.34187 58.4916 7.91679L58.3674 6.92453ZM35.8737 17.6817C38.7483 15.3908 42.8858 12.8917 47.0311 10.8744C51.1665 8.86186 55.3687 7.29983 58.3674 6.92453L58.4916 7.91679C55.6607 8.27108 51.5789 9.77333 47.4687 11.7736C43.3683 13.769 39.2984 16.2311 36.4969 18.4637L35.8737 17.6817ZM14.0656 23.1333C16.79 23.8337 20.8397 23.5971 24.9455 22.6027C29.0441 21.61 33.1111 19.8833 35.8737 17.6817L36.4969 18.4637C33.5834 20.7856 29.3664 22.5609 25.1809 23.5746C21.0027 24.5865 16.7683 24.8606 13.8167 24.1018L14.0656 23.1333ZM6.83926 26.9135C8.0135 26.8071 9.37925 26.1979 10.6416 25.4366C11.893 24.6818 12.9867 23.812 13.604 23.2484L14.2783 23.9868C13.6171 24.5905 12.4711 25.5009 11.1581 26.2929C9.85594 27.0782 8.3325 27.7823 6.92948 27.9094L6.83926 26.9135ZM2.75982 23.4735C2.43333 24.5293 2.72474 25.4186 3.41917 26.0341C4.13385 26.6675 5.32698 27.0505 6.83926 26.9135L6.92948 27.9094C5.22019 28.0643 3.72868 27.6447 2.75588 26.7824C1.76282 25.9023 1.36389 24.6028 1.80445 23.178L2.75982 23.4735ZM7.03549 26.4289C5.40391 26.9462 4.15254 26.5743 3.27515 25.8488C2.42722 25.1476 1.96791 24.1512 1.79623 23.4436L2.76803 23.2079C2.90319 23.7649 3.2723 24.5488 3.91244 25.0781C4.52312 25.5831 5.41945 25.8922 6.73325 25.4757L7.03549 26.4289ZM12.8557 23.7293C12.142 24.2514 10.0262 25.4807 7.03549 26.4289L6.73325 25.4757C9.63335 24.5561 11.6493 23.3729 12.2652 22.9222L12.8557 23.7293ZM1.69535 12.9988C2.33347 15.7577 4.2656 17.9776 6.48274 19.6428C8.69687 21.3058 11.1432 22.3755 12.7049 22.8471L12.4159 23.8044C10.7561 23.3032 8.20128 22.1842 5.88219 20.4424C3.56613 18.7029 1.43294 16.3019 0.721072 13.2241L1.69535 12.9988ZM10.5691 8.0608C10.0145 6.80783 9.10397 6.09012 8.08059 5.79429C7.0451 5.49497 5.86051 5.61928 4.77446 6.12319C2.61538 7.12498 0.908538 9.59698 1.69535 12.9988L0.721072 13.2241C-0.179602 9.33004 1.79535 6.40306 4.35357 5.21608C5.62617 4.62561 7.0591 4.45808 8.35829 4.83363C9.66959 5.21268 10.8109 6.13654 11.4835 7.65602L10.5691 8.0608ZM8.52875 10.8623C9.72005 10.7593 10.2373 10.2466 10.4692 9.72127C10.7219 9.14863 10.6784 8.45903 10.5457 7.99622L11.507 7.7206C11.6811 8.32786 11.7603 9.27255 11.3841 10.125C10.987 11.0248 10.1236 11.7281 8.6149 11.8586L8.52875 10.8623ZM7.03339 8.7934C6.8227 9.26101 6.70783 9.86141 6.85889 10.2723C6.92567 10.4539 7.04697 10.6093 7.2743 10.7193C7.51553 10.8361 7.90765 10.916 8.52875 10.8623L8.6149 11.8586C7.88602 11.9216 7.29632 11.841 6.83859 11.6194C6.36695 11.3911 6.07213 11.0303 5.92031 10.6173C5.63415 9.83898 5.87213 8.93642 6.12166 8.3826L7.03339 8.7934ZM8.98969 9.30033C8.78166 9.61692 8.50782 9.83225 8.17663 9.91251C7.8553 9.99038 7.5496 9.9241 7.30059 9.81711C6.81774 9.60965 6.40942 9.19132 6.18033 8.8917L6.97472 8.2843C7.15472 8.51971 7.43673 8.78721 7.69536 8.89833C7.81708 8.95063 7.8949 8.95184 7.94111 8.94064C7.97746 8.93183 8.05518 8.90153 8.15396 8.75119L8.98969 9.30033ZM7.13861 6.33975C7.97753 6.25109 8.71765 6.55935 9.10803 7.16939C9.50217 7.78529 9.46032 8.58409 8.98969 9.30033L8.15396 8.75118C8.45038 8.30007 8.40852 7.93153 8.26574 7.7084C8.11919 7.47941 7.78545 7.27696 7.24371 7.33421L7.13861 6.33975ZM3.02006 12.4848C2.6004 10.4889 3.23363 8.9772 4.17785 7.95661C5.09879 6.96118 6.32059 6.4262 7.1386 6.33975L7.24371 7.33421C6.68105 7.39368 5.67844 7.80717 4.91189 8.63572C4.16862 9.4391 3.65128 10.6269 3.99866 12.279L3.02006 12.4848ZM14.6754 22.0737C12.298 21.9177 9.59037 20.4559 7.40631 18.6196C5.22907 16.789 3.4381 14.4729 3.02006 12.4848L3.99866 12.279C4.34766 13.9388 5.93167 16.0732 8.04985 17.8541C10.1612 19.6293 12.6694 20.9399 14.7409 21.0758L14.6754 22.0737ZM17.2005 19.8942L15.0527 21.937L14.3636 21.2124L16.5113 19.1696L17.2005 19.8942ZM19.443 15.4185C17.7892 16.5721 17.3559 18.645 17.3559 19.5319L16.3559 19.5319C16.3559 18.4731 16.843 16.0129 18.8709 14.5983L19.443 15.4185ZM24.8308 12.8585C23.7773 13.1925 21.2241 14.1762 19.443 15.4185L18.8709 14.5983C20.7717 13.2725 23.4343 12.2522 24.5286 11.9053L24.8308 12.8585ZM37.167 6.60362C32.4926 7.18105 29.5152 8.33086 27.6962 9.50098C25.861 10.6816 25.2518 11.8474 25.1757 12.4451L24.1837 12.3187C24.3121 11.3113 25.191 9.92351 27.1552 8.65997C29.1356 7.38597 32.2689 6.20108 37.0444 5.61116L37.167 6.60362ZM44.4693 2.6676C39.3689 2.6676 37.7954 5.18065 37.5965 6.2029L36.6149 6.01189C36.9271 4.4076 39.0146 1.6676 44.4693 1.6676L44.4693 2.6676ZM65.6251 4.82732C63.2355 3.97503 59.6091 3.43144 55.722 3.10359C51.8473 2.77679 47.7585 2.6676 44.4693 2.6676L44.4693 1.6676C47.7771 1.6676 51.8954 1.77729 55.806 2.10713C59.7042 2.43591 63.4412 2.9867 65.961 3.88544L65.6251 4.82732ZM74.0082 8.30629C72.8489 7.73094 69.5331 6.2212 65.6251 4.82732L65.961 3.88544C69.9079 5.29318 73.26 6.81855 74.4528 7.41054L74.0082 8.30629ZM76.7639 1.443C75.1269 2.30207 74.4654 3.50423 74.2708 4.64816C74.0715 5.8198 74.3589 6.9631 74.6821 7.64396L73.7788 8.07287C73.3862 7.24591 73.0445 5.894 73.285 4.48046C73.5302 3.03921 74.3772 1.5662 76.2993 0.557521L76.7639 1.443ZM78.697 3.1023C78.9016 2.713 78.8951 2.47547 78.85 2.33534C78.8029 2.18885 78.6787 2.04005 78.4357 1.90168C77.9324 1.61505 77.1384 1.50026 76.5316 1.50026L76.5316 0.500258C77.2032 0.500258 78.204 0.618932 78.9306 1.03272C79.3025 1.24455 79.6519 1.56269 79.802 2.02905C79.9541 2.50178 79.8684 3.02303 79.5821 3.5676L78.697 3.1023ZM77.7852 3.2045C77.9324 3.33633 78.0454 3.43647 78.1507 3.50955C78.2572 3.58336 78.3071 3.59394 78.3186 3.59501C78.3202 3.59515 78.319 3.59527 78.3204 3.5948C78.3233 3.59384 78.3409 3.58748 78.3731 3.56094C78.4436 3.50285 78.5549 3.37256 78.697 3.1023L79.5821 3.5676C79.2559 4.18824 78.8313 4.64665 78.2266 4.59076C77.9651 4.5666 77.746 4.4458 77.5808 4.33126C77.4146 4.21599 77.2536 4.0708 77.1181 3.94952L77.7852 3.2045ZM75.1176 2.96848C75.3709 2.73332 75.6349 2.57085 75.9142 2.49199C76.1992 2.41152 76.4688 2.42706 76.7133 2.50082C77.1651 2.63716 77.5365 2.98186 77.7852 3.2045L77.1181 3.94952C76.8249 3.68701 76.6225 3.51794 76.4244 3.45818C76.3439 3.43388 76.2695 3.43077 76.186 3.45436C76.0967 3.47956 75.9677 3.54384 75.7979 3.70142L75.1176 2.96848ZM78.9749 11.3948C76.5434 10.5468 75.0732 8.94857 74.4562 7.30451C73.8501 5.68966 74.0557 3.9541 75.1176 2.96848L75.7979 3.70142C75.1305 4.3209 74.8758 5.57666 75.3924 6.95314C75.8981 8.30041 77.1334 9.69349 79.3042 10.4506L78.9749 11.3948ZM83.1732 4.41658C81.9552 4.52693 81.1051 4.8652 80.5159 5.30856C79.9295 5.74991 79.5705 6.31851 79.3704 6.94532C78.9624 8.22279 79.2201 9.73333 79.6066 10.7442L78.6725 11.1012C78.2408 9.97194 77.9155 8.2139 78.4178 6.64111C78.6727 5.84278 79.1422 5.09082 79.9147 4.50953C80.6844 3.93024 81.7239 3.54379 83.083 3.42066L83.1732 4.41658ZM84.4355 7.09591C84.7827 6.68936 84.8901 6.36615 84.8979 6.12407C84.9056 5.8839 84.8178 5.65304 84.6378 5.42474C84.2594 4.94489 83.549 4.5766 82.977 4.39524L83.2793 3.44201C83.9345 3.64976 84.8656 4.09861 85.423 4.80557C85.7109 5.17066 85.9145 5.62562 85.8974 6.15639C85.8803 6.68524 85.6463 7.21808 85.1958 7.74541L84.4355 7.09591ZM82.708 6.1074C82.708 6.60279 82.8059 6.88421 82.9093 7.03952C83.0043 7.18203 83.128 7.25575 83.2867 7.28844C83.6536 7.364 84.1738 7.20684 84.5715 6.98433L85.0598 7.85699C84.5882 8.12088 83.8046 8.41607 83.085 8.26789C82.7005 8.1887 82.3352 7.98153 82.077 7.59387C81.8274 7.21901 81.708 6.72098 81.708 6.1074L82.708 6.1074ZM81.8153 14.7343C79.7446 12.1079 79.2278 10.0354 79.568 8.47084C79.908 6.90682 81.072 5.99914 82.0325 5.63919L82.3834 6.5756C81.6566 6.84797 80.7957 7.53079 80.5451 8.68328C80.2947 9.83523 80.6216 11.6052 82.6006 14.1152L81.8153 14.7343ZM69.7206 12.8059C71.7244 11.8529 74.2982 12.072 76.6171 12.6635C78.956 13.26 81.1454 14.264 82.4558 15.0119L81.9601 15.8804C80.7138 15.1691 78.6077 14.2032 76.3699 13.6324C74.1121 13.0565 71.8281 12.9109 70.1501 13.7089L69.7206 12.8059ZM71.1118 16.1709C70.6923 16.7694 70.0347 17.0114 69.4246 17.02C68.8245 17.0284 68.1995 16.8139 67.7827 16.405C67.5697 16.1961 67.403 15.9272 67.3411 15.607C67.2784 15.2833 67.3302 14.9452 67.4927 14.6161C67.807 13.9792 68.5349 13.3698 69.7206 12.8059L70.1501 13.7089C69.0347 14.2394 68.5544 14.7244 68.3894 15.0587C68.3121 15.2152 68.3064 15.332 68.3229 15.417C68.34 15.5055 68.3891 15.5991 68.4829 15.6911C68.6797 15.8842 69.0327 16.0254 69.4106 16.0201C69.7784 16.0149 70.0988 15.874 70.2929 15.5969L71.1118 16.1709ZM69.3328 18.0312C70.1931 17.7755 70.4281 17.3867 70.4906 17.1066C70.5641 16.7765 70.4429 16.4033 70.2826 16.1555L71.1222 15.6123C71.371 15.9968 71.618 16.6451 71.4666 17.3242C71.3041 18.0534 70.721 18.6618 69.6177 18.9897L69.3328 18.0312ZM67.2234 13.6084C66.2566 14.5892 66.2803 15.8325 66.8225 16.7858C67.3805 17.767 68.3979 18.309 69.3328 18.0312L69.6177 18.9897C68.098 19.4414 66.6609 18.5243 65.9533 17.2802C65.2299 16.0083 65.1768 14.2602 66.5112 12.9064L67.2234 13.6084ZM81.8187 15.7599C80.1785 13.7251 77.0818 12.6191 74.0306 12.3325C72.5178 12.1904 71.0513 12.2538 69.834 12.4897C68.5979 12.7293 67.6924 13.1325 67.2234 13.6084L66.5112 12.9064C67.1927 12.215 68.3391 11.7609 69.6437 11.508C70.9672 11.2515 72.5304 11.1872 74.1241 11.3369C77.2857 11.6339 80.7088 12.7896 82.5973 15.1324L81.8187 15.7599ZM38.0144 14.9746C27.3857 22.7332 19.2607 22.994 16.3929 22.0497L16.7057 21.0999C19.156 21.9067 26.9446 21.8172 37.4248 14.1669L38.0144 14.9746ZM71.6625 7.76172C63.0223 5.74319 51.0619 5.45026 38.0144 14.9746L37.4248 14.1669C50.7635 4.43001 63.0416 4.72075 71.89 6.78794L71.6625 7.76172ZM36.7125 7.85766C43.321 4.24034 50.5789 3.32146 56.9467 3.63088C63.3127 3.9402 68.8242 5.47854 71.9716 6.81458L71.5808 7.73508C68.5408 6.44459 63.145 4.93323 56.8982 4.6297C50.6534 4.32626 43.5932 5.23135 37.1927 8.73485L36.7125 7.85766ZM16.1861 21.2312C16.9157 20.4601 18.8021 18.8957 22.109 16.6453C25.4266 14.3876 30.1963 11.4245 36.7125 7.85766L37.1927 8.73485C30.6999 12.2888 25.9583 15.2354 22.6716 17.472C19.3743 19.7159 17.5636 21.2303 16.9125 21.9185L16.1861 21.2312Z" fill="black"/>
</svg>
