<svg width="54" height="279" viewBox="0 0 54 279" fill="none" xmlns="http://www.w3.org/2000/svg">
<path fill-rule="evenodd" clip-rule="evenodd" d="M22.9564 145.834C18.8197 149.995 11.4531 161.313 15.0807 173.298C19.6152 188.278 32.5026 190.275 34.8892 190.026C33.6959 188.278 31.7389 183.984 33.4573 180.788C34.4914 183.701 37.7054 188.877 42.2876 186.281C48.0153 183.035 45.6288 176.544 43.9582 175.545C43.6399 177.792 41.9534 181.986 37.7531 180.788C32.5026 179.29 32.7413 171.051 37.7531 167.306C42.7649 163.561 51.3565 167.805 53.0271 175.545C54.6977 183.285 49.6859 196.268 36.3211 196.517C22.9564 196.767 11.0235 178.292 12.2168 166.557C11.5804 169.386 10.5462 176.944 11.5009 184.534C12.6941 194.021 21.5244 211.498 28.9228 220.736C36.3211 229.974 40.3783 247.7 37.9917 256.938C39.901 259.019 43.815 264.229 44.1968 268.423C44.6741 273.666 41.5716 277.162 37.5144 275.913C39.5828 275.414 43.3377 273.217 41.8103 268.423C40.2828 263.63 38.31 260.267 37.5144 259.185C35.9234 264.429 30.3547 275.464 20.8085 277.661C8.87564 280.408 3.14788 265.677 12.2168 261.682C13.967 261.183 17.5627 261.283 17.9446 265.677C18.3264 270.071 15.0807 269.672 13.4101 268.923C14.2852 268.257 15.6535 266.676 14.1261 265.677C12.2168 264.428 10.3076 265.677 10.5462 267.924C10.7849 270.171 13.6488 275.164 19.6152 273.916C25.5816 272.668 34.1732 262.93 34.6506 255.69L31.3094 252.195C29.7183 252.195 26.0112 251.446 23.911 248.45C21.8108 245.453 20.1721 241.209 19.6152 239.461C16.99 239.128 11.2622 234.618 9.35295 219.238C7.20504 218.822 2.90922 215.843 2.90922 207.254C2.90922 196.517 3.62519 180.539 6.48907 172.549C8.78017 166.157 11.2622 160.731 12.2168 158.817C9.75071 159.983 4.05477 160.865 0.999968 155.072C0.999968 152.992 1.76367 149.23 4.81848 150.828C6.76834 151.848 6.04234 152.655 5.21437 153.575C4.4209 154.457 3.53379 155.443 4.81848 156.82C7.4437 159.634 14.6034 158.318 17.2286 150.828C13.7283 152.16 6.5368 152.725 5.7731 144.336C6.40952 142.339 8.44605 138.994 11.5009 141.59C12.2964 143.005 12.9805 145.834 9.35295 145.834C10.3871 148.58 14.5557 152.425 22.9564 145.834ZM24.627 145.834C22.2404 149.995 18.1832 159.816 21.0471 165.808C24.627 173.298 28.2068 166.557 25.3429 164.559C26.3771 163.894 28.6841 163.361 29.6388 166.557C30.832 170.551 24.8656 174.546 21.0471 170.801C17.2286 167.056 17.4673 151.577 24.627 145.834ZM34.6507 252.694C36.0826 248.366 35.7962 235.417 23.1952 218.239C7.44384 196.768 7.92115 177.043 11.2623 162.812C6.96652 172.882 1.2865 198.315 12.9329 219.488C24.5794 240.66 32.2641 250.447 34.6507 252.694Z" fill="black"/>
<path d="M15.0807 173.298L15.5593 173.153L15.0807 173.298ZM22.9564 145.834L22.6477 145.441L23.311 146.187L22.9564 145.834ZM34.8892 190.026L35.3021 189.744L35.7747 190.436L34.9412 190.523L34.8892 190.026ZM33.4573 180.788L33.0169 180.551L33.5511 179.558L33.9284 180.621L33.4573 180.788ZM42.2876 186.281L42.5341 186.716L42.2876 186.281ZM43.9582 175.545L43.4631 175.475L43.5686 174.729L44.2147 175.116L43.9582 175.545ZM37.7531 180.788L37.8903 180.307L37.7531 180.788ZM53.0271 175.545L53.5159 175.439L53.0271 175.545ZM36.3211 196.517L36.3118 196.017L36.3211 196.517ZM12.2168 166.557L11.729 166.447L12.7143 166.607L12.2168 166.557ZM11.5009 184.534L11.997 184.471L11.5009 184.534ZM28.9228 220.736L29.3131 220.423L28.9228 220.736ZM37.9917 256.938L37.6233 257.276L37.4397 257.076L37.5076 256.813L37.9917 256.938ZM44.1968 268.423L43.6989 268.469L44.1968 268.423ZM37.5144 275.913L37.3674 276.391L35.6251 275.855L37.3971 275.427L37.5144 275.913ZM41.8103 268.423L42.2867 268.271L41.8103 268.423ZM37.5144 259.185L37.036 259.04L37.3259 258.085L37.9173 258.889L37.5144 259.185ZM20.8085 277.661L20.6963 277.174L20.8085 277.661ZM12.2168 261.682L12.0153 261.225L12.0467 261.211L12.0796 261.201L12.2168 261.682ZM17.9446 265.677L18.4427 265.634L18.4427 265.634L17.9446 265.677ZM13.4101 268.923L13.2056 269.379L12.4374 269.034L13.1074 268.525L13.4101 268.923ZM14.1261 265.677L13.8525 266.095L14.1261 265.677ZM10.5462 267.924L10.049 267.977L10.049 267.977L10.5462 267.924ZM19.6152 273.916L19.5128 273.427L19.6152 273.916ZM34.6506 255.69L35.012 255.345L35.1639 255.503L35.1495 255.723L34.6506 255.69ZM31.3094 252.195L31.3094 251.695L31.5231 251.695L31.6708 251.849L31.3094 252.195ZM19.6152 239.461L19.6781 238.965L19.9947 239.005L20.0916 239.31L19.6152 239.461ZM9.35295 219.238L9.44801 218.747L9.80442 218.816L9.84914 219.176L9.35295 219.238ZM6.48907 172.549L6.95975 172.718L6.48907 172.549ZM12.2168 158.817L12.0032 158.365L13.3087 157.749L12.6643 159.041L12.2168 158.817ZM0.999968 155.072L0.557704 155.306L0.499968 155.196L0.499968 155.072L0.999968 155.072ZM4.81848 150.828L5.05022 150.385L5.05023 150.385L4.81848 150.828ZM5.21437 153.575L4.84268 153.241L5.21437 153.575ZM4.81848 156.82L5.1841 156.479L4.81848 156.82ZM17.2286 150.828L17.0508 150.361L18.0563 149.978L17.7005 150.993L17.2286 150.828ZM5.7731 144.336L5.27516 144.382L5.26599 144.281L5.2967 144.185L5.7731 144.336ZM11.5009 141.59L11.8247 141.209L11.8928 141.267L11.9367 141.345L11.5009 141.59ZM9.35295 145.834L8.88503 146.01L8.63038 145.334L9.35295 145.334L9.35295 145.834ZM21.0471 165.808L21.4982 165.592L21.4982 165.592L21.0471 165.808ZM24.627 145.834L24.3141 145.444L25.0607 146.083L24.627 145.834ZM25.3429 164.559L25.0569 164.97L24.4451 164.543L25.0723 164.139L25.3429 164.559ZM29.6388 166.557L30.1178 166.413L30.1178 166.413L29.6388 166.557ZM21.0471 170.801L21.3972 170.444L21.0471 170.801ZM23.1952 218.239L23.5983 217.944L23.1952 218.239ZM34.6507 252.694L35.1254 252.851L34.879 253.596L34.3079 253.058L34.6507 252.694ZM11.2623 162.812L10.8024 162.616L11.7491 162.926L11.2623 162.812ZM12.9329 219.488L12.4948 219.729L12.9329 219.488ZM14.6021 173.442C12.7469 167.313 13.708 161.369 15.6416 156.449C17.5735 151.534 20.4887 147.607 22.6018 145.482L23.311 146.187C21.2873 148.222 18.4509 152.035 16.5723 156.815C14.6953 161.591 13.787 167.298 15.5593 173.153L14.6021 173.442ZM34.9412 190.523C34.2665 190.593 32.9521 190.503 31.3086 190.11C29.6532 189.714 27.6314 189.003 25.5419 187.807C21.3543 185.408 16.9096 181.065 14.6021 173.442L15.5593 173.153C17.7863 180.51 22.0526 184.656 26.0389 186.939C28.0364 188.083 29.9674 188.761 31.5413 189.137C33.1271 189.517 34.3186 189.582 34.8372 189.528L34.9412 190.523ZM33.8976 181.025C33.1215 182.468 33.1579 184.197 33.5664 185.828C33.9736 187.454 34.7338 188.911 35.3021 189.744L34.4763 190.307C33.8513 189.392 33.0363 187.828 32.5964 186.071C32.1576 184.319 32.0747 182.303 33.0169 180.551L33.8976 181.025ZM42.5341 186.716C41.2987 187.416 40.1224 187.607 39.0353 187.42C37.9569 187.235 37.0111 186.684 36.2104 185.975C34.619 184.565 33.5193 182.457 32.9861 180.955L33.9284 180.621C34.4294 182.032 35.4537 183.968 36.8734 185.226C37.5783 185.85 38.3597 186.289 39.205 186.435C40.0416 186.579 40.9854 186.444 42.0411 185.846L42.5341 186.716ZM44.2147 175.116C44.7599 175.442 45.2759 176.143 45.6613 176.978C46.0561 177.833 46.3492 178.903 46.3968 180.049C46.493 182.365 45.5822 184.988 42.5341 186.716L42.0411 185.846C44.7207 184.327 45.4804 182.083 45.3977 180.091C45.3558 179.084 45.097 178.141 44.7534 177.397C44.4005 176.632 43.9917 176.147 43.7016 175.974L44.2147 175.116ZM37.8903 180.307C38.8537 180.582 39.6411 180.54 40.287 180.318C40.9367 180.094 41.4794 179.674 41.9279 179.138C42.8351 178.053 43.312 176.541 43.4631 175.475L44.4532 175.615C44.2861 176.795 43.7607 178.505 42.695 179.779C42.157 180.423 41.4707 180.967 40.6128 181.263C39.7512 181.56 38.7526 181.593 37.6159 181.269L37.8903 180.307ZM38.0524 167.706C35.6807 169.478 34.433 172.323 34.4047 174.895C34.3765 177.466 35.5511 179.64 37.8903 180.307L37.6159 181.269C34.7046 180.438 33.3734 177.743 33.4048 174.884C33.4362 172.025 34.8137 168.878 37.4538 166.905L38.0524 167.706ZM52.5384 175.65C51.7365 171.935 49.2722 169.058 46.4113 167.561C43.5433 166.061 40.3598 165.982 38.0524 167.706L37.4538 166.905C40.1581 164.884 43.7764 165.055 46.8748 166.675C49.9803 168.3 52.6471 171.414 53.5159 175.439L52.5384 175.65ZM36.3118 196.017C42.8095 195.896 47.2567 192.689 49.8912 188.57C52.5394 184.43 53.3441 179.383 52.5384 175.65L53.5159 175.439C54.3807 179.446 53.5148 184.761 50.7336 189.109C47.9386 193.479 43.1975 196.889 36.3305 197.017L36.3118 196.017ZM12.7143 166.607C12.1344 172.31 14.7525 179.74 19.2109 185.733C23.6718 191.729 29.8623 196.138 36.3118 196.017L36.3305 197.017C29.4152 197.146 22.9569 192.443 18.4086 186.33C13.8577 180.213 11.106 172.538 11.7194 166.506L12.7143 166.607ZM11.0048 184.596C10.0413 176.936 11.0831 169.319 11.729 166.447L12.7046 166.666C12.0777 169.454 11.0512 176.951 11.997 184.471L11.0048 184.596ZM28.5325 221.048C24.804 216.393 20.7283 209.68 17.4358 202.948C14.1481 196.225 11.612 189.424 11.0048 184.596L11.997 184.471C12.583 189.131 15.0587 195.811 18.3341 202.509C21.6046 209.196 25.6432 215.841 29.3131 220.423L28.5325 221.048ZM37.5076 256.813C38.6714 252.308 38.2727 245.66 36.6408 238.955C35.0107 232.258 32.1713 225.592 28.5325 221.048L29.3131 220.423C33.0727 225.118 35.961 231.934 37.6124 238.719C39.262 245.496 39.6986 252.33 38.4758 257.063L37.5076 256.813ZM43.6989 268.469C43.5184 266.486 42.4923 264.214 41.2395 262.147C39.9933 260.091 38.5579 258.295 37.6233 257.276L38.3601 256.6C39.3349 257.662 40.8111 259.511 42.0946 261.629C43.3715 263.736 44.4934 266.166 44.6948 268.378L43.6989 268.469ZM37.6615 275.435C39.5067 276.003 41.0922 275.494 42.1827 274.27C43.2908 273.026 43.9285 270.991 43.6989 268.469L44.6948 268.378C44.9424 271.099 44.2675 273.433 42.9294 274.935C41.5737 276.457 39.5793 277.072 37.3674 276.391L37.6615 275.435ZM42.2867 268.271C43.1013 270.828 42.5125 272.754 41.3953 274.098C40.3028 275.413 38.7408 276.132 37.6318 276.399L37.3971 275.427C38.3565 275.196 39.706 274.566 40.6262 273.459C41.5217 272.381 42.0466 270.812 41.3339 268.575L42.2867 268.271ZM37.9173 258.889C38.7487 260.02 40.7448 263.432 42.2867 268.271L41.3339 268.575C39.8209 263.827 37.8712 260.515 37.1116 259.482L37.9173 258.889ZM20.6963 277.174C25.3106 276.112 28.9987 272.904 31.7456 269.264C34.4903 265.628 36.2554 261.613 37.036 259.04L37.9929 259.331C37.1824 262.001 35.3677 266.125 32.5437 269.867C29.722 273.605 25.8526 277.013 20.9206 278.148L20.6963 277.174ZM12.4184 262.14C10.284 263.08 9.0453 264.635 8.53541 266.39C8.022 268.157 8.23879 270.162 9.09014 271.988C10.7867 275.627 14.9742 278.491 20.6963 277.174L20.9206 278.148C14.7099 279.578 10.0671 276.45 8.18382 272.411C7.24525 270.398 6.98473 268.143 7.5751 266.111C8.16901 264.066 9.61519 262.282 12.0153 261.225L12.4184 262.14ZM17.4465 265.72C17.2694 263.683 16.3714 262.732 15.3928 262.302C14.3667 261.852 13.1572 261.934 12.354 262.163L12.0796 261.201C13.0266 260.931 14.49 260.814 15.7949 261.387C17.1471 261.98 18.2379 263.277 18.4427 265.634L17.4465 265.72ZM13.6147 268.466C14.4069 268.822 15.4856 269.048 16.2752 268.759C16.6463 268.623 16.9653 268.371 17.1825 267.924C17.4064 267.464 17.5372 266.764 17.4465 265.72L18.4427 265.634C18.5429 266.786 18.4112 267.685 18.0817 268.362C17.7455 269.053 17.2203 269.478 16.6188 269.698C15.4633 270.121 14.0839 269.773 13.2056 269.379L13.6147 268.466ZM14.3997 265.258C14.8645 265.562 15.1586 265.946 15.2674 266.393C15.374 266.831 15.2859 267.257 15.1281 267.623C14.819 268.338 14.1824 268.963 13.7129 269.321L13.1074 268.525C13.5129 268.216 13.9979 267.717 14.21 267.226C14.3127 266.988 14.335 266.791 14.2958 266.63C14.259 266.479 14.1513 266.291 13.8525 266.095L14.3997 265.258ZM10.049 267.977C9.91379 266.703 10.3853 265.626 11.2621 265.068C12.144 264.506 13.3128 264.548 14.3997 265.258L13.8525 266.095C13.0301 265.558 12.2896 265.599 11.7993 265.911C11.3038 266.227 10.94 266.897 11.0434 267.871L10.049 267.977ZM19.7176 274.405C16.5635 275.065 14.1945 274.072 12.5942 272.599C11.019 271.148 10.182 269.229 10.049 267.977L11.0434 267.871C11.1491 268.866 11.8634 270.567 13.2714 271.863C14.6543 273.136 16.7005 274.015 19.5128 273.427L19.7176 274.405ZM35.1495 255.723C34.9007 259.497 32.5571 263.841 29.5732 267.373C26.5947 270.898 22.8644 273.747 19.7176 274.405L19.5128 273.427C22.3324 272.837 25.8811 270.193 28.8094 266.727C31.7322 263.268 33.9231 259.124 34.1516 255.657L35.1495 255.723ZM31.6708 251.849L35.012 255.345L34.2891 256.035L30.9479 252.54L31.6708 251.849ZM24.3204 248.163C26.2898 250.972 29.8034 251.695 31.3094 251.695L31.3094 252.695C29.6332 252.695 25.7326 251.919 23.5016 248.737L24.3204 248.163ZM20.0916 239.31C20.6419 241.037 22.2623 245.226 24.3204 248.163L23.5016 248.737C21.3594 245.681 19.7022 241.381 19.1388 239.613L20.0916 239.31ZM9.84914 219.176C10.7975 226.815 12.689 231.71 14.6355 234.721C16.5923 237.748 18.5695 238.825 19.6781 238.965L19.5523 239.957C18.0357 239.765 15.8364 238.42 13.7957 235.264C11.7447 232.091 9.8177 227.04 8.85676 219.3L9.84914 219.176ZM3.40922 207.254C3.40922 215.664 7.58991 218.387 9.44801 218.747L9.2579 219.729C6.82018 219.257 2.40922 216.022 2.40922 207.254L3.40922 207.254ZM6.95975 172.718C5.55124 176.648 4.65991 182.584 4.1234 188.914C3.58796 195.231 3.40922 201.895 3.40922 207.254L2.40922 207.254C2.40922 201.876 2.58847 195.183 3.12698 188.829C3.66443 182.488 4.56303 176.441 6.01839 172.381L6.95975 172.718ZM12.6643 159.041C11.718 160.938 9.24386 166.346 6.95975 172.718L6.01839 172.381C8.31648 165.969 10.8064 160.525 11.7694 158.594L12.6643 159.041ZM1.44223 154.839C2.89433 157.593 4.9463 158.728 6.91261 159.061C8.90637 159.398 10.8431 158.913 12.0032 158.365L12.4304 159.27C11.1245 159.887 8.98014 160.425 6.74571 160.047C4.48381 159.664 2.16041 158.345 0.557704 155.306L1.44223 154.839ZM4.58673 151.271C3.90053 150.912 3.42121 150.893 3.08555 151.001C2.74387 151.11 2.44692 151.384 2.19762 151.819C1.6889 152.708 1.49997 154.065 1.49997 155.072L0.499968 155.072C0.499968 153.999 0.692885 152.435 1.32972 151.322C1.6532 150.757 2.11995 150.26 2.78062 150.048C3.44732 149.835 4.20902 149.945 5.05022 150.385L4.58673 151.271ZM4.84268 153.241C5.05498 153.005 5.23298 152.806 5.36582 152.615C5.49945 152.423 5.55128 152.289 5.56026 152.193C5.57056 152.082 5.53823 151.769 4.58673 151.271L5.05023 150.385C6.04859 150.907 6.62819 151.508 6.55597 152.285C6.52368 152.633 6.36064 152.937 6.18621 153.187C6.01098 153.438 5.78775 153.685 5.58607 153.909L4.84268 153.241ZM4.45285 157.161C4.09281 156.775 3.85792 156.388 3.74576 155.992C3.63196 155.591 3.65348 155.213 3.75863 154.867C3.95758 154.211 4.46609 153.659 4.84268 153.241L5.58607 153.909C5.16918 154.373 4.8374 154.755 4.7156 155.157C4.66036 155.339 4.6514 155.521 4.70779 155.72C4.76582 155.924 4.9018 156.176 5.1841 156.479L4.45285 157.161ZM17.7005 150.993C16.342 154.869 13.7926 157.188 11.1985 158.157C8.63384 159.114 5.94856 158.765 4.45285 157.161L5.1841 156.479C6.31361 157.69 8.5208 158.089 10.8486 157.22C13.1469 156.361 15.49 154.277 16.7568 150.663L17.7005 150.993ZM6.27104 144.291C6.45551 146.317 7.02382 147.76 7.79178 148.776C8.55783 149.788 9.54599 150.408 10.6261 150.751C12.8099 151.445 15.3598 151.004 17.0508 150.361L17.4064 151.295C15.5972 151.984 12.8011 152.491 10.3232 151.704C9.0724 151.306 7.90072 150.577 6.99418 149.379C6.08956 148.183 5.47254 146.55 5.27516 144.382L6.27104 144.291ZM11.177 141.971C10.4739 141.373 9.87836 141.158 9.39057 141.143C8.90464 141.127 8.4555 141.307 8.03873 141.634C7.182 142.306 6.55434 143.532 6.2495 144.488L5.2967 144.185C5.62828 143.144 6.3371 141.698 7.42144 140.847C7.9752 140.413 8.64775 140.118 9.42273 140.143C10.1958 140.168 11.0004 140.509 11.8247 141.209L11.177 141.971ZM9.35295 145.334C10.2011 145.334 10.7306 145.168 11.0546 144.953C11.3656 144.747 11.528 144.47 11.5959 144.141C11.7422 143.434 11.4421 142.506 11.065 141.835L11.9367 141.345C12.3552 142.089 12.7948 143.283 12.5752 144.344C12.4602 144.9 12.1632 145.418 11.607 145.787C11.0639 146.147 10.3186 146.334 9.35295 146.334L9.35295 145.334ZM23.265 146.227C19.0062 149.569 15.7132 150.349 13.2865 149.824C10.8601 149.299 9.4464 147.501 8.88503 146.01L9.82087 145.658C10.2937 146.913 11.4814 148.411 13.4979 148.847C15.5142 149.283 18.5058 148.69 22.6477 145.441L23.265 146.227ZM20.596 166.023C19.0859 162.864 19.4213 158.765 20.3838 155.01C21.3514 151.235 22.9816 147.698 24.1932 145.585L25.0607 146.083C23.8858 148.131 22.2941 151.585 21.3525 155.258C20.4057 158.952 20.1444 162.76 21.4982 165.592L20.596 166.023ZM25.629 164.149C26.5059 164.761 26.8704 165.725 26.8833 166.643C26.896 167.551 26.568 168.483 25.9675 169.092C25.6628 169.402 25.2788 169.635 24.8292 169.722C24.3763 169.809 23.8942 169.74 23.4109 169.502C22.4654 169.038 21.5079 167.931 20.596 166.023L21.4982 165.592C22.3762 167.429 23.2087 168.289 23.8517 168.605C24.1628 168.757 24.4246 168.782 24.6401 168.74C24.859 168.698 25.0679 168.581 25.2553 168.39C25.6393 168.001 25.893 167.341 25.8834 166.657C25.8739 165.984 25.6119 165.357 25.0569 164.97L25.629 164.149ZM29.1597 166.7C28.7189 165.224 28.014 164.731 27.4124 164.598C26.7607 164.453 26.0623 164.691 25.6136 164.98L25.0723 164.139C25.6578 163.762 26.63 163.4 27.6289 163.622C28.678 163.854 29.6039 164.693 30.1178 166.413L29.1597 166.7ZM21.3972 170.444C23.1201 172.134 25.3149 172.086 26.9761 171.146C28.665 170.19 29.6684 168.403 29.1597 166.7L30.1178 166.413C30.8024 168.705 29.4192 170.912 27.4686 172.016C25.4903 173.136 22.7927 173.213 20.697 171.158L21.3972 170.444ZM24.9398 146.224C21.5144 148.972 19.6901 154.114 19.218 159.114C18.9832 161.601 19.0871 164.018 19.4795 166.032C19.8755 168.065 20.5508 169.614 21.3972 170.444L20.697 171.158C19.6342 170.116 18.9074 168.325 18.4979 166.223C18.0848 164.102 17.9799 161.588 18.2224 159.02C18.705 153.908 20.5798 148.439 24.3141 145.444L24.9398 146.224ZM23.5983 217.944C36.2538 235.195 36.6267 248.314 35.1254 252.851L34.176 252.537C35.5385 248.419 35.3387 235.638 22.792 218.535L23.5983 217.944ZM11.7491 162.926C8.43251 177.053 7.95395 196.618 23.5983 217.944L22.792 218.535C6.93373 196.917 7.40979 177.034 10.7756 162.698L11.7491 162.926ZM12.4948 219.729C6.6143 209.038 5.11569 197.288 5.61989 186.962C6.12399 176.639 8.63158 167.705 10.8024 162.616L11.7222 163.008C9.59728 167.99 7.11695 176.807 6.6187 187.011C6.12054 197.213 7.60514 208.765 13.371 219.247L12.4948 219.729ZM34.3079 253.058C33.0731 251.895 30.5302 248.849 26.8516 243.47C23.1657 238.08 18.3245 230.326 12.4948 219.729L13.371 219.247C19.1878 229.821 24.0122 237.547 27.677 242.905C31.349 248.275 33.8417 251.245 34.9934 252.33L34.3079 253.058Z" fill="black"/>
<path fill-rule="evenodd" clip-rule="evenodd" d="M22.9564 133.491C18.8197 129.33 11.4531 118.012 15.0807 106.027C19.6152 91.0472 32.5026 89.0498 34.8892 89.2995C33.6959 91.0471 31.7389 95.3413 33.4573 98.5371C34.4914 95.6242 37.7054 90.4477 42.2876 93.0443C48.0153 96.29 45.6288 102.781 43.9582 103.78C43.6399 101.533 41.9534 97.3386 37.7531 98.5371C32.5026 100.035 32.7413 108.274 37.7531 112.019C42.7649 115.764 51.3565 111.52 53.0271 103.78C54.6977 96.0403 49.6859 83.0574 36.3211 82.8078C22.9564 82.5581 11.0235 101.033 12.2168 112.768C11.5804 109.939 10.5462 102.381 11.5009 94.7914C12.6941 85.3039 21.5244 67.8269 28.9228 58.5891C36.3211 49.3512 40.3783 31.6245 37.9917 22.3867C39.901 20.3061 43.815 15.0963 44.1968 10.9018C44.6741 5.65869 41.5716 2.16329 37.5144 3.41165C39.5828 3.91103 43.3377 6.10818 41.8103 10.9018C40.2828 15.6954 38.31 19.0576 37.5144 20.1395C35.9234 14.8964 30.3547 3.86095 20.8085 1.66384C8.87564 -1.08254 3.14788 13.6481 12.2168 17.6428C13.967 18.1422 17.5627 18.0423 17.9446 13.6481C18.3264 9.25391 15.0807 9.65338 13.4101 10.4024C14.2852 11.0682 15.6535 12.6494 14.1261 13.6481C12.2168 14.8965 10.3076 13.6481 10.5462 11.4011C10.7849 9.15404 13.6488 4.16061 19.6152 5.40896C25.5816 6.65732 34.1732 16.3945 34.6506 23.635L31.3094 27.1304C29.7183 27.1304 26.0112 27.8794 23.911 30.8755C21.8108 33.8715 20.1721 38.1159 19.6152 39.8636C16.99 40.1965 11.2622 44.7073 9.35295 60.087C7.20504 60.5029 2.90922 63.4821 2.90922 72.0713C2.90922 82.8078 3.6252 98.7856 6.48907 106.776C8.78018 113.168 11.2622 118.594 12.2168 120.508C9.75071 119.342 4.05478 118.46 0.999971 124.253C0.999971 126.333 1.76367 130.095 4.81848 128.497C6.76835 127.477 6.04234 126.67 5.21438 125.75C4.4209 124.868 3.53379 123.882 4.81848 122.505C7.4437 119.69 14.6034 121.007 17.2286 128.497C13.7283 127.165 6.53681 126.6 5.7731 134.988C6.40952 136.986 8.44606 140.331 11.5009 137.735C12.2964 136.32 12.9805 133.491 9.35295 133.491C10.3871 130.745 14.5557 126.9 22.9564 133.491ZM24.627 133.491C22.2404 129.33 18.1832 119.509 21.0471 113.517C24.627 106.027 28.2068 112.768 25.3429 114.766C26.3771 115.431 28.6841 115.964 29.6388 112.768C30.832 108.774 24.8656 104.779 21.0471 108.524C17.2286 112.269 17.4673 127.748 24.627 133.491ZM34.6507 26.6311C36.0826 30.9587 35.7962 43.9083 23.1952 61.0857C7.44384 82.5575 7.92115 102.282 11.2623 116.513C6.96653 106.443 1.2865 81.0095 12.9329 59.8374C24.5794 38.6652 32.2641 28.8781 34.6507 26.6311Z" fill="black"/>
<path d="M15.0807 106.027L15.5593 106.172L15.0807 106.027ZM22.9564 133.491L22.6477 133.884L23.311 133.138L22.9564 133.491ZM34.8892 89.2995L35.3021 89.5814L35.7747 88.8894L34.9412 88.8022L34.8892 89.2995ZM33.4573 98.5371L33.0169 98.7738L33.5511 99.7673L33.9284 98.7043L33.4573 98.5371ZM42.2876 93.0443L42.5341 92.6093L42.2876 93.0443ZM43.9582 103.78L43.4631 103.85L43.5686 104.596L44.2147 104.209L43.9582 103.78ZM37.7531 98.5371L37.8903 99.0179L37.7531 98.5371ZM53.0271 103.78L53.5159 103.886L53.0271 103.78ZM36.3211 82.8078L36.3118 83.3077L36.3211 82.8078ZM12.2168 112.768L11.729 112.878L12.7143 112.718L12.2168 112.768ZM11.5009 94.7914L11.997 94.8538L11.5009 94.7914ZM28.9228 58.5891L29.3131 58.9016L28.9228 58.5891ZM37.9917 22.3867L37.6233 22.0486L37.4397 22.2488L37.5076 22.5118L37.9917 22.3867ZM44.1968 10.9018L43.6989 10.8565L44.1968 10.9018ZM37.5144 3.41165L37.3674 2.93376L35.6251 3.46986L37.3971 3.89768L37.5144 3.41165ZM41.8103 10.9018L42.2867 11.0536L41.8103 10.9018ZM37.5144 20.1395L37.036 20.2847L37.3259 21.24L37.9173 20.4357L37.5144 20.1395ZM20.8085 1.66384L20.6963 2.15111L20.8085 1.66384ZM12.2168 17.6428L12.0153 18.1004L12.0467 18.1142L12.0796 18.1236L12.2168 17.6428ZM17.9446 13.6481L18.4427 13.6914L18.4427 13.6914L17.9446 13.6481ZM13.4101 10.4024L13.2056 9.94615L12.4374 10.2906L13.1074 10.8003L13.4101 10.4024ZM14.1261 13.6481L13.8525 13.2296L14.1261 13.6481ZM10.5462 11.4011L10.049 11.3483L10.049 11.3483L10.5462 11.4011ZM19.6152 5.40896L19.5128 5.89837L19.6152 5.40896ZM34.6506 23.635L35.012 23.9805L35.1639 23.8215L35.1495 23.6021L34.6506 23.635ZM31.3094 27.1304L31.3094 27.6304L31.5231 27.6304L31.6708 27.4759L31.3094 27.1304ZM19.6152 39.8636L19.6781 40.3597L19.9947 40.3195L20.0916 40.0154L19.6152 39.8636ZM9.35295 60.087L9.44801 60.5779L9.80442 60.5089L9.84914 60.1486L9.35295 60.087ZM6.48907 106.776L6.95975 106.607L6.48907 106.776ZM12.2168 120.508L12.0032 120.96L13.3087 121.576L12.6643 120.284L12.2168 120.508ZM0.999971 124.253L0.557706 124.019L0.499971 124.129L0.499971 124.253L0.999971 124.253ZM4.81848 128.497L5.05023 128.94L5.05023 128.94L4.81848 128.497ZM5.21438 125.75L4.84268 126.084L5.21438 125.75ZM4.81848 122.505L5.18411 122.846L4.81848 122.505ZM17.2286 128.497L17.0508 128.964L18.0563 129.347L17.7005 128.332L17.2286 128.497ZM5.7731 134.988L5.27516 134.943L5.26599 135.044L5.2967 135.14L5.7731 134.988ZM11.5009 137.735L11.8247 138.116L11.8928 138.058L11.9367 137.98L11.5009 137.735ZM9.35295 133.491L8.88503 133.315L8.63038 133.991L9.35295 133.991L9.35295 133.491ZM21.0471 113.517L21.4982 113.733L21.4982 113.733L21.0471 113.517ZM24.627 133.491L24.3141 133.881L25.0607 133.242L24.627 133.491ZM25.3429 114.766L25.0569 114.355L24.4451 114.782L25.0723 115.186L25.3429 114.766ZM29.6388 112.768L30.1178 112.911L29.6388 112.768ZM21.0471 108.524L21.3972 108.881L21.0471 108.524ZM23.1952 61.0857L22.792 60.79L23.1952 61.0857ZM34.6507 26.6311L35.1254 26.474L34.879 25.7294L34.3079 26.267L34.6507 26.6311ZM11.2623 116.513L10.8024 116.709L11.7491 116.399L11.2623 116.513ZM14.6022 105.883C12.7469 112.012 13.708 117.956 15.6416 122.876C17.5735 127.791 20.4887 131.718 22.6018 133.843L23.311 133.138C21.2873 131.103 18.4509 127.29 16.5723 122.51C14.6953 117.734 13.787 112.027 15.5593 106.172L14.6022 105.883ZM34.9412 88.8022C34.2665 88.7316 32.9521 88.8219 31.3086 89.215C29.6532 89.611 27.6314 90.3217 25.5419 91.5183C21.3543 93.9166 16.9096 98.2595 14.6022 105.883L15.5593 106.172C17.7863 98.815 22.0526 94.6691 26.0389 92.3861C28.0364 91.2421 29.9674 90.564 31.5413 90.1876C33.1271 89.8082 34.3186 89.7425 34.8372 89.7967L34.9412 88.8022ZM33.8976 98.3003C33.1215 96.8567 33.1579 95.1277 33.5664 93.4967C33.9736 91.8706 34.7338 90.4137 35.3021 89.5814L34.4763 89.0175C33.8513 89.9328 33.0363 91.4969 32.5964 93.2537C32.1576 95.0057 32.0747 97.0216 33.0169 98.7738L33.8976 98.3003ZM42.5341 92.6093C41.2987 91.9092 40.1224 91.7175 39.0353 91.9047C37.9569 92.0905 37.0111 92.6411 36.2104 93.3504C34.619 94.76 33.5193 96.8678 32.9861 98.3698L33.9284 98.7043C34.4294 97.2935 35.4537 95.3566 36.8734 94.0989C37.5783 93.4746 38.3597 93.0358 39.205 92.8902C40.0416 92.7461 40.9854 92.8811 42.0411 93.4793L42.5341 92.6093ZM44.2147 104.209C44.7599 103.883 45.2759 103.182 45.6613 102.347C46.0561 101.492 46.3492 100.422 46.3968 99.2756C46.493 96.9604 45.5822 94.3366 42.5341 92.6093L42.0411 93.4793C44.7207 94.9977 45.4804 97.2425 45.3977 99.2341C45.3558 100.241 45.097 101.184 44.7534 101.928C44.4005 102.693 43.9917 103.178 43.7016 103.351L44.2147 104.209ZM37.8903 99.0179C38.8537 98.743 39.6411 98.7848 40.287 99.0074C40.9367 99.2314 41.4794 99.651 41.9279 100.187C42.8351 101.272 43.312 102.784 43.4631 103.85L44.4532 103.71C44.2861 102.53 43.7607 100.82 42.695 99.5458C42.157 98.9025 41.4707 98.3577 40.6128 98.062C39.7512 97.765 38.7526 97.7319 37.6159 98.0562L37.8903 99.0179ZM38.0524 111.619C35.6807 109.847 34.433 107.002 34.4047 104.43C34.3765 101.859 35.5511 99.6853 37.8903 99.0179L37.6159 98.0562C34.7046 98.8869 33.3734 101.582 33.4048 104.441C33.4362 107.3 34.8137 110.447 37.4538 112.42L38.0524 111.619ZM52.5384 103.675C51.7365 107.39 49.2722 110.267 46.4113 111.764C43.5433 113.264 40.3598 113.343 38.0524 111.619L37.4538 112.42C40.1582 114.441 43.7764 114.27 46.8748 112.65C49.9803 111.025 52.6471 107.91 53.5159 103.886L52.5384 103.675ZM36.3118 83.3077C42.8095 83.4291 47.2567 86.6357 49.8912 90.7546C52.5394 94.895 53.3441 99.9418 52.5384 103.675L53.5159 103.886C54.3807 99.8787 53.5148 94.5642 50.7336 90.2157C47.9386 85.8458 43.1975 82.4361 36.3305 82.3078L36.3118 83.3077ZM12.7143 112.718C12.1344 107.015 14.7525 99.5845 19.2109 93.5922C23.6718 87.5965 29.8623 83.1872 36.3118 83.3077L36.3305 82.3078C29.4152 82.1787 22.9569 86.8821 18.4086 92.9953C13.8577 99.1119 11.106 106.787 11.7194 112.819L12.7143 112.718ZM11.0048 94.729C10.0413 102.389 11.0831 110.006 11.729 112.878L12.7046 112.659C12.0777 109.871 11.0512 102.374 11.997 94.8538L11.0048 94.729ZM28.5325 58.2765C24.804 62.932 20.7283 69.6445 17.4358 76.377C14.1481 83.0995 11.612 89.901 11.0048 94.729L11.997 94.8538C12.583 90.1943 15.0587 83.5136 18.3341 76.8163C21.6046 70.1289 25.6432 63.484 29.3131 58.9016L28.5325 58.2765ZM37.5076 22.5118C38.6714 27.0165 38.2727 33.6648 36.6408 40.3696C35.0107 47.0671 32.1713 53.7331 28.5325 58.2765L29.3131 58.9016C33.0727 54.2072 35.961 47.3909 37.6124 40.6061C39.262 33.8287 39.6986 26.9947 38.4759 22.2616L37.5076 22.5118ZM43.6989 10.8565C43.5184 12.8388 42.4923 15.1108 41.2395 17.1778C39.9933 19.2338 38.5579 21.0302 37.6233 22.0486L38.3601 22.7247C39.3349 21.6625 40.8111 19.8138 42.0946 17.6961C43.3715 15.5895 44.4934 13.1593 44.6948 10.9471L43.6989 10.8565ZM37.6615 3.88954C39.5067 3.32177 41.0922 3.83069 42.1827 5.05498C43.2908 6.29912 43.9285 8.3341 43.6989 10.8565L44.6948 10.9471C44.9424 8.22638 44.2675 5.89211 42.9294 4.38986C41.5737 2.86777 39.5793 2.25317 37.3674 2.93376L37.6615 3.88954ZM42.2867 11.0536C43.1013 8.49703 42.5125 6.5711 41.3953 5.22681C40.3028 3.91222 38.7408 3.19336 37.6318 2.92561L37.3971 3.89768C38.3565 4.12931 39.706 4.75872 40.6262 5.86596C41.5217 6.9435 42.0466 8.51295 41.3339 10.75L42.2867 11.0536ZM37.9173 20.4357C38.7487 19.3049 40.7448 15.8927 42.2867 11.0536L41.3339 10.75C39.8209 15.4981 37.8712 18.8103 37.1116 19.8433L37.9173 20.4357ZM20.6963 2.15111C25.3106 3.2131 28.9987 6.4214 31.7456 10.0607C34.4903 13.6971 36.2554 17.7124 37.036 20.2847L37.9929 19.9943C37.1824 17.3236 35.3677 13.1996 32.5437 9.45822C29.722 5.71969 25.8526 2.3117 20.9206 1.17658L20.6963 2.15111ZM12.4184 17.1852C10.284 16.2451 9.0453 14.6904 8.53541 12.9351C8.022 11.1678 8.23879 9.16252 9.09014 7.33671C10.7867 3.69819 14.9742 0.834147 20.6963 2.15111L20.9206 1.17658C14.7099 -0.252845 10.0671 2.87523 8.18382 6.91411C7.24525 8.927 6.98473 11.1818 7.5751 13.2141C8.16901 15.2585 9.61519 17.0432 12.0153 18.1004L12.4184 17.1852ZM17.4465 13.6048C17.2694 15.6421 16.3714 16.593 15.3928 17.0228C14.3667 17.4734 13.1572 17.3912 12.354 17.162L12.0796 18.1236C13.0266 18.3938 14.49 18.5114 15.7949 17.9384C17.1471 17.3445 18.2379 16.0484 18.4427 13.6914L17.4465 13.6048ZM13.6147 10.8586C14.4069 10.5034 15.4856 10.2773 16.2752 10.5661C16.6463 10.7019 16.9653 10.9542 17.1825 11.4006C17.4064 11.8608 17.5372 12.5605 17.4465 13.6048L18.4427 13.6914C18.5429 12.5386 18.4112 11.6405 18.0817 10.9631C17.7455 10.2719 17.2203 9.84702 16.6188 9.62698C15.4633 9.20428 14.0839 9.55234 13.2056 9.94615L13.6147 10.8586ZM14.3997 14.0666C14.8645 13.7627 15.1586 13.3787 15.2674 12.9316C15.374 12.4943 15.2859 12.0677 15.1281 11.7022C14.819 10.9865 14.1824 10.3617 13.7129 10.0045L13.1074 10.8003C13.5129 11.1089 13.9979 11.6076 14.21 12.0986C14.3127 12.3365 14.335 12.5341 14.2958 12.695C14.259 12.8461 14.1513 13.0342 13.8525 13.2296L14.3997 14.0666ZM10.049 11.3483C9.91379 12.6216 10.3853 13.6988 11.2621 14.2571C12.144 14.8187 13.3128 14.7773 14.3997 14.0666L13.8525 13.2296C13.0301 13.7673 12.2896 13.7259 11.7993 13.4136C11.3038 13.0981 10.94 12.4276 11.0434 11.4539L10.049 11.3483ZM19.7176 4.91956C16.5635 4.25963 14.1945 5.25308 12.5942 6.7264C11.019 8.17654 10.182 10.0964 10.049 11.3483L11.0434 11.4539C11.1491 10.4587 11.8634 8.75834 13.2715 7.4621C14.6543 6.18903 16.7005 5.30994 19.5128 5.89837L19.7176 4.91956ZM35.1495 23.6021C34.9007 19.8282 32.5571 15.4838 29.5732 11.9522C26.5947 8.42712 22.8644 5.57798 19.7176 4.91956L19.5128 5.89837C22.3324 6.48831 25.8811 9.13194 28.8094 12.5976C31.7322 16.0569 33.9231 20.2013 34.1516 23.6679L35.1495 23.6021ZM31.6708 27.4759L35.012 23.9805L34.2891 23.2895L30.9479 26.7849L31.6708 27.4759ZM24.3204 31.1625C26.2898 28.353 29.8034 27.6304 31.3094 27.6304L31.3094 26.6304C29.6332 26.6304 25.7326 27.4058 23.5016 30.5885L24.3204 31.1625ZM20.0916 40.0154C20.6419 38.2882 22.2623 34.0986 24.3204 31.1625L23.5016 30.5885C21.3594 33.6444 19.7022 37.9437 19.1388 39.7118L20.0916 40.0154ZM9.84914 60.1486C10.7975 52.5096 12.689 47.6151 14.6355 44.6042C16.5923 41.5773 18.5695 40.5002 19.6781 40.3597L19.5523 39.3676C18.0357 39.5599 15.8364 40.9047 13.7957 44.0613C11.7447 47.2339 9.8177 52.2847 8.85676 60.0254L9.84914 60.1486ZM3.40922 72.0713C3.40922 63.6611 7.58991 60.9377 9.44801 60.5779L9.2579 59.5961C6.82018 60.0682 2.40922 63.303 2.40922 72.0713L3.40922 72.0713ZM6.95975 106.607C5.55124 102.677 4.65991 96.7408 4.12341 90.4112C3.58796 84.094 3.40922 77.4302 3.40922 72.0713L2.40922 72.0713C2.40922 77.4489 2.58847 84.1423 3.12698 90.4956C3.66443 96.8365 4.56303 102.884 6.0184 106.944L6.95975 106.607ZM12.6643 120.284C11.718 118.387 9.24387 112.979 6.95975 106.607L6.0184 106.944C8.31648 113.356 10.8064 118.8 11.7694 120.731L12.6643 120.284ZM1.44224 124.486C2.89433 121.732 4.94631 120.597 6.91261 120.264C8.90638 119.927 10.8431 120.411 12.0032 120.96L12.4304 120.055C11.1245 119.438 8.98014 118.9 6.74571 119.278C4.48382 119.661 2.16041 120.98 0.557706 124.019L1.44224 124.486ZM4.58673 128.054C3.90053 128.413 3.42122 128.432 3.08555 128.324C2.74388 128.215 2.44692 127.941 2.19763 127.506C1.68891 126.617 1.49997 125.26 1.49997 124.253L0.499971 124.253C0.499971 125.326 0.692888 126.89 1.32972 128.003C1.6532 128.568 2.11995 129.065 2.78063 129.277C3.44732 129.49 4.20902 129.38 5.05023 128.94L4.58673 128.054ZM4.84268 126.084C5.05498 126.32 5.23298 126.519 5.36582 126.71C5.49945 126.902 5.55129 127.036 5.56026 127.132C5.57057 127.243 5.53823 127.556 4.58673 128.054L5.05023 128.94C6.04859 128.418 6.62819 127.817 6.55597 127.04C6.52368 126.692 6.36064 126.388 6.18621 126.138C6.01099 125.887 5.78775 125.64 5.58607 125.416L4.84268 126.084ZM4.45285 122.164C4.09281 122.55 3.85792 122.937 3.74577 123.332C3.63197 123.734 3.65349 124.112 3.75863 124.458C3.95759 125.114 4.46609 125.666 4.84268 126.084L5.58607 125.416C5.16919 124.952 4.8374 124.57 4.7156 124.168C4.66037 123.986 4.6514 123.804 4.70779 123.605C4.76582 123.401 4.9018 123.149 5.18411 122.846L4.45285 122.164ZM17.7005 128.332C16.342 124.456 13.7926 122.137 11.1985 121.168C8.63384 120.211 5.94856 120.56 4.45285 122.164L5.18411 122.846C6.31362 121.635 8.5208 121.236 10.8486 122.105C13.1469 122.963 15.49 125.048 16.7568 128.662L17.7005 128.332ZM6.27104 135.034C6.45551 133.008 7.02382 131.565 7.79178 130.549C8.55783 129.536 9.54599 128.917 10.6261 128.574C12.8099 127.88 15.3598 128.321 17.0508 128.964L17.4064 128.03C15.5972 127.341 12.8011 126.834 10.3232 127.621C9.0724 128.019 7.90072 128.748 6.99418 129.946C6.08956 131.142 5.47255 132.775 5.27516 134.943L6.27104 135.034ZM11.177 137.354C10.4739 137.952 9.87836 138.167 9.39057 138.182C8.90465 138.198 8.45551 138.018 8.03873 137.691C7.182 137.019 6.55434 135.793 6.24951 134.837L5.2967 135.14C5.62828 136.181 6.3371 137.627 7.42145 138.478C7.97521 138.912 8.64776 139.207 9.42273 139.182C10.1958 139.157 11.0004 138.816 11.8247 138.116L11.177 137.354ZM9.35295 133.991C10.2011 133.991 10.7306 134.157 11.0546 134.372C11.3656 134.578 11.528 134.855 11.5959 135.184C11.7422 135.891 11.4421 136.819 11.065 137.49L11.9367 137.98C12.3552 137.236 12.7948 136.042 12.5752 134.981C12.4602 134.425 12.1632 133.907 11.607 133.538C11.0639 133.178 10.3186 132.991 9.35295 132.991L9.35295 133.991ZM23.265 133.098C19.0062 129.756 15.7132 128.976 13.2865 129.501C10.8601 130.026 9.4464 131.824 8.88503 133.315L9.82087 133.667C10.2937 132.412 11.4814 130.914 13.4979 130.478C15.5142 130.042 18.5058 130.635 22.6477 133.884L23.265 133.098ZM20.596 113.302C19.0859 116.461 19.4213 120.56 20.3838 124.315C21.3514 128.09 22.9816 131.627 24.1932 133.74L25.0607 133.242C23.8858 131.194 22.2941 127.74 21.3525 124.067C20.4057 120.373 20.1444 116.565 21.4982 113.733L20.596 113.302ZM25.629 115.176C26.5059 114.564 26.8704 113.6 26.8833 112.682C26.896 111.774 26.568 110.842 25.9675 110.233C25.6628 109.923 25.2788 109.69 24.8292 109.603C24.3763 109.516 23.8942 109.585 23.4109 109.823C22.4654 110.287 21.5079 111.394 20.596 113.302L21.4982 113.733C22.3762 111.896 23.2087 111.036 23.8518 110.72C24.1628 110.567 24.4246 110.543 24.6401 110.585C24.859 110.627 25.0679 110.744 25.2553 110.935C25.6393 111.324 25.893 111.984 25.8834 112.668C25.8739 113.341 25.6119 113.968 25.0569 114.355L25.629 115.176ZM29.1597 112.625C28.7189 114.101 28.014 114.594 27.4124 114.727C26.7607 114.872 26.0623 114.634 25.6136 114.345L25.0723 115.186C25.6578 115.563 26.63 115.925 27.6289 115.703C28.678 115.471 29.6039 114.632 30.1178 112.911L29.1597 112.625ZM21.3972 108.881C23.1201 107.191 25.3149 107.239 26.9761 108.179C28.665 109.135 29.6684 110.922 29.1597 112.625L30.1178 112.911C30.8024 110.62 29.4192 108.413 27.4686 107.309C25.4903 106.189 22.7927 106.112 20.697 108.167L21.3972 108.881ZM24.9398 133.101C21.5144 130.353 19.6901 125.211 19.218 120.211C18.9832 117.724 19.0871 115.307 19.4795 113.293C19.8755 111.26 20.5508 109.711 21.3972 108.881L20.697 108.167C19.6342 109.209 18.9074 111 18.4979 113.102C18.0848 115.223 17.9799 117.737 18.2224 120.305C18.705 125.417 20.5798 130.886 24.3141 133.881L24.9398 133.101ZM23.5983 61.3815C36.2538 44.13 36.6267 31.0114 35.1254 26.474L34.176 26.7881C35.5385 30.906 35.3387 43.6867 22.792 60.79L23.5983 61.3815ZM11.7491 116.399C8.43251 102.272 7.95395 82.7074 23.5983 61.3815L22.792 60.79C6.93373 82.4075 7.40979 102.291 10.7756 116.627L11.7491 116.399ZM12.4949 59.5964C6.6143 70.2867 5.11569 82.0373 5.61989 92.3627C6.12399 102.686 8.63159 111.62 10.8024 116.709L11.7222 116.317C9.59729 111.335 7.11696 102.518 6.6187 92.314C6.12055 82.1123 7.60515 70.5602 13.371 60.0784L12.4949 59.5964ZM34.3079 26.267C33.0731 27.4297 30.5302 30.476 26.8516 35.855C23.1657 41.2447 18.3245 48.9986 12.4949 59.5964L13.371 60.0784C19.1878 49.504 24.0122 41.7783 27.677 36.4195C31.349 31.0502 33.8417 28.0795 34.9934 26.9951L34.3079 26.267Z" fill="black"/>
</svg>
