<svg width="54" height="279" viewBox="0 0 54 279" fill="none" xmlns="http://www.w3.org/2000/svg">
<path fill-rule="evenodd" clip-rule="evenodd" d="M30.8813 145.834C35.018 149.995 42.3845 161.313 38.7569 173.298C34.2225 188.278 21.335 190.275 18.9484 190.026C20.1417 188.278 22.0987 183.984 20.3804 180.788C19.3462 183.701 16.1323 188.877 11.5501 186.281C5.82233 183.035 8.2089 176.544 9.87949 175.545C10.1977 177.792 11.8842 181.986 16.0846 180.788C21.335 179.29 21.0963 171.051 16.0846 167.306C11.0728 163.561 2.48113 167.805 0.810538 175.545C-0.860059 183.285 4.15173 196.268 17.5165 196.517C30.8813 196.767 42.8141 178.292 41.6208 166.557C42.2572 169.386 43.2914 176.944 42.3368 184.534C41.1435 194.021 32.3132 211.498 24.9149 220.736C17.5165 229.974 13.4593 247.7 15.8459 256.938C13.9366 259.019 10.0227 264.229 9.64083 268.423C9.16352 273.666 12.2661 277.162 16.3232 275.913C14.2549 275.414 10.5 273.217 12.0274 268.423C13.5548 263.63 15.5277 260.267 16.3232 259.185C17.9143 264.429 23.4829 275.464 33.0292 277.661C44.962 280.408 50.6898 265.677 41.6208 261.682C39.8707 261.183 36.2749 261.283 35.8931 265.677C35.5112 270.071 38.7569 269.672 40.4275 268.923C39.5525 268.257 38.1842 266.676 39.7116 265.677C41.6208 264.428 43.5301 265.677 43.2914 267.924C43.0528 270.171 40.1889 275.164 34.2225 273.916C28.256 272.668 19.6644 262.93 19.1871 255.69L22.5283 252.195C24.1193 252.195 27.8265 251.446 29.9266 248.45C32.0268 245.453 33.6656 241.209 34.2225 239.461C36.8477 239.128 42.5754 234.618 44.4847 219.238C46.6326 218.822 50.9284 215.843 50.9284 207.254C50.9284 196.517 50.2125 180.539 47.3486 172.549C45.0575 166.157 42.5754 160.731 41.6208 158.817C44.0869 159.983 49.7829 160.865 52.8377 155.072C52.8377 152.992 52.074 149.23 49.0192 150.828C47.0693 151.848 47.7953 152.655 48.6233 153.575C49.4167 154.457 50.3039 155.443 49.0192 156.82C46.3939 159.634 39.2343 158.318 36.609 150.828C40.1093 152.16 47.3008 152.725 48.0645 144.336C47.4281 142.339 45.3916 138.994 42.3368 141.59C41.5413 143.005 40.8571 145.834 44.4847 145.834C43.4505 148.58 39.282 152.425 30.8813 145.834ZM29.2107 145.834C31.5972 149.995 35.6544 159.816 32.7905 165.808C29.2107 173.298 25.6308 166.557 28.4947 164.559C27.4605 163.894 25.1535 163.361 24.1989 166.557C23.0056 170.551 28.972 174.546 32.7905 170.801C36.609 167.056 36.3704 151.577 29.2107 145.834ZM19.1865 252.694C17.7545 248.366 18.0409 235.417 30.642 218.239C46.3933 196.768 45.916 177.044 42.5748 162.812C46.8706 172.882 52.5507 198.316 40.9042 219.488C29.2578 240.66 21.573 250.447 19.1865 252.694Z" fill="black"/>
<path d="M38.7569 173.298L38.2784 173.153L38.7569 173.298ZM30.8813 145.834L31.1899 145.441L30.5267 146.187L30.8813 145.834ZM18.9484 190.026L18.5355 189.744L18.063 190.436L18.8964 190.523L18.9484 190.026ZM20.3804 180.788L20.8208 180.551L20.2866 179.558L19.9092 180.621L20.3804 180.788ZM11.5501 186.281L11.3036 186.716L11.5501 186.281ZM9.87949 175.545L10.3746 175.475L10.269 174.729L9.62294 175.116L9.87949 175.545ZM16.0846 180.788L15.9474 180.307L16.0846 180.788ZM0.810538 175.545L0.321793 175.439L0.810538 175.545ZM17.5165 196.517L17.5258 196.017L17.5165 196.517ZM41.6208 166.557L42.1086 166.447L41.1234 166.607L41.6208 166.557ZM42.3368 184.534L41.8407 184.471L42.3368 184.534ZM24.9149 220.736L24.5246 220.423L24.9149 220.736ZM15.8459 256.938L16.2143 257.276L16.398 257.076L16.33 256.813L15.8459 256.938ZM9.64083 268.423L10.1388 268.469L9.64083 268.423ZM16.3232 275.913L16.4703 276.391L18.2126 275.855L16.4406 275.427L16.3232 275.913ZM12.0274 268.423L11.551 268.271L12.0274 268.423ZM16.3232 259.185L16.8017 259.04L16.5118 258.085L15.9204 258.889L16.3232 259.185ZM33.0292 277.661L33.1413 277.174L33.0292 277.661ZM41.6208 261.682L41.8224 261.225L41.791 261.211L41.758 261.201L41.6208 261.682ZM35.8931 265.677L35.3949 265.634L35.3949 265.634L35.8931 265.677ZM40.4275 268.923L40.6321 269.379L41.4003 269.034L40.7303 268.525L40.4275 268.923ZM39.7116 265.677L39.9852 266.095L39.7116 265.677ZM43.2914 267.924L43.7886 267.977L43.7886 267.977L43.2914 267.924ZM34.2225 273.916L34.3249 273.427L34.2225 273.916ZM19.1871 255.69L18.8257 255.345L18.6737 255.503L18.6882 255.723L19.1871 255.69ZM22.5283 252.195L22.5283 251.695L22.3145 251.695L22.1668 251.849L22.5283 252.195ZM34.2225 239.461L34.1596 238.965L33.8429 239.005L33.7461 239.31L34.2225 239.461ZM44.4847 219.238L44.3896 218.747L44.0332 218.816L43.9885 219.176L44.4847 219.238ZM47.3486 172.549L46.8779 172.718L47.3486 172.549ZM41.6208 158.817L41.8344 158.365L40.529 157.749L41.1734 159.041L41.6208 158.817ZM52.8377 155.072L53.2799 155.306L53.3377 155.196L53.3377 155.072L52.8377 155.072ZM49.0192 150.828L48.7874 150.385L48.7874 150.385L49.0192 150.828ZM48.6233 153.575L48.995 153.241L48.6233 153.575ZM49.0192 156.82L48.6535 156.479L49.0192 156.82ZM36.609 150.828L36.7868 150.361L35.7814 149.978L36.1372 150.993L36.609 150.828ZM48.0645 144.336L48.5625 144.382L48.5717 144.281L48.5409 144.185L48.0645 144.336ZM42.3368 141.59L42.013 141.209L41.9448 141.267L41.901 141.345L42.3368 141.59ZM44.4847 145.834L44.9526 146.01L45.2073 145.334L44.4847 145.334L44.4847 145.834ZM32.7905 165.808L32.3394 165.592L32.3394 165.592L32.7905 165.808ZM29.2107 145.834L29.5235 145.444L28.7769 146.083L29.2107 145.834ZM28.4947 164.559L28.7807 164.97L29.3926 164.543L28.7654 164.139L28.4947 164.559ZM24.1989 166.557L23.7198 166.413L23.7198 166.413L24.1989 166.557ZM32.7905 170.801L32.4404 170.444L32.7905 170.801ZM30.642 218.239L30.2388 217.944L30.642 218.239ZM19.1865 252.694L18.7118 252.851L18.9582 253.596L19.5292 253.058L19.1865 252.694ZM42.5748 162.812L43.0347 162.616L42.0881 162.927L42.5748 162.812ZM40.9042 219.488L41.3423 219.729L40.9042 219.488ZM39.2355 173.442C41.0908 167.313 40.1296 161.369 38.1961 156.449C36.2641 151.534 33.3489 147.607 31.2359 145.482L30.5267 146.187C32.5504 148.222 35.3868 152.035 37.2654 156.815C39.1424 161.591 40.0507 167.298 38.2784 173.153L39.2355 173.442ZM18.8964 190.523C19.5711 190.593 20.8855 190.503 22.529 190.11C24.1845 189.714 26.2062 189.003 28.2957 187.807C32.4834 185.408 36.928 181.065 39.2355 173.442L38.2784 173.153C36.0514 180.51 31.7851 184.656 27.7987 186.939C25.8012 188.083 23.8702 188.761 22.2964 189.137C20.7106 189.517 19.5191 189.582 19.0005 189.528L18.8964 190.523ZM19.94 181.025C20.7162 182.468 20.6797 184.197 20.2712 185.828C19.864 187.454 19.1039 188.911 18.5355 189.744L19.3614 190.307C19.9863 189.392 20.8013 187.828 21.2413 186.071C21.68 184.319 21.7629 182.303 20.8208 180.551L19.94 181.025ZM11.3036 186.716C12.539 187.416 13.7153 187.607 14.8024 187.42C15.8807 187.235 16.8266 186.684 17.6273 185.975C19.2186 184.565 20.3183 182.457 20.8516 180.955L19.9092 180.621C19.4083 182.032 18.3839 183.968 16.9642 185.226C16.2594 185.85 15.478 186.289 14.6326 186.435C13.7961 186.579 12.8523 186.444 11.7966 185.846L11.3036 186.716ZM9.62294 175.116C9.07776 175.442 8.56173 176.143 8.17631 176.978C7.78159 177.833 7.48848 178.903 7.44084 180.049C7.34462 182.365 8.25542 184.988 11.3036 186.716L11.7966 185.846C9.11699 184.327 8.3572 182.083 8.43998 180.091C8.48183 179.084 8.74061 178.141 9.08424 177.397C9.43716 176.632 9.84592 176.147 10.136 175.974L9.62294 175.116ZM15.9474 180.307C14.9839 180.582 14.1965 180.54 13.5507 180.318C12.901 180.094 12.3583 179.674 11.9098 179.138C11.0026 178.053 10.5256 176.541 10.3746 175.475L9.38443 175.615C9.55158 176.795 10.077 178.505 11.1426 179.779C11.6806 180.423 12.367 180.967 13.2248 181.263C14.0865 181.56 15.085 181.593 16.2217 181.269L15.9474 180.307ZM15.7853 167.706C18.1569 169.478 19.4047 172.323 19.4329 174.895C19.4612 177.466 18.2866 179.64 15.9474 180.307L16.2217 181.269C19.133 180.438 20.4643 177.743 20.4329 174.884C20.4015 172.025 19.024 168.878 16.3839 166.905L15.7853 167.706ZM1.29928 175.65C2.10114 171.935 4.56547 169.058 7.42635 167.561C10.2944 166.061 13.4778 165.982 15.7853 167.706L16.3839 166.905C13.6795 164.884 10.0612 165.055 6.96285 166.675C3.85732 168.3 1.19053 171.414 0.321793 175.439L1.29928 175.65ZM17.5258 196.017C11.0281 195.896 6.58091 192.689 3.94647 188.57C1.29827 184.43 0.493565 179.383 1.29928 175.65L0.321793 175.439C-0.543086 179.446 0.3228 184.761 3.10404 189.109C5.89903 193.479 10.6401 196.889 17.5072 197.017L17.5258 196.017ZM41.1234 166.607C41.7033 172.31 39.0852 179.74 34.6268 185.733C30.1658 191.729 23.9754 196.138 17.5258 196.017L17.5072 197.017C24.4224 197.146 30.8807 192.443 35.4291 186.33C39.98 180.213 42.7316 172.538 42.1183 166.506L41.1234 166.607ZM42.8329 184.596C43.7963 176.936 42.7545 169.319 42.1086 166.447L41.133 166.666C41.7599 169.454 42.7865 176.951 41.8407 184.471L42.8329 184.596ZM25.3051 221.048C29.0336 216.393 33.1093 209.68 36.4019 202.948C39.6896 196.225 42.2256 189.424 42.8329 184.596L41.8407 184.471C41.2547 189.131 38.7789 195.811 35.5036 202.509C32.233 209.196 28.1945 215.841 24.5246 220.423L25.3051 221.048ZM16.33 256.813C15.1662 252.308 15.5649 245.66 17.1969 238.955C18.827 232.258 21.6664 225.592 25.3051 221.048L24.5246 220.423C20.765 225.118 17.8766 231.934 16.2252 238.719C14.5756 245.496 14.139 252.33 15.3618 257.063L16.33 256.813ZM10.1388 268.469C10.3192 266.486 11.3453 264.214 12.5982 262.147C13.8444 260.091 15.2798 258.295 16.2143 257.276L15.4775 256.6C14.5028 257.662 13.0266 259.511 11.743 261.629C10.4661 263.736 9.34428 266.166 9.14289 268.378L10.1388 268.469ZM16.1762 275.435C14.3309 276.003 12.7455 275.494 11.655 274.27C10.5468 273.026 9.90914 270.991 10.1388 268.469L9.14289 268.378C8.8952 271.099 9.57016 273.433 10.9082 274.935C12.264 276.457 14.2584 277.072 16.4703 276.391L16.1762 275.435ZM11.551 268.271C10.7364 270.828 11.3252 272.754 12.4424 274.098C13.5348 275.413 15.0969 276.132 16.2059 276.399L16.4406 275.427C15.4812 275.196 14.1316 274.566 13.2114 273.459C12.3159 272.381 11.791 270.812 12.5038 268.575L11.551 268.271ZM15.9204 258.889C15.0889 260.02 13.0929 263.432 11.551 268.271L12.5038 268.575C14.0167 263.827 15.9665 260.515 16.726 259.482L15.9204 258.889ZM33.1413 277.174C28.5271 276.112 24.8389 272.904 22.0921 269.264C19.3473 265.628 17.5823 261.613 16.8017 259.04L15.8448 259.331C16.6552 262.001 18.47 266.125 21.2939 269.867C24.1157 273.605 27.985 277.013 32.917 278.148L33.1413 277.174ZM41.4193 262.14C43.5537 263.08 44.7924 264.635 45.3022 266.39C45.8156 268.157 45.5989 270.162 44.7475 271.988C43.0509 275.627 38.8634 278.491 33.1413 277.174L32.917 278.148C39.1278 279.578 43.7706 276.45 45.6538 272.411C46.5924 270.398 46.8529 268.143 46.2625 266.111C45.6686 264.066 44.2225 262.282 41.8224 261.225L41.4193 262.14ZM36.3912 265.72C36.5682 263.683 37.4662 262.732 38.4449 262.302C39.4709 261.852 40.6805 261.934 41.4836 262.163L41.758 261.201C40.811 260.931 39.3476 260.814 38.0428 261.387C36.6905 261.98 35.5998 263.277 35.3949 265.634L36.3912 265.72ZM40.223 268.466C39.4307 268.822 38.352 269.048 37.5624 268.759C37.1913 268.623 36.8723 268.371 36.6552 267.924C36.4313 267.464 36.3004 266.764 36.3912 265.72L35.3949 265.634C35.2948 266.786 35.4264 267.685 35.7559 268.362C36.0922 269.053 36.6174 269.478 37.2188 269.698C38.3743 270.121 39.7537 269.773 40.6321 269.379L40.223 268.466ZM39.4379 265.258C38.9731 265.562 38.6791 265.946 38.5702 266.393C38.4637 266.831 38.5518 267.257 38.7096 267.623C39.0186 268.338 39.6552 268.963 40.1248 269.321L40.7303 268.525C40.3248 268.216 39.8397 267.717 39.6277 267.226C39.5249 266.988 39.5026 266.791 39.5418 266.63C39.5786 266.479 39.6863 266.291 39.9852 266.095L39.4379 265.258ZM43.7886 267.977C43.9239 266.703 43.4523 265.626 42.5755 265.068C41.6936 264.506 40.5249 264.548 39.4379 265.258L39.9852 266.095C40.8075 265.558 41.548 265.599 42.0384 265.911C42.5338 266.227 42.8976 266.897 42.7942 267.871L43.7886 267.977ZM34.1201 274.405C37.2742 275.065 39.6431 274.072 41.2435 272.599C42.8187 271.148 43.6557 269.229 43.7886 267.977L42.7942 267.871C42.6885 268.866 41.9742 270.567 40.5662 271.863C39.1833 273.136 37.1372 274.015 34.3249 273.427L34.1201 274.405ZM18.6882 255.723C18.937 259.497 21.2805 263.841 24.2644 267.373C27.2429 270.898 30.9732 273.747 34.1201 274.405L34.3249 273.427C31.5053 272.837 27.9566 270.193 25.0283 266.727C22.1055 263.268 19.9145 259.124 19.686 255.657L18.6882 255.723ZM22.1668 251.849L18.8257 255.345L19.5485 256.035L22.8897 252.54L22.1668 251.849ZM29.5172 248.163C27.5479 250.972 24.0342 251.695 22.5283 251.695L22.5283 252.695C24.2044 252.695 28.1051 251.919 30.3361 248.737L29.5172 248.163ZM33.7461 239.31C33.1957 241.037 31.5754 245.226 29.5172 248.163L30.3361 248.737C32.4783 245.681 34.1355 241.381 34.6989 239.613L33.7461 239.31ZM43.9885 219.176C43.0402 226.815 41.1487 231.71 39.2022 234.721C37.2453 237.748 35.2682 238.825 34.1596 238.965L34.2854 239.957C35.802 239.765 38.0013 238.42 40.042 235.264C42.093 232.091 44.0199 227.04 44.9809 219.3L43.9885 219.176ZM50.4284 207.254C50.4284 215.664 46.2477 218.387 44.3896 218.747L44.5798 219.729C47.0175 219.257 51.4284 216.022 51.4284 207.254L50.4284 207.254ZM46.8779 172.718C48.2864 176.648 49.1777 182.584 49.7142 188.914C50.2497 195.231 50.4284 201.895 50.4284 207.254L51.4284 207.254C51.4284 201.876 51.2492 195.183 50.7107 188.829C50.1732 182.488 49.2746 176.441 47.8193 172.381L46.8779 172.718ZM41.1734 159.041C42.1196 160.938 44.5938 166.346 46.8779 172.718L47.8193 172.381C45.5212 165.969 43.0313 160.525 42.0683 158.594L41.1734 159.041ZM52.3954 154.839C50.9433 157.593 48.8913 158.728 46.925 159.061C44.9313 159.398 42.9946 158.913 41.8344 158.365L41.4072 159.27C42.7132 159.887 44.8575 160.425 47.0919 160.047C49.3538 159.664 51.6772 158.345 53.2799 155.306L52.3954 154.839ZM49.2509 151.271C49.9371 150.912 50.4164 150.893 50.7521 151.001C51.0938 151.11 51.3907 151.384 51.64 151.819C52.1487 152.708 52.3377 154.065 52.3377 155.072L53.3377 155.072C53.3377 153.999 53.1448 152.435 52.5079 151.322C52.1844 150.757 51.7177 150.26 51.057 150.048C50.3903 149.835 49.6286 149.945 48.7874 150.385L49.2509 151.271ZM48.995 153.241C48.7827 153.005 48.6047 152.806 48.4718 152.615C48.3382 152.423 48.2864 152.289 48.2774 152.193C48.2671 152.082 48.2994 151.769 49.2509 151.271L48.7874 150.385C47.7891 150.907 47.2095 151.508 47.2817 152.285C47.314 152.633 47.477 152.937 47.6514 153.187C47.8267 153.438 48.0499 153.685 48.2516 153.909L48.995 153.241ZM49.3848 157.161C49.7448 156.775 49.9797 156.388 50.0919 155.992C50.2057 155.591 50.1842 155.213 50.079 154.867C49.8801 154.211 49.3716 153.659 48.995 153.241L48.2516 153.909C48.6685 154.373 49.0002 154.755 49.122 155.157C49.1773 155.339 49.1863 155.521 49.1299 155.72C49.0718 155.924 48.9358 156.176 48.6535 156.479L49.3848 157.161ZM36.1372 150.993C37.4957 154.869 40.045 157.188 42.6392 158.157C45.2038 159.114 47.8891 158.765 49.3848 157.161L48.6535 156.479C47.524 157.69 45.3169 158.089 42.989 157.22C40.6907 156.361 38.3476 154.277 37.0809 150.663L36.1372 150.993ZM47.5666 144.291C47.3821 146.317 46.8138 147.76 46.0459 148.776C45.2798 149.788 44.2917 150.408 43.2116 150.751C41.0277 151.445 38.4779 151.004 36.7868 150.361L36.4312 151.295C38.2405 151.984 41.0366 152.491 43.5144 151.704C44.7652 151.306 45.9369 150.577 46.8435 149.379C47.7481 148.183 48.3651 146.55 48.5625 144.382L47.5666 144.291ZM42.6606 141.971C43.3638 141.373 43.9593 141.158 44.4471 141.143C44.933 141.127 45.3821 141.307 45.7989 141.634C46.6556 142.306 47.2833 143.532 47.5881 144.488L48.5409 144.185C48.2094 143.144 47.5006 141.698 46.4162 140.847C45.8624 140.413 45.1899 140.118 44.4149 140.143C43.6418 140.168 42.8372 140.509 42.013 141.209L42.6606 141.971ZM44.4847 145.334C43.6365 145.334 43.107 145.168 42.7831 144.953C42.4721 144.747 42.3097 144.47 42.2417 144.141C42.0954 143.434 42.3956 142.506 42.7726 141.835L41.901 141.345C41.4825 142.089 41.0428 143.283 41.2625 144.344C41.3774 144.9 41.6744 145.418 42.2306 145.787C42.7738 146.147 43.5191 146.334 44.4847 146.334L44.4847 145.334ZM30.5726 146.227C34.8314 149.569 38.1244 150.349 40.5512 149.824C42.9776 149.299 44.3912 147.501 44.9526 146.01L44.0168 145.658C43.544 146.913 42.3563 148.411 40.3397 148.847C38.3235 149.283 35.3319 148.69 31.1899 145.441L30.5726 146.227ZM33.2416 166.023C34.7517 162.864 34.4163 158.765 33.4539 155.01C32.4862 151.235 30.8561 147.698 29.6444 145.585L28.7769 146.083C29.9518 148.131 31.5436 151.585 32.4852 155.258C33.4319 158.952 33.6932 162.76 32.3394 165.592L33.2416 166.023ZM28.2087 164.149C27.3318 164.761 26.9673 165.725 26.9544 166.643C26.9416 167.551 27.2696 168.483 27.8701 169.092C28.1749 169.402 28.5589 169.635 29.0084 169.722C29.4614 169.809 29.9435 169.74 30.4267 169.502C31.3723 169.038 32.3297 167.931 33.2416 166.023L32.3394 165.592C31.4614 167.429 30.6289 168.289 29.9859 168.605C29.6749 168.757 29.4131 168.782 29.1976 168.74C28.9787 168.698 28.7698 168.581 28.5823 168.39C28.1984 168.001 27.9447 167.341 27.9543 166.657C27.9637 165.984 28.2257 165.357 28.7807 164.97L28.2087 164.149ZM24.678 166.7C25.1187 165.224 25.8236 164.731 26.4252 164.598C27.077 164.453 27.7754 164.691 28.224 164.98L28.7654 164.139C28.1799 163.762 27.2077 163.4 26.2087 163.622C25.1596 163.854 24.2337 164.693 23.7198 166.413L24.678 166.7ZM32.4404 170.444C30.7176 172.134 28.5227 172.086 26.8616 171.146C25.1726 170.19 24.1692 168.403 24.678 166.7L23.7198 166.413C23.0353 168.705 24.4185 170.912 26.369 172.016C28.3474 173.136 31.045 173.213 33.1406 171.158L32.4404 170.444ZM28.8978 146.224C32.3232 148.972 34.1476 154.114 34.6196 159.114C34.8545 161.601 34.7505 164.018 34.3582 166.032C33.9622 168.065 33.2868 169.614 32.4404 170.444L33.1406 171.158C34.2035 170.116 34.9302 168.325 35.3397 166.223C35.7528 164.102 35.8577 161.588 35.6152 159.02C35.1326 153.908 33.2578 148.439 29.5235 145.444L28.8978 146.224ZM30.2388 217.944C17.5834 235.195 17.2104 248.314 18.7118 252.851L19.6612 252.537C18.2986 248.419 18.4984 235.638 31.0451 218.535L30.2388 217.944ZM42.0881 162.927C45.4046 177.053 45.8832 196.618 30.2388 217.944L31.0451 218.535C46.9034 196.918 46.4274 177.034 43.0616 162.698L42.0881 162.927ZM41.3423 219.729C47.2229 209.038 48.7215 197.288 48.2173 186.962C47.7132 176.639 45.2056 167.705 43.0347 162.616L42.1149 163.008C44.2399 167.99 46.7202 176.807 47.2185 187.011C47.7166 197.213 46.232 208.765 40.4661 219.247L41.3423 219.729ZM19.5292 253.058C20.764 251.895 23.307 248.849 26.9856 243.47C30.6715 238.08 35.5126 230.326 41.3423 219.729L40.4661 219.247C34.6494 229.821 29.8249 237.547 26.1602 242.905C22.4882 248.275 19.9954 251.246 18.8437 252.33L19.5292 253.058Z" fill="black"/>
<path fill-rule="evenodd" clip-rule="evenodd" d="M30.8808 133.491C35.0175 129.33 42.384 118.012 38.7564 106.027C34.222 91.0472 21.3345 89.0498 18.948 89.2995C20.1412 91.0471 22.0982 95.3413 20.3799 98.5371C19.3457 95.6243 16.1318 90.4477 11.5496 93.0443C5.82184 96.29 8.20841 102.782 9.879 103.78C10.1972 101.533 11.8837 97.3387 16.0841 98.5371C21.3345 100.035 21.0959 108.274 16.0841 112.019C11.0723 115.764 2.48064 111.52 0.810047 103.78C-0.860549 96.0404 4.15124 83.0575 17.516 82.8078C30.8808 82.5581 42.8136 101.033 41.6203 112.768C42.2567 109.939 43.2909 102.381 42.3363 94.7915C41.143 85.3039 32.3127 67.8269 24.9144 58.5891C17.516 49.3512 13.4588 31.6246 15.8454 22.3867C13.9362 20.3061 10.0222 15.0963 9.64034 10.9018C9.16303 5.65872 12.2656 2.16332 16.3227 3.41168C14.2544 3.91106 10.4995 6.10821 12.0269 10.9018C13.5543 15.6954 15.5272 19.0577 16.3227 20.1396C17.9138 14.8965 23.4824 3.86098 33.0287 1.66388C44.9615 -1.08251 50.6893 13.6481 41.6203 17.6429C39.8702 18.1422 36.2744 18.0424 35.8926 13.6482C35.5107 9.25394 38.7564 9.65341 40.427 10.4024C39.552 11.0682 38.1837 12.6495 39.7111 13.6482C41.6203 14.8965 43.5296 13.6482 43.2909 11.4011C43.0523 9.15407 40.1884 4.16064 34.222 5.409C28.2556 6.65735 19.6639 16.3945 19.1866 23.635L22.5278 27.1304C24.1188 27.1304 27.826 27.8794 29.9262 30.8755C32.0263 33.8716 33.6651 38.116 34.222 39.8637C36.8472 40.1966 42.575 44.7073 44.4842 60.0871C46.6321 60.503 50.9279 63.4821 50.9279 72.0713C50.9279 82.8078 50.212 98.7857 47.3481 106.776C45.057 113.168 42.575 118.594 41.6203 120.508C44.0864 119.342 49.7824 118.46 52.8372 124.253C52.8372 126.333 52.0735 130.095 49.0187 128.497C47.0688 127.477 47.7948 126.67 48.6228 125.75C49.4163 124.868 50.3034 123.882 49.0187 122.505C46.3935 119.691 39.2338 121.007 36.6085 128.497C40.1088 127.165 47.3004 126.6 48.0641 134.989C47.4276 136.986 45.3911 140.331 42.3363 137.735C41.5408 136.32 40.8566 133.491 44.4842 133.491C43.45 130.745 39.2815 126.9 30.8808 133.491ZM29.2102 133.491C31.5968 129.33 35.6539 119.509 32.79 113.517C29.2102 106.027 25.6303 112.768 28.4942 114.766C27.46 115.431 25.153 115.964 24.1984 112.768C23.0051 108.774 28.9715 104.779 32.79 108.524C36.6085 112.269 36.3699 127.748 29.2102 133.491ZM19.1865 26.6311C17.7545 30.9587 18.0409 43.9084 30.642 61.0858C46.3933 82.5575 45.916 102.282 42.5748 116.513C46.8706 106.443 52.5507 81.0095 40.9042 59.8374C29.2578 38.6653 21.573 28.8781 19.1865 26.6311Z" fill="black"/>
<path d="M38.7564 106.027L38.2779 106.172L38.7564 106.027ZM30.8808 133.491L31.1894 133.884L30.5262 133.138L30.8808 133.491ZM18.948 89.2995L18.535 89.5814L18.0625 88.8894L18.8959 88.8022L18.948 89.2995ZM20.3799 98.5371L20.8203 98.7739L20.2861 99.7673L19.9087 98.7044L20.3799 98.5371ZM11.5496 93.0443L11.3031 92.6093L11.5496 93.0443ZM9.879 103.78L10.3741 103.85L10.2685 104.596L9.62245 104.209L9.879 103.78ZM16.0841 98.5371L15.9469 99.0179L16.0841 98.5371ZM0.810047 103.78L0.321302 103.886L0.810047 103.78ZM17.516 82.8078L17.5253 83.3077L17.516 82.8078ZM41.6203 112.768L42.1081 112.878L41.1229 112.718L41.6203 112.768ZM42.3363 94.7915L41.8402 94.8539L42.3363 94.7915ZM24.9144 58.5891L24.5241 58.9016L24.9144 58.5891ZM15.8454 22.3867L16.2138 22.0487L16.3975 22.2488L16.3295 22.5118L15.8454 22.3867ZM9.64034 10.9018L10.1383 10.8565L9.64034 10.9018ZM16.3227 3.41168L16.4698 2.93379L18.2121 3.46989L16.4401 3.89771L16.3227 3.41168ZM12.0269 10.9018L11.5505 11.0536L12.0269 10.9018ZM16.3227 20.1396L16.8012 20.2848L16.5113 21.2401L15.9199 20.4358L16.3227 20.1396ZM33.0287 1.66388L33.1408 2.15114L33.0287 1.66388ZM41.6203 17.6429L41.8219 18.1004L41.7905 18.1143L41.7575 18.1237L41.6203 17.6429ZM35.8926 13.6482L35.3944 13.6914L35.3944 13.6914L35.8926 13.6482ZM40.427 10.4024L40.6316 9.94618L41.3998 10.2906L40.7298 10.8003L40.427 10.4024ZM39.7111 13.6482L39.9847 13.2297L39.7111 13.6482ZM43.2909 11.4011L43.7881 11.3483L43.7881 11.3483L43.2909 11.4011ZM34.222 5.409L34.3244 5.8984L34.222 5.409ZM19.1866 23.635L18.8252 23.9805L18.6732 23.8216L18.6877 23.6021L19.1866 23.635ZM22.5278 27.1304L22.5278 27.6304L22.3141 27.6304L22.1664 27.4759L22.5278 27.1304ZM34.222 39.8637L34.1591 40.3597L33.8425 40.3195L33.7456 40.0155L34.222 39.8637ZM44.4842 60.0871L44.3892 60.5779L44.0327 60.5089L43.988 60.1487L44.4842 60.0871ZM47.3481 106.776L46.8774 106.607L47.3481 106.776ZM41.6203 120.508L41.8339 120.96L40.5285 121.576L41.1729 120.284L41.6203 120.508ZM52.8372 124.253L53.2795 124.019L53.3372 124.129L53.3372 124.253L52.8372 124.253ZM49.0187 128.497L48.7869 128.94L48.7869 128.94L49.0187 128.497ZM48.6228 125.75L48.9945 126.084L48.6228 125.75ZM49.0187 122.505L48.6531 122.846L49.0187 122.505ZM36.6085 128.497L36.7863 128.964L35.7809 129.347L36.1367 128.332L36.6085 128.497ZM48.0641 134.989L48.562 134.943L48.5712 135.044L48.5405 135.14L48.0641 134.989ZM42.3363 137.735L42.0125 138.116L41.9443 138.058L41.9005 137.98L42.3363 137.735ZM44.4842 133.491L44.9521 133.315L45.2068 133.991L44.4842 133.991L44.4842 133.491ZM32.79 113.517L32.3389 113.733L32.3389 113.733L32.79 113.517ZM29.2102 133.491L29.523 133.881L28.7765 133.242L29.2102 133.491ZM28.4942 114.766L28.7802 114.355L29.3921 114.782L28.7649 115.186L28.4942 114.766ZM24.1984 112.768L23.7193 112.912L24.1984 112.768ZM32.79 108.524L32.4399 108.881L32.79 108.524ZM30.642 61.0858L31.0451 60.79L30.642 61.0858ZM19.1865 26.6311L18.7118 26.474L18.9582 25.7294L19.5292 26.2671L19.1865 26.6311ZM42.5748 116.513L43.0347 116.709L42.088 116.399L42.5748 116.513ZM40.9042 59.8374L41.3423 59.5964L40.9042 59.8374ZM39.235 105.883C41.0903 112.012 40.1291 117.956 38.1956 122.876C36.2636 127.791 33.3484 131.718 31.2354 133.843L30.5262 133.138C32.5499 131.103 35.3863 127.29 37.2649 122.51C39.1419 117.734 40.0502 112.027 38.2779 106.172L39.235 105.883ZM18.8959 88.8022C19.5706 88.7316 20.885 88.8219 22.5285 89.215C24.184 89.611 26.2057 90.3217 28.2952 91.5184C32.4829 93.9167 36.9275 98.2596 39.235 105.883L38.2779 106.172C36.0509 98.8151 31.7846 94.6691 27.7982 92.3861C25.8007 91.2421 23.8697 90.564 22.2959 90.1876C20.7101 89.8083 19.5186 89.7425 19 89.7968L18.8959 88.8022ZM19.9395 98.3003C20.7157 96.8567 20.6792 95.1277 20.2708 93.4967C19.8635 91.8706 19.1034 90.4138 18.535 89.5814L19.3609 89.0175C19.9858 89.9328 20.8008 91.4969 21.2408 93.2538C21.6796 95.0057 21.7624 97.0216 20.8203 98.7739L19.9395 98.3003ZM11.3031 92.6093C12.5385 91.9092 13.7148 91.7175 14.8019 91.9048C15.8802 92.0905 16.8261 92.6411 17.6268 93.3504C19.2181 94.7601 20.3178 96.8679 20.8511 98.3698L19.9087 98.7044C19.4078 97.2935 18.3834 95.3566 16.9637 94.0989C16.2589 93.4746 15.4775 93.0359 14.6321 92.8903C13.7956 92.7462 12.8518 92.8811 11.7961 93.4793L11.3031 92.6093ZM9.62245 104.209C9.07727 103.883 8.56124 103.182 8.17582 102.347C7.7811 101.492 7.48799 100.422 7.44035 99.2757C7.34413 96.9604 8.25493 94.3366 11.3031 92.6093L11.7961 93.4793C9.1165 94.9978 8.35671 97.2425 8.43949 99.2341C8.48134 100.241 8.74012 101.184 9.08375 101.928C9.43667 102.693 9.84543 103.178 10.1356 103.351L9.62245 104.209ZM15.9469 99.0179C14.9834 98.743 14.196 98.7848 13.5502 99.0075C12.9005 99.2314 12.3578 99.651 11.9093 100.187C11.0021 101.272 10.5251 102.784 10.3741 103.85L9.38394 103.71C9.55109 102.53 10.0765 100.82 11.1422 99.5458C11.6801 98.9025 12.3665 98.3577 13.2243 98.062C14.086 97.765 15.0845 97.732 16.2213 98.0563L15.9469 99.0179ZM15.7848 111.619C18.1564 109.847 19.4042 107.002 19.4324 104.43C19.4607 101.859 18.2861 99.6853 15.9469 99.0179L16.2213 98.0563C19.1325 98.8869 20.4638 101.582 20.4324 104.441C20.401 107.3 19.0235 110.447 16.3834 112.42L15.7848 111.619ZM1.29879 103.675C2.10065 107.39 4.56498 110.267 7.42586 111.764C10.2939 113.264 13.4773 113.343 15.7848 111.619L16.3834 112.42C13.679 114.441 10.0607 114.27 6.96236 112.65C3.85682 111.025 1.19004 107.911 0.321302 103.886L1.29879 103.675ZM17.5253 83.3077C11.0276 83.4291 6.58042 86.6357 3.94598 90.7546C1.29778 94.895 0.493075 99.9418 1.29879 103.675L0.321302 103.886C-0.543577 99.8787 0.32231 94.5642 3.10355 90.2158C5.89854 85.8459 10.6396 82.4362 17.5067 82.3079L17.5253 83.3077ZM41.1229 112.718C41.7028 107.015 39.0847 99.5845 34.6263 93.5922C30.1653 87.5965 23.9749 83.1872 17.5253 83.3077L17.5067 82.3079C24.4219 82.1787 30.8803 86.8821 35.4286 92.9953C39.9795 99.112 42.7311 106.787 42.1178 112.819L41.1229 112.718ZM42.8324 94.7291C43.7959 102.389 42.7541 110.006 42.1081 112.878L41.1325 112.659C41.7594 109.871 42.786 102.374 41.8402 94.8539L42.8324 94.7291ZM25.3046 58.2765C29.0331 62.932 33.1088 69.6445 36.4014 76.377C39.6891 83.0995 42.2251 89.901 42.8324 94.7291L41.8402 94.8539C41.2542 90.1944 38.7784 83.5136 35.5031 76.8163C32.2326 70.1289 28.194 63.484 24.5241 58.9016L25.3046 58.2765ZM16.3295 22.5118C15.1657 27.0165 15.5644 33.6648 17.1964 40.3697C18.8265 47.0671 21.6659 53.7331 25.3046 58.2765L24.5241 58.9016C20.7645 54.2072 17.8761 47.391 16.2247 40.6061C14.5751 33.8287 14.1385 26.9947 15.3613 22.2616L16.3295 22.5118ZM10.1383 10.8565C10.3187 12.8388 11.3448 15.1108 12.5977 17.1778C13.8439 19.2338 15.2793 21.0303 16.2138 22.0487L15.477 22.7248C14.5023 21.6626 13.0261 19.8138 11.7425 17.6961C10.4656 15.5895 9.34379 13.1593 9.1424 10.9472L10.1383 10.8565ZM16.1757 3.88957C14.3304 3.3218 12.745 3.83072 11.6545 5.05502C10.5463 6.29915 9.90866 8.33413 10.1383 10.8565L9.1424 10.9472C8.89471 8.22641 9.56967 5.89214 10.9077 4.38989C12.2635 2.86781 14.2579 2.2532 16.4698 2.93379L16.1757 3.88957ZM11.5505 11.0536C10.7359 8.49706 11.3247 6.57113 12.4419 5.22684C13.5344 3.91225 15.0964 3.19339 16.2054 2.92564L16.4401 3.89771C15.4807 4.12934 14.1311 4.75875 13.2109 5.86599C12.3155 6.94353 11.7905 8.51298 12.5033 10.75L11.5505 11.0536ZM15.9199 20.4358C15.0884 19.305 13.0924 15.8927 11.5505 11.0536L12.5033 10.75C14.0162 15.4982 15.966 18.8103 16.7256 19.8434L15.9199 20.4358ZM33.1408 2.15114C28.5266 3.21313 24.8384 6.42143 22.0916 10.0607C19.3469 13.6971 17.5818 17.7124 16.8012 20.2848L15.8443 19.9944C16.6547 17.3236 18.4695 13.1996 21.2934 9.45825C24.1152 5.71972 27.9845 2.31173 32.9165 1.17661L33.1408 2.15114ZM41.4188 17.1853C43.5532 16.2451 44.7919 14.6904 45.3018 12.9352C45.8152 11.1678 45.5984 9.16255 44.747 7.33674C43.0504 3.69822 38.8629 0.834177 33.1408 2.15114L32.9165 1.17661C39.1273 -0.252814 43.7701 2.87526 45.6533 6.91414C46.5919 8.92703 46.8524 11.1818 46.2621 13.2141C45.6682 15.2586 44.222 17.0432 41.8219 18.1004L41.4188 17.1853ZM36.3907 13.6049C36.5677 15.6421 37.4658 16.593 38.4444 17.0228C39.4704 17.4734 40.68 17.3912 41.4831 17.162L41.7575 18.1237C40.8105 18.3939 39.3471 18.5114 38.0423 17.9384C36.69 17.3445 35.5993 16.0484 35.3944 13.6914L36.3907 13.6049ZM40.2225 10.8587C39.4302 10.5035 38.3515 10.2773 37.5619 10.5661C37.1909 10.7019 36.8718 10.9542 36.6547 11.4006C36.4308 11.8608 36.2999 12.5605 36.3907 13.6049L35.3944 13.6914C35.2943 12.5387 35.4259 11.6405 35.7554 10.9631C36.0917 10.2719 36.6169 9.84705 37.2184 9.62701C38.3738 9.20431 39.7532 9.55237 40.6316 9.94618L40.2225 10.8587ZM39.4375 14.0666C38.9726 13.7627 38.6786 13.3787 38.5697 12.9316C38.4632 12.4943 38.5513 12.0677 38.7091 11.7022C39.0181 10.9866 39.6548 10.3618 40.1243 10.0045L40.7298 10.8003C40.3243 11.1089 39.8392 11.6076 39.6272 12.0987C39.5244 12.3365 39.5021 12.5342 39.5413 12.695C39.5781 12.8461 39.6858 13.0342 39.9847 13.2297L39.4375 14.0666ZM43.7881 11.3483C43.9234 12.6216 43.4519 13.6988 42.575 14.2572C41.6931 14.8188 40.5244 14.7773 39.4375 14.0666L39.9847 13.2297C40.807 13.7674 41.5475 13.7259 42.0379 13.4137C42.5334 13.0982 42.8971 12.4276 42.7937 11.4539L43.7881 11.3483ZM34.1196 4.91959C37.2737 4.25966 39.6426 5.25311 41.243 6.72643C42.8182 8.17657 43.6552 10.0964 43.7881 11.3483L42.7937 11.4539C42.688 10.4588 41.9737 8.75837 40.5657 7.46213C39.1829 6.18906 37.1367 5.30997 34.3244 5.8984L34.1196 4.91959ZM18.6877 23.6021C18.9365 19.8282 21.28 15.4838 24.264 11.9523C27.2424 8.42715 30.9727 5.57801 34.1196 4.91959L34.3244 5.8984C31.5048 6.48834 27.9561 9.13197 25.0278 12.5977C22.105 16.0569 19.914 20.2014 19.6855 23.6679L18.6877 23.6021ZM22.1664 27.4759L18.8252 23.9805L19.548 23.2895L22.8892 26.7849L22.1664 27.4759ZM29.5167 31.1625C27.5474 28.3531 24.0338 27.6304 22.5278 27.6304L22.5278 26.6304C24.2039 26.6304 28.1046 27.4058 30.3356 30.5885L29.5167 31.1625ZM33.7456 40.0155C33.1952 38.2882 31.5749 34.0986 29.5167 31.1625L30.3356 30.5885C32.4778 33.6445 34.135 37.9437 34.6984 39.7119L33.7456 40.0155ZM43.988 60.1487C43.0397 52.5096 41.1482 47.6152 39.2017 44.6042C37.2449 41.5773 35.2677 40.5003 34.1591 40.3597L34.2849 39.3676C35.8015 39.56 38.0008 40.9047 40.0415 44.0613C42.0925 47.234 44.0195 52.2847 44.9804 60.0255L43.988 60.1487ZM50.4279 72.0713C50.4279 63.6612 46.2472 60.9377 44.3892 60.5779L44.5793 59.5962C47.017 60.0682 51.4279 63.303 51.4279 72.0713L50.4279 72.0713ZM46.8774 106.607C48.2859 102.677 49.1772 96.7409 49.7138 90.4112C50.2492 84.094 50.4279 77.4302 50.4279 72.0713L51.4279 72.0713C51.4279 77.4489 51.2487 84.1423 50.7102 90.4956C50.1727 96.8365 49.2741 102.884 47.8188 106.944L46.8774 106.607ZM41.1729 120.284C42.1191 118.387 44.5933 112.979 46.8774 106.607L47.8188 106.944C45.5207 113.356 43.0308 118.8 42.0678 120.731L41.1729 120.284ZM52.3949 124.486C50.9428 121.732 48.8909 120.597 46.9245 120.264C44.9308 119.927 42.9941 120.412 41.8339 120.96L41.4067 120.055C42.7127 119.438 44.857 118.9 47.0914 119.278C49.3533 119.661 51.6767 120.98 53.2795 124.019L52.3949 124.486ZM49.2504 128.054C49.9366 128.413 50.4159 128.432 50.7516 128.324C51.0933 128.215 51.3902 127.941 51.6395 127.506C52.1483 126.617 52.3372 125.26 52.3372 124.253L53.3372 124.253C53.3372 125.326 53.1443 126.89 52.5074 128.003C52.184 128.568 51.7172 129.065 51.0565 129.277C50.3898 129.49 49.6281 129.38 48.7869 128.94L49.2504 128.054ZM48.9945 126.084C48.7822 126.32 48.6042 126.519 48.4713 126.71C48.3377 126.902 48.2859 127.036 48.2769 127.132C48.2666 127.243 48.2989 127.556 49.2504 128.054L48.7869 128.94C47.7886 128.418 47.209 127.817 47.2812 127.04C47.3135 126.692 47.4765 126.388 47.6509 126.138C47.8262 125.887 48.0494 125.64 48.2511 125.416L48.9945 126.084ZM49.3843 122.164C49.7443 122.55 49.9792 122.937 50.0914 123.333C50.2052 123.734 50.1837 124.112 50.0785 124.458C49.8796 125.114 49.3711 125.666 48.9945 126.084L48.2511 125.416C48.668 124.952 48.9998 124.57 49.1216 124.168C49.1768 123.986 49.1858 123.804 49.1294 123.605C49.0713 123.401 48.9354 123.149 48.6531 122.846L49.3843 122.164ZM36.1367 128.332C37.4952 124.456 40.0445 122.137 42.6387 121.168C45.2033 120.211 47.8886 120.56 49.3843 122.164L48.6531 122.846C47.5235 121.635 45.3164 121.236 42.9885 122.105C40.6902 122.964 38.3471 125.048 37.0804 128.662L36.1367 128.332ZM47.5661 135.034C47.3816 133.008 46.8133 131.565 46.0454 130.549C45.2793 129.537 44.2912 128.917 43.2111 128.574C41.0272 127.88 38.4774 128.321 36.7863 128.964L36.4308 128.03C38.24 127.341 41.0361 126.834 43.5139 127.621C44.7648 128.019 45.9364 128.748 46.843 129.946C47.7476 131.142 48.3646 132.775 48.562 134.943L47.5661 135.034ZM42.6601 137.354C43.3633 137.952 43.9588 138.167 44.4466 138.182C44.9325 138.198 45.3817 138.018 45.7984 137.691C46.6552 137.019 47.2828 135.793 47.5877 134.837L48.5405 135.14C48.2089 136.181 47.5001 137.627 46.4157 138.478C45.862 138.912 45.1894 139.207 44.4144 139.182C43.6413 139.157 42.8367 138.816 42.0125 138.116L42.6601 137.354ZM44.4842 133.991C43.636 133.991 43.1065 134.157 42.7826 134.372C42.4716 134.578 42.3092 134.855 42.2412 135.184C42.0949 135.891 42.3951 136.819 42.7721 137.49L41.9005 137.98C41.482 137.236 41.0423 136.042 41.262 134.981C41.3769 134.426 41.674 133.907 42.2301 133.538C42.7733 133.178 43.5186 132.991 44.4842 132.991L44.4842 133.991ZM30.5722 133.098C34.8309 129.756 38.1239 128.976 40.5507 129.501C42.9771 130.026 44.3908 131.824 44.9521 133.315L44.0163 133.667C43.5435 132.412 42.3558 130.914 40.3392 130.478C38.323 130.042 35.3314 130.635 31.1894 133.884L30.5722 133.098ZM33.2412 113.302C34.7512 116.461 34.4159 120.56 33.4534 124.315C32.4857 128.09 30.8556 131.627 29.6439 133.74L28.7765 133.242C29.9514 131.194 31.5431 127.74 32.4847 124.067C33.4315 120.373 33.6927 116.565 32.3389 113.733L33.2412 113.302ZM28.2082 115.176C27.3313 114.564 26.9668 113.6 26.9539 112.682C26.9411 111.774 27.2691 110.842 27.8696 110.233C28.1744 109.923 28.5584 109.69 29.0079 109.603C29.4609 109.516 29.943 109.585 30.4263 109.823C31.3718 110.287 32.3292 111.394 33.2412 113.302L32.3389 113.733C31.4609 111.896 30.6285 111.036 29.9854 110.72C29.6744 110.568 29.4126 110.543 29.1971 110.585C28.9782 110.627 28.7693 110.744 28.5818 110.935C28.1979 111.324 27.9442 111.984 27.9538 112.668C27.9632 113.341 28.2252 113.968 28.7802 114.355L28.2082 115.176ZM24.6775 112.625C25.1182 114.101 25.8231 114.594 26.4247 114.727C27.0765 114.872 27.7749 114.634 28.2235 114.345L28.7649 115.186C28.1794 115.563 27.2072 115.925 26.2082 115.703C25.1591 115.471 24.2332 114.632 23.7193 112.912L24.6775 112.625ZM32.4399 108.881C30.7171 107.191 28.5222 107.239 26.8611 108.179C25.1721 109.135 24.1687 110.922 24.6775 112.625L23.7193 112.912C23.0348 110.62 24.418 108.413 26.3685 107.309C28.3469 106.189 31.0445 106.112 33.1401 108.167L32.4399 108.881ZM28.8973 133.101C32.3228 130.353 34.1471 125.211 34.6192 120.211C34.854 117.724 34.75 115.307 34.3577 113.293C33.9617 111.26 33.2863 109.711 32.4399 108.881L33.1401 108.167C34.203 109.209 34.9298 111 35.3392 113.102C35.7523 115.223 35.8572 117.737 35.6147 120.305C35.1321 125.417 33.2573 130.886 29.523 133.881L28.8973 133.101ZM30.2388 61.3815C17.5834 44.13 17.2104 31.0114 18.7118 26.474L19.6612 26.7882C18.2986 30.906 18.4984 43.6867 31.0451 60.79L30.2388 61.3815ZM42.088 116.399C45.4046 102.272 45.8832 82.7075 30.2388 61.3815L31.0451 60.79C46.9034 82.4075 46.4274 102.291 43.0616 116.627L42.088 116.399ZM41.3423 59.5964C47.2229 70.2867 48.7215 82.0373 48.2173 92.3628C47.7132 102.686 45.2056 111.62 43.0347 116.709L42.1149 116.317C44.2399 111.335 46.7202 102.518 47.2185 92.314C47.7166 82.1123 46.232 70.5602 40.4661 60.0784L41.3423 59.5964ZM19.5292 26.2671C20.764 27.4297 23.307 30.4761 26.9856 35.8551C30.6715 41.2447 35.5126 48.9986 41.3423 59.5964L40.4661 60.0784C34.6494 49.5041 29.8249 41.7783 26.1602 36.4196C22.4882 31.0502 19.9954 28.0795 18.8437 26.9951L19.5292 26.2671Z" fill="black"/>
</svg>
