<svg width="73" height="81" viewBox="0 0 73 81" fill="none" xmlns="http://www.w3.org/2000/svg">
<path d="M25.5781 71.7812C23.8594 71.7812 22.3359 71.3646 21.0078 70.5312C19.6797 71.3646 18.4427 71.7812 17.2969 71.7812C16.1771 71.7812 15.2526 71.6771 14.5234 71.4688C13.7943 71.2865 13.1562 71.026 12.6094 70.6875C11.4896 70.0104 10.9297 69.1641 10.9297 68.1484C10.9297 67.6276 11.0729 67.1719 11.3594 66.7812C11.9323 67.224 12.6615 67.4453 13.5469 67.4453C15.8646 67.4453 17.4661 66.4557 18.3516 64.4766V45.375C18.3516 44.1771 18.1042 43.2917 17.6094 42.7188C16.8281 41.7552 15.487 40.8047 13.5859 39.8672C15.3568 39.0599 16.5026 38.3438 17.0234 37.7188C17.9089 36.7031 18.3516 35.5573 18.3516 34.2812V17.7969C17.4661 15.7917 15.8646 14.7891 13.5469 14.7891C12.6615 14.7891 11.9323 15.0104 11.3594 15.4531C11.0729 15.0625 10.9297 14.6198 10.9297 14.125C10.9297 13.6042 11.0729 13.1224 11.3594 12.6797C11.6719 12.237 12.0885 11.8594 12.6094 11.5469C13.8073 10.8177 15.1745 10.4531 16.7109 10.4531C18.2734 10.4531 19.7057 10.8828 21.0078 11.7422C22.362 10.8828 23.9115 10.4531 25.6562 10.4531C27.401 10.4531 28.9896 10.9609 30.4219 11.9766C33.1823 10.9609 36.3724 10.4531 39.9922 10.4531C42.6745 10.4531 44.9661 10.7135 46.8672 11.2344L50.3438 12.1719C50.7604 12.276 51.1641 12.3281 51.5547 12.3281C52.2839 12.3281 52.6484 11.8073 52.6484 10.7656C52.6484 10.5052 52.5573 10.0625 52.375 9.4375C53.1042 9.30729 54.0286 9.24219 55.1484 9.24219C56.2682 9.24219 57.2188 9.61979 58 10.375C58.7812 11.1042 59.1719 12.1719 59.1719 13.5781C59.1719 14.9583 58.9245 15.974 58.4297 16.625C59.1328 17.6667 59.4844 18.9427 59.4844 20.4531C59.4844 21.9375 58.9766 23.1875 57.9609 24.2031C58.2734 24.9844 58.4297 25.7526 58.4297 26.5078C58.4297 27.237 58.2995 27.9141 58.0391 28.5391C57.8047 29.138 57.5052 29.6458 57.1406 30.0625C56.4115 30.8177 55.6693 31.1953 54.9141 31.1953C53.8203 31.1953 52.8307 30.9609 51.9453 30.4922C52.2578 29.8672 52.4141 28.9427 52.4141 27.7188C52.4141 24.8542 51.6979 22.3411 50.2656 20.1797C48.3125 17.2109 45.3828 15.7266 41.4766 15.7266C39.4974 15.7266 37.7005 16.2083 36.0859 17.1719C34.4974 18.1354 33.3776 19.5156 32.7266 21.3125V36.4297C33.638 37.0026 34.4844 37.2891 35.2656 37.2891C36.0729 37.2891 36.6719 37.276 37.0625 37.25C37.4792 37.224 37.8958 37.1719 38.3125 37.0938C39.3802 36.9375 40.2005 36.7292 40.7734 36.4688C41.8672 35.9479 42.4141 34.6719 42.4141 32.6406C42.4141 31.4948 42.1406 30.6094 41.5938 29.9844C42.1146 29.6198 42.7656 29.4375 43.5469 29.4375C45.2917 29.4375 46.5547 30.1406 47.3359 31.5469C47.6224 32.0417 47.7656 32.5885 47.7656 33.1875C47.7656 33.7865 47.6094 34.5286 47.2969 35.4141C48.3646 36.638 48.8984 38.0964 48.8984 39.7891C48.8984 41.4557 48.3646 42.901 47.2969 44.125C47.6094 45.0104 47.7656 45.8177 47.7656 46.5469C47.7656 47.25 47.6224 47.9271 47.3359 48.5781C47.0495 49.2292 46.6979 49.75 46.2812 50.1406C45.474 50.8698 44.5625 51.2344 43.5469 51.2344C42.8177 51.2344 42.1667 51.026 41.5938 50.6094C42.1406 49.6979 42.4141 48.6302 42.4141 47.4062C42.4141 44.9844 41.75 43.487 40.4219 42.9141C39.25 42.4453 37.9089 42.2109 36.3984 42.2109C34.888 42.2109 33.6641 42.4844 32.7266 43.0312V62.5625C34.237 65.2188 37.1536 66.5469 41.4766 66.5469C46.3724 66.5469 49.7057 65.0365 51.4766 62.0156C53.5339 58.5521 54.5625 54.8411 54.5625 50.8828C54.5625 49.737 54.4583 48.8516 54.25 48.2266C54.901 47.5755 55.5781 47.25 56.2812 47.25C56.9844 47.25 57.5182 47.3542 57.8828 47.5625C58.2474 47.7448 58.5729 47.9792 58.8594 48.2656C59.4844 48.9688 59.7969 49.6849 59.7969 50.4141L59.5625 52.3281C59.5625 52.8229 59.6927 53.2266 59.9531 53.5391C60.474 54.0859 60.7344 54.6068 60.7344 55.1016C60.7344 55.5703 60.5781 56.1432 60.2656 56.8203C60.8646 57.1589 61.3984 57.6667 61.8672 58.3438C62.362 58.9948 62.6094 59.6719 62.6094 60.375C62.6094 61.8594 61.9844 63.1875 60.7344 64.3594C61.2812 65.1406 61.5547 66.2734 61.5547 67.7578C61.5547 69.2161 61.125 70.4531 60.2656 71.4688C59.4323 72.5104 58.3385 73.0312 56.9844 73.0312C56.2552 73.0312 55.5 72.9531 54.7188 72.7969C54.8229 72.224 54.875 71.651 54.875 71.0781C54.875 69.8802 54.3281 69.2812 53.2344 69.2812C52.0104 69.2812 50.7865 69.5286 49.5625 70.0234C46.6719 71.1953 43.3776 71.7812 39.6797 71.7812C36.0078 71.7812 32.8828 71.2995 30.3047 70.3359C28.9505 71.2995 27.375 71.7812 25.5781 71.7812ZM22.1016 60.6484C23.4036 60.1536 24.1198 58.4479 24.25 55.5312C24.4062 52.6146 24.4844 48.5781 24.4844 43.4219C24.4844 38.2656 24.4714 34.8411 24.4453 33.1484C24.4453 31.4297 24.4323 30.0495 24.4062 29.0078C24.3281 25.9349 24.0286 24.0859 23.5078 23.4609C23.013 22.8099 22.5443 22.3802 22.1016 22.1719C22.1016 31.2344 21.9453 36.3906 21.6328 37.6406C21.2682 38.6823 20.3828 39.4245 18.9766 39.8672C20.5391 40.4141 21.4245 41.0781 21.6328 41.8594C21.9453 43.1094 22.1016 47.6797 22.1016 55.5703V60.6484ZM31.9453 60.2578C31.9453 60.3359 31.9583 60.401 31.9844 60.4531L31.9453 60.2578Z" fill="black"/>
<rect x="1.5" y="1.5" width="70" height="78" stroke="black" stroke-width="3"/>
</svg>
