<svg width="374" height="256" viewBox="0 0 374 256" fill="none" xmlns="http://www.w3.org/2000/svg">
<path d="M7.00781 14.3945C5.07812 13.8398 3.67188 13.1602 2.78906 12.3555C1.91406 11.543 1.47656 10.543 1.47656 9.35547C1.47656 8.01172 2.01172 6.90234 3.08203 6.02734C4.16016 5.14453 5.55859 4.70312 7.27734 4.70312C8.44922 4.70312 9.49219 4.92969 10.4062 5.38281C11.3281 5.83594 12.0391 6.46094 12.5391 7.25781C13.0469 8.05469 13.3008 8.92578 13.3008 9.87109H11.0391C11.0391 8.83984 10.7109 8.03125 10.0547 7.44531C9.39844 6.85156 8.47266 6.55469 7.27734 6.55469C6.16797 6.55469 5.30078 6.80078 4.67578 7.29297C4.05859 7.77734 3.75 8.45312 3.75 9.32031C3.75 10.0156 4.04297 10.6055 4.62891 11.0898C5.22266 11.5664 6.22656 12.0039 7.64062 12.4023C9.0625 12.8008 10.1719 13.2422 10.9688 13.7266C11.7734 14.2031 12.3672 14.7617 12.75 15.4023C13.1406 16.043 13.3359 16.7969 13.3359 17.6641C13.3359 19.0469 12.7969 20.1562 11.7188 20.9922C10.6406 21.8203 9.19922 22.2344 7.39453 22.2344C6.22266 22.2344 5.12891 22.0117 4.11328 21.5664C3.09766 21.1133 2.3125 20.4961 1.75781 19.7148C1.21094 18.9336 0.9375 18.0469 0.9375 17.0547H3.19922C3.19922 18.0859 3.57812 18.9023 4.33594 19.5039C5.10156 20.0977 6.12109 20.3945 7.39453 20.3945C8.58203 20.3945 9.49219 20.1523 10.125 19.668C10.7578 19.1836 11.0742 18.5234 11.0742 17.6875C11.0742 16.8516 10.7812 16.207 10.1953 15.7539C9.60938 15.293 8.54688 14.8398 7.00781 14.3945ZM23.7188 20.7461C22.875 21.7383 21.6367 22.2344 20.0039 22.2344C18.6523 22.2344 17.6211 21.8438 16.9102 21.0625C16.207 20.2734 15.8516 19.1094 15.8438 17.5703V9.32031H18.0117V17.5117C18.0117 19.4336 18.793 20.3945 20.3555 20.3945C22.0117 20.3945 23.1133 19.7773 23.6602 18.543V9.32031H25.8281V22H23.7656L23.7188 20.7461ZM39.8438 15.8008C39.8438 17.7305 39.4023 19.2852 38.5195 20.4648C37.6367 21.6445 36.4414 22.2344 34.9336 22.2344C33.3945 22.2344 32.1836 21.7461 31.3008 20.7695V26.875H29.1328V9.32031H31.1133L31.2188 10.7266C32.1016 9.63281 33.3281 9.08594 34.8984 9.08594C36.4219 9.08594 37.625 9.66016 38.5078 10.8086C39.3984 11.957 39.8438 13.5547 39.8438 15.6016V15.8008ZM37.6758 15.5547C37.6758 14.125 37.3711 12.9961 36.7617 12.168C36.1523 11.3398 35.3164 10.9258 34.2539 10.9258C32.9414 10.9258 31.957 11.5078 31.3008 12.6719V18.7305C31.9492 19.8867 32.9414 20.4648 34.2773 20.4648C35.3164 20.4648 36.1406 20.0547 36.75 19.2344C37.3672 18.4062 37.6758 17.1797 37.6758 15.5547ZM42.0352 15.543C42.0352 14.3008 42.2773 13.1836 42.7617 12.1914C43.2539 11.1992 43.9336 10.4336 44.8008 9.89453C45.6758 9.35547 46.6719 9.08594 47.7891 9.08594C49.5156 9.08594 50.9102 9.68359 51.9727 10.8789C53.043 12.0742 53.5781 13.6641 53.5781 15.6484V15.8008C53.5781 17.0352 53.3398 18.1445 52.8633 19.1289C52.3945 20.1055 51.7188 20.8672 50.8359 21.4141C49.9609 21.9609 48.9531 22.2344 47.8125 22.2344C46.0938 22.2344 44.6992 21.6367 43.6289 20.4414C42.5664 19.2461 42.0352 17.6641 42.0352 15.6953V15.543ZM44.2148 15.8008C44.2148 17.207 44.5391 18.3359 45.1875 19.1875C45.8438 20.0391 46.7188 20.4648 47.8125 20.4648C48.9141 20.4648 49.7891 20.0352 50.4375 19.1758C51.0859 18.3086 51.4102 17.0977 51.4102 15.543C51.4102 14.1523 51.0781 13.0273 50.4141 12.168C49.7578 11.3008 48.8828 10.8672 47.7891 10.8672C46.7188 10.8672 45.8555 11.293 45.1992 12.1445C44.543 12.9961 44.2148 14.2148 44.2148 15.8008ZM58.3477 9.32031L58.418 10.9141C59.3867 9.69531 60.6523 9.08594 62.2148 9.08594C64.8945 9.08594 66.2461 10.5977 66.2695 13.6211V22H64.1016V13.6094C64.0938 12.6953 63.8828 12.0195 63.4688 11.582C63.0625 11.1445 62.4258 10.9258 61.5586 10.9258C60.8555 10.9258 60.2383 11.1133 59.707 11.4883C59.1758 11.8633 58.7617 12.3555 58.4648 12.9648V22H56.2969V9.32031H58.3477ZM69.0234 15.5547C69.0234 13.5781 69.4805 12.0078 70.3945 10.8438C71.3086 9.67188 72.5195 9.08594 74.0273 9.08594C75.5742 9.08594 76.7812 9.63281 77.6484 10.7266L77.7539 9.32031H79.7344V21.6953C79.7344 23.3359 79.2461 24.6289 78.2695 25.5742C77.3008 26.5195 75.9961 26.9922 74.3555 26.9922C73.4414 26.9922 72.5469 26.7969 71.6719 26.4062C70.7969 26.0156 70.1289 25.4805 69.668 24.8008L70.793 23.5C71.7227 24.6484 72.8594 25.2227 74.2031 25.2227C75.2578 25.2227 76.0781 24.9258 76.6641 24.332C77.2578 23.7383 77.5547 22.9023 77.5547 21.8242V20.7344C76.6875 21.7344 75.5039 22.2344 74.0039 22.2344C72.5195 22.2344 71.3164 21.6367 70.3945 20.4414C69.4805 19.2461 69.0234 17.6172 69.0234 15.5547ZM71.2031 15.8008C71.2031 17.2305 71.4961 18.3555 72.082 19.1758C72.668 19.9883 73.4883 20.3945 74.543 20.3945C75.9102 20.3945 76.9141 19.7734 77.5547 18.5312V12.7422C76.8906 11.5312 75.8945 10.9258 74.5664 10.9258C73.5117 10.9258 72.6875 11.3359 72.0938 12.1562C71.5 12.9766 71.2031 14.1914 71.2031 15.8008ZM90.8438 22C90.7188 21.75 90.6172 21.3047 90.5391 20.6641C89.5312 21.7109 88.3281 22.2344 86.9297 22.2344C85.6797 22.2344 84.6523 21.8828 83.8477 21.1797C83.0508 20.4688 82.6523 19.5703 82.6523 18.4844C82.6523 17.1641 83.1523 16.1406 84.1523 15.4141C85.1602 14.6797 86.5742 14.3125 88.3945 14.3125H90.5039V13.3164C90.5039 12.5586 90.2773 11.957 89.8242 11.5117C89.3711 11.0586 88.7031 10.832 87.8203 10.832C87.0469 10.832 86.3984 11.0273 85.875 11.418C85.3516 11.8086 85.0898 12.2812 85.0898 12.8359H82.9102C82.9102 12.2031 83.1328 11.5938 83.5781 11.0078C84.0312 10.4141 84.6406 9.94531 85.4062 9.60156C86.1797 9.25781 87.0273 9.08594 87.9492 9.08594C89.4102 9.08594 90.5547 9.45312 91.3828 10.1875C92.2109 10.9141 92.6406 11.918 92.6719 13.1992V19.0352C92.6719 20.1992 92.8203 21.125 93.1172 21.8125V22H90.8438ZM87.2461 20.3477C87.9258 20.3477 88.5703 20.1719 89.1797 19.8203C89.7891 19.4688 90.2305 19.0117 90.5039 18.4492V15.8477H88.8047C86.1484 15.8477 84.8203 16.625 84.8203 18.1797C84.8203 18.8594 85.0469 19.3906 85.5 19.7734C85.9531 20.1562 86.5352 20.3477 87.2461 20.3477ZM98.1094 9.32031L98.168 10.7266C99.0977 9.63281 100.352 9.08594 101.93 9.08594C103.703 9.08594 104.91 9.76562 105.551 11.125C105.973 10.5156 106.52 10.0234 107.191 9.64844C107.871 9.27344 108.672 9.08594 109.594 9.08594C112.375 9.08594 113.789 10.5586 113.836 13.5039V22H111.668V13.6328C111.668 12.7266 111.461 12.0508 111.047 11.6055C110.633 11.1523 109.938 10.9258 108.961 10.9258C108.156 10.9258 107.488 11.168 106.957 11.6523C106.426 12.1289 106.117 12.7734 106.031 13.5859V22H103.852V13.6914C103.852 11.8477 102.949 10.9258 101.145 10.9258C99.7227 10.9258 98.75 11.5312 98.2266 12.7422V22H96.0586V9.32031H98.1094ZM116.543 15.543C116.543 14.3008 116.785 13.1836 117.27 12.1914C117.762 11.1992 118.441 10.4336 119.309 9.89453C120.184 9.35547 121.18 9.08594 122.297 9.08594C124.023 9.08594 125.418 9.68359 126.48 10.8789C127.551 12.0742 128.086 13.6641 128.086 15.6484V15.8008C128.086 17.0352 127.848 18.1445 127.371 19.1289C126.902 20.1055 126.227 20.8672 125.344 21.4141C124.469 21.9609 123.461 22.2344 122.32 22.2344C120.602 22.2344 119.207 21.6367 118.137 20.4414C117.074 19.2461 116.543 17.6641 116.543 15.6953V15.543ZM118.723 15.8008C118.723 17.207 119.047 18.3359 119.695 19.1875C120.352 20.0391 121.227 20.4648 122.32 20.4648C123.422 20.4648 124.297 20.0352 124.945 19.1758C125.594 18.3086 125.918 17.0977 125.918 15.543C125.918 14.1523 125.586 13.0273 124.922 12.168C124.266 11.3008 123.391 10.8672 122.297 10.8672C121.227 10.8672 120.363 11.293 119.707 12.1445C119.051 12.9961 118.723 14.2148 118.723 15.8008ZM138.188 18.6367C138.188 18.0508 137.965 17.5977 137.52 17.2773C137.082 16.9492 136.312 16.668 135.211 16.4336C134.117 16.1992 133.246 15.918 132.598 15.5898C131.957 15.2617 131.48 14.8711 131.168 14.418C130.863 13.9648 130.711 13.4258 130.711 12.8008C130.711 11.7617 131.148 10.8828 132.023 10.1641C132.906 9.44531 134.031 9.08594 135.398 9.08594C136.836 9.08594 138 9.45703 138.891 10.1992C139.789 10.9414 140.238 11.8906 140.238 13.0469H138.059C138.059 12.4531 137.805 11.9414 137.297 11.5117C136.797 11.082 136.164 10.8672 135.398 10.8672C134.609 10.8672 133.992 11.0391 133.547 11.3828C133.102 11.7266 132.879 12.1758 132.879 12.7305C132.879 13.2539 133.086 13.6484 133.5 13.9141C133.914 14.1797 134.66 14.4336 135.738 14.6758C136.824 14.918 137.703 15.207 138.375 15.543C139.047 15.8789 139.543 16.2852 139.863 16.7617C140.191 17.2305 140.355 17.8047 140.355 18.4844C140.355 19.6172 139.902 20.5273 138.996 21.2148C138.09 21.8945 136.914 22.2344 135.469 22.2344C134.453 22.2344 133.555 22.0547 132.773 21.6953C131.992 21.3359 131.379 20.8359 130.934 20.1953C130.496 19.5469 130.277 18.8477 130.277 18.0977H132.445C132.484 18.8242 132.773 19.4023 133.312 19.832C133.859 20.2539 134.578 20.4648 135.469 20.4648C136.289 20.4648 136.945 20.3008 137.438 19.9727C137.938 19.6367 138.188 19.1914 138.188 18.6367ZM148.605 15.5547C148.605 13.5625 149.062 11.9883 149.977 10.832C150.891 9.66797 152.117 9.08594 153.656 9.08594C155.156 9.08594 156.34 9.58984 157.207 10.5977L157.301 9.32031H159.293V26.875H157.125V20.8281C156.25 21.7656 155.086 22.2344 153.633 22.2344C152.102 22.2344 150.879 21.6406 149.965 20.4531C149.059 19.2578 148.605 17.6758 148.605 15.707V15.5547ZM150.773 15.8008C150.773 17.2539 151.078 18.3945 151.688 19.2227C152.305 20.0508 153.133 20.4648 154.172 20.4648C155.461 20.4648 156.445 19.8945 157.125 18.7539V12.543C156.438 11.4258 155.461 10.8672 154.195 10.8672C153.148 10.8672 152.316 11.2852 151.699 12.1211C151.082 12.9492 150.773 14.1758 150.773 15.8008ZM170.602 20.7461C169.758 21.7383 168.52 22.2344 166.887 22.2344C165.535 22.2344 164.504 21.8438 163.793 21.0625C163.09 20.2734 162.734 19.1094 162.727 17.5703V9.32031H164.895V17.5117C164.895 19.4336 165.676 20.3945 167.238 20.3945C168.895 20.3945 169.996 19.7773 170.543 18.543V9.32031H172.711V22H170.648L170.602 20.7461ZM181.277 22.2344C179.559 22.2344 178.16 21.6719 177.082 20.5469C176.004 19.4141 175.465 17.9023 175.465 16.0117V15.6133C175.465 14.3555 175.703 13.2344 176.18 12.25C176.664 11.2578 177.336 10.4844 178.195 9.92969C179.062 9.36719 180 9.08594 181.008 9.08594C182.656 9.08594 183.938 9.62891 184.852 10.7148C185.766 11.8008 186.223 13.3555 186.223 15.3789V16.2812H177.633C177.664 17.5312 178.027 18.543 178.723 19.3164C179.426 20.082 180.316 20.4648 181.395 20.4648C182.16 20.4648 182.809 20.3086 183.34 19.9961C183.871 19.6836 184.336 19.2695 184.734 18.7539L186.059 19.7852C184.996 21.418 183.402 22.2344 181.277 22.2344ZM181.008 10.8672C180.133 10.8672 179.398 11.1875 178.805 11.8281C178.211 12.4609 177.844 13.3516 177.703 14.5H184.055V14.3359C183.992 13.2344 183.695 12.3828 183.164 11.7812C182.633 11.1719 181.914 10.8672 181.008 10.8672ZM9.21826 58.3027C6.81657 58.3027 4.85889 57.5661 3.34521 56.0928C1.84163 54.6195 1.08984 52.6567 1.08984 50.2046V49.7808C1.08984 48.1359 1.40771 46.6676 2.04346 45.376C2.6792 44.0742 3.57731 43.0752 4.73779 42.3789C5.90837 41.6725 7.2404 41.3193 8.73389 41.3193C10.9741 41.3193 12.735 42.0257 14.0166 43.4385C15.3083 44.8512 15.9541 46.8543 15.9541 49.4478V51.2339H5.5249C5.66618 52.3035 6.09001 53.1613 6.79639 53.8071C7.51286 54.453 8.41602 54.7759 9.50586 54.7759C11.1911 54.7759 12.508 54.1654 13.4565 52.9443L15.606 55.3511C14.95 56.2795 14.062 57.006 12.9419 57.5308C11.8218 58.0454 10.5806 58.3027 9.21826 58.3027ZM8.71875 44.8613C7.85091 44.8613 7.14453 45.154 6.59961 45.7393C6.06478 46.3245 5.72168 47.1621 5.57031 48.252H11.6553V47.9038C11.6351 46.9351 11.3727 46.1883 10.8682 45.6636C10.3636 45.1287 9.64714 44.8613 8.71875 44.8613ZM23.0684 58H18.6787V34.75H23.0684V58ZM34.6934 58V35.9609H41.4746C43.4121 35.9609 45.1427 36.3999 46.6665 37.2778C48.2004 38.1457 49.3962 39.3869 50.2539 41.0015C51.1117 42.606 51.5405 44.4325 51.5405 46.481V47.4951C51.5405 49.5436 51.1167 51.3651 50.269 52.9595C49.4315 54.5539 48.2458 55.79 46.7119 56.668C45.1781 57.5459 43.4474 57.9899 41.52 58H34.6934ZM39.2344 39.6392V54.3521H41.4292C43.2052 54.3521 44.5625 53.7718 45.501 52.6113C46.4395 51.4508 46.9188 49.7909 46.939 47.6313V46.4658C46.939 44.2256 46.4748 42.5303 45.5464 41.3799C44.618 40.2194 43.2607 39.6392 41.4746 39.6392H39.2344ZM62.106 58.3027C59.7043 58.3027 57.7466 57.5661 56.2329 56.0928C54.7293 54.6195 53.9775 52.6567 53.9775 50.2046V49.7808C53.9775 48.1359 54.2954 46.6676 54.9312 45.376C55.5669 44.0742 56.465 43.0752 57.6255 42.3789C58.7961 41.6725 60.1281 41.3193 61.6216 41.3193C63.8618 41.3193 65.6227 42.0257 66.9043 43.4385C68.196 44.8512 68.8418 46.8543 68.8418 49.4478V51.2339H58.4126C58.5539 52.3035 58.9777 53.1613 59.6841 53.8071C60.4006 54.453 61.3037 54.7759 62.3936 54.7759C64.0788 54.7759 65.3957 54.1654 66.3442 52.9443L68.4937 55.3511C67.8377 56.2795 66.9497 57.006 65.8296 57.5308C64.7095 58.0454 63.4683 58.3027 62.106 58.3027ZM61.6064 44.8613C60.7386 44.8613 60.0322 45.154 59.4873 45.7393C58.9525 46.3245 58.6094 47.1621 58.458 48.252H64.543V47.9038C64.5228 46.9351 64.2604 46.1883 63.7559 45.6636C63.2513 45.1287 62.5348 44.8613 61.6064 44.8613ZM78.1509 54.7759C78.9582 54.7759 79.6141 54.5539 80.1187 54.1099C80.6232 53.6659 80.8856 53.0755 80.9058 52.3389H85.0078C84.9977 53.4489 84.695 54.4681 84.0996 55.3965C83.5042 56.3148 82.6868 57.0312 81.6475 57.5459C80.6182 58.0505 79.4779 58.3027 78.2266 58.3027C75.8854 58.3027 74.0387 57.561 72.6865 56.0776C71.3343 54.5841 70.6582 52.5256 70.6582 49.9019V49.6143C70.6582 47.0915 71.3293 45.0783 72.6714 43.5747C74.0135 42.0711 75.8551 41.3193 78.1963 41.3193C80.2448 41.3193 81.8846 41.9046 83.1157 43.0752C84.3569 44.2357 84.9876 45.7847 85.0078 47.7222H80.9058C80.8856 46.8745 80.6232 46.1883 80.1187 45.6636C79.6141 45.1287 78.9481 44.8613 78.1206 44.8613C77.1014 44.8613 76.3294 45.2347 75.8047 45.9814C75.29 46.7181 75.0327 47.9189 75.0327 49.584V50.0381C75.0327 51.7233 75.29 52.9342 75.8047 53.6709C76.3193 54.4076 77.1014 54.7759 78.1509 54.7759ZM96.9961 58C96.7943 57.6064 96.6479 57.117 96.5571 56.5317C95.4976 57.7124 94.1201 58.3027 92.4248 58.3027C90.8203 58.3027 89.4883 57.8385 88.4287 56.9102C87.3792 55.9818 86.8545 54.8112 86.8545 53.3984C86.8545 51.6628 87.4953 50.3307 88.7769 49.4023C90.0685 48.474 91.9303 48.0047 94.3623 47.9946H96.3755V47.0562C96.3755 46.2993 96.1787 45.6938 95.7852 45.2397C95.4017 44.7856 94.7912 44.5586 93.9536 44.5586C93.217 44.5586 92.6367 44.7352 92.2129 45.0884C91.7992 45.4416 91.5923 45.9259 91.5923 46.5415H87.2178C87.2178 45.5929 87.5104 44.715 88.0957 43.9077C88.681 43.1004 89.5085 42.4697 90.5781 42.0156C91.6478 41.5514 92.8486 41.3193 94.1807 41.3193C96.1989 41.3193 97.7983 41.8289 98.979 42.8481C100.17 43.8573 100.765 45.2801 100.765 47.1167V54.2158C100.775 55.7699 100.992 56.9455 101.416 57.7427V58H96.9961ZM93.3784 54.9575C94.0243 54.9575 94.6196 54.8162 95.1646 54.5337C95.7095 54.241 96.1131 53.8525 96.3755 53.3682V50.5527H94.7407C92.5509 50.5527 91.3854 51.3096 91.2441 52.8232L91.229 53.0806C91.229 53.6255 91.4207 54.0745 91.8042 54.4277C92.1877 54.7809 92.7124 54.9575 93.3784 54.9575ZM108.228 41.6221L108.364 43.4536C109.524 42.0308 111.093 41.3193 113.071 41.3193C115.18 41.3193 116.628 42.1519 117.416 43.8169C118.566 42.1519 120.206 41.3193 122.335 41.3193C124.111 41.3193 125.433 41.839 126.301 42.8784C127.169 43.9077 127.603 45.4618 127.603 47.5405V58H123.213V47.5557C123.213 46.6273 123.031 45.9512 122.668 45.5273C122.305 45.0934 121.664 44.8765 120.746 44.8765C119.434 44.8765 118.526 45.5021 118.021 46.7534L118.036 58H113.662V47.5708C113.662 46.6222 113.475 45.936 113.102 45.5122C112.728 45.0884 112.092 44.8765 111.194 44.8765C109.953 44.8765 109.055 45.3911 108.5 46.4204V58H104.125V41.6221H108.228ZM138.516 58.3027C136.114 58.3027 134.157 57.5661 132.643 56.0928C131.139 54.6195 130.388 52.6567 130.388 50.2046V49.7808C130.388 48.1359 130.706 46.6676 131.341 45.376C131.977 44.0742 132.875 43.0752 134.036 42.3789C135.206 41.6725 136.538 41.3193 138.032 41.3193C140.272 41.3193 142.033 42.0257 143.314 43.4385C144.606 44.8512 145.252 46.8543 145.252 49.4478V51.2339H134.823C134.964 52.3035 135.388 53.1613 136.094 53.8071C136.811 54.453 137.714 54.7759 138.804 54.7759C140.489 54.7759 141.806 54.1654 142.754 52.9443L144.904 55.3511C144.248 56.2795 143.36 57.006 142.24 57.5308C141.12 58.0454 139.878 58.3027 138.516 58.3027ZM138.017 44.8613C137.149 44.8613 136.442 45.154 135.897 45.7393C135.363 46.3245 135.02 47.1621 134.868 48.252H140.953V47.9038C140.933 46.9351 140.671 46.1883 140.166 45.6636C139.661 45.1287 138.945 44.8613 138.017 44.8613ZM156.953 45.7241C156.357 45.6434 155.833 45.603 155.378 45.603C153.723 45.603 152.639 46.1631 152.124 47.2832V58H147.75V41.6221H151.882L152.003 43.5747C152.881 42.0711 154.097 41.3193 155.651 41.3193C156.135 41.3193 156.589 41.3849 157.013 41.5161L156.953 45.7241ZM157.846 49.6597C157.846 48.035 158.159 46.5869 158.784 45.3154C159.41 44.0439 160.308 43.0601 161.479 42.3638C162.659 41.6675 164.027 41.3193 165.581 41.3193C167.791 41.3193 169.592 41.9954 170.984 43.3477C172.387 44.6999 173.169 46.5365 173.331 48.8574L173.361 49.9775C173.361 52.4902 172.66 54.5085 171.257 56.0322C169.854 57.5459 167.972 58.3027 165.611 58.3027C163.25 58.3027 161.362 57.5459 159.95 56.0322C158.547 54.5186 157.846 52.46 157.846 49.8564V49.6597ZM162.22 49.9775C162.22 51.5316 162.513 52.7223 163.098 53.5498C163.683 54.3672 164.521 54.7759 165.611 54.7759C166.67 54.7759 167.498 54.3722 168.093 53.5649C168.689 52.7476 168.986 51.4458 168.986 49.6597C168.986 48.1359 168.689 46.9552 168.093 46.1177C167.498 45.2801 166.66 44.8613 165.581 44.8613C164.511 44.8613 163.683 45.2801 163.098 46.1177C162.513 46.9451 162.22 48.2318 162.22 49.9775ZM166.443 34.75H171.211L167.019 39.4424H163.461L166.443 34.75ZM180.082 41.6221L180.218 43.5142C181.388 42.0509 182.958 41.3193 184.925 41.3193C186.661 41.3193 187.953 41.8289 188.8 42.8481C189.648 43.8674 190.082 45.3911 190.102 47.4194V58H185.728V47.5254C185.728 46.597 185.526 45.9259 185.122 45.5122C184.718 45.0884 184.047 44.8765 183.109 44.8765C181.878 44.8765 180.954 45.4012 180.339 46.4507V58H175.964V41.6221H180.082ZM205.178 41.6221L205.314 43.5142C206.485 42.0509 208.054 41.3193 210.022 41.3193C211.758 41.3193 213.049 41.8289 213.897 42.8481C214.745 43.8674 215.179 45.3911 215.199 47.4194V58H210.824V47.5254C210.824 46.597 210.622 45.9259 210.219 45.5122C209.815 45.0884 209.144 44.8765 208.206 44.8765C206.974 44.8765 206.051 45.4012 205.436 46.4507V58H201.061V41.6221H205.178ZM228.337 56.335C227.258 57.6468 225.764 58.3027 223.857 58.3027C222.101 58.3027 220.759 57.7982 219.831 56.7891C218.912 55.7799 218.443 54.3016 218.423 52.354V41.6221H222.797V52.2026C222.797 53.908 223.574 54.7607 225.128 54.7607C226.612 54.7607 227.631 54.2461 228.186 53.2168V41.6221H232.576V58H228.458L228.337 56.335ZM239.902 41.6221L240.038 43.5142C241.209 42.0509 242.778 41.3193 244.746 41.3193C246.481 41.3193 247.773 41.8289 248.621 42.8481C249.468 43.8674 249.902 45.3911 249.922 47.4194V58H245.548V47.5254C245.548 46.597 245.346 45.9259 244.942 45.5122C244.539 45.0884 243.868 44.8765 242.929 44.8765C241.698 44.8765 240.775 45.4012 240.159 46.4507V58H235.785V41.6221H239.902ZM260.064 54.7759C260.871 54.7759 261.527 54.5539 262.032 54.1099C262.536 53.6659 262.799 53.0755 262.819 52.3389H266.921C266.911 53.4489 266.608 54.4681 266.013 55.3965C265.417 56.3148 264.6 57.0312 263.561 57.5459C262.531 58.0505 261.391 58.3027 260.14 58.3027C257.799 58.3027 255.952 57.561 254.6 56.0776C253.247 54.5841 252.571 52.5256 252.571 49.9019V49.6143C252.571 47.0915 253.242 45.0783 254.584 43.5747C255.927 42.0711 257.768 41.3193 260.109 41.3193C262.158 41.3193 263.798 41.9046 265.029 43.0752C266.27 44.2357 266.901 45.7847 266.921 47.7222H262.819C262.799 46.8745 262.536 46.1883 262.032 45.6636C261.527 45.1287 260.861 44.8613 260.034 44.8613C259.014 44.8613 258.243 45.2347 257.718 45.9814C257.203 46.7181 256.946 47.9189 256.946 49.584V50.0381C256.946 51.7233 257.203 52.9342 257.718 53.6709C258.232 54.4076 259.014 54.7759 260.064 54.7759ZM278.909 58C278.707 57.6064 278.561 57.117 278.47 56.5317C277.411 57.7124 276.033 58.3027 274.338 58.3027C272.733 58.3027 271.401 57.8385 270.342 56.9102C269.292 55.9818 268.768 54.8112 268.768 53.3984C268.768 51.6628 269.408 50.3307 270.69 49.4023C271.982 48.474 273.843 48.0047 276.275 47.9946H278.289V47.0562C278.289 46.2993 278.092 45.6938 277.698 45.2397C277.315 44.7856 276.704 44.5586 275.867 44.5586C275.13 44.5586 274.55 44.7352 274.126 45.0884C273.712 45.4416 273.505 45.9259 273.505 46.5415H269.131C269.131 45.5929 269.424 44.715 270.009 43.9077C270.594 43.1004 271.422 42.4697 272.491 42.0156C273.561 41.5514 274.762 41.3193 276.094 41.3193C278.112 41.3193 279.711 41.8289 280.892 42.8481C282.083 43.8573 282.678 45.2801 282.678 47.1167V54.2158C282.688 55.7699 282.905 56.9455 283.329 57.7427V58H278.909ZM275.292 54.9575C275.937 54.9575 276.533 54.8162 277.078 54.5337C277.623 54.241 278.026 53.8525 278.289 53.3682V50.5527H276.654C274.464 50.5527 273.299 51.3096 273.157 52.8232L273.142 53.0806C273.142 53.6255 273.334 54.0745 273.717 54.4277C274.101 54.7809 274.625 54.9575 275.292 54.9575ZM2.87598 94V80.8311H0.438965V77.6221H2.87598V76.2295C2.87598 74.3929 3.40072 72.9701 4.4502 71.9609C5.50977 70.9417 6.98812 70.4321 8.88525 70.4321C9.49072 70.4321 10.2324 70.533 11.1104 70.7349L11.0649 74.1255C10.7017 74.0347 10.2576 73.9893 9.73291 73.9893C8.08805 73.9893 7.26562 74.7612 7.26562 76.3052V77.6221H10.52V80.8311H7.26562V94H2.87598ZM22.5991 92.335C21.5194 93.6468 20.0259 94.3027 18.1187 94.3027C16.3628 94.3027 15.0207 93.7982 14.0923 92.7891C13.174 91.7799 12.7048 90.3016 12.6846 88.354V77.6221H17.0591V88.2026C17.0591 89.908 17.8361 90.7607 19.3901 90.7607C20.8735 90.7607 21.8927 90.2461 22.4478 89.2168V77.6221H26.8374V94H22.7202L22.5991 92.335ZM37.6753 94.3027C35.2736 94.3027 33.3159 93.5661 31.8022 92.0928C30.2987 90.6195 29.5469 88.6567 29.5469 86.2046V85.7808C29.5469 84.1359 29.8647 82.6676 30.5005 81.376C31.1362 80.0742 32.0343 79.0752 33.1948 78.3789C34.3654 77.6725 35.6974 77.3193 37.1909 77.3193C39.4312 77.3193 41.1921 78.0257 42.4736 79.4385C43.7653 80.8512 44.4111 82.8543 44.4111 85.4478V87.2339H33.9819C34.1232 88.3035 34.547 89.1613 35.2534 89.8071C35.9699 90.453 36.873 90.7759 37.9629 90.7759C39.6481 90.7759 40.965 90.1654 41.9136 88.9443L44.063 91.3511C43.4071 92.2795 42.519 93.006 41.3989 93.5308C40.2788 94.0454 39.0376 94.3027 37.6753 94.3027ZM37.1758 80.8613C36.3079 80.8613 35.6016 81.154 35.0566 81.7393C34.5218 82.3245 34.1787 83.1621 34.0273 84.252H40.1123V83.9038C40.0921 82.9351 39.8298 82.1883 39.3252 81.6636C38.8206 81.1287 38.1042 80.8613 37.1758 80.8613ZM62.1665 94.3027C59.7648 94.3027 57.8071 93.5661 56.2935 92.0928C54.7899 90.6195 54.0381 88.6567 54.0381 86.2046V85.7808C54.0381 84.1359 54.356 82.6676 54.9917 81.376C55.6274 80.0742 56.5256 79.0752 57.686 78.3789C58.8566 77.6725 60.1886 77.3193 61.6821 77.3193C63.9224 77.3193 65.6833 78.0257 66.9648 79.4385C68.2565 80.8512 68.9023 82.8543 68.9023 85.4478V87.2339H58.4731C58.6144 88.3035 59.0382 89.1613 59.7446 89.8071C60.4611 90.453 61.3643 90.7759 62.4541 90.7759C64.1393 90.7759 65.4562 90.1654 66.4048 88.9443L68.5542 91.3511C67.8983 92.2795 67.0103 93.006 65.8901 93.5308C64.77 94.0454 63.5288 94.3027 62.1665 94.3027ZM61.667 80.8613C60.7992 80.8613 60.0928 81.154 59.5479 81.7393C59.013 82.3245 58.6699 83.1621 58.5186 84.252H64.6035V83.9038C64.5833 82.9351 64.321 82.1883 63.8164 81.6636C63.3118 81.1287 62.5954 80.8613 61.667 80.8613ZM80.27 89.4741C80.27 88.9393 80.0026 88.5205 79.4678 88.2178C78.943 87.9049 78.0954 87.6274 76.9248 87.3853C73.0296 86.5679 71.082 84.9129 71.082 82.4204C71.082 80.9673 71.6825 79.7563 72.8833 78.7876C74.0942 77.8088 75.6735 77.3193 77.6211 77.3193C79.6999 77.3193 81.3599 77.8088 82.6011 78.7876C83.8524 79.7664 84.478 81.0379 84.478 82.6021H80.1035C80.1035 81.9764 79.9017 81.4618 79.498 81.0581C79.0944 80.6444 78.4637 80.4375 77.606 80.4375C76.8693 80.4375 76.2992 80.604 75.8955 80.937C75.4919 81.27 75.29 81.6938 75.29 82.2085C75.29 82.6929 75.5171 83.0864 75.9712 83.3892C76.4354 83.6818 77.2124 83.9391 78.3022 84.1611C79.3921 84.373 80.3104 84.6152 81.0571 84.8877C83.368 85.7354 84.5234 87.2036 84.5234 89.2925C84.5234 90.786 83.8826 91.9969 82.6011 92.9253C81.3195 93.8436 79.6646 94.3027 77.6362 94.3027C76.2638 94.3027 75.0428 94.0605 73.9731 93.5762C72.9136 93.0817 72.0811 92.4106 71.4756 91.563C70.8701 90.7052 70.5674 89.7819 70.5674 88.793H74.7148C74.7552 89.57 75.0428 90.1654 75.5776 90.5791C76.1125 90.9928 76.8289 91.1997 77.7271 91.1997C78.5646 91.1997 79.1953 91.0433 79.6191 90.7305C80.0531 90.4076 80.27 89.9888 80.27 89.4741ZM94.1655 90.7759C94.9728 90.7759 95.6287 90.5539 96.1333 90.1099C96.6379 89.6659 96.9002 89.0755 96.9204 88.3389H101.022C101.012 89.4489 100.71 90.4681 100.114 91.3965C99.5189 92.3148 98.7015 93.0312 97.6621 93.5459C96.6328 94.0505 95.4925 94.3027 94.2412 94.3027C91.9001 94.3027 90.0534 93.561 88.7012 92.0776C87.349 90.5841 86.6729 88.5256 86.6729 85.9019V85.6143C86.6729 83.0915 87.3439 81.0783 88.686 79.5747C90.0282 78.0711 91.8698 77.3193 94.2109 77.3193C96.2594 77.3193 97.8993 77.9046 99.1304 79.0752C100.372 80.2357 101.002 81.7847 101.022 83.7222H96.9204C96.9002 82.8745 96.6379 82.1883 96.1333 81.6636C95.6287 81.1287 94.9627 80.8613 94.1353 80.8613C93.116 80.8613 92.3441 81.2347 91.8193 81.9814C91.3047 82.7181 91.0474 83.9189 91.0474 85.584V86.0381C91.0474 87.7233 91.3047 88.9342 91.8193 89.6709C92.334 90.4076 93.116 90.7759 94.1655 90.7759ZM112.723 81.7241C112.128 81.6434 111.603 81.603 111.149 81.603C109.494 81.603 108.409 82.1631 107.895 83.2832V94H103.52V77.6221H107.652L107.773 79.5747C108.651 78.0711 109.867 77.3193 111.421 77.3193C111.906 77.3193 112.36 77.3849 112.784 77.5161L112.723 81.7241ZM119.459 94H115.069V77.6221H119.459V94ZM114.812 73.3838C114.812 72.7279 115.029 72.188 115.463 71.7642C115.907 71.3403 116.507 71.1284 117.264 71.1284C118.011 71.1284 118.606 71.3403 119.05 71.7642C119.494 72.188 119.716 72.7279 119.716 73.3838C119.716 74.0498 119.489 74.5947 119.035 75.0186C118.591 75.4424 118.001 75.6543 117.264 75.6543C116.528 75.6543 115.932 75.4424 115.478 75.0186C115.034 74.5947 114.812 74.0498 114.812 73.3838ZM128.314 73.5957V77.6221H131.114V80.8311H128.314V89.0049C128.314 89.6104 128.43 90.0443 128.662 90.3066C128.894 90.569 129.338 90.7002 129.994 90.7002C130.479 90.7002 130.907 90.6649 131.281 90.5942V93.9092C130.423 94.1715 129.54 94.3027 128.632 94.3027C125.564 94.3027 124 92.7537 123.939 89.6558V80.8311H121.548V77.6221H123.939V73.5957H128.314ZM132.416 85.6597C132.416 84.035 132.729 82.5869 133.354 81.3154C133.98 80.0439 134.878 79.0601 136.049 78.3638C137.229 77.6675 138.597 77.3193 140.151 77.3193C142.361 77.3193 144.162 77.9954 145.555 79.3477C146.957 80.6999 147.739 82.5365 147.901 84.8574L147.931 85.9775C147.931 88.4902 147.23 90.5085 145.827 92.0322C144.424 93.5459 142.542 94.3027 140.181 94.3027C137.82 94.3027 135.933 93.5459 134.52 92.0322C133.117 90.5186 132.416 88.46 132.416 85.8564V85.6597ZM136.791 85.9775C136.791 87.5316 137.083 88.7223 137.668 89.5498C138.254 90.3672 139.091 90.7759 140.181 90.7759C141.241 90.7759 142.068 90.3722 142.664 89.5649C143.259 88.7476 143.557 87.4458 143.557 85.6597C143.557 84.1359 143.259 82.9552 142.664 82.1177C142.068 81.2801 141.231 80.8613 140.151 80.8613C139.081 80.8613 138.254 81.2801 137.668 82.1177C137.083 82.9451 136.791 84.2318 136.791 85.9775ZM151.761 99.5249L149.475 98.3291L150.02 97.3452C150.696 96.1141 151.044 94.888 151.064 93.667V90.2764H154.758L154.743 93.3037C154.733 94.4238 154.45 95.554 153.895 96.6943C153.34 97.8346 152.629 98.7782 151.761 99.5249Z" fill="#E9ECFC"/>
<path d="M1.20605 115.018C1.20605 112.859 1.70117 111.154 2.69141 109.901C3.68164 108.64 5.01042 108.01 6.67773 108.01C8.30273 108.01 9.58496 108.556 10.5244 109.647L10.626 108.264H12.7842V127.281H10.4355V120.73C9.48763 121.746 8.22656 122.254 6.65234 122.254C4.99349 122.254 3.66895 121.611 2.67871 120.324C1.69694 119.029 1.20605 117.315 1.20605 115.183V115.018ZM3.55469 115.284C3.55469 116.858 3.88477 118.094 4.54492 118.991C5.21354 119.888 6.11068 120.337 7.23633 120.337C8.63281 120.337 9.69922 119.719 10.4355 118.483V111.755C9.69076 110.545 8.63281 109.939 7.26172 109.939C6.1276 109.939 5.22624 110.392 4.55762 111.298C3.889 112.195 3.55469 113.524 3.55469 115.284ZM25.0352 120.642C24.1211 121.716 22.7796 122.254 21.0107 122.254C19.5465 122.254 18.4294 121.831 17.6592 120.984C16.8975 120.13 16.5124 118.868 16.5039 117.201V108.264H18.8525V117.138C18.8525 119.22 19.6989 120.261 21.3916 120.261C23.1859 120.261 24.3792 119.592 24.9717 118.255V108.264H27.3203V122H25.0859L25.0352 120.642ZM36.6006 122.254C34.7386 122.254 33.2236 121.645 32.0557 120.426C30.8877 119.199 30.3037 117.561 30.3037 115.513V115.081C30.3037 113.718 30.5618 112.504 31.0781 111.438C31.6029 110.363 32.3307 109.525 33.2617 108.924C34.2012 108.314 35.2168 108.01 36.3086 108.01C38.0944 108.01 39.4824 108.598 40.4727 109.774C41.4629 110.951 41.958 112.635 41.958 114.827V115.805H32.6523C32.6862 117.159 33.0798 118.255 33.833 119.093C34.5947 119.922 35.5596 120.337 36.7275 120.337C37.557 120.337 38.2594 120.168 38.835 119.829C39.4105 119.491 39.9141 119.042 40.3457 118.483L41.7803 119.601C40.6292 121.369 38.9027 122.254 36.6006 122.254ZM36.3086 109.939C35.3607 109.939 34.5651 110.286 33.9219 110.98C33.2786 111.666 32.8809 112.631 32.7285 113.875H39.6094V113.697C39.5417 112.504 39.2201 111.581 38.6445 110.93C38.069 110.27 37.2904 109.939 36.3086 109.939ZM53.6885 122H51.3398V102.5H53.6885V122ZM65.9395 122C65.804 121.729 65.694 121.247 65.6094 120.553C64.5176 121.687 63.2142 122.254 61.6992 122.254C60.3451 122.254 59.2321 121.873 58.3604 121.111C57.4971 120.341 57.0654 119.368 57.0654 118.191C57.0654 116.761 57.6071 115.652 58.6904 114.865C59.7822 114.07 61.3141 113.672 63.2861 113.672H65.5713V112.593C65.5713 111.772 65.3258 111.12 64.835 110.638C64.3441 110.147 63.6204 109.901 62.6641 109.901C61.8262 109.901 61.1237 110.113 60.5566 110.536C59.9896 110.959 59.7061 111.471 59.7061 112.072H57.3447C57.3447 111.387 57.5859 110.727 58.0684 110.092C58.5592 109.449 59.2194 108.941 60.0488 108.568C60.8867 108.196 61.805 108.01 62.8037 108.01C64.3864 108.01 65.6263 108.408 66.5234 109.203C67.4206 109.99 67.8861 111.078 67.9199 112.466V118.788C67.9199 120.049 68.0807 121.052 68.4023 121.797V122H65.9395ZM62.042 120.21C62.7783 120.21 63.4766 120.02 64.1367 119.639C64.7969 119.258 65.2751 118.763 65.5713 118.153V115.335H63.7305C60.8529 115.335 59.4141 116.177 59.4141 117.861C59.4141 118.598 59.6595 119.173 60.1504 119.588C60.6413 120.003 61.2718 120.21 62.042 120.21ZM89.6543 115.284C89.6543 117.375 89.1761 119.059 88.2197 120.337C87.2633 121.615 85.9684 122.254 84.335 122.254C82.6676 122.254 81.3558 121.725 80.3994 120.667V127.281H78.0508V108.264H80.1963L80.3105 109.787C81.2669 108.602 82.5957 108.01 84.2969 108.01C85.9473 108.01 87.2507 108.632 88.207 109.876C89.1719 111.12 89.6543 112.851 89.6543 115.068V115.284ZM87.3057 115.018C87.3057 113.469 86.9756 112.246 86.3154 111.349C85.6553 110.451 84.7497 110.003 83.5986 110.003C82.1768 110.003 81.1104 110.633 80.3994 111.895V118.458C81.1019 119.711 82.1768 120.337 83.624 120.337C84.7497 120.337 85.6426 119.893 86.3027 119.004C86.9714 118.107 87.3057 116.778 87.3057 115.018ZM98.3506 122.254C96.4886 122.254 94.9736 121.645 93.8057 120.426C92.6377 119.199 92.0537 117.561 92.0537 115.513V115.081C92.0537 113.718 92.3118 112.504 92.8281 111.438C93.3529 110.363 94.0807 109.525 95.0117 108.924C95.9512 108.314 96.9668 108.01 98.0586 108.01C99.8444 108.01 101.232 108.598 102.223 109.774C103.213 110.951 103.708 112.635 103.708 114.827V115.805H94.4023C94.4362 117.159 94.8298 118.255 95.583 119.093C96.3447 119.922 97.3096 120.337 98.4775 120.337C99.307 120.337 100.009 120.168 100.585 119.829C101.16 119.491 101.664 119.042 102.096 118.483L103.53 119.601C102.379 121.369 100.653 122.254 98.3506 122.254ZM98.0586 109.939C97.1107 109.939 96.3151 110.286 95.6719 110.98C95.0286 111.666 94.6309 112.631 94.4785 113.875H101.359V113.697C101.292 112.504 100.97 111.581 100.395 110.93C99.819 110.27 99.0404 109.939 98.0586 109.939ZM114.436 118.356C114.436 117.722 114.194 117.231 113.712 116.884C113.238 116.528 112.404 116.224 111.211 115.97C110.026 115.716 109.082 115.411 108.38 115.056C107.686 114.7 107.17 114.277 106.831 113.786C106.501 113.295 106.336 112.711 106.336 112.034C106.336 110.909 106.81 109.956 107.758 109.178C108.714 108.399 109.933 108.01 111.414 108.01C112.971 108.01 114.232 108.412 115.197 109.216C116.171 110.02 116.657 111.048 116.657 112.301H114.296C114.296 111.658 114.021 111.103 113.471 110.638C112.929 110.172 112.243 109.939 111.414 109.939C110.559 109.939 109.891 110.126 109.408 110.498C108.926 110.87 108.685 111.357 108.685 111.958C108.685 112.525 108.909 112.952 109.357 113.24C109.806 113.528 110.614 113.803 111.782 114.065C112.959 114.328 113.911 114.641 114.639 115.005C115.367 115.369 115.904 115.809 116.251 116.325C116.606 116.833 116.784 117.455 116.784 118.191C116.784 119.419 116.293 120.405 115.312 121.149C114.33 121.886 113.056 122.254 111.49 122.254C110.39 122.254 109.417 122.059 108.57 121.67C107.724 121.281 107.06 120.739 106.577 120.045C106.103 119.342 105.866 118.585 105.866 117.772H108.215C108.257 118.56 108.57 119.186 109.154 119.651C109.747 120.108 110.525 120.337 111.49 120.337C112.379 120.337 113.09 120.159 113.623 119.804C114.165 119.44 114.436 118.957 114.436 118.356ZM123.03 104.938V108.264H125.595V110.079H123.03V118.598C123.03 119.148 123.145 119.562 123.373 119.842C123.602 120.113 123.991 120.248 124.541 120.248C124.812 120.248 125.184 120.197 125.658 120.096V122C125.04 122.169 124.439 122.254 123.855 122.254C122.806 122.254 122.015 121.937 121.481 121.302C120.948 120.667 120.682 119.766 120.682 118.598V110.079H118.181V108.264H120.682V104.938H123.03ZM134.05 122.254C132.188 122.254 130.673 121.645 129.505 120.426C128.337 119.199 127.753 117.561 127.753 115.513V115.081C127.753 113.718 128.011 112.504 128.527 111.438C129.052 110.363 129.78 109.525 130.711 108.924C131.65 108.314 132.666 108.01 133.758 108.01C135.544 108.01 136.932 108.598 137.922 109.774C138.912 110.951 139.407 112.635 139.407 114.827V115.805H130.102C130.135 117.159 130.529 118.255 131.282 119.093C132.044 119.922 133.009 120.337 134.177 120.337C135.006 120.337 135.709 120.168 136.284 119.829C136.86 119.491 137.363 119.042 137.795 118.483L139.229 119.601C138.078 121.369 136.352 122.254 134.05 122.254ZM133.758 109.939C132.81 109.939 132.014 110.286 131.371 110.98C130.728 111.666 130.33 112.631 130.178 113.875H137.059V113.697C136.991 112.504 136.669 111.581 136.094 110.93C135.518 110.27 134.74 109.939 133.758 109.939ZM150.808 108.264L150.884 109.99C151.933 108.67 153.304 108.01 154.997 108.01C157.9 108.01 159.364 109.647 159.39 112.923V122H157.041V112.91C157.033 111.92 156.804 111.188 156.355 110.714C155.915 110.24 155.226 110.003 154.286 110.003C153.524 110.003 152.856 110.206 152.28 110.612C151.705 111.019 151.256 111.552 150.935 112.212V122H148.586V108.264H150.808ZM168.632 122.254C166.77 122.254 165.255 121.645 164.087 120.426C162.919 119.199 162.335 117.561 162.335 115.513V115.081C162.335 113.718 162.593 112.504 163.109 111.438C163.634 110.363 164.362 109.525 165.293 108.924C166.232 108.314 167.248 108.01 168.34 108.01C170.126 108.01 171.514 108.598 172.504 109.774C173.494 110.951 173.989 112.635 173.989 114.827V115.805H164.684C164.717 117.159 165.111 118.255 165.864 119.093C166.626 119.922 167.591 120.337 168.759 120.337C169.588 120.337 170.291 120.168 170.866 119.829C171.442 119.491 171.945 119.042 172.377 118.483L173.812 119.601C172.66 121.369 170.934 122.254 168.632 122.254ZM168.34 109.939C167.392 109.939 166.596 110.286 165.953 110.98C165.31 111.666 164.912 112.631 164.76 113.875H171.641V113.697C171.573 112.504 171.251 111.581 170.676 110.93C170.1 110.27 169.322 109.939 168.34 109.939ZM176.16 115.018C176.16 112.876 176.655 111.175 177.646 109.914C178.636 108.645 179.948 108.01 181.581 108.01C183.257 108.01 184.564 108.602 185.504 109.787L185.618 108.264H187.764V121.67C187.764 123.447 187.235 124.848 186.177 125.872C185.127 126.896 183.714 127.408 181.937 127.408C180.946 127.408 179.977 127.197 179.029 126.773C178.081 126.35 177.358 125.771 176.858 125.034L178.077 123.625C179.084 124.869 180.316 125.491 181.771 125.491C182.914 125.491 183.803 125.17 184.438 124.526C185.081 123.883 185.402 122.978 185.402 121.81V120.629C184.463 121.712 183.181 122.254 181.556 122.254C179.948 122.254 178.644 121.606 177.646 120.312C176.655 119.017 176.16 117.252 176.16 115.018ZM178.521 115.284C178.521 116.833 178.839 118.052 179.474 118.94C180.108 119.821 180.997 120.261 182.14 120.261C183.621 120.261 184.708 119.588 185.402 118.242V111.971C184.683 110.659 183.604 110.003 182.165 110.003C181.022 110.003 180.13 110.447 179.486 111.336C178.843 112.225 178.521 113.541 178.521 115.284ZM197.958 110.371C197.603 110.312 197.217 110.282 196.803 110.282C195.262 110.282 194.217 110.938 193.667 112.25V122H191.318V108.264H193.604L193.642 109.851C194.412 108.623 195.504 108.01 196.917 108.01C197.374 108.01 197.721 108.069 197.958 108.188V110.371ZM208.102 122C207.966 121.729 207.856 121.247 207.771 120.553C206.68 121.687 205.376 122.254 203.861 122.254C202.507 122.254 201.394 121.873 200.522 121.111C199.659 120.341 199.228 119.368 199.228 118.191C199.228 116.761 199.769 115.652 200.853 114.865C201.944 114.07 203.476 113.672 205.448 113.672H207.733V112.593C207.733 111.772 207.488 111.12 206.997 110.638C206.506 110.147 205.783 109.901 204.826 109.901C203.988 109.901 203.286 110.113 202.719 110.536C202.152 110.959 201.868 111.471 201.868 112.072H199.507C199.507 111.387 199.748 110.727 200.23 110.092C200.721 109.449 201.382 108.941 202.211 108.568C203.049 108.196 203.967 108.01 204.966 108.01C206.549 108.01 207.788 108.408 208.686 109.203C209.583 109.99 210.048 111.078 210.082 112.466V118.788C210.082 120.049 210.243 121.052 210.564 121.797V122H208.102ZM204.204 120.21C204.94 120.21 205.639 120.02 206.299 119.639C206.959 119.258 207.437 118.763 207.733 118.153V115.335H205.893C203.015 115.335 201.576 116.177 201.576 117.861C201.576 118.598 201.822 119.173 202.312 119.588C202.803 120.003 203.434 120.21 204.204 120.21ZM7.0752 138.697L7.20996 141.752C9.06673 139.416 11.4925 138.248 14.4873 138.248C19.6234 138.248 22.2139 141.146 22.2588 146.94V163H18.1035V146.918C18.0885 145.166 17.6842 143.871 16.8906 143.032C16.112 142.194 14.8916 141.774 13.2295 141.774C11.8818 141.774 10.6989 142.134 9.68066 142.853C8.66243 143.571 7.86882 144.515 7.2998 145.683V163H3.14453V138.697H7.0752ZM43.5293 160.597C41.9121 162.498 39.5387 163.449 36.4092 163.449C33.8187 163.449 31.8421 162.701 30.4795 161.203C29.1318 159.691 28.4505 157.46 28.4355 154.51V138.697H32.5908V154.397C32.5908 158.081 34.0882 159.923 37.083 159.923C40.2575 159.923 42.3688 158.74 43.417 156.374V138.697H47.5723V163H43.6191L43.5293 160.597ZM57.8369 138.697L57.9717 141.752C59.8285 139.416 62.2542 138.248 65.249 138.248C70.3851 138.248 72.9756 141.146 73.0205 146.94V163H68.8652V146.918C68.8503 145.166 68.446 143.871 67.6523 143.032C66.8737 142.194 65.6533 141.774 63.9912 141.774C62.6436 141.774 61.4606 142.134 60.4424 142.853C59.4242 143.571 58.6305 144.515 58.0615 145.683V163H53.9062V138.697H57.8369ZM89.0352 160.058C90.5176 160.058 91.8128 159.608 92.9209 158.71C94.029 157.812 94.6429 156.688 94.7627 155.341H98.6934C98.6185 156.733 98.1393 158.059 97.2559 159.316C96.3724 160.574 95.1895 161.577 93.707 162.326C92.2396 163.075 90.6823 163.449 89.0352 163.449C85.7259 163.449 83.0905 162.349 81.1289 160.147C79.1823 157.931 78.209 154.907 78.209 151.073V150.377C78.209 148.011 78.6432 145.907 79.5117 144.065C80.3802 142.224 81.623 140.794 83.2402 139.775C84.8724 138.757 86.7965 138.248 89.0127 138.248C91.738 138.248 93.999 139.064 95.7959 140.696C97.6077 142.328 98.5736 144.447 98.6934 147.053H94.7627C94.6429 145.48 94.0439 144.193 92.9658 143.189C91.9027 142.171 90.585 141.662 89.0127 141.662C86.9014 141.662 85.2617 142.426 84.0938 143.953C82.9408 145.465 82.3643 147.659 82.3643 150.534V151.32C82.3643 154.12 82.9408 156.277 84.0938 157.789C85.2467 159.301 86.8939 160.058 89.0352 160.058ZM118.369 163C118.13 162.521 117.935 161.667 117.785 160.439C115.854 162.446 113.548 163.449 110.867 163.449C108.471 163.449 106.502 162.775 104.96 161.428C103.433 160.065 102.669 158.343 102.669 156.262C102.669 153.731 103.627 151.77 105.544 150.377C107.476 148.969 110.186 148.266 113.675 148.266H117.718V146.356C117.718 144.904 117.284 143.751 116.415 142.897C115.547 142.029 114.266 141.595 112.574 141.595C111.092 141.595 109.849 141.969 108.846 142.718C107.842 143.466 107.341 144.372 107.341 145.436H103.163C103.163 144.223 103.59 143.055 104.443 141.932C105.312 140.794 106.48 139.895 107.947 139.236C109.43 138.577 111.054 138.248 112.821 138.248C115.621 138.248 117.815 138.952 119.402 140.359C120.99 141.752 121.813 143.676 121.873 146.132V157.317C121.873 159.549 122.158 161.323 122.727 162.641V163H118.369ZM111.474 159.833C112.776 159.833 114.012 159.496 115.18 158.822C116.348 158.148 117.194 157.272 117.718 156.194V151.208H114.461C109.37 151.208 106.824 152.698 106.824 155.678C106.824 156.98 107.258 157.999 108.127 158.732C108.995 159.466 110.111 159.833 111.474 159.833ZM149.882 163.449C146.588 163.449 143.907 162.371 141.841 160.215C139.774 158.044 138.741 155.146 138.741 151.522V150.759C138.741 148.348 139.198 146.199 140.111 144.312C141.04 142.411 142.327 140.928 143.975 139.865C145.637 138.787 147.434 138.248 149.365 138.248C152.525 138.248 154.98 139.289 156.732 141.37C158.484 143.451 159.36 146.431 159.36 150.31V152.039H142.896C142.956 154.435 143.653 156.374 144.985 157.856C146.333 159.324 148.04 160.058 150.106 160.058C151.574 160.058 152.817 159.758 153.835 159.159C154.853 158.56 155.744 157.767 156.508 156.778L159.046 158.755C157.009 161.884 153.955 163.449 149.882 163.449ZM149.365 141.662C147.688 141.662 146.281 142.276 145.143 143.504C144.005 144.717 143.301 146.424 143.031 148.625H155.205V148.311C155.085 146.199 154.516 144.567 153.498 143.414C152.48 142.246 151.102 141.662 149.365 141.662ZM172.343 147.569L177.733 138.697H182.585L174.634 150.714L182.832 163H178.025L172.41 153.903L166.795 163H161.966L170.164 150.714L162.213 138.697H167.02L172.343 147.569ZM191.524 163H187.369V138.697H191.524V163ZM187.032 132.251C187.032 131.577 187.234 131.008 187.639 130.544C188.058 130.08 188.672 129.848 189.48 129.848C190.289 129.848 190.903 130.08 191.322 130.544C191.742 131.008 191.951 131.577 191.951 132.251C191.951 132.925 191.742 133.486 191.322 133.936C190.903 134.385 190.289 134.609 189.48 134.609C188.672 134.609 188.058 134.385 187.639 133.936C187.234 133.486 187.032 132.925 187.032 132.251ZM212.346 156.554C212.346 155.431 211.919 154.562 211.065 153.948C210.227 153.319 208.752 152.78 206.641 152.331C204.544 151.882 202.875 151.343 201.632 150.714C200.404 150.085 199.491 149.336 198.892 148.468C198.308 147.599 198.016 146.566 198.016 145.368C198.016 143.377 198.854 141.692 200.531 140.314C202.223 138.937 204.38 138.248 207 138.248C209.755 138.248 211.986 138.959 213.693 140.382C215.415 141.804 216.276 143.624 216.276 145.84H212.099C212.099 144.702 211.612 143.721 210.639 142.897C209.68 142.074 208.467 141.662 207 141.662C205.488 141.662 204.305 141.992 203.451 142.65C202.598 143.309 202.171 144.17 202.171 145.233C202.171 146.237 202.568 146.993 203.361 147.502C204.155 148.011 205.585 148.498 207.651 148.962C209.733 149.426 211.417 149.98 212.705 150.624C213.993 151.268 214.944 152.047 215.558 152.96C216.187 153.858 216.501 154.959 216.501 156.262C216.501 158.433 215.632 160.177 213.896 161.495C212.159 162.798 209.905 163.449 207.135 163.449C205.188 163.449 203.466 163.105 201.969 162.416C200.471 161.727 199.296 160.769 198.442 159.541C197.604 158.298 197.185 156.958 197.185 155.521H201.34C201.415 156.913 201.969 158.021 203.002 158.845C204.05 159.653 205.428 160.058 207.135 160.058C208.707 160.058 209.965 159.743 210.908 159.114C211.867 158.47 212.346 157.617 212.346 156.554ZM227.552 132.812V138.697H232.089V141.909H227.552V156.98C227.552 157.954 227.754 158.688 228.158 159.182C228.562 159.661 229.251 159.9 230.225 159.9C230.704 159.9 231.363 159.811 232.201 159.631V163C231.108 163.299 230.045 163.449 229.012 163.449C227.155 163.449 225.755 162.888 224.812 161.765C223.868 160.642 223.396 159.047 223.396 156.98V141.909H218.972V138.697H223.396V132.812H227.552ZM241.478 163H237.322V138.697H241.478V163ZM236.985 132.251C236.985 131.577 237.188 131.008 237.592 130.544C238.011 130.08 238.625 129.848 239.434 129.848C240.242 129.848 240.856 130.08 241.275 130.544C241.695 131.008 241.904 131.577 241.904 132.251C241.904 132.925 241.695 133.486 241.275 133.936C240.856 134.385 240.242 134.609 239.434 134.609C238.625 134.609 238.011 134.385 237.592 133.936C237.188 133.486 236.985 132.925 236.985 132.251ZM247.048 150.624C247.048 148.243 247.512 146.102 248.44 144.2C249.384 142.299 250.687 140.831 252.349 139.798C254.026 138.765 255.935 138.248 258.076 138.248C261.385 138.248 264.058 139.394 266.095 141.685C268.146 143.976 269.172 147.023 269.172 150.826V151.118C269.172 153.484 268.715 155.61 267.802 157.497C266.903 159.369 265.608 160.829 263.916 161.877C262.239 162.925 260.307 163.449 258.121 163.449C254.827 163.449 252.154 162.304 250.103 160.013C248.066 157.722 247.048 154.689 247.048 150.916V150.624ZM251.226 151.118C251.226 153.813 251.847 155.977 253.09 157.609C254.348 159.242 256.025 160.058 258.121 160.058C260.232 160.058 261.91 159.234 263.152 157.587C264.395 155.925 265.017 153.604 265.017 150.624C265.017 147.959 264.38 145.802 263.107 144.155C261.85 142.493 260.173 141.662 258.076 141.662C256.025 141.662 254.37 142.478 253.112 144.11C251.854 145.743 251.226 148.078 251.226 151.118ZM259.963 128.5H264.994L258.975 135.104H255.628L259.963 128.5Z" fill="#E9ECFC"/>
<path d="M6.27148 190.56L9.4707 180.264H11.9844L6.46191 196.12C5.6071 198.405 4.2487 199.548 2.38672 199.548L1.94238 199.51L1.06641 199.345V197.44L1.70117 197.491C2.49674 197.491 3.11458 197.33 3.55469 197.009C4.00326 196.687 4.37142 196.099 4.65918 195.244L5.17969 193.848L0.279297 180.264H2.84375L6.27148 190.56ZM19.9697 187.018C19.9697 184.859 20.4648 183.154 21.4551 181.901C22.4453 180.64 23.7741 180.01 25.4414 180.01C27.0664 180.01 28.3486 180.556 29.2881 181.647L29.3896 180.264H31.5479V199.281H29.1992V192.73C28.2513 193.746 26.9902 194.254 25.416 194.254C23.7572 194.254 22.4326 193.611 21.4424 192.324C20.4606 191.029 19.9697 189.315 19.9697 187.183V187.018ZM22.3184 187.284C22.3184 188.858 22.6484 190.094 23.3086 190.991C23.9772 191.888 24.8743 192.337 26 192.337C27.3965 192.337 28.4629 191.719 29.1992 190.483V183.755C28.4544 182.545 27.3965 181.939 26.0254 181.939C24.8913 181.939 23.9899 182.392 23.3213 183.298C22.6527 184.195 22.3184 185.524 22.3184 187.284ZM43.7988 192.642C42.8848 193.716 41.5433 194.254 39.7744 194.254C38.3102 194.254 37.193 193.831 36.4229 192.984C35.6611 192.13 35.276 190.868 35.2676 189.201V180.264H37.6162V189.138C37.6162 191.22 38.4626 192.261 40.1553 192.261C41.9495 192.261 43.1429 191.592 43.7354 190.255V180.264H46.084V194H43.8496L43.7988 192.642ZM55.3643 194.254C53.5023 194.254 51.9873 193.645 50.8193 192.426C49.6514 191.199 49.0674 189.561 49.0674 187.513V187.081C49.0674 185.718 49.3255 184.504 49.8418 183.438C50.3665 182.363 51.0944 181.525 52.0254 180.924C52.9648 180.314 53.9805 180.01 55.0723 180.01C56.8581 180.01 58.2461 180.598 59.2363 181.774C60.2266 182.951 60.7217 184.635 60.7217 186.827V187.805H51.416C51.4499 189.159 51.8434 190.255 52.5967 191.093C53.3584 191.922 54.3232 192.337 55.4912 192.337C56.3206 192.337 57.0231 192.168 57.5986 191.829C58.1742 191.491 58.6777 191.042 59.1094 190.483L60.5439 191.601C59.3929 193.369 57.6663 194.254 55.3643 194.254ZM55.0723 181.939C54.1243 181.939 53.3288 182.286 52.6855 182.98C52.0423 183.666 51.6445 184.631 51.4922 185.875H58.373V185.697C58.3053 184.504 57.9837 183.581 57.4082 182.93C56.8327 182.27 56.054 181.939 55.0723 181.939ZM77.0605 194C76.9082 193.721 76.7728 193.31 76.6543 192.769C75.8672 193.759 74.7669 194.254 73.3535 194.254C72.0586 194.254 70.9583 193.865 70.0527 193.086C69.1471 192.299 68.6943 191.313 68.6943 190.128C68.6943 188.638 69.2445 187.513 70.3447 186.751C71.445 185.989 73.0446 185.608 75.1436 185.608H76.4639V184.885C76.4639 183.624 75.918 182.993 74.8262 182.993C73.8105 182.993 73.3027 183.493 73.3027 184.491H69.0244C69.0244 183.162 69.5872 182.083 70.7129 181.254C71.847 180.424 73.29 180.01 75.042 180.01C76.7939 180.01 78.1777 180.437 79.1934 181.292C80.209 182.147 80.7295 183.319 80.7549 184.809V190.89C80.7718 192.151 80.9665 193.116 81.3389 193.784V194H77.0605ZM74.3818 191.207C74.915 191.207 75.3551 191.093 75.7021 190.864C76.0576 190.636 76.3115 190.378 76.4639 190.09V187.894H75.2197C73.7301 187.894 72.9854 188.562 72.9854 189.899C72.9854 190.289 73.1165 190.606 73.3789 190.852C73.6413 191.089 73.9756 191.207 74.3818 191.207ZM87.6484 194H83.3574V174.5H87.6484V194ZM89.7939 187.03C89.7939 185.642 90.0225 184.415 90.4795 183.349C90.9365 182.282 91.5924 181.461 92.4473 180.886C93.3021 180.302 94.2965 180.01 95.4307 180.01C96.861 180.01 97.9782 180.492 98.7822 181.457L98.9346 180.264H102.819V193.479C102.819 194.69 102.536 195.739 101.969 196.628C101.41 197.525 100.598 198.211 99.5312 198.685C98.4648 199.167 97.2292 199.408 95.8242 199.408C94.8171 199.408 93.8395 199.218 92.8916 198.837C91.9521 198.456 91.2327 197.961 90.7334 197.352L92.5234 194.838C93.319 195.777 94.3685 196.247 95.6719 196.247C97.5677 196.247 98.5156 195.274 98.5156 193.327V192.896C97.6947 193.801 96.6579 194.254 95.4053 194.254C93.7295 194.254 92.3753 193.615 91.3428 192.337C90.3102 191.05 89.7939 189.332 89.7939 187.183V187.03ZM94.085 187.297C94.085 188.423 94.2965 189.315 94.7197 189.976C95.1429 190.627 95.7354 190.953 96.4971 190.953C97.4196 190.953 98.0924 190.644 98.5156 190.026V184.25C98.1009 183.624 97.4365 183.311 96.5225 183.311C95.7607 183.311 95.1641 183.653 94.7324 184.339C94.3008 185.016 94.085 186.002 94.085 187.297ZM113.433 192.515C112.527 193.674 111.304 194.254 109.764 194.254C108.257 194.254 107.115 193.818 106.336 192.946C105.566 192.066 105.181 190.805 105.181 189.163V180.264H109.459V189.188C109.459 190.365 110.03 190.953 111.173 190.953C112.155 190.953 112.853 190.602 113.268 189.899V180.264H117.571V194H113.56L113.433 192.515ZM124.439 194H120.148V180.264H124.439V194ZM119.895 176.722C119.895 176.112 120.115 175.613 120.555 175.224C120.995 174.834 121.566 174.64 122.269 174.64C122.971 174.64 123.542 174.834 123.982 175.224C124.423 175.613 124.643 176.112 124.643 176.722C124.643 177.331 124.423 177.83 123.982 178.22C123.542 178.609 122.971 178.804 122.269 178.804C121.566 178.804 120.995 178.609 120.555 178.22C120.115 177.83 119.895 177.331 119.895 176.722ZM133.732 194.254C131.625 194.254 129.92 193.628 128.616 192.375C127.313 191.114 126.661 189.476 126.661 187.462V187.106C126.661 185.701 126.919 184.462 127.436 183.387C127.96 182.312 128.722 181.482 129.721 180.898C130.719 180.306 131.904 180.01 133.275 180.01C135.205 180.01 136.729 180.611 137.846 181.812C138.963 183.006 139.521 184.673 139.521 186.814V188.478H131.016C131.168 189.248 131.502 189.853 132.019 190.293C132.535 190.733 133.203 190.953 134.024 190.953C135.379 190.953 136.437 190.479 137.198 189.531L139.153 191.842C138.62 192.578 137.863 193.166 136.881 193.606C135.908 194.038 134.858 194.254 133.732 194.254ZM133.25 183.311C131.997 183.311 131.253 184.14 131.016 185.799H135.332V185.469C135.349 184.783 135.175 184.254 134.812 183.882C134.448 183.501 133.927 183.311 133.25 183.311ZM145.184 180.264L145.323 181.876C146.271 180.632 147.579 180.01 149.246 180.01C150.676 180.01 151.743 180.437 152.445 181.292C153.156 182.147 153.524 183.433 153.55 185.151V194H149.259V185.329C149.259 184.635 149.119 184.127 148.84 183.806C148.561 183.476 148.053 183.311 147.316 183.311C146.479 183.311 145.856 183.641 145.45 184.301V194H141.172V180.264H145.184ZM168.657 194.254C166.795 194.254 165.28 193.645 164.112 192.426C162.944 191.199 162.36 189.561 162.36 187.513V187.081C162.36 185.718 162.618 184.504 163.135 183.438C163.66 182.363 164.387 181.525 165.318 180.924C166.258 180.314 167.273 180.01 168.365 180.01C170.151 180.01 171.539 180.598 172.529 181.774C173.52 182.951 174.015 184.635 174.015 186.827V187.805H164.709C164.743 189.159 165.136 190.255 165.89 191.093C166.651 191.922 167.616 192.337 168.784 192.337C169.614 192.337 170.316 192.168 170.892 191.829C171.467 191.491 171.971 191.042 172.402 190.483L173.837 191.601C172.686 193.369 170.959 194.254 168.657 194.254ZM168.365 181.939C167.417 181.939 166.622 182.286 165.979 182.98C165.335 183.666 164.938 184.631 164.785 185.875H171.666V185.697C171.598 184.504 171.277 183.581 170.701 182.93C170.126 182.27 169.347 181.939 168.365 181.939ZM184.742 190.356C184.742 189.722 184.501 189.231 184.019 188.884C183.545 188.528 182.711 188.224 181.518 187.97C180.333 187.716 179.389 187.411 178.687 187.056C177.993 186.7 177.476 186.277 177.138 185.786C176.808 185.295 176.643 184.711 176.643 184.034C176.643 182.909 177.117 181.956 178.064 181.178C179.021 180.399 180.24 180.01 181.721 180.01C183.278 180.01 184.539 180.412 185.504 181.216C186.477 182.02 186.964 183.048 186.964 184.301H184.603C184.603 183.658 184.327 183.103 183.777 182.638C183.236 182.172 182.55 181.939 181.721 181.939C180.866 181.939 180.197 182.126 179.715 182.498C179.232 182.87 178.991 183.357 178.991 183.958C178.991 184.525 179.215 184.952 179.664 185.24C180.113 185.528 180.921 185.803 182.089 186.065C183.265 186.328 184.217 186.641 184.945 187.005C185.673 187.369 186.211 187.809 186.558 188.325C186.913 188.833 187.091 189.455 187.091 190.191C187.091 191.419 186.6 192.405 185.618 193.149C184.636 193.886 183.363 194.254 181.797 194.254C180.697 194.254 179.723 194.059 178.877 193.67C178.031 193.281 177.366 192.739 176.884 192.045C176.41 191.342 176.173 190.585 176.173 189.772H178.521C178.564 190.56 178.877 191.186 179.461 191.651C180.053 192.108 180.832 192.337 181.797 192.337C182.686 192.337 183.396 192.159 183.93 191.804C184.471 191.44 184.742 190.957 184.742 190.356ZM193.337 176.938V180.264H195.901V182.079H193.337V190.598C193.337 191.148 193.451 191.562 193.68 191.842C193.908 192.113 194.298 192.248 194.848 192.248C195.118 192.248 195.491 192.197 195.965 192.096V194C195.347 194.169 194.746 194.254 194.162 194.254C193.113 194.254 192.321 193.937 191.788 193.302C191.255 192.667 190.988 191.766 190.988 190.598V182.079H188.487V180.264H190.988V176.938H193.337ZM207.137 194C207.001 193.729 206.891 193.247 206.807 192.553C205.715 193.687 204.411 194.254 202.896 194.254C201.542 194.254 200.429 193.873 199.558 193.111C198.694 192.341 198.263 191.368 198.263 190.191C198.263 188.761 198.804 187.652 199.888 186.865C200.979 186.07 202.511 185.672 204.483 185.672H206.769V184.593C206.769 183.772 206.523 183.12 206.032 182.638C205.541 182.147 204.818 181.901 203.861 181.901C203.023 181.901 202.321 182.113 201.754 182.536C201.187 182.959 200.903 183.471 200.903 184.072H198.542C198.542 183.387 198.783 182.727 199.266 182.092C199.757 181.449 200.417 180.941 201.246 180.568C202.084 180.196 203.002 180.01 204.001 180.01C205.584 180.01 206.824 180.408 207.721 181.203C208.618 181.99 209.083 183.078 209.117 184.466V190.788C209.117 192.049 209.278 193.052 209.6 193.797V194H207.137ZM203.239 192.21C203.976 192.21 204.674 192.02 205.334 191.639C205.994 191.258 206.472 190.763 206.769 190.153V187.335H204.928C202.05 187.335 200.611 188.177 200.611 189.861C200.611 190.598 200.857 191.173 201.348 191.588C201.839 192.003 202.469 192.21 203.239 192.21ZM7.47754 222.254C5.61556 222.254 4.10059 221.645 2.93262 220.426C1.76465 219.199 1.18066 217.561 1.18066 215.513V215.081C1.18066 213.718 1.4388 212.504 1.95508 211.438C2.47982 210.363 3.20768 209.525 4.13867 208.924C5.07812 208.314 6.09375 208.01 7.18555 208.01C8.97135 208.01 10.3594 208.598 11.3496 209.774C12.3398 210.951 12.835 212.635 12.835 214.827V215.805H3.5293C3.56315 217.159 3.95671 218.255 4.70996 219.093C5.47168 219.922 6.43652 220.337 7.60449 220.337C8.43392 220.337 9.13639 220.168 9.71191 219.829C10.2874 219.491 10.791 219.042 11.2227 218.483L12.6572 219.601C11.5062 221.369 9.77962 222.254 7.47754 222.254ZM7.18555 209.939C6.23763 209.939 5.44206 210.286 4.79883 210.98C4.1556 211.666 3.75781 212.631 3.60547 213.875H10.4863V213.697C10.4186 212.504 10.097 211.581 9.52148 210.93C8.94596 210.27 8.16732 209.939 7.18555 209.939ZM23.5625 218.356C23.5625 217.722 23.3213 217.231 22.8389 216.884C22.3649 216.528 21.5312 216.224 20.3379 215.97C19.153 215.716 18.2093 215.411 17.5068 215.056C16.8128 214.7 16.2965 214.277 15.958 213.786C15.6279 213.295 15.4629 212.711 15.4629 212.034C15.4629 210.909 15.9368 209.956 16.8848 209.178C17.8411 208.399 19.0599 208.01 20.541 208.01C22.0983 208.01 23.3594 208.412 24.3242 209.216C25.2975 210.02 25.7842 211.048 25.7842 212.301H23.4229C23.4229 211.658 23.1478 211.103 22.5977 210.638C22.056 210.172 21.3704 209.939 20.541 209.939C19.6862 209.939 19.0176 210.126 18.5352 210.498C18.0527 210.87 17.8115 211.357 17.8115 211.958C17.8115 212.525 18.0358 212.952 18.4844 213.24C18.9329 213.528 19.7412 213.803 20.9092 214.065C22.0856 214.328 23.0378 214.641 23.7656 215.005C24.4935 215.369 25.0309 215.809 25.3779 216.325C25.7334 216.833 25.9111 217.455 25.9111 218.191C25.9111 219.419 25.4202 220.405 24.4385 221.149C23.4567 221.886 22.1829 222.254 20.6172 222.254C19.5169 222.254 18.5436 222.059 17.6973 221.67C16.8509 221.281 16.1865 220.739 15.7041 220.045C15.2301 219.342 14.9932 218.585 14.9932 217.772H17.3418C17.3841 218.56 17.6973 219.186 18.2812 219.651C18.8737 220.108 19.6523 220.337 20.6172 220.337C21.5059 220.337 22.2168 220.159 22.75 219.804C23.2917 219.44 23.5625 218.957 23.5625 218.356ZM34.4805 220.337C35.3184 220.337 36.0505 220.083 36.6768 219.575C37.3031 219.067 37.6501 218.433 37.7178 217.671H39.9395C39.8971 218.458 39.6263 219.207 39.127 219.918C38.6276 220.629 37.959 221.196 37.1211 221.619C36.2917 222.042 35.4115 222.254 34.4805 222.254C32.61 222.254 31.1204 221.632 30.0117 220.388C28.9115 219.135 28.3613 217.425 28.3613 215.259V214.865C28.3613 213.528 28.6068 212.339 29.0977 211.298C29.5885 210.257 30.291 209.449 31.2051 208.873C32.1276 208.298 33.2152 208.01 34.4678 208.01C36.0081 208.01 37.2861 208.471 38.3018 209.394C39.3258 210.316 39.8717 211.514 39.9395 212.986H37.7178C37.6501 212.098 37.3115 211.37 36.7021 210.803C36.1012 210.227 35.3564 209.939 34.4678 209.939C33.2744 209.939 32.3477 210.371 31.6875 211.234C31.0358 212.089 30.71 213.329 30.71 214.954V215.398C30.71 216.981 31.0358 218.2 31.6875 219.055C32.3392 219.91 33.2702 220.337 34.4805 220.337ZM49.2197 210.371C48.8643 210.312 48.4792 210.282 48.0645 210.282C46.5241 210.282 45.4788 210.938 44.9287 212.25V222H42.5801V208.264H44.8652L44.9033 209.851C45.6735 208.623 46.7653 208.01 48.1787 208.01C48.6357 208.01 48.9827 208.069 49.2197 208.188V210.371ZM53.9424 222H51.5938V208.264H53.9424V222ZM51.4033 204.62C51.4033 204.239 51.5176 203.918 51.7461 203.655C51.9831 203.393 52.3301 203.262 52.7871 203.262C53.2441 203.262 53.5911 203.393 53.8281 203.655C54.0651 203.918 54.1836 204.239 54.1836 204.62C54.1836 205.001 54.0651 205.318 53.8281 205.572C53.5911 205.826 53.2441 205.953 52.7871 205.953C52.3301 205.953 51.9831 205.826 51.7461 205.572C51.5176 205.318 51.4033 205.001 51.4033 204.62ZM69.3418 215.284C69.3418 217.383 68.8594 219.072 67.8945 220.35C66.9297 221.619 65.6348 222.254 64.0098 222.254C62.2747 222.254 60.9333 221.64 59.9854 220.413L59.8711 222H57.7129V202.5H60.0615V209.774C61.0094 208.598 62.3171 208.01 63.9844 208.01C65.6517 208.01 66.9593 208.64 67.9072 209.901C68.8636 211.162 69.3418 212.889 69.3418 215.081V215.284ZM66.9932 215.018C66.9932 213.418 66.6842 212.182 66.0664 211.311C65.4486 210.439 64.5599 210.003 63.4004 210.003C61.8516 210.003 60.7386 210.722 60.0615 212.161V218.103C60.7809 219.541 61.9023 220.261 63.4258 220.261C64.5514 220.261 65.4274 219.825 66.0537 218.953C66.68 218.081 66.9932 216.77 66.9932 215.018ZM74.8643 222H72.5156V208.264H74.8643V222ZM72.3252 204.62C72.3252 204.239 72.4395 203.918 72.668 203.655C72.9049 203.393 73.252 203.262 73.709 203.262C74.166 203.262 74.513 203.393 74.75 203.655C74.987 203.918 75.1055 204.239 75.1055 204.62C75.1055 205.001 74.987 205.318 74.75 205.572C74.513 205.826 74.166 205.953 73.709 205.953C73.252 205.953 72.9049 205.826 72.668 205.572C72.4395 205.318 72.3252 205.001 72.3252 204.62ZM84.335 222.254C82.473 222.254 80.958 221.645 79.79 220.426C78.6221 219.199 78.0381 217.561 78.0381 215.513V215.081C78.0381 213.718 78.2962 212.504 78.8125 211.438C79.3372 210.363 80.0651 209.525 80.9961 208.924C81.9355 208.314 82.9512 208.01 84.043 208.01C85.8288 208.01 87.2168 208.598 88.207 209.774C89.1973 210.951 89.6924 212.635 89.6924 214.827V215.805H80.3867C80.4206 217.159 80.8141 218.255 81.5674 219.093C82.3291 219.922 83.2939 220.337 84.4619 220.337C85.2913 220.337 85.9938 220.168 86.5693 219.829C87.1449 219.491 87.6484 219.042 88.0801 218.483L89.5146 219.601C88.3636 221.369 86.637 222.254 84.335 222.254ZM84.043 209.939C83.0951 209.939 82.2995 210.286 81.6562 210.98C81.013 211.666 80.6152 212.631 80.4629 213.875H87.3438V213.697C87.276 212.504 86.9544 211.581 86.3789 210.93C85.8034 210.27 85.0247 209.939 84.043 209.939ZM94.6436 208.264L94.7197 209.99C95.7692 208.67 97.1403 208.01 98.833 208.01C101.736 208.01 103.2 209.647 103.226 212.923V222H100.877V212.91C100.868 211.92 100.64 211.188 100.191 210.714C99.7513 210.24 99.0615 210.003 98.1221 210.003C97.3604 210.003 96.6917 210.206 96.1162 210.612C95.5407 211.019 95.0921 211.552 94.7705 212.212V222H92.4219V208.264H94.6436ZM106.196 215.018C106.196 212.91 106.696 211.217 107.694 209.939C108.693 208.653 110.001 208.01 111.617 208.01C113.225 208.01 114.499 208.56 115.438 209.66V202.5H117.787V222H115.629L115.515 220.527C114.575 221.678 113.268 222.254 111.592 222.254C110.001 222.254 108.701 221.602 107.694 220.299C106.696 218.995 106.196 217.294 106.196 215.195V215.018ZM108.545 215.284C108.545 216.841 108.867 218.06 109.51 218.94C110.153 219.821 111.042 220.261 112.176 220.261C113.665 220.261 114.753 219.592 115.438 218.255V211.945C114.736 210.65 113.657 210.003 112.201 210.003C111.05 210.003 110.153 210.447 109.51 211.336C108.867 212.225 108.545 213.541 108.545 215.284ZM120.821 215.005C120.821 213.659 121.084 212.449 121.608 211.374C122.142 210.299 122.878 209.47 123.817 208.886C124.765 208.302 125.844 208.01 127.055 208.01C128.925 208.01 130.436 208.657 131.587 209.952C132.746 211.247 133.326 212.969 133.326 215.119V215.284C133.326 216.621 133.068 217.823 132.552 218.89C132.044 219.948 131.312 220.773 130.355 221.365C129.408 221.958 128.316 222.254 127.08 222.254C125.218 222.254 123.707 221.606 122.548 220.312C121.397 219.017 120.821 217.303 120.821 215.17V215.005ZM123.183 215.284C123.183 216.808 123.534 218.031 124.236 218.953C124.947 219.876 125.895 220.337 127.08 220.337C128.273 220.337 129.221 219.871 129.924 218.94C130.626 218.001 130.978 216.689 130.978 215.005C130.978 213.498 130.618 212.28 129.898 211.349C129.188 210.409 128.24 209.939 127.055 209.939C125.895 209.939 124.96 210.401 124.249 211.323C123.538 212.246 123.183 213.566 123.183 215.284ZM151.201 220.642C150.287 221.716 148.946 222.254 147.177 222.254C145.713 222.254 144.595 221.831 143.825 220.984C143.063 220.13 142.678 218.868 142.67 217.201V208.264H145.019V217.138C145.019 219.22 145.865 220.261 147.558 220.261C149.352 220.261 150.545 219.592 151.138 218.255V208.264H153.486V222H151.252L151.201 220.642ZM159.288 208.264L159.364 209.99C160.414 208.67 161.785 208.01 163.478 208.01C166.381 208.01 167.845 209.647 167.87 212.923V222H165.521V212.91C165.513 211.92 165.285 211.188 164.836 210.714C164.396 210.24 163.706 210.003 162.767 210.003C162.005 210.003 161.336 210.206 160.761 210.612C160.185 211.019 159.737 211.552 159.415 212.212V222H157.066V208.264H159.288ZM179.893 222C179.757 221.729 179.647 221.247 179.562 220.553C178.471 221.687 177.167 222.254 175.652 222.254C174.298 222.254 173.185 221.873 172.313 221.111C171.45 220.341 171.019 219.368 171.019 218.191C171.019 216.761 171.56 215.652 172.644 214.865C173.735 214.07 175.267 213.672 177.239 213.672H179.524V212.593C179.524 211.772 179.279 211.12 178.788 210.638C178.297 210.147 177.574 209.901 176.617 209.901C175.779 209.901 175.077 210.113 174.51 210.536C173.943 210.959 173.659 211.471 173.659 212.072H171.298C171.298 211.387 171.539 210.727 172.021 210.092C172.512 209.449 173.173 208.941 174.002 208.568C174.84 208.196 175.758 208.01 176.757 208.01C178.34 208.01 179.579 208.408 180.477 209.203C181.374 209.99 181.839 211.078 181.873 212.466V218.788C181.873 220.049 182.034 221.052 182.355 221.797V222H179.893ZM175.995 220.21C176.731 220.21 177.43 220.02 178.09 219.639C178.75 219.258 179.228 218.763 179.524 218.153V215.335H177.684C174.806 215.335 173.367 216.177 173.367 217.861C173.367 218.598 173.613 219.173 174.104 219.588C174.594 220.003 175.225 220.21 175.995 220.21ZM191.382 215.005C191.382 213.659 191.644 212.449 192.169 211.374C192.702 210.299 193.438 209.47 194.378 208.886C195.326 208.302 196.405 208.01 197.615 208.01C199.486 208.01 200.996 208.657 202.147 209.952C203.307 211.247 203.887 212.969 203.887 215.119V215.284C203.887 216.621 203.629 217.823 203.112 218.89C202.604 219.948 201.872 220.773 200.916 221.365C199.968 221.958 198.876 222.254 197.641 222.254C195.779 222.254 194.268 221.606 193.108 220.312C191.957 219.017 191.382 217.303 191.382 215.17V215.005ZM193.743 215.284C193.743 216.808 194.094 218.031 194.797 218.953C195.508 219.876 196.456 220.337 197.641 220.337C198.834 220.337 199.782 219.871 200.484 218.94C201.187 218.001 201.538 216.689 201.538 215.005C201.538 213.498 201.178 212.28 200.459 211.349C199.748 210.409 198.8 209.939 197.615 209.939C196.456 209.939 195.521 210.401 194.81 211.323C194.099 212.246 193.743 213.566 193.743 215.284ZM218.461 215.284C218.461 217.383 217.979 219.072 217.014 220.35C216.049 221.619 214.754 222.254 213.129 222.254C211.394 222.254 210.052 221.64 209.104 220.413L208.99 222H206.832V202.5H209.181V209.774C210.129 208.598 211.436 208.01 213.104 208.01C214.771 208.01 216.078 208.64 217.026 209.901C217.983 211.162 218.461 212.889 218.461 215.081V215.284ZM216.112 215.018C216.112 213.418 215.803 212.182 215.186 211.311C214.568 210.439 213.679 210.003 212.52 210.003C210.971 210.003 209.858 210.722 209.181 212.161V218.103C209.9 219.541 211.021 220.261 212.545 220.261C213.671 220.261 214.547 219.825 215.173 218.953C215.799 218.081 216.112 216.77 216.112 215.018ZM228.071 210.371C227.716 210.312 227.331 210.282 226.916 210.282C225.376 210.282 224.33 210.938 223.78 212.25V222H221.432V208.264H223.717L223.755 209.851C224.525 208.623 225.617 208.01 227.03 208.01C227.487 208.01 227.834 208.069 228.071 208.188V210.371ZM238.215 222C238.079 221.729 237.969 221.247 237.885 220.553C236.793 221.687 235.49 222.254 233.975 222.254C232.62 222.254 231.507 221.873 230.636 221.111C229.772 220.341 229.341 219.368 229.341 218.191C229.341 216.761 229.882 215.652 230.966 214.865C232.058 214.07 233.59 213.672 235.562 213.672H237.847V212.593C237.847 211.772 237.601 211.12 237.11 210.638C236.619 210.147 235.896 209.901 234.939 209.901C234.102 209.901 233.399 210.113 232.832 210.536C232.265 210.959 231.981 211.471 231.981 212.072H229.62C229.62 211.387 229.861 210.727 230.344 210.092C230.835 209.449 231.495 208.941 232.324 208.568C233.162 208.196 234.08 208.01 235.079 208.01C236.662 208.01 237.902 208.408 238.799 209.203C239.696 209.99 240.161 211.078 240.195 212.466V218.788C240.195 220.049 240.356 221.052 240.678 221.797V222H238.215ZM234.317 220.21C235.054 220.21 235.752 220.02 236.412 219.639C237.072 219.258 237.55 218.763 237.847 218.153V215.335H236.006C233.128 215.335 231.689 216.177 231.689 217.861C231.689 218.598 231.935 219.173 232.426 219.588C232.917 220.003 233.547 220.21 234.317 220.21ZM9.77539 246.356C9.77539 245.722 9.53418 245.231 9.05176 244.884C8.5778 244.528 7.74414 244.224 6.55078 243.97C5.36589 243.716 4.4222 243.411 3.71973 243.056C3.02572 242.7 2.50944 242.277 2.1709 241.786C1.84082 241.295 1.67578 240.711 1.67578 240.034C1.67578 238.909 2.14974 237.956 3.09766 237.178C4.05404 236.399 5.27279 236.01 6.75391 236.01C8.3112 236.01 9.57227 236.412 10.5371 237.216C11.5104 238.02 11.9971 239.048 11.9971 240.301H9.63574C9.63574 239.658 9.36068 239.103 8.81055 238.638C8.26888 238.172 7.58333 237.939 6.75391 237.939C5.89909 237.939 5.23047 238.126 4.74805 238.498C4.26562 238.87 4.02441 239.357 4.02441 239.958C4.02441 240.525 4.2487 240.952 4.69727 241.24C5.14583 241.528 5.9541 241.803 7.12207 242.065C8.2985 242.328 9.25065 242.641 9.97852 243.005C10.7064 243.369 11.2438 243.809 11.5908 244.325C11.9463 244.833 12.124 245.455 12.124 246.191C12.124 247.419 11.6331 248.405 10.6514 249.149C9.6696 249.886 8.39583 250.254 6.83008 250.254C5.72982 250.254 4.75651 250.059 3.91016 249.67C3.0638 249.281 2.39941 248.739 1.91699 248.045C1.44303 247.342 1.20605 246.585 1.20605 245.772H3.55469C3.59701 246.56 3.91016 247.186 4.49414 247.651C5.08659 248.108 5.86523 248.337 6.83008 248.337C7.71875 248.337 8.42969 248.159 8.96289 247.804C9.50456 247.44 9.77539 246.957 9.77539 246.356ZM17.7354 250H15.3867V236.264H17.7354V250ZM15.1963 232.62C15.1963 232.239 15.3105 231.918 15.5391 231.655C15.776 231.393 16.123 231.262 16.5801 231.262C17.0371 231.262 17.3841 231.393 17.6211 231.655C17.8581 231.918 17.9766 232.239 17.9766 232.62C17.9766 233.001 17.8581 233.318 17.6211 233.572C17.3841 233.826 17.0371 233.953 16.5801 233.953C16.123 233.953 15.776 233.826 15.5391 233.572C15.3105 233.318 15.1963 233.001 15.1963 232.62ZM23.7148 236.264L23.7783 237.787C24.7855 236.602 26.1439 236.01 27.8535 236.01C29.7747 236.01 31.0824 236.746 31.7764 238.219C32.2334 237.559 32.8258 237.025 33.5537 236.619C34.29 236.213 35.1576 236.01 36.1562 236.01C39.1693 236.01 40.7012 237.605 40.752 240.796V250H38.4033V240.936C38.4033 239.954 38.179 239.222 37.7305 238.739C37.2819 238.248 36.5286 238.003 35.4707 238.003C34.599 238.003 33.8753 238.265 33.2998 238.79C32.7243 239.306 32.39 240.005 32.2969 240.885V250H29.9355V240.999C29.9355 239.002 28.958 238.003 27.0029 238.003C25.4626 238.003 24.4089 238.659 23.8418 239.971V250H21.4932V236.264H23.7148ZM46.8584 250H44.5098V236.264H46.8584V250ZM44.3193 232.62C44.3193 232.239 44.4336 231.918 44.6621 231.655C44.8991 231.393 45.2461 231.262 45.7031 231.262C46.1602 231.262 46.5072 231.393 46.7441 231.655C46.9811 231.918 47.0996 232.239 47.0996 232.62C47.0996 233.001 46.9811 233.318 46.7441 233.572C46.5072 233.826 46.1602 233.953 45.7031 233.953C45.2461 233.953 44.8991 233.826 44.6621 233.572C44.4336 233.318 44.3193 233.001 44.3193 232.62ZM53.1807 250H50.832V230.5H53.1807V250ZM65.4316 250C65.2962 249.729 65.1862 249.247 65.1016 248.553C64.0098 249.687 62.7064 250.254 61.1914 250.254C59.8372 250.254 58.7243 249.873 57.8525 249.111C56.9893 248.341 56.5576 247.368 56.5576 246.191C56.5576 244.761 57.0993 243.652 58.1826 242.865C59.2744 242.07 60.8063 241.672 62.7783 241.672H65.0635V240.593C65.0635 239.772 64.818 239.12 64.3271 238.638C63.8363 238.147 63.1126 237.901 62.1562 237.901C61.3184 237.901 60.6159 238.113 60.0488 238.536C59.4818 238.959 59.1982 239.471 59.1982 240.072H56.8369C56.8369 239.387 57.0781 238.727 57.5605 238.092C58.0514 237.449 58.7116 236.941 59.541 236.568C60.3789 236.196 61.2972 236.01 62.2959 236.01C63.8786 236.01 65.1185 236.408 66.0156 237.203C66.9128 237.99 67.3783 239.078 67.4121 240.466V246.788C67.4121 248.049 67.5729 249.052 67.8945 249.797V250H65.4316ZM61.5342 248.21C62.2705 248.21 62.9688 248.02 63.6289 247.639C64.2891 247.258 64.7673 246.763 65.0635 246.153V243.335H63.2227C60.3451 243.335 58.9062 244.177 58.9062 245.861C58.9062 246.598 59.1517 247.173 59.6426 247.588C60.1335 248.003 60.764 248.21 61.5342 248.21ZM77.7334 238.371C77.3779 238.312 76.9928 238.282 76.5781 238.282C75.0378 238.282 73.9925 238.938 73.4424 240.25V250H71.0938V236.264H73.3789L73.417 237.851C74.1872 236.623 75.279 236.01 76.6924 236.01C77.1494 236.01 77.4964 236.069 77.7334 236.188V238.371ZM92.0537 250.254C90.1917 250.254 88.6768 249.645 87.5088 248.426C86.3408 247.199 85.7568 245.561 85.7568 243.513V243.081C85.7568 241.718 86.015 240.504 86.5312 239.438C87.056 238.363 87.7839 237.525 88.7148 236.924C89.6543 236.314 90.6699 236.01 91.7617 236.01C93.5475 236.01 94.9355 236.598 95.9258 237.774C96.916 238.951 97.4111 240.635 97.4111 242.827V243.805H88.1055C88.1393 245.159 88.5329 246.255 89.2861 247.093C90.0479 247.922 91.0127 248.337 92.1807 248.337C93.0101 248.337 93.7126 248.168 94.2881 247.829C94.8636 247.491 95.3672 247.042 95.7988 246.483L97.2334 247.601C96.0824 249.369 94.3558 250.254 92.0537 250.254ZM91.7617 237.939C90.8138 237.939 90.0182 238.286 89.375 238.98C88.7318 239.666 88.334 240.631 88.1816 241.875H95.0625V241.697C94.9948 240.504 94.6732 239.581 94.0977 238.93C93.5221 238.27 92.7435 237.939 91.7617 237.939ZM102.362 236.264L102.438 237.99C103.488 236.67 104.859 236.01 106.552 236.01C109.455 236.01 110.919 237.647 110.944 240.923V250H108.596V240.91C108.587 239.92 108.359 239.188 107.91 238.714C107.47 238.24 106.78 238.003 105.841 238.003C105.079 238.003 104.41 238.206 103.835 238.612C103.259 239.019 102.811 239.552 102.489 240.212V250H100.141V236.264H102.362ZM123.157 236.264L123.233 237.99C124.283 236.67 125.654 236.01 127.347 236.01C130.25 236.01 131.714 237.647 131.739 240.923V250H129.391V240.91C129.382 239.92 129.154 239.188 128.705 238.714C128.265 238.24 127.575 238.003 126.636 238.003C125.874 238.003 125.205 238.206 124.63 238.612C124.054 239.019 123.606 239.552 123.284 240.212V250H120.936V236.264H123.157ZM143.762 248.642C142.848 249.716 141.506 250.254 139.737 250.254C138.273 250.254 137.156 249.831 136.386 248.984C135.624 248.13 135.239 246.868 135.23 245.201V236.264H137.579V245.138C137.579 247.22 138.425 248.261 140.118 248.261C141.912 248.261 143.106 247.592 143.698 246.255V236.264H146.047V250H143.812L143.762 248.642ZM155.327 250.254C153.465 250.254 151.95 249.645 150.782 248.426C149.614 247.199 149.03 245.561 149.03 243.513V243.081C149.03 241.718 149.288 240.504 149.805 239.438C150.329 238.363 151.057 237.525 151.988 236.924C152.928 236.314 153.943 236.01 155.035 236.01C156.821 236.01 158.209 236.598 159.199 237.774C160.189 238.951 160.685 240.635 160.685 242.827V243.805H151.379C151.413 245.159 151.806 246.255 152.56 247.093C153.321 247.922 154.286 248.337 155.454 248.337C156.284 248.337 156.986 248.168 157.562 247.829C158.137 247.491 158.641 247.042 159.072 246.483L160.507 247.601C159.356 249.369 157.629 250.254 155.327 250.254ZM155.035 237.939C154.087 237.939 153.292 238.286 152.648 238.98C152.005 239.666 151.607 240.631 151.455 241.875H158.336V241.697C158.268 240.504 157.947 239.581 157.371 238.93C156.796 238.27 156.017 237.939 155.035 237.939ZM171.412 246.356C171.412 245.722 171.171 245.231 170.688 244.884C170.215 244.528 169.381 244.224 168.188 243.97C167.003 243.716 166.059 243.411 165.356 243.056C164.662 242.7 164.146 242.277 163.808 241.786C163.478 241.295 163.312 240.711 163.312 240.034C163.312 238.909 163.786 237.956 164.734 237.178C165.691 236.399 166.91 236.01 168.391 236.01C169.948 236.01 171.209 236.412 172.174 237.216C173.147 238.02 173.634 239.048 173.634 240.301H171.272C171.272 239.658 170.997 239.103 170.447 238.638C169.906 238.172 169.22 237.939 168.391 237.939C167.536 237.939 166.867 238.126 166.385 238.498C165.902 238.87 165.661 239.357 165.661 239.958C165.661 240.525 165.885 240.952 166.334 241.24C166.783 241.528 167.591 241.803 168.759 242.065C169.935 242.328 170.887 242.641 171.615 243.005C172.343 243.369 172.881 243.809 173.228 244.325C173.583 244.833 173.761 245.455 173.761 246.191C173.761 247.419 173.27 248.405 172.288 249.149C171.306 249.886 170.033 250.254 168.467 250.254C167.367 250.254 166.393 250.059 165.547 249.67C164.701 249.281 164.036 248.739 163.554 248.045C163.08 247.342 162.843 246.585 162.843 245.772H165.191C165.234 246.56 165.547 247.186 166.131 247.651C166.723 248.108 167.502 248.337 168.467 248.337C169.355 248.337 170.066 248.159 170.6 247.804C171.141 247.44 171.412 246.957 171.412 246.356ZM180.007 232.938V236.264H182.571V238.079H180.007V246.598C180.007 247.148 180.121 247.562 180.35 247.842C180.578 248.113 180.967 248.248 181.518 248.248C181.788 248.248 182.161 248.197 182.635 248.096V250C182.017 250.169 181.416 250.254 180.832 250.254C179.783 250.254 178.991 249.937 178.458 249.302C177.925 248.667 177.658 247.766 177.658 246.598V238.079H175.157V236.264H177.658V232.938H180.007ZM191.966 238.371C191.61 238.312 191.225 238.282 190.811 238.282C189.27 238.282 188.225 238.938 187.675 240.25V250H185.326V236.264H187.611L187.649 237.851C188.42 236.623 189.511 236.01 190.925 236.01C191.382 236.01 191.729 236.069 191.966 236.188V238.371ZM202.109 250C201.974 249.729 201.864 249.247 201.779 248.553C200.688 249.687 199.384 250.254 197.869 250.254C196.515 250.254 195.402 249.873 194.53 249.111C193.667 248.341 193.235 247.368 193.235 246.191C193.235 244.761 193.777 243.652 194.86 242.865C195.952 242.07 197.484 241.672 199.456 241.672H201.741V240.593C201.741 239.772 201.496 239.12 201.005 238.638C200.514 238.147 199.79 237.901 198.834 237.901C197.996 237.901 197.294 238.113 196.727 238.536C196.16 238.959 195.876 239.471 195.876 240.072H193.515C193.515 239.387 193.756 238.727 194.238 238.092C194.729 237.449 195.389 236.941 196.219 236.568C197.057 236.196 197.975 236.01 198.974 236.01C200.556 236.01 201.796 236.408 202.693 237.203C203.59 237.99 204.056 239.078 204.09 240.466V246.788C204.09 248.049 204.251 249.052 204.572 249.797V250H202.109ZM198.212 248.21C198.948 248.21 199.646 248.02 200.307 247.639C200.967 247.258 201.445 246.763 201.741 246.153V243.335H199.9C197.023 243.335 195.584 244.177 195.584 245.861C195.584 246.598 195.829 247.173 196.32 247.588C196.811 248.003 197.442 248.21 198.212 248.21ZM219.921 250.254C218.059 250.254 216.544 249.645 215.376 248.426C214.208 247.199 213.624 245.561 213.624 243.513V243.081C213.624 241.718 213.882 240.504 214.398 239.438C214.923 238.363 215.651 237.525 216.582 236.924C217.521 236.314 218.537 236.01 219.629 236.01C221.415 236.01 222.803 236.598 223.793 237.774C224.783 238.951 225.278 240.635 225.278 242.827V243.805H215.973C216.007 245.159 216.4 246.255 217.153 247.093C217.915 247.922 218.88 248.337 220.048 248.337C220.877 248.337 221.58 248.168 222.155 247.829C222.731 247.491 223.234 247.042 223.666 246.483L225.101 247.601C223.95 249.369 222.223 250.254 219.921 250.254ZM219.629 237.939C218.681 237.939 217.885 238.286 217.242 238.98C216.599 239.666 216.201 240.631 216.049 241.875H222.93V241.697C222.862 240.504 222.54 239.581 221.965 238.93C221.389 238.27 220.611 237.939 219.629 237.939ZM220.771 230.5H223.615L220.213 234.232H218.321L220.771 230.5ZM239.611 243.284C239.611 245.375 239.133 247.059 238.177 248.337C237.22 249.615 235.925 250.254 234.292 250.254C232.625 250.254 231.313 249.725 230.356 248.667V255.281H228.008V236.264H230.153L230.268 237.787C231.224 236.602 232.553 236.01 234.254 236.01C235.904 236.01 237.208 236.632 238.164 237.876C239.129 239.12 239.611 240.851 239.611 243.068V243.284ZM237.263 243.018C237.263 241.469 236.933 240.246 236.272 239.349C235.612 238.451 234.707 238.003 233.556 238.003C232.134 238.003 231.067 238.633 230.356 239.895V246.458C231.059 247.711 232.134 248.337 233.581 248.337C234.707 248.337 235.6 247.893 236.26 247.004C236.928 246.107 237.263 244.778 237.263 243.018ZM241.985 243.005C241.985 241.659 242.248 240.449 242.772 239.374C243.306 238.299 244.042 237.47 244.981 236.886C245.929 236.302 247.008 236.01 248.219 236.01C250.089 236.01 251.6 236.657 252.751 237.952C253.91 239.247 254.49 240.969 254.49 243.119V243.284C254.49 244.621 254.232 245.823 253.716 246.89C253.208 247.948 252.476 248.773 251.52 249.365C250.572 249.958 249.48 250.254 248.244 250.254C246.382 250.254 244.871 249.606 243.712 248.312C242.561 247.017 241.985 245.303 241.985 243.17V243.005ZM244.347 243.284C244.347 244.808 244.698 246.031 245.4 246.953C246.111 247.876 247.059 248.337 248.244 248.337C249.438 248.337 250.385 247.871 251.088 246.94C251.79 246.001 252.142 244.689 252.142 243.005C252.142 241.498 251.782 240.28 251.062 239.349C250.352 238.409 249.404 237.939 248.219 237.939C247.059 237.939 246.124 238.401 245.413 239.323C244.702 240.246 244.347 241.566 244.347 243.284ZM262.945 248.337C263.783 248.337 264.515 248.083 265.142 247.575C265.768 247.067 266.115 246.433 266.183 245.671H268.404C268.362 246.458 268.091 247.207 267.592 247.918C267.092 248.629 266.424 249.196 265.586 249.619C264.757 250.042 263.876 250.254 262.945 250.254C261.075 250.254 259.585 249.632 258.477 248.388C257.376 247.135 256.826 245.425 256.826 243.259V242.865C256.826 241.528 257.072 240.339 257.562 239.298C258.053 238.257 258.756 237.449 259.67 236.873C260.592 236.298 261.68 236.01 262.933 236.01C264.473 236.01 265.751 236.471 266.767 237.394C267.791 238.316 268.337 239.514 268.404 240.986H266.183C266.115 240.098 265.776 239.37 265.167 238.803C264.566 238.227 263.821 237.939 262.933 237.939C261.739 237.939 260.812 238.371 260.152 239.234C259.501 240.089 259.175 241.329 259.175 242.954V243.398C259.175 244.981 259.501 246.2 260.152 247.055C260.804 247.91 261.735 248.337 262.945 248.337ZM279.525 250C279.39 249.729 279.28 249.247 279.195 248.553C278.104 249.687 276.8 250.254 275.285 250.254C273.931 250.254 272.818 249.873 271.946 249.111C271.083 248.341 270.651 247.368 270.651 246.191C270.651 244.761 271.193 243.652 272.276 242.865C273.368 242.07 274.9 241.672 276.872 241.672H279.157V240.593C279.157 239.772 278.912 239.12 278.421 238.638C277.93 238.147 277.206 237.901 276.25 237.901C275.412 237.901 274.71 238.113 274.143 238.536C273.576 238.959 273.292 239.471 273.292 240.072H270.931C270.931 239.387 271.172 238.727 271.654 238.092C272.145 237.449 272.805 236.941 273.635 236.568C274.473 236.196 275.391 236.01 276.39 236.01C277.972 236.01 279.212 236.408 280.109 237.203C281.007 237.99 281.472 239.078 281.506 240.466V246.788C281.506 248.049 281.667 249.052 281.988 249.797V250H279.525ZM275.628 248.21C276.364 248.21 277.062 248.02 277.723 247.639C278.383 247.258 278.861 246.763 279.157 246.153V243.335H277.316C274.439 243.335 273 244.177 273 245.861C273 246.598 273.245 247.173 273.736 247.588C274.227 248.003 274.858 248.21 275.628 248.21ZM285.238 248.769C285.238 248.362 285.357 248.024 285.594 247.753C285.839 247.482 286.203 247.347 286.686 247.347C287.168 247.347 287.532 247.482 287.777 247.753C288.031 248.024 288.158 248.362 288.158 248.769C288.158 249.158 288.031 249.484 287.777 249.746C287.532 250.008 287.168 250.14 286.686 250.14C286.203 250.14 285.839 250.008 285.594 249.746C285.357 249.484 285.238 249.158 285.238 248.769Z" fill="#E9ECFC"/>
<path d="M84.5762 252.539H290.253V253.809H84.5762V252.539Z" fill="#E9ECFC"/>
</svg>
