<svg width="59" height="63" viewBox="0 0 59 63" fill="none" xmlns="http://www.w3.org/2000/svg">
<path d="M21.0703 52.082C20.1589 52.6471 19.1289 52.9297 17.9805 52.9297C16.832 52.9297 15.8477 52.638 15.0273 52.0547C14.0977 52.638 13.2409 52.9297 12.457 52.9297C11.6732 52.9297 11.026 52.8568 10.5156 52.7109C10.0052 52.5833 9.56771 52.401 9.20312 52.1641C8.40104 51.6901 8 51.0977 8 50.3867C8 50.0221 8.10026 49.7031 8.30078 49.4297C8.70182 49.7396 9.21224 49.8945 9.83203 49.8945C11.4544 49.8945 12.5755 49.2018 13.1953 47.8164V34.4453C13.1953 33.0234 12.4844 31.9479 11.0625 31.2188L9.85938 30.5898C11.4818 29.8424 12.5026 29.0312 12.9219 28.1562C13.1042 27.7552 13.1953 27.263 13.1953 26.6797V15.1406C12.5755 13.737 11.4544 13.0352 9.83203 13.0352C9.21224 13.0352 8.70182 13.1901 8.30078 13.5C8.10026 13.2266 8 12.9167 8 12.5703C8 12.2057 8.10026 11.8685 8.30078 11.5586C8.51953 11.2487 8.82031 10.9844 9.20312 10.7656C10.0234 10.2552 10.9622 10 12.0195 10C13.0951 10 14.0977 10.2917 15.0273 10.875C15.8477 10.2917 16.832 10 17.9805 10C19.1471 10 20.1771 10.2917 21.0703 10.875C21.9271 10.2917 22.8841 10 23.9414 10C25.4909 10 26.5938 10.5195 27.25 11.5586C27.4688 11.8867 27.5781 12.2331 27.5781 12.5977C27.5781 12.9622 27.4688 13.263 27.25 13.5C26.849 13.1901 26.3477 13.0352 25.7461 13.0352C24.3424 13.0352 23.4036 13.7188 22.9297 15.0859V29.5234H35.8633V15.0859C35.3893 13.7188 34.4505 13.0352 33.0469 13.0352C32.4453 13.0352 31.944 13.1901 31.543 13.5C31.3242 13.263 31.2148 12.9622 31.2148 12.5977C31.2148 12.2331 31.3151 11.8867 31.5156 11.5586C31.7344 11.2305 32.0078 10.9479 32.3359 10.7109C33.0286 10.237 33.8672 10 34.8516 10C35.9089 10 36.8659 10.2917 37.7227 10.875C38.6523 10.2917 39.6823 10 40.8125 10C41.9609 10 42.9453 10.2917 43.7656 10.875C44.6589 10.2917 45.5065 10 46.3086 10C47.1107 10 47.7669 10.0729 48.2773 10.2188C48.7878 10.3464 49.2344 10.5286 49.6172 10.7656C50.401 11.2396 50.793 11.832 50.793 12.543C50.793 12.9076 50.6927 13.2266 50.4922 13.5C50.0911 13.1901 49.5807 13.0352 48.9609 13.0352C47.3385 13.0352 46.2174 13.737 45.5977 15.1406V26.6797C45.5977 28.1016 46.2995 29.2044 47.7031 29.9883C48.1042 30.207 48.5143 30.4076 48.9336 30.5898C47.8398 31.1185 47.1016 31.5469 46.7188 31.875C45.9714 32.5677 45.5977 33.4245 45.5977 34.4453V47.8164C46.2174 49.2018 47.3385 49.8945 48.9609 49.8945C49.5807 49.8945 50.0911 49.7396 50.4922 49.4297C50.6927 49.7031 50.793 50.0221 50.793 50.3867C50.793 50.7331 50.6836 51.0612 50.4648 51.3711C50.2643 51.681 49.9818 51.9453 49.6172 52.1641C48.7786 52.6745 47.8125 52.9297 46.7188 52.9297C45.6432 52.9297 44.6589 52.638 43.7656 52.0547C42.9453 52.638 41.9609 52.9297 40.8125 52.9297C39.6823 52.9297 38.6523 52.638 37.7227 52.0547C36.8659 52.638 35.9089 52.9297 34.8516 52.9297C33.3021 52.9297 32.1901 52.4102 31.5156 51.3711C31.3151 51.043 31.2148 50.6966 31.2148 50.332C31.2148 49.9674 31.3242 49.6667 31.543 49.4297C31.944 49.7396 32.4453 49.8945 33.0469 49.8945C34.4505 49.8945 35.3893 49.2109 35.8633 47.8438V33.4336H22.9297V47.8438C23.4036 49.2109 24.3424 49.8945 25.7461 49.8945C26.3477 49.8945 26.849 49.7396 27.25 49.4297C27.4688 49.6667 27.5781 49.9674 27.5781 50.332C27.5781 50.6966 27.4688 51.043 27.25 51.3711C27.0495 51.6992 26.776 51.9818 26.4297 52.2188C25.7734 52.6927 24.944 52.9297 23.9414 52.9297C22.9023 52.9297 21.9453 52.6471 21.0703 52.082ZM38.1328 24.7383C38.1146 26.6888 38.1055 29.9245 38.1055 34.4453C38.1055 38.9661 38.1693 41.6276 38.2969 42.4297C38.5339 43.9609 39.0078 44.8633 39.7188 45.1367V41.582C39.7188 36.7331 39.7552 33.9987 39.8281 33.3789C39.901 32.7409 39.974 32.2943 40.0469 32.0391C40.2109 31.401 40.7669 30.918 41.7148 30.5898C40.8763 30.3346 40.3203 29.8151 40.0469 29.0312C39.8281 28.1562 39.7188 24.5469 39.7188 18.2031C39.0078 18.5312 38.5703 19.1875 38.4062 20.1719C38.2422 21.2474 38.151 22.7695 38.1328 24.7383ZM15.8203 45.1367C16.6953 44.7904 17.1875 43.5964 17.2969 41.5547C17.388 39.513 17.4336 36.6875 17.4336 33.0781C17.4336 29.4688 17.4245 27.0716 17.4062 25.8867C17.4062 24.6836 17.3971 23.7174 17.3789 22.9883C17.3242 20.8555 17.1237 19.5612 16.7773 19.1055C16.4492 18.6497 16.1302 18.349 15.8203 18.2031C15.8203 24.5469 15.7109 28.1562 15.4922 29.0312C15.237 29.7604 14.6172 30.2799 13.6328 30.5898C14.7266 30.9727 15.3464 31.4375 15.4922 31.9844C15.7109 32.8594 15.8203 36.0586 15.8203 41.582V45.1367Z" fill="black"/>
<rect x="1" y="1" width="57" height="61" stroke="black" stroke-width="2"/>
</svg>
