<svg width="46" height="58" viewBox="0 0 46 58" fill="none" xmlns="http://www.w3.org/2000/svg">
<g clip-path="url(#clip0)">
<path d="M35.0486 37.0634L35.0636 37.0934L35.0826 37.1212L38.0049 41.4114C38.0053 41.4121 38.0057 41.4127 38.0062 41.4134C38.4082 42.0179 38.4426 42.7451 38.1135 43.3093C37.7612 43.9133 37.1107 44.306 36.4293 44.306H35.4336H34.9336V44.806V48.7269C34.9336 50.1311 33.7882 51.2765 32.384 51.2765H29.4589H28.9589V51.7765V55.8841C28.9589 56.3721 28.7652 56.7892 28.4489 57.0603C28.0956 57.3632 27.7109 57.5001 27.3428 57.5001H27.3425H27.3421H27.3417H27.3414H27.341H27.3406H27.3403H27.3399H27.3396H27.3392H27.3388H27.3385H27.3381H27.3377H27.3374H27.337H27.3366H27.3363H27.3359H27.3355H27.3352H27.3348H27.3344H27.3341H27.3337H27.3334H27.333H27.3326H27.3323H27.3319H27.3315H27.3312H27.3308H27.3304H27.3301H27.3297H27.3293H27.329H27.3286H27.3282H27.3279H27.3275H27.3272H27.3268H27.3264H27.3261H27.3257H27.3253H27.325H27.3246H27.3242H27.3239H27.3235H27.3231H27.3228H27.3224H27.322H27.3217H27.3213H27.321H27.3206H27.3202H27.3199H27.3195H27.3191H27.3188H27.3184H27.318H27.3177H27.3173H27.3169H27.3166H27.3162H27.3158H27.3155H27.3151H27.3148H27.3144H27.314H27.3137H27.3133H27.3129H27.3126H27.3122H27.3118H27.3115H27.3111H27.3107H27.3104H27.31H27.3097H27.3093H27.3089H27.3086H27.3082H27.3078H27.3075H27.3071H27.3067H27.3064H27.306H27.3056H27.3053H27.3049H27.3045H27.3042H27.3038H27.3034H27.3031H27.3027H27.3024H27.302H27.3016H27.3013H27.3009H27.3005H27.3002H27.2998H27.2994H27.2991H27.2987H27.2983H27.298H27.2976H27.2973H27.2969H27.2965H27.2962H27.2958H27.2954H27.2951H27.2947H27.2943H27.294H27.2936H27.2932H27.2929H27.2925H27.2921H27.2918H27.2914H27.2911H27.2907H27.2903H27.29H27.2896H27.2892H27.2889H27.2885H27.2881H27.2878H27.2874H27.287H27.2867H27.2863H27.2859H27.2856H27.2852H27.2849H27.2845H27.2841H27.2838H27.2834H27.283H27.2827H27.2823H27.2819H27.2816H27.2812H27.2808H27.2805H27.2801H27.2797H27.2794H27.279H27.2787H27.2783H27.2779H27.2776H27.2772H27.2768H27.2765H27.2761H27.2757H27.2754H27.275H27.2746H27.2743H27.2739H27.2735H27.2732H27.2728H27.2725H27.2721H27.2717H27.2714H27.271H27.2706H27.2703H27.2699H27.2695H27.2692H27.2688H27.2684H27.2681H27.2677H27.2673H27.267H27.2666H27.2663H27.2659H27.2655H27.2652H27.2648H27.2644H27.2641H27.2637H27.2633H27.263H27.2626H27.2622H27.2619H27.2615H27.2612H27.2608H27.2604H27.2601H27.2597H27.2593H27.259H27.2586H27.2582H27.2579H27.2575H27.2571H27.2568H27.2564H27.256H27.2557H27.2553H27.2549H27.2546H27.2542H27.2539H27.2535H27.2531H27.2528H27.2524H27.252H27.2517H27.2513H27.2509H27.2506H27.2502H27.2498H27.2495H27.2491H27.2488H27.2484H27.248H27.2477H27.2473H27.2469H27.2466H27.2462H27.2458H27.2455H27.2451H27.2447H27.2444H27.244H27.2436H27.2433H27.2429H27.2426H27.2422H27.2418H27.2415H27.2411H27.2407H27.2404H27.24H27.2396H27.2393H27.2389H27.2385H27.2382H27.2378H27.2374H27.2371H27.2367H27.2364H27.236H27.2356H27.2353H27.2349H27.2345H27.2342H27.2338H27.2334H27.2331H27.2327H27.2323H27.232H27.2316H27.2312H27.2309H27.2305H27.2302H27.2298H27.2294H27.2291H27.2287H27.2283H27.228H27.2276H27.2272H27.2269H27.2265H27.2261H27.2258H27.2254H27.225H27.2247H27.2243H27.224H27.2236H27.2232H27.2229H27.2225H27.2221H27.2218H27.2214H27.221H27.2207H27.2203H27.2199H27.2196H27.2192H27.2188H27.2185H27.2181H27.2178H27.2174H27.217H27.2167H27.2163H27.2159H27.2156H27.2152H27.2148H27.2145H27.2141H27.2137H27.2134H27.213H27.2126H27.2123H27.2119H27.2116H27.2112H27.2108H27.2105H27.2101H27.2097H27.2094H27.209H27.2086H27.2083H27.2079H27.2075H27.2072H27.2068H27.2064H27.2061H27.2057H27.2054H27.205H27.2046H27.2043H27.2039H27.2035H27.2032H27.2028H27.2024H27.2021H27.2017H27.2013H27.201H27.2006H27.2003H27.1999H27.1995H27.1992H27.1988H27.1984H27.1981H27.1977H27.1973H27.197H27.1966H27.1962H27.1959H27.1955H27.1951H27.1948H27.1944H27.1941H27.1937H27.1933H27.193H27.1926H27.1922H27.1919H27.1915H27.1911H27.1908H27.1904H27.19H27.1897H27.1893H27.1889H27.1886H27.1882H27.1879H27.1875H27.1871H27.1868H27.1864H27.186H27.1857H27.1853H27.1849H27.1846H27.1842H27.1838H27.1835H27.1831H27.1827H27.1824H27.182H27.1817H27.1813H27.1809H27.1806H27.1802H27.1798H27.1795H27.1791H27.1787H27.1784H27.178L17.3044 56.6307L17.2964 56.63L17.2883 56.6296C16.4378 56.5823 15.8312 55.9347 15.8312 55.075V48.4779C15.8312 48.2124 15.7057 47.9233 15.4341 47.7562C12.4513 45.1725 10.6656 41.3417 10.6656 37.4621C10.6656 34.1237 12.0657 31.0411 14.2882 28.846C14.3252 28.942 14.3605 29.0397 14.3956 29.1423V30.4897C12.7733 32.3678 11.8439 34.7953 11.8439 37.4621C11.8439 40.97 13.5263 44.5906 16.2458 46.9241C16.7688 47.3967 17.0095 47.9484 17.0095 48.5402V55.1995V55.66L17.4685 55.6978L27.3018 56.5068L27.8502 56.552L27.8428 56.0018L27.7806 51.4C27.7822 50.7935 28.2549 50.2849 28.8987 50.2849H32.384C33.1807 50.2849 33.7553 49.6021 33.7553 48.9136V44.2459C33.7553 43.7129 34.216 43.2522 34.749 43.2522H36.4293C36.6236 43.2522 36.7629 43.1582 36.8227 43.1133C36.8834 43.0677 36.9373 43.0137 36.9642 42.9867L36.9696 42.9813L36.616 42.6277L36.9696 42.9813C37.0552 42.8957 37.1627 42.7449 37.1627 42.5344C37.1627 42.3597 37.0887 42.2261 37.0145 42.1368L34.1181 37.6997C33.9181 37.3445 33.8086 36.9235 33.7514 36.5283C33.4984 34.2026 32.6328 32.1063 31.2036 30.4294V29.2037C31.2438 29.0836 31.2832 28.9671 31.3241 28.8531C33.2974 30.7896 34.5913 33.4537 34.8716 36.4302C34.8774 36.7217 34.9801 36.9266 35.0431 37.0525L35.0486 37.0634Z" fill="#00EDD3" stroke="#00EDD3"/>
<path d="M17.6361 28.749V28.631L17.5833 28.5254L17.5368 28.4324C16.9543 26.7002 15.9941 24.9816 14.6679 23.2764L14.6679 23.2764L14.6624 23.2695C13.1787 21.4297 12.4082 19.2379 12.4082 16.8619C12.4082 13.9456 13.5371 11.278 15.612 9.32168C17.6912 7.36124 20.4223 6.35137 23.2759 6.47008C28.6164 6.70779 32.9511 11.041 33.1912 16.381C33.2496 18.8823 32.475 21.3171 30.9332 23.274L30.9331 23.2739L30.9259 23.2834C29.6079 25.0408 28.6462 26.6968 28.0623 28.4324L28.0158 28.5254L27.9631 28.631V28.749V33.1056C27.9631 33.4575 27.7375 33.6996 27.4743 33.7289L27.0627 33.7746L27.031 34.1875C26.8643 36.3545 25.0275 38.0824 22.7996 38.0824C20.5717 38.0824 18.7348 36.3545 18.5681 34.1875L18.5405 33.8282L18.1909 33.7408C17.8656 33.6594 17.6361 33.3885 17.6361 33.1056V28.749ZM20.3723 33.7258H19.7872L19.8785 34.3038C20.1035 35.7293 21.3088 36.7796 22.7996 36.7796C24.2948 36.7796 25.4836 35.7286 25.7783 34.3288L25.9052 33.7258H25.289H20.3723ZM26.2226 32.4853H26.7226V31.9853V29.1847V28.6847H26.2226H19.3766H18.8766V29.1847V31.9853V32.4853H19.3766H26.2226ZM16.4846 10.2719L16.4846 10.2718L16.4781 10.2781C14.6969 11.9933 13.7143 14.3614 13.6489 16.8487L13.6487 16.8487V16.8619C13.6487 18.9748 14.3768 20.8839 15.6177 22.5168L15.6251 22.5265L15.6329 22.5358C16.909 24.0549 17.812 25.5636 18.412 27.1237L18.5353 27.4442H18.8787H26.7204H27.0638L27.1871 27.1237C27.7874 25.5629 28.6918 24.0514 29.9107 22.5276C31.2988 20.8086 31.9535 18.6355 31.8879 16.4733L31.888 16.4733L31.8877 16.4674C31.6901 11.7899 27.8738 7.97282 23.1967 7.77385C20.6886 7.64257 18.3191 8.56847 16.4846 10.2719Z" fill="#00EDD3" stroke="#00EDD3"/>
<path d="M23.4198 2.29852C23.4198 2.64474 23.1458 2.91878 22.7996 2.91878C22.4876 2.91878 22.1793 2.61805 22.1793 2.23629V0.120253C22.1793 -0.225968 22.4534 -0.5 22.7996 -0.5C23.1458 -0.5 23.4198 -0.225968 23.4198 0.120253V2.29852Z" fill="#00EDD3" stroke="#00EDD3"/>
<path d="M14.9693 4.56438L14.9635 4.55278L14.9571 4.54148L13.8991 2.6744L13.8938 2.66503L13.8881 2.6559C13.7345 2.41007 13.823 1.97963 14.1426 1.80207C14.4674 1.62162 14.8449 1.73077 15.0186 2.04347L15.0186 2.04348L15.0207 2.04715L16.0775 3.91219C16.2498 4.22422 16.1553 4.58438 15.8702 4.76577C15.6983 4.82217 15.6011 4.84812 15.5179 4.84812C15.2736 4.84812 15.0474 4.7205 14.9693 4.56438Z" fill="#00EDD3" stroke="#00EDD3"/>
<path d="M9.82058 10.0977L9.80855 10.0897L9.79609 10.0823L7.99834 9.0285C7.73944 8.86271 7.60855 8.4702 7.75077 8.12356C7.9282 7.8269 8.29427 7.72539 8.61139 7.89876L10.4106 8.95348L10.4106 8.9536L10.4207 8.95921C10.7278 9.12984 10.8386 9.49702 10.6714 9.81782C10.5129 10.0447 10.2988 10.1382 10.1034 10.1382C9.90678 10.1382 9.86655 10.1283 9.82058 10.0977Z" fill="#00EDD3" stroke="#00EDD3"/>
<path d="M8.23629 16.2416C8.58251 16.2416 8.85654 16.5156 8.85654 16.8618C8.85654 17.2081 8.58251 17.4821 8.23629 17.4821H6.12025C5.77403 17.4821 5.5 17.2081 5.5 16.8618C5.5 16.5156 5.77403 16.2416 6.12025 16.2416H8.23629Z" fill="#00EDD3" stroke="#00EDD3"/>
<path d="M10.7243 23.8262L10.7306 23.8374L10.7374 23.8484C10.8846 24.0839 10.8116 24.5062 10.4399 24.6921L10.425 24.6995L10.4106 24.7079L8.65136 25.7392C8.47912 25.7958 8.38184 25.8218 8.29852 25.8218C8.05422 25.8218 7.82801 25.6941 7.74995 25.538L7.74509 25.5283L7.73982 25.5188C7.55936 25.194 7.66852 24.8165 7.98121 24.6428L7.98122 24.6428L7.9849 24.6407L9.84992 23.5839C10.1744 23.4047 10.5509 23.514 10.7243 23.8262Z" fill="#00EDD3" stroke="#00EDD3"/>
<path d="M35.1263 24.7079L35.1264 24.7078L35.1163 24.7022C34.7966 24.5246 34.7081 24.0942 34.8618 23.8484L34.8686 23.8374L34.8749 23.8262C35.0478 23.5149 35.4226 23.4053 35.7465 23.5824L37.5457 24.6371L37.5456 24.6372L37.5557 24.6428C37.8628 24.8134 37.9736 25.1806 37.8065 25.5014C37.648 25.7283 37.4338 25.8218 37.2384 25.8218C37.0418 25.8218 37.0016 25.8119 36.9556 25.7813L36.9436 25.7732L36.9311 25.7659L35.1263 24.7079Z" fill="#00EDD3" stroke="#00EDD3"/>
<path d="M37.3629 16.1794H39.4789C39.8251 16.1794 40.0992 16.4535 40.0992 16.7997C40.0992 17.1459 39.8251 17.42 39.4789 17.42H37.3629C37.0166 17.42 36.7426 17.1459 36.7426 16.7997C36.7426 16.4535 37.0166 16.1794 37.3629 16.1794Z" fill="#00EDD3" stroke="#00EDD3"/>
<path d="M37.5557 9.08085L37.5557 9.08074L37.5457 9.08658L35.7864 10.1179C35.6142 10.1744 35.5169 10.2004 35.4336 10.2004C35.2774 10.2004 35.0482 10.086 34.8564 9.86198C34.7026 9.54558 34.8149 9.1889 35.1163 9.02147L35.1163 9.02158L35.1263 9.01574L36.9255 7.96102C37.2493 7.78399 37.6242 7.89357 37.7971 8.20485C37.9776 8.52966 37.8684 8.90713 37.5557 9.08085Z" fill="#00EDD3" stroke="#00EDD3"/>
<path d="M29.7985 4.74538L29.7816 4.73416L29.7639 4.72433C29.432 4.53991 29.363 4.16701 29.5095 3.93274L29.5152 3.92361L29.5205 3.91424L30.5785 2.04715L30.5785 2.04716L30.5805 2.04347C30.7543 1.73077 31.1317 1.62162 31.4566 1.80207C31.7678 1.97501 31.8774 2.34985 31.7004 2.67367L30.6537 4.45912C30.4948 4.6907 30.2785 4.78588 30.0812 4.78588C29.8847 4.78588 29.8444 4.77603 29.7985 4.74538Z" fill="#00EDD3" stroke="#00EDD3"/>
<path d="M21.8587 19.0744L21.9761 18.4779H21.3681H19.4388C19.3192 18.4779 19.2422 18.4156 19.2092 18.3497C19.1927 18.3167 19.1872 18.2832 19.1911 18.2513C19.1948 18.2214 19.2086 18.1776 19.255 18.1246L19.2637 18.1147L19.2718 18.1043L24.0624 12.0072C24.1148 11.9422 24.162 11.9235 24.1948 11.9173C24.2332 11.9101 24.2823 11.9152 24.3341 11.9412C24.4393 11.9937 24.5049 12.1007 24.4855 12.2308L23.7404 16.0185L23.6231 16.615H24.231H26.1603C26.2704 16.615 26.331 16.6674 26.3607 16.731C26.392 16.798 26.3953 16.8952 26.3231 16.9939L21.5367 23.0857C21.4843 23.1506 21.4372 23.1694 21.4043 23.1755C21.3659 23.1827 21.3169 23.1776 21.265 23.1517C21.1599 23.0991 21.0942 22.9922 21.1136 22.862L21.8587 19.0744Z" fill="#00EDD3" stroke="#00EDD3"/>
</g>
<defs>
<clipPath id="clip0">
<rect width="46" height="58" fill="white"/>
</clipPath>
</defs>
</svg>
