<svg width="78" height="36" viewBox="0 0 78 36" fill="none" xmlns="http://www.w3.org/2000/svg">
<rect width="36" height="36" rx="18" fill="#1C18F0"/>
<path d="M20.9365 24L15.6807 14.8242L15.5752 14.2793V24H14.4414V11.3965H15.0303L20.2861 20.5811L20.4004 21.1172V11.3965H21.5342V24H20.9365ZM33.134 21.082C33.134 21.5098 33.052 21.9111 32.8879 22.2861C32.7297 22.6611 32.51 22.9893 32.2287 23.2705C31.9475 23.5518 31.6193 23.7744 31.2443 23.9385C30.8693 24.0967 30.468 24.1758 30.0402 24.1758H29.1438C28.716 24.1758 28.3117 24.0967 27.9309 23.9385C27.5559 23.7744 27.2277 23.5518 26.9465 23.2705C26.6652 22.9893 26.4426 22.6611 26.2785 22.2861C26.1203 21.9111 26.0412 21.5098 26.0412 21.082V11.3965H27.175V21.082C27.175 21.3633 27.2277 21.627 27.3332 21.873C27.4387 22.1133 27.5822 22.3271 27.7639 22.5146C27.9514 22.6963 28.1652 22.8398 28.4055 22.9453C28.6516 23.0508 28.9152 23.1035 29.1965 23.1035H29.9875C30.2688 23.1035 30.5295 23.0508 30.7697 22.9453C31.0158 22.8398 31.2297 22.6963 31.4113 22.5146C31.593 22.3271 31.7365 22.1133 31.842 21.873C31.9475 21.627 32.0002 21.3633 32.0002 21.082V11.3965H33.134V21.082ZM44.7338 20.9062C44.7338 21.334 44.6518 21.7354 44.4877 22.1104C44.3295 22.4854 44.1098 22.8135 43.8285 23.0947C43.5473 23.376 43.2162 23.5986 42.8354 23.7627C42.4604 23.9209 42.059 24 41.6313 24H37.641V11.3965H41.6313C42.059 11.3965 42.4604 11.4785 42.8354 11.6426C43.2162 11.8008 43.5473 12.0205 43.8285 12.3018C44.1098 12.583 44.3295 12.9141 44.4877 13.2949C44.6518 13.6699 44.7338 14.0713 44.7338 14.499V20.9062ZM43.6 14.499C43.6 14.2178 43.5473 13.957 43.4418 13.7168C43.3363 13.4707 43.1898 13.2568 43.0023 13.0752C42.8207 12.8877 42.6068 12.7412 42.3607 12.6357C42.1205 12.5303 41.8598 12.4775 41.5785 12.4775H38.7748V22.9189H41.5785C41.8598 22.9189 42.1205 22.8662 42.3607 22.7607C42.6068 22.6553 42.8207 22.5117 43.0023 22.3301C43.1898 22.1484 43.3363 21.9375 43.4418 21.6973C43.5473 21.4512 43.6 21.1875 43.6 20.9062V14.499ZM56.1402 21.082C56.1402 21.5098 56.0582 21.9111 55.8941 22.2861C55.7359 22.6611 55.5162 22.9893 55.235 23.2705C54.9537 23.5518 54.6256 23.7744 54.2506 23.9385C53.8756 24.0967 53.4742 24.1758 53.0465 24.1758H52.15C51.7223 24.1758 51.318 24.0967 50.9371 23.9385C50.5621 23.7744 50.234 23.5518 49.9527 23.2705C49.6715 22.9893 49.4488 22.6611 49.2848 22.2861C49.1266 21.9111 49.0475 21.5098 49.0475 21.082V14.3145C49.0475 13.8867 49.1266 13.4854 49.2848 13.1104C49.4488 12.7354 49.6715 12.4072 49.9527 12.126C50.234 11.8447 50.5621 11.625 50.9371 11.4668C51.318 11.3027 51.7223 11.2207 52.15 11.2207H53.0465C53.4742 11.2207 53.8756 11.3027 54.2506 11.4668C54.6256 11.625 54.9537 11.8447 55.235 12.126C55.5162 12.4072 55.7359 12.7354 55.8941 13.1104C56.0582 13.4854 56.1402 13.8867 56.1402 14.3145V21.082ZM55.0064 14.3145C55.0064 14.0332 54.9537 13.7725 54.8482 13.5322C54.7428 13.2861 54.5992 13.0723 54.4176 12.8906C54.2359 12.709 54.0221 12.5654 53.776 12.46C53.5357 12.3545 53.275 12.3018 52.9938 12.3018H52.2027C51.9215 12.3018 51.6578 12.3545 51.4117 12.46C51.1715 12.5654 50.9576 12.709 50.7701 12.8906C50.5885 13.0723 50.4449 13.2861 50.3395 13.5322C50.234 13.7725 50.1813 14.0332 50.1813 14.3145V21.082C50.1813 21.3633 50.234 21.627 50.3395 21.873C50.4449 22.1133 50.5885 22.3271 50.7701 22.5146C50.9576 22.6963 51.1715 22.8398 51.4117 22.9453C51.6578 23.0508 51.9215 23.1035 52.2027 23.1035H52.9938C53.275 23.1035 53.5357 23.0508 53.776 22.9453C54.0221 22.8398 54.2359 22.6963 54.4176 22.5146C54.5992 22.3271 54.7428 22.1133 54.8482 21.873C54.9537 21.627 55.0064 21.3633 55.0064 21.082V14.3145ZM67.5555 21.082C67.5555 21.5098 67.4676 21.9111 67.2918 22.2861C67.1219 22.6611 66.8904 22.9893 66.5975 23.2705C66.3104 23.5518 65.9734 23.7744 65.5867 23.9385C65.2059 24.0967 64.8016 24.1758 64.3738 24.1758H63.4686C63.0408 24.1758 62.6336 24.0967 62.2469 23.9385C61.866 23.7744 61.5291 23.5518 61.2361 23.2705C60.949 22.9893 60.7176 22.6611 60.5418 22.2861C60.3719 21.9111 60.2869 21.5098 60.2869 21.082V20.5811L61.4207 20.3965V21.082C61.4207 21.3633 61.4764 21.627 61.5877 21.873C61.7049 22.1133 61.8602 22.3271 62.0535 22.5146C62.2469 22.6963 62.4695 22.8398 62.7215 22.9453C62.9793 23.0508 63.2488 23.1035 63.5301 23.1035H64.3211C64.6023 23.1035 64.8689 23.0508 65.1209 22.9453C65.3729 22.8398 65.5955 22.6963 65.7889 22.5146C65.9822 22.3271 66.1346 22.1133 66.2459 21.873C66.3631 21.627 66.4217 21.3633 66.4217 21.082V20.7041C66.4217 20.2705 66.3367 19.9102 66.1668 19.623C65.9969 19.3359 65.7713 19.0928 65.49 18.8936C65.2088 18.6885 64.8895 18.5156 64.532 18.375C64.1805 18.2344 63.8172 18.0938 63.4422 17.9531C63.0672 17.8125 62.701 17.6572 62.3436 17.4873C61.992 17.3174 61.6756 17.1064 61.3943 16.8545C61.1131 16.5967 60.8875 16.2832 60.7176 15.9141C60.5477 15.5449 60.4627 15.0908 60.4627 14.5518V14.3145C60.4627 13.8867 60.5418 13.4854 60.7 13.1104C60.8641 12.7354 61.0867 12.4072 61.368 12.126C61.6492 11.8447 61.9773 11.625 62.3523 11.4668C62.7332 11.3027 63.1375 11.2207 63.5652 11.2207H64.3738C64.8016 11.2207 65.2029 11.3027 65.5779 11.4668C65.9529 11.625 66.2811 11.8447 66.5623 12.126C66.8436 12.4072 67.0633 12.7354 67.2215 13.1104C67.3855 13.4854 67.4676 13.8867 67.4676 14.3145V14.6396L66.3338 14.8242V14.3145C66.3338 14.0332 66.2811 13.7725 66.1756 13.5322C66.0701 13.2861 65.9266 13.0723 65.7449 12.8906C65.5633 12.709 65.3494 12.5654 65.1033 12.46C64.8631 12.3545 64.6023 12.3018 64.3211 12.3018H63.618C63.3367 12.3018 63.073 12.3545 62.827 12.46C62.5867 12.5654 62.3729 12.709 62.1854 12.8906C62.0037 13.0723 61.8602 13.2861 61.7547 13.5322C61.6492 13.7725 61.5965 14.0332 61.5965 14.3145V14.5518C61.5965 14.9561 61.6814 15.2959 61.8514 15.5713C62.0213 15.8467 62.2469 16.084 62.5281 16.2832C62.8094 16.4766 63.1258 16.6465 63.4773 16.793C63.8348 16.9336 64.201 17.0801 64.576 17.2324C64.951 17.3789 65.3143 17.543 65.6658 17.7246C66.0232 17.9004 66.3426 18.1201 66.6238 18.3838C66.9051 18.6416 67.1307 18.958 67.3006 19.333C67.4705 19.708 67.5555 20.165 67.5555 20.7041V21.082Z" fill="#E9ECFC"/>
</svg>
