<svg width="78" height="36" viewBox="0 0 78 36" fill="none" xmlns="http://www.w3.org/2000/svg">
<rect width="36" height="36" rx="18" fill="#1C18F0"/>
<path d="M27.8472 24H24.9614L20.3032 15.8994H20.2373C20.3301 17.3301 20.3765 18.3506 20.3765 18.9609V24H18.3477V13.292H21.2114L25.8623 21.312H25.9136C25.8403 19.9204 25.8037 18.9365 25.8037 18.3604V13.292H27.8472V24ZM40.7656 13.292V20.2207C40.7656 21.0117 40.5874 21.7051 40.231 22.3008C39.8794 22.8965 39.3691 23.353 38.7002 23.6704C38.0312 23.9878 37.2402 24.1465 36.3271 24.1465C34.9502 24.1465 33.8809 23.7949 33.1191 23.0918C32.3574 22.3838 31.9766 21.417 31.9766 20.1914V13.292H34.2397V19.8472C34.2397 20.6724 34.4058 21.2778 34.7378 21.6636C35.0698 22.0493 35.6191 22.2422 36.3857 22.2422C37.1279 22.2422 37.665 22.0493 37.9971 21.6636C38.334 21.2729 38.5024 20.6626 38.5024 19.8325V13.292H40.7656ZM53.772 18.5435C53.772 20.3062 53.269 21.6562 52.2632 22.5938C51.2622 23.5312 49.8145 24 47.9199 24H44.8877V13.292H48.2495C49.9976 13.292 51.355 13.7534 52.3218 14.6763C53.2886 15.5991 53.772 16.8882 53.772 18.5435ZM51.4136 18.6021C51.4136 16.3022 50.3979 15.1523 48.3667 15.1523H47.1582V22.125H48.1323C50.3198 22.125 51.4136 20.9507 51.4136 18.6021ZM67.2104 18.6313C67.2104 20.4038 66.771 21.7661 65.8921 22.7183C65.0132 23.6704 63.7534 24.1465 62.1128 24.1465C60.4722 24.1465 59.2124 23.6704 58.3335 22.7183C57.4546 21.7661 57.0151 20.3989 57.0151 18.6167C57.0151 16.8345 57.4546 15.4746 58.3335 14.5371C59.2173 13.5947 60.4819 13.1235 62.1274 13.1235C63.7729 13.1235 65.0303 13.5972 65.8994 14.5444C66.7734 15.4917 67.2104 16.854 67.2104 18.6313ZM59.3955 18.6313C59.3955 19.8276 59.6226 20.7285 60.0767 21.334C60.5308 21.9395 61.2095 22.2422 62.1128 22.2422C63.9243 22.2422 64.8301 21.0386 64.8301 18.6313C64.8301 16.2192 63.9292 15.0132 62.1274 15.0132C61.2241 15.0132 60.543 15.3184 60.084 15.9287C59.625 16.5342 59.3955 17.4351 59.3955 18.6313ZM77.2505 21.0264C77.2505 21.9932 76.9014 22.7549 76.2031 23.3115C75.5098 23.8682 74.543 24.1465 73.3027 24.1465C72.1602 24.1465 71.1494 23.9316 70.2705 23.502V21.3926C70.9932 21.7148 71.6035 21.9419 72.1016 22.0737C72.6045 22.2056 73.0635 22.2715 73.4785 22.2715C73.9766 22.2715 74.3574 22.1763 74.6211 21.9858C74.8896 21.7954 75.0239 21.5122 75.0239 21.1362C75.0239 20.9263 74.9653 20.7407 74.8481 20.5796C74.731 20.4136 74.5576 20.2549 74.3281 20.1035C74.1035 19.9521 73.6421 19.7104 72.9438 19.3784C72.2896 19.0708 71.7988 18.7754 71.4717 18.4922C71.1445 18.209 70.8833 17.8794 70.688 17.5034C70.4927 17.1274 70.395 16.688 70.395 16.1851C70.395 15.2378 70.7148 14.4932 71.3545 13.9512C71.999 13.4092 72.8877 13.1382 74.0205 13.1382C74.5771 13.1382 75.1069 13.2041 75.6099 13.3359C76.1177 13.4678 76.6475 13.6533 77.1992 13.8926L76.4668 15.6577C75.8955 15.4233 75.4219 15.2598 75.0459 15.167C74.6748 15.0742 74.3086 15.0278 73.9473 15.0278C73.5176 15.0278 73.188 15.1279 72.9585 15.3281C72.729 15.5283 72.6143 15.7896 72.6143 16.1118C72.6143 16.312 72.6606 16.4878 72.7534 16.6392C72.8462 16.7856 72.9927 16.9297 73.1929 17.0713C73.3979 17.208 73.8789 17.457 74.6357 17.8184C75.6367 18.2969 76.3228 18.7778 76.6938 19.2612C77.0649 19.7397 77.2505 20.3281 77.2505 21.0264Z" fill="#E9ECFC"/>
</svg>
