<svg width="46" height="58" viewBox="0 0 46 58" fill="none" xmlns="http://www.w3.org/2000/svg">
<g clip-path="url(#clip0)">
<path d="M32.6386 0.00454394C31.8543 0.0633817 31.1392 0.675409 30.9446 1.45443L30.5901 2.90431L29.1719 3.26681C28.3482 3.4632 27.7103 4.285 27.7103 5.14964C27.7103 6.01428 28.3482 6.83606 29.1719 7.03247L30.5901 7.39493L30.9446 8.84481C31.1513 9.66867 31.9445 10.2979 32.7765 10.2979C33.6084 10.2979 34.4017 9.66867 34.6083 8.84481L34.9629 7.39493L36.3811 7.03247C37.2047 6.83606 37.8427 6.01428 37.8427 5.14964C37.8427 4.285 37.2047 3.4632 36.3811 3.26681L34.9629 2.90431L34.6083 1.45443C34.391 0.584304 33.5147 -0.0607061 32.6386 0.00454394ZM20.1701 11.6036C9.1046 11.6036 0 20.447 0 31.5798C0 36.7074 1.78891 41.5682 4.98344 45.1926L3.17128 55.7244C2.9756 56.837 3.93687 58.0059 5.04253 58H35.2977C36.4034 58.0064 37.3647 56.837 37.169 55.7244L35.3568 45.1926C38.5514 41.5682 40.3403 36.7074 40.3403 31.5798C40.3403 20.447 31.2357 11.6036 20.1701 11.6036ZM42.0539 14.1812C41.4158 14.243 40.8216 14.6611 40.5373 15.2485L40.1827 15.9533L39.4933 16.3157C38.8766 16.6378 38.4624 17.3296 38.4624 18.0375C38.4624 18.7455 38.8766 19.4372 39.4933 19.7592L40.1827 20.1016L40.5373 20.8466C40.8484 21.4875 41.5314 21.9205 42.2312 21.9205C42.931 21.9205 43.6141 21.4875 43.9252 20.8466L44.2798 20.1016L44.9692 19.7592C45.5858 19.4372 46 18.7455 46 18.0375C46 17.3296 45.5858 16.6378 44.9692 16.3157L44.2798 15.9533L43.9252 15.2485C43.5883 14.5527 42.81 14.1088 42.0539 14.1812ZM20.1701 15.47C29.2845 15.47 36.5584 22.5921 36.5584 31.5798C36.5584 36.1101 34.8303 40.2513 31.9295 43.1789H8.41079C5.51001 40.2513 3.7819 36.1101 3.7819 31.5798C3.7819 22.5921 11.0557 15.47 20.1701 15.47ZM13.0988 18.0274C12.742 18.0626 12.396 18.2042 12.1139 18.4302C11.3099 19.043 10.7243 19.7972 10.5775 19.9606C9.90712 20.7092 9.96343 22.014 10.6957 22.6993C11.4279 23.3847 12.7042 23.3271 13.3745 22.5785C13.6875 22.23 14.2243 21.6343 14.3594 21.5313C15.0322 21.0446 15.3264 20.0765 15.0419 19.2857C14.7574 18.495 13.9197 17.9525 13.0988 18.0274ZM8.90322 22.5181C8.17047 22.4934 7.44322 22.9477 7.13046 23.6256C6.08672 25.8093 5.12485 27.9658 5.04253 30.875C4.93287 34.7495 6.01691 37.9405 7.85926 40.9639C8.31927 41.938 9.66496 42.3362 10.5629 41.7639C11.4608 41.1916 11.7034 39.781 11.0502 38.93C9.46896 36.3351 8.73554 34.1163 8.82443 30.9757C8.88522 28.8273 9.49979 27.4684 10.5184 25.3373C10.8095 24.7609 10.7905 24.0329 10.4699 23.4732C10.1492 22.9135 9.53731 22.5404 8.90322 22.5181ZM8.52897 47.0453H31.8113L31.9295 47.6897C25.0085 47.6897 18.0551 47.6897 11.1487 47.6897C10.1585 47.7425 9.30436 48.7113 9.35594 49.7236C9.40751 50.7359 10.3555 51.609 11.3457 51.5561H32.5795L33.0325 54.1336H7.30774L8.52897 47.0453Z" fill="#00EDD3"/>
</g>
<defs>
<clipPath id="clip0">
<rect width="46" height="58" fill="white"/>
</clipPath>
</defs>
</svg>
