<svg width="438" height="218" viewBox="0 0 438 218" fill="none" xmlns="http://www.w3.org/2000/svg">
<path d="M11.0043 108.655L12.8756 107.507L11.1259 106.181C6.99512 103.05 2.37262 97.4226 1.6098 90.7398C0.865702 84.221 3.74864 76.1922 15.6432 68.0193C27.7096 59.7283 37.9049 55.8131 45.8593 54.783C53.8269 53.7511 59.4042 55.6189 62.5297 58.687L65.8156 61.9125L65.0601 57.3704C64.1211 51.7248 65.4981 44.6416 71.5734 37.6497C77.6728 30.63 88.5572 23.6555 106.682 18.4664C143.026 8.06116 171.182 11.5706 180.522 14.5261L181.91 14.9655L182.391 13.5906C182.963 11.9507 185.367 8.91846 191.164 6.27583C196.904 3.65872 205.827 1.5 219.089 1.5C232.356 1.5 241.01 3.66013 246.415 6.26249C251.873 8.89061 253.855 11.8752 254.219 13.4361L254.625 15.1814L256.272 14.4742C261.16 12.3746 269.189 10.4809 277.27 11.6338C285.275 12.7761 293.332 16.898 298.564 26.8855L299.131 27.9676L300.306 27.6314C303.874 26.6097 309.825 26.1044 315.876 27.982C321.871 29.8423 328.006 34.0493 332.082 42.5514L332.689 43.8177L333.992 43.2952C341.429 40.3143 353.756 37.5558 366.423 39.0065C379.045 40.4518 391.931 46.0577 400.782 59.7406L401.225 60.426H402.041C407.91 60.426 416.096 62.2673 421.745 67.6106C427.27 72.8368 430.671 81.7076 426.515 96.4946L426.275 97.3492L426.908 97.9709C432.084 103.052 437.232 111.473 436.414 120.333C435.611 129.026 428.977 138.819 409.119 146.572L408.401 146.853L408.21 147.599C406.498 154.323 401.701 163.892 392.934 170.611C384.235 177.278 371.502 181.24 353.628 176.635L352.655 176.384L352.053 177.189C343.312 188.867 313.203 208.944 263.779 192.379L262.572 191.974L261.977 193.099C260.834 195.258 258.418 198.029 254.97 199.301C251.62 200.537 247.044 200.451 241.283 196.493L240.258 195.789L239.376 196.666C234.712 201.305 226.021 207.308 215.246 210.092C204.517 212.864 191.738 212.446 178.72 204.314L178.015 203.873L177.267 204.238C166.216 209.631 148.355 215.709 130.754 216.429C113.154 217.149 96.1483 212.52 86.1891 196.922L85.6849 196.132L84.7542 196.239C77.2271 197.101 66.8233 196.804 59.7374 193.368C56.2379 191.671 53.6819 189.277 52.5545 185.997C51.4222 182.703 51.6286 178.22 54.283 172.14L55.9044 168.427L52.2557 170.189C48.3587 172.072 41.5476 174.24 33.9472 174.526C26.3599 174.812 18.1064 173.221 11.1478 167.743C4.2796 162.335 2.94768 156.24 3.921 150.787C4.91852 145.197 8.37448 140.157 11.2817 137.244L12.5132 136.01L11.1092 134.976C7.68596 132.456 3.73599 128.143 2.60808 123.398C2.05613 121.076 2.17723 118.653 3.36421 116.218C4.56145 113.761 6.90305 111.171 11.0043 108.655Z" fill="#FFFDF4" stroke="black" stroke-width="3"/>
<path d="M62.0034 57.6763C64.1353 60.8258 65.344 63.7649 65.344 67.368C65.344 70.7359 64.3713 72.7089 62.1518 75.4817C59.3078 79.0348 51.0006 80.6873 46.8034 78.1916C42.8504 75.8411 40.2891 72.4511 40.2891 68.2288C40.2891 64.8612 41.8766 61.9186 45.894 60.8962C49.1307 60.0725 52.3361 61.553 53.8187 63.8452C55.1335 65.8778 54.3237 67.5426 51.8143 68.0216C50.8507 68.2055 49.615 68.6376 48.715 67.9419C48.0959 67.4633 47.9278 65.9972 48.9748 65.9972" stroke="black" stroke-width="2" stroke-linecap="round" stroke-linejoin="round"/>
<path d="M255.803 12.6768C253.282 15.4608 250.008 17.6811 247.421 20.3967C245.887 22.0074 244.812 23.9209 243.961 25.8564C243.449 27.0204 242.877 29.0915 243.423 30.3108C244.008 31.6179 244.456 32.7499 245.969 33.4809C247.572 34.2555 249.991 34.1873 251.497 33.2534C253.228 32.1794 254.111 30.7417 254.111 28.9238C254.111 28.562 253.962 27.9239 253.342 28.1606C253.1 28.2533 251.903 28.8036 252.573 28.6596" stroke="black" stroke-width="2" stroke-linecap="round" stroke-linejoin="round"/>
<path d="M427.235 97.1229C425.161 97.1229 423.062 97.0203 421.046 97.3351C419.162 97.6294 417.269 98.408 415.482 98.9766C413.728 99.5345 412.174 100.385 410.619 101.243C409.04 102.115 408.209 103.34 407.239 104.649C405.958 106.379 404.769 108.938 404.769 110.992C404.769 113.886 405.775 115.676 408.162 117.726C410.879 120.06 416.547 119.839 418.94 117.223C420.764 115.23 423.038 112.384 421.436 109.786C420.958 109.01 419.744 108.178 418.68 108.178C417.948 108.178 417.239 107.977 416.47 107.977C415.618 107.977 415.709 108.42 415.183 108.781C413.398 110.007 414.066 112.801 416.47 112.801" stroke="black" stroke-width="2" stroke-linecap="round" stroke-linejoin="round"/>
<path d="M409.725 101.854C406.956 101.854 404.004 101.882 401.44 100.813C399.807 100.131 398.516 99.2351 397.096 98.2864C395.466 97.1979 394.653 95.2282 393.762 93.6971C392.804 92.0517 392.146 90.789 392.146 88.9245C392.146 87.3234 392.159 86.2361 392.943 84.7787C393.619 83.5206 394.85 82.3252 396.03 81.4138C396.902 80.7395 398.136 80.3681 399.117 79.9001C400.212 79.3772 401.224 79.4662 402.451 79.4662C405.178 79.4662 407.332 81.2826 407.917 83.5446C408.174 84.5349 408.31 85.3556 408.31 86.4081C408.31 87.2603 407.489 88.9241 406.604 89.3584C405.525 89.888 404.792 90.5217 403.562 90.7564C402.384 90.9813 400.429 91.17 399.779 90.0526C399.396 89.3954 398.372 87.7528 399.319 87.1023C399.773 86.7902 399.817 86.2345 400.531 86.2345C401.103 86.2345 401.676 86.2345 402.248 86.2345" stroke="black" stroke-width="2" stroke-linecap="round" stroke-linejoin="round"/>
<path d="M175.793 206.552C176.85 205.923 177.614 205.034 178.643 204.395C179.239 204.026 179.753 203.617 180.272 203.171C181.284 202.302 182.277 201.242 182.918 200.14C183.605 198.961 183.999 197.853 184.479 196.617C184.806 195.776 184.811 194.022 184.585 193.146C183.553 189.159 177.094 185.525 173.817 189.947C172.68 191.482 171.993 192.69 171.993 194.545C171.993 195.783 172.402 196.942 173.757 197.524C174.81 197.976 176.24 198.524 177.422 198.016C177.963 197.784 178.342 197.458 178.613 196.993C178.759 196.742 178.973 195.852 178.643 195.711" stroke="black" stroke-width="2" stroke-linecap="round" stroke-linejoin="round"/>
</svg>
