<svg width="225" height="60" viewBox="0 0 225 60" fill="none" xmlns="http://www.w3.org/2000/svg">
<mask id="path-1-inside-1" fill="white">
<path fill-rule="evenodd" clip-rule="evenodd" d="M205 0C216.046 0 225 8.9543 225 20V23C225 34.0457 216.046 43 205 43H71.8984C68.7305 52.8624 59.4826 60 48.5676 60C37.6527 60 28.4048 52.8624 25.2369 43H20C8.9543 43 0 34.0457 0 23V20C0 8.95431 8.9543 0 20 0H205ZM49.1113 43H71.024C68.7139 46.6083 64.67 49 60.0676 49C55.4652 49 51.4214 46.6083 49.1113 43Z"/>
</mask>
<path fill-rule="evenodd" clip-rule="evenodd" d="M205 0C216.046 0 225 8.9543 225 20V23C225 34.0457 216.046 43 205 43H71.8984C68.7305 52.8624 59.4826 60 48.5676 60C37.6527 60 28.4048 52.8624 25.2369 43H20C8.9543 43 0 34.0457 0 23V20C0 8.95431 8.9543 0 20 0H205ZM49.1113 43H71.024C68.7139 46.6083 64.67 49 60.0676 49C55.4652 49 51.4214 46.6083 49.1113 43Z" fill="#FEFBF1"/>
<path d="M71.8984 43L69.0421 42.0825C69.4407 40.8416 70.595 40 71.8984 40V43ZM25.2369 43V40C26.5403 40 27.6946 40.8416 28.0932 42.0825L25.2369 43ZM49.1113 43L46.5847 44.6176C45.9935 43.6942 45.9532 42.5218 46.4795 41.56C47.0057 40.5981 48.0148 40 49.1113 40V43ZM71.024 43V40C72.1204 40 73.1295 40.5981 73.6558 41.56C74.1821 42.5218 74.1417 43.6942 73.5505 44.6176L71.024 43ZM222 20C222 10.6112 214.389 3 205 3V-3C217.703 -3 228 7.29745 228 20H222ZM222 23V20H228V23H222ZM205 40C214.389 40 222 32.3888 222 23H228C228 35.7025 217.703 46 205 46V40ZM71.8984 40H205V46H71.8984V40ZM48.5676 57C58.1415 57 66.2611 50.7402 69.0421 42.0825L74.7546 43.9175C71.1998 54.9845 60.8237 63 48.5676 63V57ZM28.0932 42.0825C30.8741 50.7402 38.9938 57 48.5676 57V63C36.3116 63 25.9355 54.9845 22.3806 43.9175L28.0932 42.0825ZM20 40H25.2369V46H20V40ZM3 23C3 32.3888 10.6112 40 20 40V46C7.29745 46 -3 35.7026 -3 23H3ZM3 20V23H-3V20H3ZM20 3C10.6112 3 3 10.6112 3 20H-3C-3 7.29745 7.29745 -3 20 -3V3ZM205 3H20V-3H205V3ZM49.1113 40H71.024V46H49.1113V40ZM73.5505 44.6176C70.7122 49.0508 65.7353 52 60.0676 52V46C63.6048 46 66.7155 44.1658 68.4974 41.3824L73.5505 44.6176ZM60.0676 52C54.3999 52 49.423 49.0508 46.5847 44.6176L51.6378 41.3824C53.4198 44.1658 56.5305 46 60.0676 46V52Z" fill="#202532" mask="url(#path-1-inside-1)"/>
</svg>
