<svg width="256" height="144" viewBox="0 0 256 144" fill="none" xmlns="http://www.w3.org/2000/svg">
<mask id="path-1-inside-1" fill="white">
<path fill-rule="evenodd" clip-rule="evenodd" d="M236 144C247.046 144 256 135.046 256 124V20C256 8.9543 247.046 0 236 0H57C46.2145 0 37.4231 8.53735 37.0148 19.2229C33.3429 21.1308 27.1077 22.8088 21.2727 12.7777C14.1818 0.587631 4.13637 -0.667221 0 0.229111C4.43182 1.72295 14.0045 8.29593 16.8409 22.6372C19.4002 35.5776 30.3308 36.8416 37 35.6481V124C37 135.046 45.9543 144 57 144H236Z"/>
</mask>
<path fill-rule="evenodd" clip-rule="evenodd" d="M236 144C247.046 144 256 135.046 256 124V20C256 8.9543 247.046 0 236 0H57C46.2145 0 37.4231 8.53735 37.0148 19.2229C33.3429 21.1308 27.1077 22.8088 21.2727 12.7777C14.1818 0.587631 4.13637 -0.667221 0 0.229111C4.43182 1.72295 14.0045 8.29593 16.8409 22.6372C19.4002 35.5776 30.3308 36.8416 37 35.6481V124C37 135.046 45.9543 144 57 144H236Z" fill="#FEFBF1"/>
<path d="M37.0148 19.2229L38.398 21.885C39.355 21.3877 39.9715 20.4151 40.0126 19.3374L37.0148 19.2229ZM21.2727 12.7777L18.6795 14.2862L18.6795 14.2862L21.2727 12.7777ZM0 0.229111L-0.63534 -2.70284C-1.95424 -2.41704 -2.91998 -1.28578 -2.99532 0.0616271C-3.07066 1.40903 -2.23706 2.64091 -0.958239 3.07196L0 0.229111ZM16.8409 22.6372L19.7839 22.0551L19.7839 22.0551L16.8409 22.6372ZM37 35.6481H40C40 34.76 39.6065 33.9175 38.9254 33.3475C38.2444 32.7775 37.3457 32.5386 36.4715 32.695L37 35.6481ZM253 124C253 133.389 245.389 141 236 141V147C248.703 147 259 136.703 259 124H253ZM253 20V124H259V20H253ZM236 3C245.389 3 253 10.6112 253 20H259C259 7.29744 248.703 -3 236 -3V3ZM57 3H236V-3H57V3ZM40.0126 19.3374C40.3596 10.2568 47.833 3 57 3V-3C44.596 -3 34.4866 6.81791 34.017 19.1083L40.0126 19.3374ZM35.6316 16.5608C34.0396 17.388 32.3302 17.9229 30.5909 17.5456C28.9345 17.1863 26.5204 15.8326 23.8659 11.2693L18.6795 14.2862C21.8601 19.7539 25.481 22.5767 29.319 23.4093C33.074 24.2238 36.3181 22.9657 38.398 21.885L35.6316 16.5608ZM23.8659 11.2693C16.1208 -2.04552 4.77131 -3.87444 -0.63534 -2.70284L0.63534 3.16106C3.50143 2.53999 12.2429 3.22078 18.6795 14.2862L23.8659 11.2693ZM-0.958239 3.07196C2.53749 4.25026 11.2866 10.0159 13.8979 23.2193L19.7839 22.0551C16.7225 6.576 6.32616 -0.804372 0.958239 -2.61374L-0.958239 3.07196ZM13.8979 23.2193C15.3573 30.5982 19.3331 34.9679 24.1275 37.1692C28.7469 39.2902 33.8163 39.2655 37.5285 38.6012L36.4715 32.695C33.5145 33.2242 29.7841 33.1643 26.6311 31.7165C23.653 30.3491 20.8838 27.6166 19.7839 22.0551L13.8979 23.2193ZM40 124V35.6481H34V124H40ZM57 141C47.6112 141 40 133.389 40 124H34C34 136.703 44.2974 147 57 147V141ZM236 141H57V147H236V141Z" fill="#202532" mask="url(#path-1-inside-1)"/>
</svg>
