<svg width="438" height="212" viewBox="0 0 438 212" fill="none" xmlns="http://www.w3.org/2000/svg">
<mask id="path-1-inside-1" fill="white">
<path fill-rule="evenodd" clip-rule="evenodd" d="M418 96C429.046 96 438 87.0457 438 76V20C438 8.95431 429.046 0 418 0H52C41.0589 0 32.1697 8.78557 32.0024 19.6869C28.7719 21.2673 23.4936 22.4053 18.5454 14.003C12.3636 3.50603 3.60605 2.42545 0 3.19729C3.86365 4.48364 12.2091 10.1437 14.6818 22.4931C16.8805 33.474 26.1662 34.6909 32 33.7405V76C32 87.0457 40.9543 96 52 96H385V103H174C162.954 103 154 111.954 154 123V192C154 203.046 162.954 212 174 212H418C429.046 212 438 203.046 438 192V123C438 111.954 429.046 103 418 103H408V96H418Z"/>
</mask>
<path fill-rule="evenodd" clip-rule="evenodd" d="M418 96C429.046 96 438 87.0457 438 76V20C438 8.95431 429.046 0 418 0H52C41.0589 0 32.1697 8.78557 32.0024 19.6869C28.7719 21.2673 23.4936 22.4053 18.5454 14.003C12.3636 3.50603 3.60605 2.42545 0 3.19729C3.86365 4.48364 12.2091 10.1437 14.6818 22.4931C16.8805 33.474 26.1662 34.6909 32 33.7405V76C32 87.0457 40.9543 96 52 96H385V103H174C162.954 103 154 111.954 154 123V192C154 203.046 162.954 212 174 212H418C429.046 212 438 203.046 438 192V123C438 111.954 429.046 103 418 103H408V96H418Z" fill="#FEFBF1"/>
<path d="M32.0024 19.6869L33.3208 22.3817L34.9738 21.573L35.0021 19.7329L32.0024 19.6869ZM18.5454 14.003L15.9604 15.5254L15.9604 15.5254L18.5454 14.003ZM0 3.19729L-0.627901 0.263734L-11.3896 2.56717L-0.94767 6.04368L0 3.19729ZM14.6818 22.4931L17.6234 21.9041L17.6234 21.9041L14.6818 22.4931ZM32 33.7405H35V30.2123L31.5176 30.7796L32 33.7405ZM385 96H388V93H385V96ZM385 103V106H388V103H385ZM408 103H405V106H408V103ZM408 96V93H405V96H408ZM435 76C435 85.3888 427.389 93 418 93V99C430.703 99 441 88.7026 441 76H435ZM435 20V76H441V20H435ZM418 3C427.389 3 435 10.6112 435 20H441C441 7.29745 430.703 -3 418 -3V3ZM52 3H418V-3H52V3ZM35.0021 19.7329C35.1443 10.4678 42.7003 3 52 3V-3C39.4174 -3 29.1952 7.10335 29.0028 19.6408L35.0021 19.7329ZM15.9604 15.5254C18.6948 20.1684 21.8309 22.6838 25.2106 23.5039C28.5321 24.3098 31.424 23.3096 33.3208 22.3817L30.6841 16.9921C29.3503 17.6446 27.9878 18.0036 26.6254 17.6731C25.3214 17.3566 23.3443 16.2399 21.1305 12.4807L15.9604 15.5254ZM0.627901 6.13084C2.98656 5.62599 10.4422 6.15522 15.9604 15.5254L21.1305 12.4807C14.2851 0.856834 4.22553 -0.7751 -0.627901 0.263734L0.627901 6.13084ZM17.6234 21.9041C14.9199 8.40233 5.73584 1.94506 0.94767 0.350901L-0.94767 6.04368C1.99146 7.02222 9.49821 11.8851 11.7402 23.0821L17.6234 21.9041ZM31.5176 30.7796C28.9717 31.1943 25.8533 31.0939 23.2505 29.8744C20.8152 28.7335 18.5419 26.4911 17.6234 21.9041L11.7402 23.0821C13.0205 29.476 16.4893 33.3326 20.705 35.3077C24.7531 37.2043 29.1945 37.2371 32.4824 36.7015L31.5176 30.7796ZM35 76V33.7405H29V76H35ZM52 93C42.6112 93 35 85.3888 35 76H29C29 88.7025 39.2975 99 52 99V93ZM385 93H52V99H385V93ZM388 103V96H382V103H388ZM385 100H174V106H385V100ZM174 100C161.297 100 151 110.297 151 123H157C157 113.611 164.611 106 174 106V100ZM151 123V192H157V123H151ZM151 192C151 204.703 161.297 215 174 215V209C164.611 209 157 201.389 157 192H151ZM174 215H418V209H174V215ZM418 215C430.703 215 441 204.703 441 192H435C435 201.389 427.389 209 418 209V215ZM441 192V123H435V192H441ZM441 123C441 110.297 430.703 100 418 100V106C427.389 106 435 113.611 435 123H441ZM418 100H408V106H418V100ZM405 96V103H411V96H405ZM418 93H408V99H418V93Z" fill="black" mask="url(#path-1-inside-1)"/>
</svg>
