<svg width="254" height="91" viewBox="0 0 254 91" fill="none" xmlns="http://www.w3.org/2000/svg">
<mask id="path-1-inside-1" fill="white">
<path fill-rule="evenodd" clip-rule="evenodd" d="M20 91C8.95431 91 0 82.0457 0 71V39C0 27.9543 8.95431 19 20 19H205.575C208.071 8.11731 217.815 0 229.455 0C242.369 0 252.949 9.99158 253.887 22.666C253.219 16.113 247.684 11 240.955 11C235.547 11 230.91 14.3021 228.951 19H234C245.046 19 254 27.9543 254 39V71C254 82.0457 245.046 91 234 91H20Z"/>
</mask>
<path fill-rule="evenodd" clip-rule="evenodd" d="M20 91C8.95431 91 0 82.0457 0 71V39C0 27.9543 8.95431 19 20 19H205.575C208.071 8.11731 217.815 0 229.455 0C242.369 0 252.949 9.99158 253.887 22.666C253.219 16.113 247.684 11 240.955 11C235.547 11 230.91 14.3021 228.951 19H234C245.046 19 254 27.9543 254 39V71C254 82.0457 245.046 91 234 91H20Z" fill="#FEFBF1"/>
<path d="M205.575 19L208.499 19.6707C208.186 21.0338 206.973 22 205.575 22V19ZM253.887 22.666L256.879 22.4446C257 24.0807 255.784 25.5107 254.15 25.6544C252.516 25.7982 251.069 24.6024 250.903 22.9702L253.887 22.666ZM228.951 19V22C227.948 22 227.011 21.4985 226.455 20.6637C225.898 19.8289 225.796 18.7713 226.182 17.8453L228.951 19ZM3 71C3 80.3888 10.6112 88 20 88V94C7.29745 94 -3 83.7025 -3 71H3ZM3 39V71H-3V39H3ZM20 22C10.6112 22 3 29.6112 3 39H-3C-3 26.2975 7.29746 16 20 16V22ZM205.575 22H20V16H205.575V22ZM202.651 18.3293C205.453 6.11366 216.386 -3 229.455 -3V3C219.244 3 210.689 10.121 208.499 19.6707L202.651 18.3293ZM229.455 -3C243.952 -3 255.826 8.21519 256.879 22.4446L250.895 22.8874C250.073 11.768 240.786 3 229.455 3V-3ZM250.903 22.9702C250.389 17.9326 246.129 14 240.955 14V8C249.239 8 256.049 14.2933 256.872 22.3617L250.903 22.9702ZM240.955 14C236.8 14 233.229 16.5351 231.72 20.1547L226.182 17.8453C228.591 12.0691 234.294 8 240.955 8V14ZM234 22H228.951V16H234V22ZM251 39C251 29.6112 243.389 22 234 22V16C246.703 16 257 26.2975 257 39H251ZM251 71V39H257V71H251ZM234 88C243.389 88 251 80.3888 251 71H257C257 83.7025 246.703 94 234 94V88ZM20 88H234V94H20V88Z" fill="#202532" mask="url(#path-1-inside-1)"/>
</svg>
