<svg width="247" height="183" viewBox="0 0 247 183" fill="none" xmlns="http://www.w3.org/2000/svg">
<mask id="path-1-inside-1" fill="white">
<path fill-rule="evenodd" clip-rule="evenodd" d="M211.927 24.3854C214.163 21.7058 217.533 19.5632 222.476 18.5682C238.013 15.4409 245.133 4.88636 246.752 0C247.723 4.56061 246.363 15.6364 233.157 23.4545C227.66 26.7093 225.409 30.0769 224.794 33.1345C226.822 36.2629 228 39.9939 228 44V163C228 174.046 219.046 183 208 183H20C8.95431 183 0 174.046 0 163V44C0 32.9543 8.95431 24 20 24H208C209.344 24 210.657 24.1326 211.927 24.3854Z"/>
</mask>
<path fill-rule="evenodd" clip-rule="evenodd" d="M211.927 24.3854C214.163 21.7058 217.533 19.5632 222.476 18.5682C238.013 15.4409 245.133 4.88636 246.752 0C247.723 4.56061 246.363 15.6364 233.157 23.4545C227.66 26.7093 225.409 30.0769 224.794 33.1345C226.822 36.2629 228 39.9939 228 44V163C228 174.046 219.046 183 208 183H20C8.95431 183 0 174.046 0 163V44C0 32.9543 8.95431 24 20 24H208C209.344 24 210.657 24.1326 211.927 24.3854Z" fill="#FEFBF1"/>
<path d="M222.476 18.5682L221.884 15.6272L221.884 15.6272L222.476 18.5682ZM211.927 24.3854L211.341 27.3277L213.089 27.6757L214.231 26.3072L211.927 24.3854ZM246.752 0L249.686 -0.624743L247.382 -11.4454L243.904 -0.943189L246.752 0ZM233.157 23.4545L234.686 26.0361L234.686 26.0361L233.157 23.4545ZM224.794 33.1345L221.853 32.5431L221.612 33.7411L222.277 34.7665L224.794 33.1345ZM221.884 15.6272C216.346 16.7419 212.343 19.2033 209.624 22.4636L214.231 26.3072C215.982 24.2083 218.72 22.3844 223.068 21.5092L221.884 15.6272ZM243.904 -0.943189C242.59 3.02368 236.262 12.7331 221.884 15.6272L223.068 21.5092C239.763 18.1487 247.677 6.74904 249.6 0.943189L243.904 -0.943189ZM234.686 26.0361C249.019 17.5503 250.921 5.17356 249.686 -0.624743L243.818 0.624743C244.525 3.94765 243.707 13.7224 231.629 20.873L234.686 26.0361ZM227.735 33.7258C228.13 31.7626 229.655 29.0146 234.686 26.0361L231.629 20.873C225.665 24.404 222.688 28.3913 221.853 32.5431L227.735 33.7258ZM231 44C231 39.3974 229.645 35.1022 227.311 31.5025L222.277 34.7665C223.999 37.4237 225 40.5904 225 44H231ZM231 163V44H225V163H231ZM208 186C220.703 186 231 175.703 231 163H225C225 172.389 217.389 180 208 180V186ZM20 186H208V180H20V186ZM-3 163C-3 175.703 7.29745 186 20 186V180C10.6112 180 3 172.389 3 163H-3ZM-3 44V163H3V44H-3ZM20 21C7.29746 21 -3 31.2974 -3 44H3C3 34.6112 10.6112 27 20 27V21ZM208 21H20V27H208V21ZM212.513 21.4432C211.051 21.1521 209.542 21 208 21V27C209.146 27 210.263 27.113 211.341 27.3277L212.513 21.4432Z" fill="black" mask="url(#path-1-inside-1)"/>
</svg>
