<svg width="209" height="215" viewBox="0 0 209 215" fill="none" xmlns="http://www.w3.org/2000/svg">
<mask id="path-1-inside-1" fill="white">
<path fill-rule="evenodd" clip-rule="evenodd" d="M189 0C200.046 0 209 8.95431 209 20V173C209 178.533 206.754 183.541 203.123 187.161C203.265 188.253 203.338 189.368 203.338 190.5C203.338 190.594 203.338 190.687 203.337 190.78C203.318 189.616 203.154 188.488 202.861 187.417C199.266 190.875 194.381 193 189 193H178.672C179.59 199.23 184.729 204 190.932 204C197.351 204 202.632 198.892 203.273 192.343C202.374 205.013 192.278 215 179.957 215C167.849 215 157.891 205.357 156.696 193H20C8.9543 193 0 184.046 0 173V20C0 8.95431 8.9543 0 20 0H189Z"/>
</mask>
<path fill-rule="evenodd" clip-rule="evenodd" d="M189 0C200.046 0 209 8.95431 209 20V173C209 178.533 206.754 183.541 203.123 187.161C203.265 188.253 203.338 189.368 203.338 190.5C203.338 190.594 203.338 190.687 203.337 190.78C203.318 189.616 203.154 188.488 202.861 187.417C199.266 190.875 194.381 193 189 193H178.672C179.59 199.23 184.729 204 190.932 204C197.351 204 202.632 198.892 203.273 192.343C202.374 205.013 192.278 215 179.957 215C167.849 215 157.891 205.357 156.696 193H20C8.9543 193 0 184.046 0 173V20C0 8.95431 8.9543 0 20 0H189Z" fill="#FEFBF1"/>
<path d="M203.123 187.161L200.148 187.548C200.028 186.624 200.344 185.696 201.004 185.037L203.123 187.161ZM203.337 190.78L206.337 190.812C206.319 192.454 204.986 193.776 203.344 193.78C201.703 193.785 200.363 192.469 200.337 190.828L203.337 190.78ZM202.861 187.417L200.782 185.255C201.545 184.521 202.639 184.244 203.659 184.526C204.68 184.807 205.477 185.606 205.755 186.627L202.861 187.417ZM178.672 193L175.704 193.437C175.577 192.575 175.831 191.699 176.401 191.039C176.971 190.379 177.8 190 178.672 190V193ZM203.273 192.343L200.287 192.05C200.447 190.417 201.89 189.215 203.526 189.353C205.161 189.492 206.382 190.918 206.266 192.555L203.273 192.343ZM156.696 193V190C158.241 190 159.533 191.173 159.682 192.711L156.696 193ZM206 20C206 10.6112 198.389 3 189 3V-3C201.703 -3 212 7.29746 212 20H206ZM206 173V20H212V173H206ZM201.004 185.037C204.094 181.956 206 177.704 206 173H212C212 179.362 209.413 185.125 205.241 189.285L201.004 185.037ZM206.098 186.774C206.257 187.994 206.338 189.238 206.338 190.5H200.338C200.338 189.497 200.273 188.512 200.148 187.548L206.098 186.774ZM206.338 190.5C206.338 190.604 206.338 190.708 206.337 190.812L200.337 190.748C200.338 190.666 200.338 190.583 200.338 190.5H206.338ZM200.337 190.828C200.323 189.916 200.194 189.038 199.967 188.208L205.755 186.627C206.114 187.939 206.314 189.316 206.336 190.733L200.337 190.828ZM189 190C193.575 190 197.723 188.196 200.782 185.255L204.941 189.58C200.81 193.553 195.187 196 189 196V190ZM178.672 190H189V196H178.672V190ZM181.64 192.563C182.359 197.448 186.343 201 190.932 201V207C183.116 207 176.82 201.012 175.704 193.437L181.64 192.563ZM190.932 201C195.68 201 199.784 197.193 200.287 192.05L206.259 192.635C205.48 200.59 199.022 207 190.932 207V201ZM206.266 192.555C205.264 206.664 193.981 218 179.957 218V212C190.576 212 199.484 203.362 200.281 192.13L206.266 192.555ZM179.957 218C166.177 218 155.041 207.053 153.71 193.289L159.682 192.711C160.741 203.66 169.522 212 179.957 212V218ZM20 190H156.696V196H20V190ZM3 173C3 182.389 10.6112 190 20 190V196C7.29744 196 -3 185.703 -3 173H3ZM3 20V173H-3V20H3ZM20 3C10.6112 3 3 10.6112 3 20H-3C-3 7.29745 7.29745 -3 20 -3V3ZM189 3H20V-3H189V3Z" fill="#202532" mask="url(#path-1-inside-1)"/>
</svg>
