<svg width="219" height="121" viewBox="0 0 219 121" fill="none" xmlns="http://www.w3.org/2000/svg">
<mask id="path-1-inside-1" fill="white">
<path fill-rule="evenodd" clip-rule="evenodd" d="M199 0C210.046 0 219 8.95431 219 20V84C219 95.0457 210.046 104 199 104H71.8984C68.7305 113.862 59.4826 121 48.5676 121C37.6527 121 28.4048 113.862 25.2369 104H20C8.9543 104 0 95.0457 0 84V20C0 8.95431 8.9543 0 20 0H199ZM49.1113 104H71.024C68.7139 107.608 64.67 110 60.0676 110C55.4652 110 51.4214 107.608 49.1113 104Z"/>
</mask>
<path fill-rule="evenodd" clip-rule="evenodd" d="M199 0C210.046 0 219 8.95431 219 20V84C219 95.0457 210.046 104 199 104H71.8984C68.7305 113.862 59.4826 121 48.5676 121C37.6527 121 28.4048 113.862 25.2369 104H20C8.9543 104 0 95.0457 0 84V20C0 8.95431 8.9543 0 20 0H199ZM49.1113 104H71.024C68.7139 107.608 64.67 110 60.0676 110C55.4652 110 51.4214 107.608 49.1113 104Z" fill="#FEFBF1"/>
<path d="M71.8984 104L69.0421 103.083C69.4407 101.842 70.595 101 71.8984 101V104ZM25.2369 104V101C26.5403 101 27.6946 101.842 28.0932 103.083L25.2369 104ZM49.1113 104L46.5847 105.618C45.9935 104.694 45.9532 103.522 46.4795 102.56C47.0057 101.598 48.0148 101 49.1113 101V104ZM71.024 104V101C72.1204 101 73.1295 101.598 73.6558 102.56C74.1821 103.522 74.1417 104.694 73.5505 105.618L71.024 104ZM216 20C216 10.6112 208.389 3 199 3V-3C211.703 -3 222 7.29745 222 20H216ZM216 84V20H222V84H216ZM199 101C208.389 101 216 93.3888 216 84H222C222 96.7025 211.703 107 199 107V101ZM71.8984 101H199V107H71.8984V101ZM48.5676 118C58.1415 118 66.2611 111.74 69.0421 103.083L74.7546 104.917C71.1998 115.984 60.8237 124 48.5676 124V118ZM28.0932 103.083C30.8741 111.74 38.9938 118 48.5676 118V124C36.3116 124 25.9355 115.984 22.3806 104.917L28.0932 103.083ZM20 101H25.2369V107H20V101ZM3 84C3 93.3888 10.6112 101 20 101V107C7.29744 107 -3 96.7025 -3 84H3ZM3 20V84H-3V20H3ZM20 3C10.6112 3 3 10.6112 3 20H-3C-3 7.29745 7.29745 -3 20 -3V3ZM199 3H20V-3H199V3ZM49.1113 101H71.024V107H49.1113V101ZM73.5505 105.618C70.7122 110.051 65.7353 113 60.0676 113V107C63.6048 107 66.7155 105.166 68.4974 102.382L73.5505 105.618ZM60.0676 113C54.3999 113 49.423 110.051 46.5847 105.618L51.6378 102.382C53.4198 105.166 56.5305 107 60.0676 107V113Z" fill="#202532" mask="url(#path-1-inside-1)"/>
</svg>
