<svg width="284" height="96" viewBox="0 0 284 96" fill="none" xmlns="http://www.w3.org/2000/svg">
<mask id="path-1-inside-1" fill="white">
<path fill-rule="evenodd" clip-rule="evenodd" d="M264 0C275.046 0 284 8.95431 284 20V52C284 63.0457 275.046 72 264 72H178.526C178.526 79.1797 184.08 85 190.932 85C197.351 85 202.632 79.8916 203.273 73.3428C202.374 86.0131 192.278 96 179.957 96C167.203 96 156.835 85.3002 156.58 72H20C8.95432 72 0 63.0457 0 52V20C0 8.95431 8.95432 0 20 0H264Z"/>
</mask>
<path fill-rule="evenodd" clip-rule="evenodd" d="M264 0C275.046 0 284 8.95431 284 20V52C284 63.0457 275.046 72 264 72H178.526C178.526 79.1797 184.08 85 190.932 85C197.351 85 202.632 79.8916 203.273 73.3428C202.374 86.0131 192.278 96 179.957 96C167.203 96 156.835 85.3002 156.58 72H20C8.95432 72 0 63.0457 0 52V20C0 8.95431 8.95432 0 20 0H264Z" fill="#FEFBF1"/>
<path d="M178.526 72H175.526C175.526 70.3431 176.869 69 178.526 69V72ZM203.273 73.3428L200.287 73.0504C200.447 71.4171 201.89 70.2154 203.526 70.3535C205.161 70.4916 206.382 71.9181 206.266 73.5552L203.273 73.3428ZM156.58 72V69C158.215 69 159.549 70.3085 159.58 71.9427L156.58 72ZM281 20C281 10.6112 273.389 3 264 3V-3C276.703 -3 287 7.29745 287 20H281ZM281 52V20H287V52H281ZM264 69C273.389 69 281 61.3888 281 52H287C287 64.7025 276.703 75 264 75V69ZM178.526 69H264V75H178.526V69ZM181.526 72C181.526 77.6565 185.868 82 190.932 82V88C182.293 88 175.526 80.7029 175.526 72H181.526ZM190.932 82C195.68 82 199.784 78.1932 200.287 73.0504L206.259 73.6353C205.48 81.59 199.022 88 190.932 88V82ZM206.266 73.5552C205.264 87.6645 193.981 99 179.957 99V93C190.576 93 199.484 84.3617 200.281 73.1305L206.266 73.5552ZM179.957 99C165.439 99 153.864 86.8585 153.581 72.0573L159.58 71.9427C159.805 83.7419 168.968 93 179.957 93V99ZM20 69H156.58V75H20V69ZM3 52C3 61.3888 10.6112 69 20 69V75C7.29746 75 -3 64.7025 -3 52H3ZM3 20V52H-3V20H3ZM20 3C10.6112 3 3 10.6112 3 20H-3C-3 7.29745 7.29746 -3 20 -3V3ZM264 3H20V-3H264V3Z" fill="#202532" mask="url(#path-1-inside-1)"/>
</svg>
