<svg width="239" height="145" viewBox="0 0 239 145" fill="none" xmlns="http://www.w3.org/2000/svg">
<mask id="path-1-inside-1" fill="white">
<path fill-rule="evenodd" clip-rule="evenodd" d="M201 89C212.046 89 221 80.0457 221 69V43C221 31.9543 212.046 23 201 23H49C48.225 10.1676 37.5724 0 24.5452 0C11.6311 0 1.05075 9.99158 0.112778 22.666C0.780746 16.113 6.31586 11 13.0452 11C19.8884 11 25.4967 16.2876 26.0073 23H20C8.9543 23 0 31.9543 0 43V69C0 80.0457 8.9543 89 20 89H156V94H87C75.9543 94 67 102.954 67 114V125C67 136.046 75.9543 145 87 145H219C230.046 145 239 136.046 239 125V114C239 102.954 230.046 94 219 94H179V89H201Z"/>
</mask>
<path fill-rule="evenodd" clip-rule="evenodd" d="M201 89C212.046 89 221 80.0457 221 69V43C221 31.9543 212.046 23 201 23H49C48.225 10.1676 37.5724 0 24.5452 0C11.6311 0 1.05075 9.99158 0.112778 22.666C0.780746 16.113 6.31586 11 13.0452 11C19.8884 11 25.4967 16.2876 26.0073 23H20C8.9543 23 0 31.9543 0 43V69C0 80.0457 8.9543 89 20 89H156V94H87C75.9543 94 67 102.954 67 114V125C67 136.046 75.9543 145 87 145H219C230.046 145 239 136.046 239 125V114C239 102.954 230.046 94 219 94H179V89H201Z" fill="#FEFBF1"/>
<path d="M49 23L46.0055 23.1809L46.1757 26H49V23ZM0.112778 22.666L-2.87904 22.4446L3.09731 22.9702L0.112778 22.666ZM26.0073 23V26H29.2442L28.9986 22.7724L26.0073 23ZM156 89H159V86H156V89ZM156 94V97H159V94H156ZM179 94H176V97H179V94ZM179 89V86H176V89H179ZM218 69C218 78.3888 210.389 86 201 86V92C213.703 92 224 81.7025 224 69H218ZM218 43V69H224V43H218ZM201 26C210.389 26 218 33.6112 218 43H224C224 30.2975 213.703 20 201 20V26ZM49 26H201V20H49V26ZM24.5452 3C35.9762 3 45.3255 11.9225 46.0055 23.1809L51.9945 22.8191C51.1244 8.41263 39.1687 -3 24.5452 -3V3ZM3.1046 22.8874C3.92749 11.768 13.2138 3 24.5452 3V-3C10.0485 -3 -1.82599 8.21519 -2.87904 22.4446L3.1046 22.8874ZM13.0452 8C4.76108 8 -2.04931 14.2933 -2.87176 22.3617L3.09731 22.9702C3.61081 17.9326 7.87063 14 13.0452 14V8ZM28.9986 22.7724C28.3699 14.5079 21.469 8 13.0452 8V14C18.3078 14 22.6234 18.0672 23.0159 23.2276L28.9986 22.7724ZM20 26H26.0073V20H20V26ZM3 43C3 33.6112 10.6112 26 20 26V20C7.29744 20 -3 30.2975 -3 43H3ZM3 69V43H-3V69H3ZM20 86C10.6112 86 3 78.3888 3 69H-3C-3 81.7025 7.29744 92 20 92V86ZM156 86H20V92H156V86ZM159 94V89H153V94H159ZM156 91H87V97H156V91ZM87 91C74.2975 91 64 101.297 64 114H70C70 104.611 77.6112 97 87 97V91ZM64 114V125H70V114H64ZM64 125C64 137.703 74.2975 148 87 148V142C77.6112 142 70 134.389 70 125H64ZM87 148H219V142H87V148ZM219 148C231.703 148 242 137.703 242 125H236C236 134.389 228.389 142 219 142V148ZM242 125V114H236V125H242ZM242 114C242 101.297 231.703 91 219 91V97C228.389 97 236 104.611 236 114H242ZM219 91H179V97H219V91ZM176 89V94H182V89H176ZM201 86H179V92H201V86Z" fill="black" mask="url(#path-1-inside-1)"/>
</svg>
