<svg width="209" height="283" viewBox="0 0 209 283" fill="none" xmlns="http://www.w3.org/2000/svg">
<mask id="path-1-inside-1" fill="white">
<path fill-rule="evenodd" clip-rule="evenodd" d="M189 0C200.046 0 209 8.9543 209 20V241C209 246.533 206.754 251.541 203.123 255.161C203.265 256.253 203.338 257.367 203.338 258.5C203.338 258.594 203.338 258.687 203.337 258.78C203.318 257.616 203.154 256.488 202.861 255.417C199.266 258.875 194.381 261 189 261H178.672C179.59 267.23 184.729 272 190.932 272C197.351 272 202.632 266.892 203.273 260.343C202.374 273.013 192.278 283 179.957 283C167.849 283 157.891 273.357 156.696 261H20C8.9543 261 0 252.046 0 241V20C0 8.9543 8.9543 0 20 0H189Z"/>
</mask>
<path fill-rule="evenodd" clip-rule="evenodd" d="M189 0C200.046 0 209 8.9543 209 20V241C209 246.533 206.754 251.541 203.123 255.161C203.265 256.253 203.338 257.367 203.338 258.5C203.338 258.594 203.338 258.687 203.337 258.78C203.318 257.616 203.154 256.488 202.861 255.417C199.266 258.875 194.381 261 189 261H178.672C179.59 267.23 184.729 272 190.932 272C197.351 272 202.632 266.892 203.273 260.343C202.374 273.013 192.278 283 179.957 283C167.849 283 157.891 273.357 156.696 261H20C8.9543 261 0 252.046 0 241V20C0 8.9543 8.9543 0 20 0H189Z" fill="#FEFBF1"/>
<path d="M203.123 255.161L200.148 255.548C200.028 254.624 200.344 253.696 201.004 253.037L203.123 255.161ZM203.337 258.78L206.337 258.812C206.319 260.454 204.986 261.776 203.344 261.78C201.703 261.785 200.363 260.469 200.337 258.828L203.337 258.78ZM202.861 255.417L200.782 253.255C201.545 252.521 202.639 252.244 203.659 252.526C204.68 252.807 205.477 253.606 205.755 254.627L202.861 255.417ZM178.672 261L175.704 261.437C175.577 260.575 175.831 259.699 176.401 259.039C176.971 258.379 177.8 258 178.672 258V261ZM203.273 260.343L200.287 260.05C200.447 258.417 201.89 257.215 203.526 257.354C205.161 257.492 206.382 258.918 206.266 260.555L203.273 260.343ZM156.696 261V258C158.241 258 159.533 259.173 159.682 260.711L156.696 261ZM206 20C206 10.6112 198.389 3 189 3V-3C201.703 -3 212 7.29744 212 20H206ZM206 241V20H212V241H206ZM201.004 253.037C204.094 249.956 206 245.704 206 241H212C212 247.362 209.413 253.125 205.241 257.285L201.004 253.037ZM206.098 254.774C206.257 255.994 206.338 257.238 206.338 258.5H200.338C200.338 257.497 200.273 256.512 200.148 255.548L206.098 254.774ZM206.338 258.5C206.338 258.604 206.338 258.708 206.337 258.812L200.337 258.748C200.338 258.666 200.338 258.583 200.338 258.5H206.338ZM200.337 258.828C200.323 257.916 200.194 257.038 199.967 256.208L205.755 254.627C206.114 255.939 206.314 257.316 206.336 258.733L200.337 258.828ZM189 258C193.575 258 197.723 256.196 200.782 253.255L204.941 257.58C200.81 261.553 195.187 264 189 264V258ZM178.672 258H189V264H178.672V258ZM181.64 260.563C182.36 265.448 186.343 269 190.932 269V275C183.116 275 176.82 269.012 175.704 261.437L181.64 260.563ZM190.932 269C195.68 269 199.784 265.193 200.287 260.05L206.259 260.635C205.48 268.59 199.022 275 190.932 275V269ZM206.266 260.555C205.264 274.664 193.981 286 179.957 286V280C190.576 280 199.484 271.362 200.281 260.13L206.266 260.555ZM179.957 286C166.177 286 155.041 275.053 153.71 261.289L159.682 260.711C160.741 271.66 169.522 280 179.957 280V286ZM20 258H156.696V264H20V258ZM3 241C3 250.389 10.6112 258 20 258V264C7.29745 264 -3 253.703 -3 241H3ZM3 20V241H-3V20H3ZM20 3C10.6112 3 3 10.6112 3 20H-3C-3 7.29745 7.29745 -3 20 -3V3ZM189 3H20V-3H189V3Z" fill="#202532" mask="url(#path-1-inside-1)"/>
</svg>
