<svg width="187" height="116" viewBox="0 0 187 116" fill="none" xmlns="http://www.w3.org/2000/svg">
<path d="M7.23663 35.7575C-3.04702 44.4809 1.66632 53.4769 5.30844 56.8845C-1.88999 62.3367 2.3091 69.1517 5.30844 71.8777C2.73748 75.0581 -0.861871 82.9182 5.30844 88.9156C11.4788 94.9129 19.8769 92.3232 23.3047 90.2786C18.677 103.364 30.3747 104.818 36.8019 103.909C45.543 120.811 66.5817 113.677 76.0083 107.998C87.3204 116.721 98.2896 108.907 102.36 103.909C107.502 108.271 110.93 104.363 112.001 101.864C133.083 110.588 146.066 100.047 149.922 93.6862C165.348 98.5931 172.203 85.2808 173.703 78.0113C190.671 69.8331 185.915 56.8843 181.416 51.4322C185.015 35.621 175.631 31.6682 170.489 31.6682C162.777 16.9475 147.994 19.6281 141.567 22.8085C137.967 13.5399 130.64 13.4945 127.427 14.6303C122.799 3.72606 113.072 5.5439 108.787 7.81585C108.359 5.5439 104.674 1 93.362 1C82.05 1 77.9365 5.5439 77.2938 7.81585C73.2232 6.22565 61.2256 4.40827 45.8001 9.8604C30.3747 15.3125 26.9468 24.6261 27.8038 30.9867C24.8044 27.352 17.5203 27.0341 7.23663 35.7575Z" fill="#FFFDF4" stroke="black" stroke-width="2"/>
<path d="M27.1383 31.0166C28.0371 32.6558 28.5466 34.1855 28.5466 36.0607C28.5466 37.8135 28.1365 38.8404 27.2009 40.2835C26.0019 42.1327 22.4998 42.9928 20.7304 41.6939C19.0639 40.4705 17.9841 38.7062 17.9841 36.5087C17.9841 34.756 18.6534 33.2245 20.347 32.6924C21.7115 32.2637 23.0628 33.0343 23.6879 34.2272C24.2421 35.2851 23.9008 36.1516 22.8429 36.4009C22.4366 36.4966 21.9157 36.7215 21.5363 36.3594C21.2753 36.1103 21.2044 35.3472 21.6458 35.3472" stroke="black" stroke-width="1.5" stroke-linecap="round" stroke-linejoin="round"/>
<path d="M108.839 7.59863C107.777 9.0476 106.397 10.2032 105.306 11.6165C104.659 12.4548 104.206 13.4507 103.847 14.458C103.631 15.0638 103.39 16.1417 103.62 16.7763C103.867 17.4566 104.056 18.0458 104.694 18.4262C105.37 18.8294 106.389 18.7939 107.024 18.3078C107.754 17.7488 108.126 17.0006 108.126 16.0545C108.126 15.8662 108.064 15.5341 107.802 15.6573C107.7 15.7055 107.195 15.9919 107.478 15.917" stroke="black" stroke-width="1.5" stroke-linecap="round" stroke-linejoin="round"/>
<path d="M181.11 51.5493C180.236 51.5493 179.351 51.4959 178.501 51.6598C177.707 51.8129 176.909 52.2181 176.155 52.5141C175.416 52.8044 174.761 53.2472 174.105 53.6939C173.44 54.1477 173.089 54.7851 172.68 55.4665C172.14 56.3665 171.639 57.6987 171.639 58.7676C171.639 60.2738 172.063 61.2053 173.069 62.2721C174.215 63.4868 176.604 63.3721 177.613 62.0106C178.382 60.973 179.341 59.492 178.666 58.1399C178.464 57.7362 177.952 57.303 177.504 57.303C177.195 57.303 176.896 57.1984 176.572 57.1984C176.213 57.1984 176.251 57.4287 176.029 57.6169C175.277 58.255 175.558 59.7091 176.572 59.7091" stroke="black" stroke-width="1.5" stroke-linecap="round" stroke-linejoin="round"/>
<path d="M173.729 54.0112C172.561 54.0112 171.317 54.0258 170.236 53.4692C169.548 53.1147 169.004 52.6482 168.405 52.1545C167.718 51.5879 167.375 50.5628 166.999 49.766C166.596 48.9096 166.318 48.2524 166.318 47.2821C166.318 46.4488 166.324 45.8828 166.654 45.1243C166.939 44.4696 167.458 43.8474 167.955 43.3731C168.323 43.0221 168.843 42.8288 169.257 42.5852C169.719 42.3131 170.145 42.3594 170.662 42.3594C171.812 42.3594 172.72 43.3048 172.967 44.482C173.075 44.9975 173.132 45.4246 173.132 45.9724C173.132 46.4159 172.786 47.2819 172.413 47.5079C171.958 47.7835 171.649 48.1133 171.131 48.2355C170.634 48.3525 169.81 48.4507 169.536 47.8692C169.375 47.5271 168.943 46.6722 169.342 46.3337C169.533 46.1712 169.552 45.882 169.853 45.882C170.094 45.882 170.336 45.882 170.577 45.882" stroke="black" stroke-width="1.5" stroke-linecap="round" stroke-linejoin="round"/>
<path d="M75.1099 108.502C75.5556 108.174 75.8776 107.712 76.3114 107.379C76.5627 107.187 76.7792 106.974 76.998 106.742C77.4247 106.29 77.8434 105.738 78.1138 105.165C78.4032 104.551 78.5695 103.975 78.7718 103.331C78.9095 102.893 78.9118 101.98 78.8163 101.525C78.3813 99.4493 75.6582 97.5582 74.2771 99.8596C73.7977 100.658 73.5078 101.287 73.5078 102.253C73.5078 102.897 73.6805 103.5 74.2516 103.803C74.6954 104.038 75.2985 104.323 75.7965 104.059C76.0247 103.938 76.1846 103.769 76.2987 103.527C76.3604 103.396 76.4505 102.933 76.3114 102.859" stroke="black" stroke-width="1.5" stroke-linecap="round" stroke-linejoin="round"/>
</svg>
