<svg width="186" height="192" viewBox="0 0 186 192" fill="none" xmlns="http://www.w3.org/2000/svg">
<mask id="path-1-inside-1" fill="white">
<path fill-rule="evenodd" clip-rule="evenodd" d="M20 192C8.9543 192 7.82811e-07 183.046 1.74846e-06 172L1.34631e-05 38C1.44288e-05 26.9543 8.95432 18 20 18L29.0768 18C27.0077 13.8402 22.8544 11 18.0679 11C11.6488 11 6.36827 16.1084 5.72692 22.6572C6.62612 9.98694 16.7216 1.46184e-06 29.0431 2.53902e-06C39.8085 3.48017e-06 48.8746 7.62378 51.5926 18L166 18C177.046 18 186 26.9543 186 38L186 172C186 183.046 177.046 192 166 192L20 192Z"/>
</mask>
<path fill-rule="evenodd" clip-rule="evenodd" d="M20 192C8.9543 192 7.82811e-07 183.046 1.74846e-06 172L1.34631e-05 38C1.44288e-05 26.9543 8.95432 18 20 18L29.0768 18C27.0077 13.8402 22.8544 11 18.0679 11C11.6488 11 6.36827 16.1084 5.72692 22.6572C6.62612 9.98694 16.7216 1.46184e-06 29.0431 2.53902e-06C39.8085 3.48017e-06 48.8746 7.62378 51.5926 18L166 18C177.046 18 186 26.9543 186 38L186 172C186 183.046 177.046 192 166 192L20 192Z" fill="#FEFBF1"/>
<path d="M29.0768 18L31.7628 16.6639C32.2254 17.5939 32.174 18.6969 31.6271 19.5798C31.0801 20.4628 30.1154 21 29.0768 21L29.0768 18ZM5.72692 22.6572L8.71264 22.9496C8.55267 24.5829 7.10988 25.7846 5.47451 25.6465C3.83914 25.5084 2.61826 24.0819 2.73445 22.4448L5.72692 22.6572ZM51.5926 18L51.5926 21C50.2285 21 49.0361 20.0797 48.6905 18.7602L51.5926 18ZM166 18L166 21L166 18ZM3 172C3 181.389 10.6112 189 20 189L20 195C7.29745 195 -3 184.703 -3 172L3 172ZM3.00001 38L3 172L-3 172L-2.99999 38L3.00001 38ZM20 21C10.6112 21 3.00001 28.6111 3.00001 38L-2.99999 38C-2.99999 25.2974 7.29747 15 20 15L20 21ZM29.0768 21L20 21L20 15L29.0768 15L29.0768 21ZM26.3907 19.336C24.7838 16.1055 21.6184 14 18.0679 14L18.0679 8C24.0903 8 29.2316 11.5749 31.7628 16.6639L26.3907 19.336ZM18.0679 14C13.3199 14 9.21629 17.8068 8.71264 22.9496L2.7412 22.3647C3.52025 14.41 9.9777 8 18.0679 8L18.0679 14ZM2.73445 22.4448C3.73577 8.33554 15.0186 -3 29.0431 -3L29.0431 3C18.4245 3 9.51646 11.6383 8.71939 22.8695L2.73445 22.4448ZM29.0431 -3C41.2909 -3 51.462 5.66211 54.4946 17.2398L48.6905 18.7602C46.2873 9.58545 38.3261 3 29.0431 3L29.0431 -3ZM166 21L51.5926 21L51.5926 15L166 15L166 21ZM183 38C183 28.6112 175.389 21 166 21L166 15C178.703 15 189 25.2975 189 38L183 38ZM183 172L183 38L189 38L189 172L183 172ZM166 189C175.389 189 183 181.389 183 172L189 172C189 184.703 178.703 195 166 195L166 189ZM20 189L166 189L166 195L20 195L20 189Z" fill="#202532" mask="url(#path-1-inside-1)"/>
</svg>
