<svg width="209" height="186" viewBox="0 0 209 186" fill="none" xmlns="http://www.w3.org/2000/svg">
<mask id="path-1-inside-1" fill="white">
<path fill-rule="evenodd" clip-rule="evenodd" d="M189 0C200.046 0 209 8.95431 209 20V148C209 159.046 200.046 168 189 168H179.923C181.992 172.16 186.146 175 190.932 175C197.351 175 202.632 169.892 203.273 163.343C202.374 176.013 192.278 186 179.957 186C169.192 186 160.125 178.376 157.407 168H20C8.9543 168 0 159.046 0 148V20C0 8.95431 8.9543 0 20 0H189Z"/>
</mask>
<path fill-rule="evenodd" clip-rule="evenodd" d="M189 0C200.046 0 209 8.95431 209 20V148C209 159.046 200.046 168 189 168H179.923C181.992 172.16 186.146 175 190.932 175C197.351 175 202.632 169.892 203.273 163.343C202.374 176.013 192.278 186 179.957 186C169.192 186 160.125 178.376 157.407 168H20C8.9543 168 0 159.046 0 148V20C0 8.95431 8.9543 0 20 0H189Z" fill="#FEFBF1"/>
<path d="M179.923 168L177.237 169.336C176.775 168.406 176.826 167.303 177.373 166.42C177.92 165.537 178.885 165 179.923 165V168ZM203.273 163.343L200.287 163.05C200.447 161.417 201.89 160.215 203.526 160.353C205.161 160.492 206.382 161.918 206.266 163.555L203.273 163.343ZM157.407 168V165C158.772 165 159.964 165.92 160.31 167.24L157.407 168ZM206 20C206 10.6112 198.389 3 189 3V-3C201.703 -3 212 7.29746 212 20H206ZM206 148V20H212V148H206ZM189 165C198.389 165 206 157.389 206 148H212C212 160.703 201.703 171 189 171V165ZM179.923 165H189V171H179.923V165ZM182.609 166.664C184.216 169.895 187.382 172 190.932 172V178C184.91 178 179.768 174.425 177.237 169.336L182.609 166.664ZM190.932 172C195.68 172 199.784 168.193 200.287 163.05L206.259 163.635C205.48 171.59 199.022 178 190.932 178V172ZM206.266 163.555C205.264 177.664 193.981 189 179.957 189V183C190.576 183 199.484 174.362 200.281 163.13L206.266 163.555ZM179.957 189C167.709 189 157.538 180.338 154.505 168.76L160.31 167.24C162.713 176.415 170.674 183 179.957 183V189ZM20 165H157.407V171H20V165ZM3 148C3 157.389 10.6112 165 20 165V171C7.29744 171 -3 160.703 -3 148H3ZM3 20V148H-3V20H3ZM20 3C10.6112 3 3 10.6112 3 20H-3C-3 7.29745 7.29745 -3 20 -3V3ZM189 3H20V-3H189V3Z" fill="#202532" mask="url(#path-1-inside-1)"/>
</svg>
