<svg width="469" height="223" viewBox="0 0 469 223" fill="none" xmlns="http://www.w3.org/2000/svg">
<mask id="path-1-inside-1" fill="white">
<path fill-rule="evenodd" clip-rule="evenodd" d="M449.001 110C460.046 110 469.001 118.954 469.001 130L469.001 203C469.001 214.046 460.046 223 449.001 223L52.0006 223C42.6758 223 34.8415 216.618 32.6267 207.984C32.1826 208.001 31.7361 208.01 31.2875 208.01C14.7471 208.01 1.19623 196.484 -3.59611e-06 181.865C0.850493 189.426 7.94076 195.326 16.5616 195.326C23.5498 195.326 29.5323 191.449 32.0006 185.953L32.0006 130C32.0006 118.954 40.9549 110 52.0006 110L392.009 110L392.009 106L52 106C40.9543 106 32 97.0457 32 86L32 20C32 8.95434 40.9543 4.2196e-05 52 4.12304e-05L449 6.52354e-06C460.046 5.5579e-06 469 8.9543 469 20L469 86C469 97.0457 460.046 106 449 106L415.009 106L415.009 110L449.001 110Z"/>
</mask>
<path fill-rule="evenodd" clip-rule="evenodd" d="M449.001 110C460.046 110 469.001 118.954 469.001 130L469.001 203C469.001 214.046 460.046 223 449.001 223L52.0006 223C42.6758 223 34.8415 216.618 32.6267 207.984C32.1826 208.001 31.7361 208.01 31.2875 208.01C14.7471 208.01 1.19623 196.484 -3.59611e-06 181.865C0.850493 189.426 7.94076 195.326 16.5616 195.326C23.5498 195.326 29.5323 191.449 32.0006 185.953L32.0006 130C32.0006 118.954 40.9549 110 52.0006 110L392.009 110L392.009 106L52 106C40.9543 106 32 97.0457 32 86L32 20C32 8.95434 40.9543 4.2196e-05 52 4.12304e-05L449 6.52354e-06C460.046 5.5579e-06 469 8.9543 469 20L469 86C469 97.0457 460.046 106 449 106L415.009 106L415.009 110L449.001 110Z" fill="#FEFBF1"/>
<path d="M449.001 223L449.001 226H449.001L449.001 223ZM52.0006 223L52.0006 220L52.0006 223ZM32.6267 207.984L32.5134 204.987L34.9314 204.895L35.5326 207.239L32.6267 207.984ZM-3.59611e-06 181.865L-2.99001 182.11L2.98119 181.53L-3.59611e-06 181.865ZM32.0006 185.953L35.0006 185.953L35.0006 186.596L34.7373 187.182L32.0006 185.953ZM32.0006 130L35.0006 130L32.0006 130ZM52.0006 110L52.0006 107H52.0006L52.0006 110ZM392.009 110L395.009 110L395.009 113L392.009 113L392.009 110ZM392.009 106L392.009 103L395.009 103L395.009 106L392.009 106ZM52 106L52 103L52 103L52 106ZM52 4.12304e-05L52 -2.99996L52 4.12304e-05ZM449 6.52354e-06L449 3.00001L449 6.52354e-06ZM415.009 106L412.009 106L412.009 103L415.009 103L415.009 106ZM415.009 110L415.009 113L412.009 113L412.009 110L415.009 110ZM466.001 130C466.001 120.611 458.389 113 449.001 113L449.001 107C461.703 107 472.001 117.297 472.001 130L466.001 130ZM466.001 203L466.001 130L472.001 130L472.001 203L466.001 203ZM449.001 220C458.389 220 466.001 212.389 466.001 203L472.001 203C472.001 215.703 461.703 226 449.001 226L449.001 220ZM52.0006 220L449.001 220L449.001 226L52.0006 226L52.0006 220ZM35.5326 207.239C37.4154 214.579 44.0786 220 52.0006 220L52.0006 226C41.273 226 32.2677 218.658 29.7208 208.73L35.5326 207.239ZM31.2875 205.01C31.6983 205.01 32.107 205.002 32.5134 204.987L32.7401 210.982C32.2582 211.001 31.774 211.01 31.2875 211.01L31.2875 205.01ZM2.99 181.621C4.03902 194.44 16.0536 205.01 31.2875 205.01L31.2875 211.01C13.4405 211.01 -1.64657 198.528 -2.99001 182.11L2.99 181.621ZM16.5616 198.326C6.6521 198.326 -1.93461 191.504 -2.9812 182.201L2.98119 181.53C3.63559 187.347 9.22943 192.326 16.5616 192.326L16.5616 198.326ZM34.7373 187.182C31.7459 193.843 24.6325 198.326 16.5616 198.326L16.5616 192.326C22.4671 192.326 27.3188 189.055 29.2639 184.724L34.7373 187.182ZM35.0006 130L35.0006 185.953L29.0006 185.953L29.0006 130L35.0006 130ZM52.0006 113C42.6118 113 35.0006 120.611 35.0006 130L29.0006 130C29.0006 117.297 39.2981 107 52.0006 107L52.0006 113ZM392.009 113L52.0006 113L52.0006 107L392.009 107L392.009 113ZM395.009 106L395.009 110L389.009 110L389.009 106L395.009 106ZM392.009 109L52 109L52 103L392.009 103L392.009 109ZM52 109C39.2975 109 29 98.7026 29 86L35 86C35 95.3889 42.6112 103 52 103L52 109ZM29 86L29 20L35 20L35 86L29 86ZM29 20C29 7.29749 39.2975 -2.99996 52 -2.99996L52 3.00004C42.6112 3.00004 35 10.6112 35 20L29 20ZM52 -2.99996L449 -2.99999L449 3.00001L52 3.00004L52 -2.99996ZM449 -2.99999C461.703 -2.99999 472 7.29745 472 20L466 20C466 10.6112 458.389 3.00001 449 3.00001L449 -2.99999ZM472 20L472 86L466 86L466 20L472 20ZM472 86C472 98.7025 461.703 109 449 109L449 103C458.389 103 466 95.3888 466 86L472 86ZM449 109L415.009 109L415.009 103L449 103L449 109ZM412.009 110L412.009 106L418.009 106L418.009 110L412.009 110ZM449.001 113L415.009 113L415.009 107L449.001 107L449.001 113Z" fill="black" mask="url(#path-1-inside-1)"/>
</svg>
