<svg width="438" height="104" viewBox="0 0 438 104" fill="none" xmlns="http://www.w3.org/2000/svg">
<mask id="path-1-inside-1" fill="white">
<path fill-rule="evenodd" clip-rule="evenodd" d="M418 104C429.046 104 438 95.0457 438 84V43C438 31.9543 429.046 23 418 23H49C48.225 10.1676 37.5724 0 24.5452 0C11.6311 0 1.05075 9.99158 0.112793 22.666C0.780762 16.113 6.31586 11 13.0452 11C19.8884 11 25.4966 16.2876 26.0073 23H20C8.95432 23 0 31.9543 0 43V84C0 95.0457 8.95432 104 20 104H418Z"/>
</mask>
<path fill-rule="evenodd" clip-rule="evenodd" d="M418 104C429.046 104 438 95.0457 438 84V43C438 31.9543 429.046 23 418 23H49C48.225 10.1676 37.5724 0 24.5452 0C11.6311 0 1.05075 9.99158 0.112793 22.666C0.780762 16.113 6.31586 11 13.0452 11C19.8884 11 25.4966 16.2876 26.0073 23H20C8.95432 23 0 31.9543 0 43V84C0 95.0457 8.95432 104 20 104H418Z" fill="#FEFBF1"/>
<path d="M49 23L46.0055 23.1809C46.1011 24.7646 47.4134 26 49 26V23ZM0.112793 22.666L-2.87903 22.4446C-3.00012 24.0807 -1.78439 25.5107 -0.150055 25.6544C1.48428 25.7982 2.93094 24.6024 3.09732 22.9702L0.112793 22.666ZM26.0073 23V26C26.8424 26 27.6398 25.6518 28.2076 25.0393C28.7753 24.4267 29.062 23.6052 28.9986 22.7724L26.0073 23ZM435 84C435 93.3888 427.389 101 418 101V107C430.703 107 441 96.7026 441 84H435ZM435 43V84H441V43H435ZM418 26C427.389 26 435 33.6112 435 43H441C441 30.2975 430.703 20 418 20V26ZM49 26H418V20H49V26ZM51.9945 22.8191C51.1245 8.41263 39.1687 -3 24.5452 -3V3C35.9762 3 45.3255 11.9225 46.0055 23.1809L51.9945 22.8191ZM24.5452 -3C10.0485 -3 -1.82599 8.21519 -2.87903 22.4446L3.10461 22.8874C3.92749 11.768 13.2138 3 24.5452 3V-3ZM3.09732 22.9702C3.61081 17.9326 7.87064 14 13.0452 14V8C4.76108 8 -2.04929 14.2933 -2.87173 22.3617L3.09732 22.9702ZM13.0452 14C18.3078 14 22.6234 18.0672 23.0159 23.2276L28.9986 22.7724C28.3699 14.5079 21.469 8 13.0452 8V14ZM20 26H26.0073V20H20V26ZM3 43C3 33.6112 10.6112 26 20 26V20C7.29745 20 -3 30.2974 -3 43H3ZM3 84V43H-3V84H3ZM20 101C10.6112 101 3 93.3888 3 84H-3C-3 96.7025 7.29745 107 20 107V101ZM418 101H20V107H418V101Z" fill="#202532" mask="url(#path-1-inside-1)"/>
</svg>
