<svg width="284" height="104" viewBox="0 0 284 104" fill="none" xmlns="http://www.w3.org/2000/svg">
<mask id="path-1-inside-1" fill="white">
<path fill-rule="evenodd" clip-rule="evenodd" d="M20 0C8.95431 0 0 8.9543 0 20V61C0 72.0457 8.9543 81 20 81H235C235.775 93.8324 246.428 104 259.455 104C272.369 104 282.949 94.0084 283.887 81.334C283.219 87.887 277.684 93 270.955 93C264.112 93 258.503 87.7124 257.993 81H264C275.046 81 284 72.0457 284 61V20C284 8.95431 275.046 0 264 0H20Z"/>
</mask>
<path fill-rule="evenodd" clip-rule="evenodd" d="M20 0C8.95431 0 0 8.9543 0 20V61C0 72.0457 8.9543 81 20 81H235C235.775 93.8324 246.428 104 259.455 104C272.369 104 282.949 94.0084 283.887 81.334C283.219 87.887 277.684 93 270.955 93C264.112 93 258.503 87.7124 257.993 81H264C275.046 81 284 72.0457 284 61V20C284 8.95431 275.046 0 264 0H20Z" fill="#FEFBF1"/>
<path d="M235 81L237.995 80.8191C237.899 79.2354 236.587 78 235 78V81ZM283.887 81.334L286.879 81.5554C287 79.9193 285.784 78.4893 284.15 78.3456C282.516 78.2018 281.069 79.3976 280.903 81.0298L283.887 81.334ZM257.993 81V78C257.158 78 256.36 78.3482 255.792 78.9607C255.225 79.5733 254.938 80.3948 255.001 81.2276L257.993 81ZM3 20C3 10.6112 10.6112 3 20 3V-3C7.29745 -3 -3 7.29745 -3 20H3ZM3 61V20H-3V61H3ZM20 78C10.6112 78 3 70.3888 3 61H-3C-3 73.7025 7.29745 84 20 84V78ZM235 78H20V84H235V78ZM232.005 81.1809C232.876 95.5874 244.831 107 259.455 107V101C248.024 101 238.675 92.0775 237.995 80.8191L232.005 81.1809ZM259.455 107C273.952 107 285.826 95.7848 286.879 81.5554L280.895 81.1126C280.073 92.232 270.786 101 259.455 101V107ZM280.903 81.0298C280.389 86.0674 276.129 90 270.955 90V96C279.239 96 286.049 89.7067 286.872 81.6383L280.903 81.0298ZM270.955 90C265.692 90 261.377 85.9328 260.984 80.7724L255.001 81.2276C255.63 89.4921 262.531 96 270.955 96V90ZM264 78H257.993V84H264V78ZM281 61C281 70.3888 273.389 78 264 78V84C276.703 84 287 73.7026 287 61H281ZM281 20V61H287V20H281ZM264 3C273.389 3 281 10.6112 281 20H287C287 7.29745 276.703 -3 264 -3V3ZM20 3H264V-3H20V3Z" fill="#202532" mask="url(#path-1-inside-1)"/>
</svg>
