<svg width="225" height="300" viewBox="0 0 225 300" fill="none" xmlns="http://www.w3.org/2000/svg">
<mask id="path-1-inside-1" fill="white">
<path fill-rule="evenodd" clip-rule="evenodd" d="M179 28.9768C185.925 28.7209 193.773 26.2768 196 18.2355C199.2 6.68282 210 1.38792 215 0.184549C210.333 -0.537495 199 0.473365 191 10.2931C186.357 15.9925 181.489 16.9996 177.57 16.559C174.618 9.19816 167.416 3.99999 159 3.99999H20C8.9543 3.99999 0 12.9543 0 24V131C0 142.046 8.9543 151 20 151H63V158H49C37.9543 158 29 166.954 29 178V280C29 291.046 37.9543 300 49 300H205C216.046 300 225 291.046 225 280V178C225 166.954 216.046 158 205 158H78V151H159C170.046 151 179 142.046 179 131V28.9768Z"/>
</mask>
<path fill-rule="evenodd" clip-rule="evenodd" d="M179 28.9768C185.925 28.7209 193.773 26.2768 196 18.2355C199.2 6.68282 210 1.38792 215 0.184549C210.333 -0.537495 199 0.473365 191 10.2931C186.357 15.9925 181.489 16.9996 177.57 16.559C174.618 9.19816 167.416 3.99999 159 3.99999H20C8.9543 3.99999 0 12.9543 0 24V131C0 142.046 8.9543 151 20 151H63V158H49C37.9543 158 29 166.954 29 178V280C29 291.046 37.9543 300 49 300H205C216.046 300 225 291.046 225 280V178C225 166.954 216.046 158 205 158H78V151H159C170.046 151 179 142.046 179 131V28.9768Z" fill="#FEFBF1"/>
<path d="M196 18.2355L193.109 17.4347L193.109 17.4347L196 18.2355ZM179 28.9768L178.889 25.9789L176 26.0856V28.9768H179ZM215 0.184549L215.702 3.10126L215.459 -2.78017L215 0.184549ZM191 10.2931L193.326 12.188L193.326 12.188L191 10.2931ZM177.57 16.559L174.786 17.6757L175.453 19.3399L177.235 19.5402L177.57 16.559ZM63 151H66V148H63V151ZM63 158V161H66V158H63ZM78 158H75V161H78V158ZM78 151V148H75V151H78ZM193.109 17.4347C191.439 23.463 185.51 25.7342 178.889 25.9789L179.111 31.9748C186.341 31.7076 196.106 29.0905 198.891 19.0363L193.109 17.4347ZM214.298 -2.73217C208.747 -1.3962 196.717 4.40855 193.109 17.4347L198.891 19.0363C201.683 8.95709 211.253 4.17204 215.702 3.10126L214.298 -2.73217ZM193.326 12.188C200.483 3.40301 210.63 2.54405 214.541 3.14927L215.459 -2.78017C210.037 -3.61904 197.517 -2.45628 188.674 8.39832L193.326 12.188ZM177.235 19.5402C182.126 20.09 188.012 18.7109 193.326 12.188L188.674 8.39831C184.702 13.274 180.853 13.9091 177.905 13.5777L177.235 19.5402ZM159 6.99999C166.149 6.99999 172.274 11.4136 174.786 17.6757L180.354 15.4422C176.962 6.98273 168.683 0.99999 159 0.99999V6.99999ZM20 6.99999H159V0.99999H20V6.99999ZM3 24C3 14.6111 10.6112 6.99999 20 6.99999V0.99999C7.29745 0.99999 -3 11.2974 -3 24H3ZM3 131V24H-3V131H3ZM20 148C10.6112 148 3 140.389 3 131H-3C-3 143.703 7.29745 154 20 154V148ZM63 148H20V154H63V148ZM66 158V151H60V158H66ZM63 155H49V161H63V155ZM49 155C36.2974 155 26 165.297 26 178H32C32 168.611 39.6112 161 49 161V155ZM26 178V280H32V178H26ZM26 280C26 292.703 36.2974 303 49 303V297C39.6112 297 32 289.389 32 280H26ZM49 303H205V297H49V303ZM205 303C217.703 303 228 292.703 228 280H222C222 289.389 214.389 297 205 297V303ZM228 280V178H222V280H228ZM228 178C228 165.297 217.703 155 205 155V161C214.389 161 222 168.611 222 178H228ZM205 155H78V161H205V155ZM75 151V158H81V151H75ZM159 148H78V154H159V148ZM176 131C176 140.389 168.389 148 159 148V154C171.703 154 182 143.703 182 131H176ZM176 28.9768V131H182V28.9768H176Z" fill="black" mask="url(#path-1-inside-1)"/>
</svg>
