<svg width="222" height="88" viewBox="0 0 222 88" fill="none" xmlns="http://www.w3.org/2000/svg">
<mask id="path-1-inside-1" fill="white">
<path fill-rule="evenodd" clip-rule="evenodd" d="M35.0728 63.6146C32.8373 66.2942 29.4669 68.4368 24.5236 69.4318C8.98726 72.5591 1.86652 83.1136 0.248199 88C-0.722824 83.4394 0.636612 72.3636 13.8425 64.5455C19.3402 61.2907 21.5913 57.923 22.2061 54.8655C20.1778 51.7371 19 48.0061 19 44V20C19 8.95432 27.9543 7.62939e-06 39 7.62939e-06H202C213.046 7.62939e-06 222 8.95432 222 20V44C222 55.0457 213.046 64 202 64H39C37.6559 64 36.3427 63.8674 35.0728 63.6146Z"/>
</mask>
<path fill-rule="evenodd" clip-rule="evenodd" d="M35.0728 63.6146C32.8373 66.2942 29.4669 68.4368 24.5236 69.4318C8.98726 72.5591 1.86652 83.1136 0.248199 88C-0.722824 83.4394 0.636612 72.3636 13.8425 64.5455C19.3402 61.2907 21.5913 57.923 22.2061 54.8655C20.1778 51.7371 19 48.0061 19 44V20C19 8.95432 27.9543 7.62939e-06 39 7.62939e-06H202C213.046 7.62939e-06 222 8.95432 222 20V44C222 55.0457 213.046 64 202 64H39C37.6559 64 36.3427 63.8674 35.0728 63.6146Z" fill="#FEFBF1"/>
<path d="M24.5236 69.4318L25.1156 72.3728L24.5236 69.4318ZM35.0728 63.6146L35.6587 60.6723L33.9109 60.3243L32.7692 61.6928L35.0728 63.6146ZM0.248199 88L-2.68603 88.6247L-0.382149 99.4454L3.09607 88.9432L0.248199 88ZM13.8425 64.5455L15.3708 67.127L15.3708 67.127L13.8425 64.5455ZM22.2061 54.8655L25.1472 55.4569L25.3881 54.2589L24.7234 53.2335L22.2061 54.8655ZM25.1156 72.3728C30.6538 71.2581 34.6565 68.7967 37.3764 65.5364L32.7692 61.6928C31.0182 63.7917 28.28 65.6156 23.9316 66.4908L25.1156 72.3728ZM3.09607 88.9432C4.40987 84.9763 10.7378 75.2669 25.1156 72.3728L23.9316 66.4908C7.23672 69.8513 -0.676833 81.251 -2.59968 87.0568L3.09607 88.9432ZM12.3142 61.9639C-2.01929 70.4497 -3.92058 82.8264 -2.68603 88.6247L3.18243 87.3753C2.47493 84.0524 3.29251 74.2776 15.3708 67.127L12.3142 61.9639ZM19.265 54.2742C18.8702 56.2374 17.3454 58.9854 12.3142 61.9639L15.3708 67.127C21.335 63.596 24.3125 59.6087 25.1472 55.4569L19.265 54.2742ZM16 44C16 48.6026 17.355 52.8978 19.6888 56.4975L24.7234 53.2335C23.0006 50.5763 22 47.4096 22 44H16ZM16 20V44H22V20H16ZM39 -2.99999C26.2975 -2.99999 16 7.29746 16 20H22C22 10.6112 29.6112 3.00001 39 3.00001V-2.99999ZM202 -2.99999H39V3.00001H202V-2.99999ZM225 20C225 7.29746 214.703 -2.99999 202 -2.99999V3.00001C211.389 3.00001 219 10.6112 219 20H225ZM225 44V20H219V44H225ZM202 67C214.703 67 225 56.7026 225 44H219C219 53.3888 211.389 61 202 61V67ZM39 67H202V61H39V67ZM34.487 66.5568C35.9487 66.8479 37.4581 67 39 67V61C37.8536 61 36.7366 60.887 35.6587 60.6723L34.487 66.5568Z" fill="black" mask="url(#path-1-inside-1)"/>
</svg>
