<svg width="479" height="180" viewBox="0 0 479 180" fill="none" xmlns="http://www.w3.org/2000/svg">
<mask id="path-1-inside-1" fill="white">
<path fill-rule="evenodd" clip-rule="evenodd" d="M459 0C470.046 0 479 8.9543 479 20V160C479 171.046 470.046 180 459 180H60C48.9543 180 40 171.046 40 160V122.833C33.2749 124.272 20.4423 123.82 17.587 111.296C14.625 98.3042 4.62817 92.3495 0 90.9962C4.31962 90.1842 14.8101 91.321 22.2152 102.364C29.0958 112.626 36.5092 109.362 40 107.545V20C40 8.95431 48.9543 0 60 0H459Z"/>
</mask>
<path fill-rule="evenodd" clip-rule="evenodd" d="M459 0C470.046 0 479 8.9543 479 20V160C479 171.046 470.046 180 459 180H60C48.9543 180 40 171.046 40 160V122.833C33.2749 124.272 20.4423 123.82 17.587 111.296C14.625 98.3042 4.62817 92.3495 0 90.9962C4.31962 90.1842 14.8101 91.321 22.2152 102.364C29.0958 112.626 36.5092 109.362 40 107.545V20C40 8.95431 48.9543 0 60 0H459Z" fill="#FEFBF1"/>
<path d="M40 122.833H43V119.124L39.3725 119.9L40 122.833ZM17.587 111.296L14.6621 111.963L17.587 111.296ZM0 90.9962L-0.554239 88.0479L-0.841961 93.8756L0 90.9962ZM22.2152 102.364L19.7235 104.035L19.7235 104.035L22.2152 102.364ZM40 107.545L41.3849 110.207L43 109.366V107.545H40ZM482 20C482 7.29745 471.703 -3 459 -3V3C468.389 3 476 10.6112 476 20H482ZM482 160V20H476V160H482ZM459 183C471.703 183 482 172.703 482 160H476C476 169.389 468.389 177 459 177V183ZM60 183H459V177H60V183ZM37 160C37 172.703 47.2975 183 60 183V177C50.6112 177 43 169.389 43 160H37ZM37 122.833V160H43V122.833H37ZM14.6621 111.963C16.3523 119.377 21.1247 123.355 26.3763 125.141C31.4483 126.866 36.9197 126.56 40.6275 125.767L39.3725 119.9C36.3552 120.545 32.0477 120.732 28.3084 119.46C24.7486 118.25 21.677 115.74 20.512 110.629L14.6621 111.963ZM-0.841961 93.8756C2.99753 94.9983 11.9958 100.268 14.6621 111.963L20.512 110.629C17.2543 96.3403 6.2588 89.7007 0.841961 88.1168L-0.841961 93.8756ZM24.7069 100.694C16.5503 88.5294 4.79075 87.0431 -0.554239 88.0479L0.554239 93.9446C3.84849 93.3253 13.07 94.1126 19.7235 104.035L24.7069 100.694ZM38.6151 104.884C36.9391 105.756 34.8603 106.664 32.6064 106.493C30.5652 106.337 27.7522 105.235 24.7069 100.694L19.7235 104.035C23.5589 109.755 27.8929 112.151 32.1512 112.475C36.1968 112.783 39.5701 111.151 41.3849 110.207L38.6151 104.884ZM37 20V107.545H43V20H37ZM60 -3C47.2975 -3 37 7.29745 37 20H43C43 10.6112 50.6112 3 60 3V-3ZM459 -3H60V3H459V-3Z" fill="black" mask="url(#path-1-inside-1)"/>
</svg>
