<svg width="283" height="322" viewBox="0 0 283 322" fill="none" xmlns="http://www.w3.org/2000/svg">
<mask id="path-1-inside-1" fill="white">
<path fill-rule="evenodd" clip-rule="evenodd" d="M263 163C274.046 163 283 171.954 283 183L283 279C283 290.046 274.046 299 263 299L62.7459 299C61.7535 311.832 48.1124 322 31.4305 322C14.8916 322 1.34171 312.006 0.143311 299.33C0.996095 305.885 8.08527 311 16.7044 311C25.4674 311 32.649 305.712 33.3029 299L20 299C8.95432 299 -7.4879e-07 290.046 -3.75918e-06 279L-1.21518e-05 183C-1.31174e-05 171.954 8.9543 163 20 163L206 163L206 158L20 158C8.95429 158 -1.27213e-05 149.046 -1.38647e-05 138L-2.64017e-05 20C-2.73673e-05 8.95433 8.95428 1.78954e-05 20 1.69297e-05L263 -4.31401e-06C274.046 -5.27966e-06 283 8.95431 283 20L283 138C283 149.046 274.046 158 263 158L229 158L229 163L263 163Z"/>
</mask>
<path fill-rule="evenodd" clip-rule="evenodd" d="M263 163C274.046 163 283 171.954 283 183L283 279C283 290.046 274.046 299 263 299L62.7459 299C61.7535 311.832 48.1124 322 31.4305 322C14.8916 322 1.34171 312.006 0.143311 299.33C0.996095 305.885 8.08527 311 16.7044 311C25.4674 311 32.649 305.712 33.3029 299L20 299C8.95432 299 -7.4879e-07 290.046 -3.75918e-06 279L-1.21518e-05 183C-1.31174e-05 171.954 8.9543 163 20 163L206 163L206 158L20 158C8.95429 158 -1.27213e-05 149.046 -1.38647e-05 138L-2.64017e-05 20C-2.73673e-05 8.95433 8.95428 1.78954e-05 20 1.69297e-05L263 -4.31401e-06C274.046 -5.27966e-06 283 8.95431 283 20L283 138C283 149.046 274.046 158 263 158L229 158L229 163L263 163Z" fill="#FEFBF1"/>
<path d="M283 183L280 183L283 183ZM283 279L286 279L283 279ZM263 299L263 302H263L263 299ZM62.7459 299L59.7548 298.769L59.969 296L62.7459 296L62.7459 299ZM31.4305 322L31.4305 319L31.4305 322ZM0.143311 299.33L-2.84337 299.612L3.11824 298.943L0.143311 299.33ZM33.3029 299L33.3029 296L36.6093 296L36.2888 299.291L33.3029 299ZM20 299L20 296L20 299ZM-3.75918e-06 279L-3 279L-3 279L-3.75918e-06 279ZM206 163L209 163L209 166L206 166L206 163ZM206 158L206 155L209 155L209 158L206 158ZM-1.38647e-05 138L2.99999 138L-1.38647e-05 138ZM-2.64017e-05 20L-3.00003 20L-3.00003 20L-2.64017e-05 20ZM229 158L226 158L226 155L229 155L229 158ZM229 163L229 166L226 166L226 163L229 163ZM280 183C280 173.611 272.389 166 263 166L263 160C275.703 160 286 170.297 286 183L280 183ZM280 279L280 183L286 183L286 279L280 279ZM263 296C272.389 296 280 288.389 280 279L286 279C286 291.703 275.703 302 263 302L263 296ZM62.7459 296L263 296L263 302L62.7459 302L62.7459 296ZM31.4305 319C47.1864 319 58.9271 309.472 59.7548 298.769L65.737 299.231C64.5799 314.193 49.0385 325 31.4305 325L31.4305 319ZM3.12999 299.047C4.13084 309.634 15.8175 319 31.4305 319L31.4305 325C13.9657 325 -1.44743 314.378 -2.84337 299.612L3.12999 299.047ZM16.7044 314C7.16037 314 -1.71763 308.28 -2.83162 299.717L3.11824 298.943C3.70982 303.49 9.01017 308 16.7044 308L16.7044 314ZM36.2888 299.291C35.432 308.086 26.3933 314 16.7044 314L16.7044 308C24.5415 308 29.8661 303.339 30.317 298.709L36.2888 299.291ZM20 296L33.3029 296L33.3029 302L20 302L20 296ZM3 279C3 288.389 10.6112 296 20 296L20 302C7.29746 302 -3 291.703 -3 279L3 279ZM2.99999 183L3 279L-3 279L-3.00001 183L2.99999 183ZM20 166C10.6112 166 2.99999 173.611 2.99999 183L-3.00001 183C-3.00001 170.297 7.29745 160 20 160L20 166ZM206 166L20 166L20 160L206 160L206 166ZM209 158L209 163L203 163L203 158L209 158ZM206 161L20 161L20 155L206 155L206 161ZM20 161C7.29744 161 -3.00001 150.703 -3.00001 138L2.99999 138C2.99999 147.389 10.6111 155 20 155L20 161ZM-3.00001 138L-3.00003 20L2.99997 20L2.99999 138L-3.00001 138ZM-3.00003 20C-3.00003 7.29748 7.29742 -2.99998 20 -2.99998L20 3.00002C10.6111 3.00002 2.99997 10.6112 2.99997 20L-3.00003 20ZM20 -2.99998L263 -3L263 3L20 3.00002L20 -2.99998ZM263 -3C275.703 -3.00001 286 7.29745 286 20L280 20C280 10.6112 272.389 2.99999 263 3L263 -3ZM286 20L286 138L280 138L280 20L286 20ZM286 138C286 150.703 275.703 161 263 161L263 155C272.389 155 280 147.389 280 138L286 138ZM263 161L229 161L229 155L263 155L263 161ZM226 163L226 158L232 158L232 163L226 163ZM263 166L229 166L229 160L263 160L263 166Z" fill="black" mask="url(#path-1-inside-1)"/>
</svg>
