<svg width="80" height="42" viewBox="0 0 80 42" fill="none" xmlns="http://www.w3.org/2000/svg">
<path fill-rule="evenodd" clip-rule="evenodd" d="M61.3585 0.00185511C61.2697 0.00061977 61.1808 0 61.0917 0C51.007 0 42.8318 7.93972 42.8318 17.7339C42.8318 18.3427 42.8634 18.9444 42.9251 19.5374H42.907C42.9309 19.7013 42.9563 19.8647 42.9832 20.0275C43.116 21.0267 43.3345 21.9998 43.6312 22.9397C46.0903 31.6748 52.8215 38.702 61.242 42.0001V35.4671C61.2809 35.4668 61.3197 35.4664 61.3586 35.4659C61.4448 35.4671 61.5312 35.4677 61.6177 35.4677C71.4118 35.4677 79.3516 27.528 79.3516 17.7339C79.3516 7.93972 71.4118 0 61.6177 0C61.5312 0 61.4448 0.00061977 61.3585 0.00185511Z" fill="#D6FBF5"/>
<path fill-rule="evenodd" clip-rule="evenodd" d="M18.5265 0.00185511C18.4377 0.00061977 18.3488 0 18.2597 0C8.17502 0 -0.000205994 7.93972 -0.000205994 17.7339C-0.000205994 18.3427 0.0313873 18.9444 0.0930672 19.5374H0.074913C0.098877 19.7016 0.124329 19.8653 0.151249 20.0285C0.284081 21.027 0.502426 21.9995 0.798923 22.9388C3.25777 31.6743 9.98917 38.7019 18.4099 42.0001V35.4671C18.4488 35.4668 18.4877 35.4664 18.5265 35.4659C18.6128 35.4671 18.6991 35.4677 18.7857 35.4677C28.5798 35.4677 36.5195 27.528 36.5195 17.7339C36.5195 7.93972 28.5798 0 18.7857 0C18.6991 0 18.6127 0.00061977 18.5265 0.00185511Z" fill="#00EDD3"/>
<path fill-rule="evenodd" clip-rule="evenodd" d="M43.1631 14.3524C43.2863 14.9721 43.4427 15.5803 43.6305 16.1751C46.0891 24.9111 52.8207 31.939 61.2417 35.2373V28.7041C61.2806 28.7038 61.3195 28.7034 61.3583 28.7029C61.4445 28.7041 61.5309 28.7047 61.6174 28.7047C70.2552 28.7047 77.4506 22.5292 79.0293 14.3524C77.4506 6.17558 70.2552 0 61.6174 0C61.5309 0 61.4445 0.00061977 61.3583 0.00185511C61.2695 0.00061977 61.1805 0 61.0914 0C52.1974 0 44.7886 6.17558 43.1631 14.3524Z" fill="#96F4E4"/>
<path fill-rule="evenodd" clip-rule="evenodd" d="M0.332085 14.3524C0.455212 14.9717 0.611526 15.5796 0.799152 16.1742C3.25758 24.9106 9.98933 31.9389 18.4106 35.2373V28.7041C18.4495 28.7038 18.4884 28.7034 18.5272 28.7029C18.6135 28.7041 18.6999 28.7047 18.7864 28.7047C27.4242 28.7047 34.6196 22.5292 36.1982 14.3524C34.6196 6.17558 27.4242 0 18.7864 0C18.6999 0 18.6135 0.00061977 18.5272 0.00185511C18.4384 0.00061977 18.3495 0 18.2604 0C9.36639 0 1.95757 6.17558 0.332085 14.3524Z" fill="#96F4E4"/>
<path fill-rule="evenodd" clip-rule="evenodd" d="M44.1599 11.0823C46.9658 19.0399 53.3648 25.3889 61.2422 28.4742V21.9414C61.2586 21.9412 61.275 21.9411 61.2914 21.9409C61.3139 21.9407 61.3363 21.9404 61.3587 21.9401C61.445 21.9413 61.5313 21.942 61.6179 21.942C69.0172 21.942 75.3581 17.4103 78.0166 10.971C75.3581 4.53165 69.0172 0 61.6179 0C61.5313 0 61.445 0.00061977 61.3587 0.00185511C61.2699 0.00061977 61.181 0 61.0919 0C53.4293 0 46.869 4.58392 44.1599 11.0823Z" fill="#00EDD3"/>
<path fill-rule="evenodd" clip-rule="evenodd" d="M1.32784 11.0823C4.13381 19.04 10.5328 25.3889 18.4101 28.4742V21.9414C18.449 21.9411 18.4878 21.9406 18.5267 21.9401C18.6129 21.9413 18.6993 21.942 18.7858 21.942C26.1852 21.942 32.5261 17.4103 35.1846 10.971C32.5261 4.53165 26.1852 0 18.7858 0C18.6993 0 18.6129 0.00061977 18.5267 0.00185511C18.4379 0.00061977 18.3489 0 18.2598 0C10.5972 0 4.03698 4.58394 1.32784 11.0823Z" fill="#D6FBF5"/>
</svg>
