<svg width="42" height="57" viewBox="0 0 42 57" fill="none" xmlns="http://www.w3.org/2000/svg">
<path d="M14.25 45.0859C13 46.3359 11.8125 46.9609 10.6875 46.9609C9.96875 46.9609 9.48438 46.6953 9.23438 46.1641C9.59375 45.7266 9.77344 45.0703 9.77344 44.1953V43.8438C9.77344 43.75 9.76562 43.6641 9.75 43.5859C8.96875 42.8828 8.57812 42.0547 8.57812 41.1016C8.57812 40.1328 9.03125 39.1484 9.9375 38.1484C9.67188 37.6172 9.53906 37.0547 9.53906 36.4609C9.53906 35.8516 9.625 35.2891 9.79688 34.7734C9.98438 34.2422 10.2344 33.7812 10.5469 33.3906C11.2031 32.5312 11.8438 32.1016 12.4688 32.1016C13.1094 32.1016 13.5625 32.3516 13.8281 32.8516C13.2656 33.4453 12.9844 34.375 12.9844 35.6406C12.9844 36.9062 13.1641 38.0078 13.5234 38.9453C13.8984 39.8828 14.4219 40.6875 15.0938 41.3594C16.5312 42.8281 18.3672 43.5625 20.6016 43.5625C22.1016 43.5625 23.375 43.1328 24.4219 42.2734C25.5469 41.3516 26.1094 40.0938 26.1094 38.5C26.1094 37.375 25.8438 36.4609 25.3125 35.7578C24.4844 34.6641 23.1875 33.5078 21.4219 32.2891C20.0625 31.3359 18.9766 30.8594 18.1641 30.8594C17.3359 30.8594 16.4219 31.1953 15.4219 31.8672C15.6875 31.0703 15.8203 30.3281 15.8203 29.6406C15.8203 29.4844 15.6719 29.2812 15.375 29.0312L14.5078 28.2578C11.7734 25.7422 10.1562 23.4062 9.65625 21.25C9.48438 20.5 9.39844 19.5625 9.39844 18.4375C9.39844 17.2969 9.67188 16.1484 10.2188 14.9922C10.7812 13.8203 11.5469 12.8281 12.5156 12.0156C14.5312 10.2969 17.0938 9.4375 20.2031 9.4375C22.0938 9.4375 23.8281 9.74219 25.4062 10.3516C26.0781 10.6172 26.8438 10.75 27.7031 10.75C28.0625 10.75 28.3828 10.7344 28.6641 10.7031C28.9609 10.6562 29.2188 10.4922 29.4375 10.2109C29.6406 9.91406 29.7422 9.64844 29.7422 9.41406C29.7422 9.17969 29.7109 8.98438 29.6484 8.82812C29.7578 8.78125 29.9062 8.75781 30.0938 8.75781C30.2969 8.75781 30.5156 8.82812 30.75 8.96875C30.9844 9.09375 31.1953 9.27344 31.3828 9.50781C31.8047 10.0391 32.0156 10.6406 32.0156 11.3125C32.0156 11.9688 31.8281 12.4687 31.4531 12.8125C31.9844 13.2812 32.25 14.0078 32.25 14.9922C32.25 15.9609 31.9219 16.7734 31.2656 17.4297C31.3906 17.8516 31.4531 18.2344 31.4531 18.5781C31.4531 18.9062 31.3906 19.2266 31.2656 19.5391C31.1562 19.8359 31 20.0938 30.7969 20.3125C30.3438 20.7969 29.9141 21.0391 29.5078 21.0391C28.8672 21.0391 28.3281 20.9297 27.8906 20.7109C28.1562 20.0859 28.2891 19.4141 28.2891 18.6953C28.2891 17.9766 28.125 17.2422 27.7969 16.4922C27.4844 15.7266 27.0391 15.0625 26.4609 14.5C25.2422 13.3438 23.6484 12.7656 21.6797 12.7656C20.4297 12.7656 19.4062 13.1484 18.6094 13.9141C17.8594 14.6328 17.4844 15.5 17.4844 16.5156C17.4844 17.2812 17.6719 17.9219 18.0469 18.4375C18.7031 19.3281 19.7422 20.25 21.1641 21.2031L22.2891 21.9531C22.9141 22.3438 23.3359 22.5391 23.5547 22.5391C23.7734 22.5391 23.9922 22.5156 24.2109 22.4688C24.4297 22.4219 24.6719 22.3594 24.9375 22.2812C25.5 22.0938 26.0469 21.8281 26.5781 21.4844L26.2734 22.7969C26.1797 23.2344 26.1328 23.5547 26.1328 23.7578C26.1328 24.0859 26.2969 24.3828 26.625 24.6484C29.5469 27.1797 31.5 29.2969 32.4844 31C33.3438 32.4844 33.7734 34.0859 33.7734 35.8047C33.7734 37.5234 33.4922 39 32.9297 40.2344C32.3672 41.4688 31.5469 42.5625 30.4688 43.5156C28.0938 45.6406 25.0078 46.7031 21.2109 46.7031C18.5391 46.7031 16.2188 46.1641 14.25 45.0859ZM12.6562 16.7031C12.0625 16.9531 11.7656 17.6016 11.7656 18.6484C11.7656 20.7891 13.1953 23.1406 16.0547 25.7031L17.4609 26.9688C17.9453 27.4062 18.1562 27.7422 18.0938 27.9766C18.0469 28.2109 18 28.3984 17.9531 28.5391C17.9219 28.6797 17.8828 28.8125 17.8359 28.9375C17.7891 29.0625 17.7578 29.1562 17.7422 29.2188C18.2891 28.8906 18.7344 28.7266 19.0781 28.7266C19.7656 28.7266 20.4141 28.9141 21.0234 29.2891C24.0391 31.1641 26.0859 32.8359 27.1641 34.3047C27.9453 35.3828 28.3516 36.7266 28.3828 38.3359C28.3828 38.9141 28.3438 39.3984 28.2656 39.7891C29.0938 39.2578 29.5078 38.4141 29.5078 37.2578C29.5078 36.1328 29.3516 35.2656 29.0391 34.6562C28.7422 34.0469 28.3906 33.5078 27.9844 33.0391C27.5781 32.5547 27.0469 32.0312 26.3906 31.4688C25.75 30.9062 24.9531 30.2969 24 29.6406L20.6719 27.3672C17.9375 25.5703 15.8594 23.6719 14.4375 21.6719C13.1875 19.9062 12.5938 18.25 12.6562 16.7031Z" fill="black"/>
<rect x="1.5" y="1.5" width="39" height="54" stroke="black" stroke-width="3"/>
</svg>
