<svg width="73" height="81" viewBox="0 0 73 81" fill="none" xmlns="http://www.w3.org/2000/svg">
<path d="M59.6797 58.3047C60.1484 59.4505 61.099 60.5443 62.5312 61.5859C61.6198 61.9505 60.474 62.8099 59.0938 64.1641C57.7396 65.5182 56.2161 66.7292 54.5234 67.7969C52.8307 68.8646 51.151 69.724 49.4844 70.375C46.4635 71.5729 43.1953 72.1719 39.6797 72.1719C36.1901 72.1719 33.013 71.7552 30.1484 70.9219C27.3099 70.0885 24.9531 68.9557 23.0781 67.5234C19.4062 64.6849 17.5703 60.9089 17.5703 56.1953V45.375C17.5703 44.1771 17.3229 43.2917 16.8281 42.7188C16.0469 41.7552 14.7057 40.8047 12.8047 39.8672C14.5755 39.0599 15.7214 38.3438 16.2422 37.7188C17.1276 36.7031 17.5703 35.5573 17.5703 34.2812V17.7969C16.6849 15.7917 15.0833 14.7891 12.7656 14.7891C11.8802 14.7891 11.151 15.0104 10.5781 15.4531C10.2917 15.0625 10.1484 14.6198 10.1484 14.125C10.1484 13.6042 10.2917 13.1224 10.5781 12.6797C10.8906 12.237 11.3073 11.8594 11.8281 11.5469C13.026 10.8177 14.3932 10.4531 15.9297 10.4531C17.4922 10.4531 18.9245 10.8828 20.2266 11.7422C21.5807 10.8828 23.0911 10.4531 24.7578 10.4531C26.4245 10.4531 27.9349 10.8828 29.2891 11.7422C30.5911 10.8828 31.8151 10.4531 32.9609 10.4531C34.1068 10.4531 35.0443 10.5573 35.7734 10.7656C36.5026 10.9479 37.1406 11.2083 37.6875 11.5469C38.8073 12.224 39.3672 13.0703 39.3672 14.0859C39.3672 14.6068 39.224 15.0625 38.9375 15.4531C38.3646 15.0104 37.6354 14.7891 36.75 14.7891C34.4323 14.7891 32.8307 15.7917 31.9453 17.7969V34.2812C31.9453 35.5573 32.2188 36.5078 32.7656 37.1328C33.625 38.1484 34.9401 39.0599 36.7109 39.8672C34.8099 40.8047 33.599 41.5729 33.0781 42.1719C32.3229 43.1094 31.9453 44.1771 31.9453 45.375V56.2734C31.9453 59.4245 33.1302 62.0156 35.5 64.0469C37.6875 65.8958 40.1745 66.8203 42.9609 66.8203C45.8776 66.8203 48.4688 65.9219 50.7344 64.125C53.0521 62.3021 54.2109 60.0885 54.2109 57.4844V45.0234C54.2109 43.8776 53.9635 43.0312 53.4688 42.4844C52.7135 41.6771 51.3724 40.8047 49.4453 39.8672C51.2422 38.9818 52.401 38.2656 52.9219 37.7188C53.7812 36.8073 54.2109 35.7917 54.2109 34.6719V17.2891C53.0911 15.6224 51.724 14.7891 50.1094 14.7891C48.4948 14.7891 47.3099 15.0104 46.5547 15.4531C46.2682 14.9844 46.125 14.3464 46.125 13.5391C46.125 12.7057 46.5286 11.9896 47.3359 11.3906C48.1432 10.7656 49.1979 10.4531 50.5 10.4531C51.8021 10.4531 52.9609 10.7917 53.9766 11.4688C54.888 10.7917 55.9297 10.4531 57.1016 10.4531C58.2995 10.4531 59.3542 10.8047 60.2656 11.5078C61.2812 10.8047 62.401 10.4531 63.625 10.4531C64.849 10.4531 65.8255 10.7786 66.5547 11.4297C67.3099 12.0547 67.6875 12.7839 67.6875 13.6172C67.6875 14.4505 67.5573 15.0625 67.2969 15.4531C66.5417 15.0104 65.3307 14.7891 63.6641 14.7891C62.0234 14.7891 60.6953 15.6224 59.6797 17.2891V34.6719C59.6797 35.8177 59.9271 36.651 60.4219 37.1719C61.2031 37.9792 62.6745 38.8776 64.8359 39.8672C62.5443 40.987 61.1771 41.7682 60.7344 42.2109C60.0312 42.9141 59.6797 43.8516 59.6797 45.0234V58.3047ZM23.3516 60.6484C23.5859 59.2422 23.7031 54.737 23.7031 47.1328C23.7031 39.5026 23.6901 34.8411 23.6641 33.1484C23.6641 31.4297 23.651 30.0495 23.625 29.0078C23.5469 25.9349 23.2474 24.0859 22.7266 23.4609C22.2318 22.8099 21.763 22.3802 21.3203 22.1719C21.3203 31.2344 21.1641 36.3906 20.8516 37.6406C20.487 38.6823 19.6016 39.4245 18.1953 39.8672C19.7578 40.4141 20.6432 41.0781 20.8516 41.8594C21.1641 43.1094 21.3203 45.8047 21.3203 49.9453C21.3203 54.0859 21.3724 56.5339 21.4766 57.2891C21.6068 58.0443 21.776 58.6562 21.9844 59.125C22.3229 59.9583 22.7786 60.4661 23.3516 60.6484Z" fill="black"/>
<rect x="1.5" y="1.5" width="70" height="78" stroke="black" stroke-width="3"/>
</svg>
