<svg width="46" height="58" viewBox="0 0 46 58" fill="none" xmlns="http://www.w3.org/2000/svg">
<g clip-path="url(#clip0)">
<path d="M41.9581 29.749H4.81165C3.65684 29.749 2.88696 28.9791 2.88696 27.8243V9.92469C2.88696 8.76987 3.65684 8 4.81165 8H41.9581C43.1129 8 43.8828 8.76987 43.8828 9.92469V27.8243C43.8828 28.9791 43.1129 29.749 41.9581 29.749ZM6.73634 25.8996H40.0334V11.8494H6.73634V25.8996Z" fill="#00EDD3"/>
<path d="M13.8577 54.1927C12.7029 54.1927 11.9331 53.4228 11.9331 52.268V48.4186C11.9331 48.2262 11.5481 48.0337 10.7782 48.0337H5.00418C4.23431 48.0337 3.84937 48.4186 3.84937 48.4186V52.268C3.84937 53.4228 3.0795 54.1927 1.92469 54.1927C0.769875 54.1927 0 53.4228 0 52.268V48.4186C0 46.109 2.30962 44.1843 5.00418 44.1843H10.7782C13.4728 44.1843 15.7824 46.109 15.7824 48.4186V52.268C15.7824 53.4228 15.0126 54.1927 13.8577 54.1927Z" fill="#00EDD3"/>
<path d="M7.89116 43.6068C4.81166 43.6068 2.30957 41.1047 2.30957 38.0252C2.30957 34.9457 4.81166 32.4436 7.89116 32.4436C10.9707 32.4436 13.4728 34.9457 13.4728 38.0252C13.4728 41.1047 10.9707 43.6068 7.89116 43.6068ZM7.89116 36.293C6.92882 36.293 6.15894 37.0629 6.15894 38.0252C6.15894 38.9875 6.92882 39.7574 7.89116 39.7574C8.8535 39.7574 9.62338 38.9875 9.62338 38.0252C9.62338 37.0629 8.8535 36.293 7.89116 36.293Z" fill="#00EDD3"/>
<path d="M29.0626 54.1927C27.9078 54.1927 27.1379 53.4228 27.1379 52.268V48.4186C27.1379 48.2262 26.753 48.0337 25.9831 48.0337H20.209C19.4391 48.0337 19.0542 48.4186 19.0542 48.4186V52.268C19.0542 53.4228 18.2843 54.1927 17.1295 54.1927C15.9747 54.1927 15.2048 53.4228 15.2048 52.268V48.4186C15.2048 46.109 17.5145 44.1843 20.209 44.1843H25.9831C28.6776 44.1843 30.9873 46.109 30.9873 48.4186V52.268C30.9873 53.4228 30.0249 54.1927 29.0626 54.1927Z" fill="#00EDD3"/>
<path d="M23.096 43.6068C20.0165 43.6068 17.5144 41.1047 17.5144 38.0252C17.5144 34.9457 20.0165 32.4436 23.096 32.4436C26.1755 32.4436 28.6776 34.9457 28.6776 38.0252C28.6776 41.1047 26.1755 43.6068 23.096 43.6068ZM23.096 36.293C22.1337 36.293 21.3638 37.0629 21.3638 38.0252C21.3638 38.9875 22.1337 39.7574 23.096 39.7574C24.0583 39.7574 24.8282 38.9875 24.8282 38.0252C24.8282 37.0629 24.0583 36.293 23.096 36.293Z" fill="#00EDD3"/>
<path d="M44.0753 54.1927C42.9205 54.1927 42.1506 53.4228 42.1506 52.268V48.4186C42.1506 48.2262 41.7656 48.0337 40.9958 48.0337H35.2217C34.4518 48.0337 34.0669 48.4186 34.0669 48.4186V52.268C34.0669 53.4228 33.297 54.1927 32.1422 54.1927C30.9874 54.1927 30.2175 53.4228 30.2175 52.268V48.4186C30.2175 46.109 32.5272 44.1843 35.2217 44.1843H40.9958C43.6903 44.1843 46 46.109 46 48.4186V52.268C46 53.4228 45.2301 54.1927 44.0753 54.1927Z" fill="#00EDD3"/>
<path d="M38.3011 43.6068C35.2216 43.6068 32.7195 41.1047 32.7195 38.0252C32.7195 34.9457 35.2216 32.4436 38.3011 32.4436C41.3806 32.4436 43.8827 34.9457 43.8827 38.0252C43.8827 41.1047 41.3806 43.6068 38.3011 43.6068ZM38.3011 36.293C37.3387 36.293 36.5689 37.0629 36.5689 38.0252C36.5689 38.9875 37.3387 39.7574 38.3011 39.7574C39.2634 39.7574 40.0333 38.9875 40.0333 38.0252C40.0333 37.0629 39.2634 36.293 38.3011 36.293Z" fill="#00EDD3"/>
<path d="M19.8246 23.2048C18.6698 23.2048 17.8999 22.4349 17.8999 21.2801V16.4684C17.8999 15.3136 18.6698 14.5437 19.8246 14.5437C20.9794 14.5437 21.7493 15.3136 21.7493 16.4684V21.2801C21.7493 22.4349 20.9794 23.2048 19.8246 23.2048Z" fill="#00EDD3"/>
<path d="M26.9457 23.2048C25.7909 23.2048 25.021 22.4349 25.021 21.2801V16.4684C25.021 15.3136 25.7909 14.5437 26.9457 14.5437C28.1005 14.5437 28.8704 15.3136 28.8704 16.4684V21.2801C28.8704 22.4349 28.1005 23.2048 26.9457 23.2048Z" fill="#00EDD3"/>
</g>
<defs>
<clipPath id="clip0">
<rect width="46" height="58" fill="white"/>
</clipPath>
</defs>
</svg>
