<svg width="73" height="81" viewBox="0 0 73 81" fill="none" xmlns="http://www.w3.org/2000/svg">
<path d="M40.0312 68.5312C38.7031 69.3646 37.1927 69.7812 35.5 69.7812C33.8073 69.7812 32.2969 69.3646 30.9688 68.5312C29.6406 69.3646 28.4036 69.7812 27.2578 69.7812C26.138 69.7812 25.1875 69.6771 24.4062 69.4688C23.651 69.2865 22.974 69.026 22.375 68.6875C21.125 68.0104 20.5 67.1641 20.5 66.1484C20.5 65.6276 20.6432 65.1719 20.9297 64.7812C21.5026 65.224 22.2578 65.4453 23.1953 65.4453C24.1589 65.4453 25.1224 65.1979 26.0859 64.7031C27.0755 64.2083 27.8177 63.4401 28.3125 62.3984V54.7031C28.3125 53.5052 28.0781 52.6198 27.6094 52.0469C26.776 51.0312 25.4219 50.0677 23.5469 49.1562C25.2917 48.349 26.4375 47.6458 26.9844 47.0469C27.8698 46.0312 28.3125 44.8854 28.3125 43.6094V42.2031L12.6094 15.0156C11.099 13.6615 9.75781 12.9844 8.58594 12.9844C7.41406 12.9844 6.48958 13.2057 5.8125 13.6484C5.52604 13.4401 5.38281 13.0495 5.38281 12.4766C5.38281 11.9036 5.47396 11.3828 5.65625 10.9141C5.83854 10.4193 6.125 9.98958 6.51562 9.625C7.34896 8.84375 8.5599 8.45312 10.1484 8.45312C11.737 8.45312 13.1432 8.90885 14.3672 9.82031C15.6693 8.90885 17.2057 8.45312 18.9766 8.45312C20.7734 8.45312 22.2448 8.89583 23.3906 9.78125C24.7708 8.89583 26.0599 8.45312 27.2578 8.45312C28.4557 8.45312 29.4193 8.54427 30.1484 8.72656C30.8776 8.88281 31.5156 9.13021 32.0625 9.46875C33.2344 10.1458 33.8464 11.0833 33.8984 12.2812C33.8984 13.0104 33.7552 13.4661 33.4688 13.6484C32.7656 13.2057 32.0625 12.9844 31.3594 12.9844C29.849 12.9844 28.625 13.2578 27.6875 13.8047L39.3672 36.2266L50.4609 13.7656C49.3932 13.1146 48.1562 12.7891 46.75 12.7891C45.3698 12.7891 44.3021 13.0104 43.5469 13.4531C43.2865 13.0625 43.1562 12.4505 43.1562 11.6172C43.1562 10.7839 43.5078 10.0547 44.2109 9.42969C44.9141 8.77865 45.9167 8.45312 47.2188 8.45312C48.5208 8.45312 49.6406 8.79167 50.5781 9.46875C51.4115 8.79167 52.4271 8.45312 53.625 8.45312C54.8229 8.45312 55.8255 8.73958 56.6328 9.3125C57.7786 8.73958 58.9245 8.45312 60.0703 8.45312C61.2161 8.45312 62.1276 8.83073 62.8047 9.58594C63.5078 10.3151 63.8594 11.2656 63.8594 12.4375C63.8594 13.0365 63.7161 13.4401 63.4297 13.6484C62.7526 13.2057 61.9193 12.9844 60.9297 12.9844C59.2109 12.9844 57.6875 13.4531 56.3594 14.3906L42.6875 41.4609V43.6094C42.6875 44.8854 42.9609 45.8359 43.5078 46.4609C44.3932 47.4505 45.7083 48.349 47.4531 49.1562C45.5781 50.0677 44.3802 50.8359 43.8594 51.4609C43.0781 52.4245 42.6875 53.5052 42.6875 54.7031V62.3984C43.1562 63.4401 43.8724 64.2083 44.8359 64.7031C45.8255 65.1979 46.8021 65.4453 47.7656 65.4453C48.7292 65.4453 49.4974 65.224 50.0703 64.7812C50.3568 65.1719 50.5 65.6276 50.5 66.1484C50.5 66.6432 50.3307 67.112 49.9922 67.5547C49.6536 67.9974 49.1979 68.375 48.625 68.6875C47.3229 69.4167 45.8906 69.7812 44.3281 69.7812C42.7917 69.7812 41.3594 69.3646 40.0312 68.5312ZM32.0625 58.6484C33.4427 58.1276 34.1979 56.0833 34.3281 52.5156C34.3542 51.4219 34.3672 50.3021 34.3672 49.1562V42.6328C34.3672 41.3828 34.1328 40.3542 33.6641 39.5469L25.6562 25.0547C24.5365 23.1016 23.7292 21.8906 23.2344 21.4219C22.4531 20.6927 21.5156 20.276 20.4219 20.1719L32.1406 41.8906V43.8047C32.1406 45.3411 32.0365 46.3958 31.8281 46.9688C31.5156 47.9583 30.5521 48.7005 28.9375 49.1953C30.6823 49.8464 31.6719 50.6406 31.9062 51.5781C32.0885 52.3073 32.1797 53.1667 32.1797 54.1562C32.1797 55.1198 32.1536 55.9661 32.1016 56.6953C32.0755 57.4245 32.0625 58.0755 32.0625 58.6484Z" fill="black"/>
<rect x="1.5" y="1.5" width="70" height="78" stroke="black" stroke-width="3"/>
</svg>
